<?xml version="1.0" encoding="utf-8" standalone="no"?>
<!DOCTYPE svg PUBLIC "-//W3C//DTD SVG 1.1//EN"
  "http://www.w3.org/Graphics/SVG/1.1/DTD/svg11.dtd">
<svg xmlns:xlink="http://www.w3.org/1999/xlink" width="713.190938pt" height="424.729687pt" viewBox="0 0 713.190938 424.729687" xmlns="http://www.w3.org/2000/svg" version="1.1">
 <metadata>
  <rdf:RDF xmlns:dc="http://purl.org/dc/elements/1.1/" xmlns:cc="http://creativecommons.org/ns#" xmlns:rdf="http://www.w3.org/1999/02/22-rdf-syntax-ns#">
   <cc:Work>
    <dc:type rdf:resource="http://purl.org/dc/dcmitype/StillImage"/>
    <dc:date>2023-06-29T18:55:12.202051</dc:date>
    <dc:format>image/svg+xml</dc:format>
    <dc:creator>
     <cc:Agent>
      <dc:title>Matplotlib v3.7.1, https://matplotlib.org/</dc:title>
     </cc:Agent>
    </dc:creator>
   </cc:Work>
  </rdf:RDF>
 </metadata>
 <defs>
  <style type="text/css">*{stroke-linejoin: round; stroke-linecap: butt}</style>
 </defs>
 <g id="figure_1">
  <g id="patch_1">
   <path d="M 0 424.729687 
L 713.190938 424.729687 
L 713.190938 0 
L 0 0 
z
" style="fill: #ffffff"/>
  </g>
  <g id="axes_1">
   <g id="patch_2">
    <path d="M 65.120937 371.299375 
L 705.990938 371.299375 
L 705.990938 27.759375 
L 65.120937 27.759375 
z
" style="fill: #ffffff"/>
   </g>
   <g id="matplotlib.axis_1">
    <g id="xtick_1">
     <g id="line2d_1">
      <defs>
       <path id="mc2bc684b14" d="M 0 0 
L 0 3.5 
" style="stroke: #262626; stroke-width: 0.8"/>
      </defs>
      <g>
       <use xlink:href="#mc2bc684b14" x="94.251392" y="371.299375" style="fill: #262626; stroke: #262626; stroke-width: 0.8"/>
      </g>
     </g>
     <g id="text_1">
      <!-- 0 -->
      <g style="fill: #262626" transform="translate(89.246548 391.183437) scale(0.18 -0.18)">
       <defs>
        <path id="ArialMT-30" d="M 266 2259 
Q 266 3072 433 3567 
Q 600 4063 929 4331 
Q 1259 4600 1759 4600 
Q 2128 4600 2406 4451 
Q 2684 4303 2865 4023 
Q 3047 3744 3150 3342 
Q 3253 2941 3253 2259 
Q 3253 1453 3087 958 
Q 2922 463 2592 192 
Q 2263 -78 1759 -78 
Q 1097 -78 719 397 
Q 266 969 266 2259 
z
M 844 2259 
Q 844 1131 1108 757 
Q 1372 384 1759 384 
Q 2147 384 2411 759 
Q 2675 1134 2675 2259 
Q 2675 3391 2411 3762 
Q 2147 4134 1753 4134 
Q 1366 4134 1134 3806 
Q 844 3388 844 2259 
z
" transform="scale(0.015625)"/>
       </defs>
       <use xlink:href="#ArialMT-30"/>
      </g>
     </g>
    </g>
    <g id="xtick_2">
     <g id="line2d_2">
      <g>
       <use xlink:href="#mc2bc684b14" x="226.497029" y="371.299375" style="fill: #262626; stroke: #262626; stroke-width: 0.8"/>
      </g>
     </g>
     <g id="text_2">
      <!-- 10 -->
      <g style="fill: #262626" transform="translate(216.487341 391.183437) scale(0.18 -0.18)">
       <defs>
        <path id="ArialMT-31" d="M 2384 0 
L 1822 0 
L 1822 3584 
Q 1619 3391 1289 3197 
Q 959 3003 697 2906 
L 697 3450 
Q 1169 3672 1522 3987 
Q 1875 4303 2022 4600 
L 2384 4600 
L 2384 0 
z
" transform="scale(0.015625)"/>
       </defs>
       <use xlink:href="#ArialMT-31"/>
       <use xlink:href="#ArialMT-30" x="55.615234"/>
      </g>
     </g>
    </g>
    <g id="xtick_3">
     <g id="line2d_3">
      <g>
       <use xlink:href="#mc2bc684b14" x="358.742666" y="371.299375" style="fill: #262626; stroke: #262626; stroke-width: 0.8"/>
      </g>
     </g>
     <g id="text_3">
      <!-- 20 -->
      <g style="fill: #262626" transform="translate(348.732978 391.183437) scale(0.18 -0.18)">
       <defs>
        <path id="ArialMT-32" d="M 3222 541 
L 3222 0 
L 194 0 
Q 188 203 259 391 
Q 375 700 629 1000 
Q 884 1300 1366 1694 
Q 2113 2306 2375 2664 
Q 2638 3022 2638 3341 
Q 2638 3675 2398 3904 
Q 2159 4134 1775 4134 
Q 1369 4134 1125 3890 
Q 881 3647 878 3216 
L 300 3275 
Q 359 3922 746 4261 
Q 1134 4600 1788 4600 
Q 2447 4600 2831 4234 
Q 3216 3869 3216 3328 
Q 3216 3053 3103 2787 
Q 2991 2522 2730 2228 
Q 2469 1934 1863 1422 
Q 1356 997 1212 845 
Q 1069 694 975 541 
L 3222 541 
z
" transform="scale(0.015625)"/>
       </defs>
       <use xlink:href="#ArialMT-32"/>
       <use xlink:href="#ArialMT-30" x="55.615234"/>
      </g>
     </g>
    </g>
    <g id="xtick_4">
     <g id="line2d_4">
      <g>
       <use xlink:href="#mc2bc684b14" x="490.988302" y="371.299375" style="fill: #262626; stroke: #262626; stroke-width: 0.8"/>
      </g>
     </g>
     <g id="text_4">
      <!-- 30 -->
      <g style="fill: #262626" transform="translate(480.978615 391.183437) scale(0.18 -0.18)">
       <defs>
        <path id="ArialMT-33" d="M 269 1209 
L 831 1284 
Q 928 806 1161 595 
Q 1394 384 1728 384 
Q 2125 384 2398 659 
Q 2672 934 2672 1341 
Q 2672 1728 2419 1979 
Q 2166 2231 1775 2231 
Q 1616 2231 1378 2169 
L 1441 2663 
Q 1497 2656 1531 2656 
Q 1891 2656 2178 2843 
Q 2466 3031 2466 3422 
Q 2466 3731 2256 3934 
Q 2047 4138 1716 4138 
Q 1388 4138 1169 3931 
Q 950 3725 888 3313 
L 325 3413 
Q 428 3978 793 4289 
Q 1159 4600 1703 4600 
Q 2078 4600 2393 4439 
Q 2709 4278 2876 4000 
Q 3044 3722 3044 3409 
Q 3044 3113 2884 2869 
Q 2725 2625 2413 2481 
Q 2819 2388 3044 2092 
Q 3269 1797 3269 1353 
Q 3269 753 2831 336 
Q 2394 -81 1725 -81 
Q 1122 -81 723 278 
Q 325 638 269 1209 
z
" transform="scale(0.015625)"/>
       </defs>
       <use xlink:href="#ArialMT-33"/>
       <use xlink:href="#ArialMT-30" x="55.615234"/>
      </g>
     </g>
    </g>
    <g id="xtick_5">
     <g id="line2d_5">
      <g>
       <use xlink:href="#mc2bc684b14" x="623.233939" y="371.299375" style="fill: #262626; stroke: #262626; stroke-width: 0.8"/>
      </g>
     </g>
     <g id="text_5">
      <!-- 40 -->
      <g style="fill: #262626" transform="translate(613.224252 391.183437) scale(0.18 -0.18)">
       <defs>
        <path id="ArialMT-34" d="M 2069 0 
L 2069 1097 
L 81 1097 
L 81 1613 
L 2172 4581 
L 2631 4581 
L 2631 1613 
L 3250 1613 
L 3250 1097 
L 2631 1097 
L 2631 0 
L 2069 0 
z
M 2069 1613 
L 2069 3678 
L 634 1613 
L 2069 1613 
z
" transform="scale(0.015625)"/>
       </defs>
       <use xlink:href="#ArialMT-34"/>
       <use xlink:href="#ArialMT-30" x="55.615234"/>
      </g>
     </g>
    </g>
    <g id="text_6">
     <!-- Post deflection (μm) -->
     <g style="fill: #262626" transform="translate(296.434063 413.320312) scale(0.2 -0.2)">
      <defs>
       <path id="ArialMT-50" d="M 494 0 
L 494 4581 
L 2222 4581 
Q 2678 4581 2919 4538 
Q 3256 4481 3484 4323 
Q 3713 4166 3852 3881 
Q 3991 3597 3991 3256 
Q 3991 2672 3619 2267 
Q 3247 1863 2275 1863 
L 1100 1863 
L 1100 0 
L 494 0 
z
M 1100 2403 
L 2284 2403 
Q 2872 2403 3119 2622 
Q 3366 2841 3366 3238 
Q 3366 3525 3220 3729 
Q 3075 3934 2838 4000 
Q 2684 4041 2272 4041 
L 1100 4041 
L 1100 2403 
z
" transform="scale(0.015625)"/>
       <path id="ArialMT-6f" d="M 213 1659 
Q 213 2581 725 3025 
Q 1153 3394 1769 3394 
Q 2453 3394 2887 2945 
Q 3322 2497 3322 1706 
Q 3322 1066 3130 698 
Q 2938 331 2570 128 
Q 2203 -75 1769 -75 
Q 1072 -75 642 372 
Q 213 819 213 1659 
z
M 791 1659 
Q 791 1022 1069 705 
Q 1347 388 1769 388 
Q 2188 388 2466 706 
Q 2744 1025 2744 1678 
Q 2744 2294 2464 2611 
Q 2184 2928 1769 2928 
Q 1347 2928 1069 2612 
Q 791 2297 791 1659 
z
" transform="scale(0.015625)"/>
       <path id="ArialMT-73" d="M 197 991 
L 753 1078 
Q 800 744 1014 566 
Q 1228 388 1613 388 
Q 2000 388 2187 545 
Q 2375 703 2375 916 
Q 2375 1106 2209 1216 
Q 2094 1291 1634 1406 
Q 1016 1563 777 1677 
Q 538 1791 414 1992 
Q 291 2194 291 2438 
Q 291 2659 392 2848 
Q 494 3038 669 3163 
Q 800 3259 1026 3326 
Q 1253 3394 1513 3394 
Q 1903 3394 2198 3281 
Q 2494 3169 2634 2976 
Q 2775 2784 2828 2463 
L 2278 2388 
Q 2241 2644 2061 2787 
Q 1881 2931 1553 2931 
Q 1166 2931 1000 2803 
Q 834 2675 834 2503 
Q 834 2394 903 2306 
Q 972 2216 1119 2156 
Q 1203 2125 1616 2013 
Q 2213 1853 2448 1751 
Q 2684 1650 2818 1456 
Q 2953 1263 2953 975 
Q 2953 694 2789 445 
Q 2625 197 2315 61 
Q 2006 -75 1616 -75 
Q 969 -75 630 194 
Q 291 463 197 991 
z
" transform="scale(0.015625)"/>
       <path id="ArialMT-74" d="M 1650 503 
L 1731 6 
Q 1494 -44 1306 -44 
Q 1000 -44 831 53 
Q 663 150 594 308 
Q 525 466 525 972 
L 525 2881 
L 113 2881 
L 113 3319 
L 525 3319 
L 525 4141 
L 1084 4478 
L 1084 3319 
L 1650 3319 
L 1650 2881 
L 1084 2881 
L 1084 941 
Q 1084 700 1114 631 
Q 1144 563 1211 522 
Q 1278 481 1403 481 
Q 1497 481 1650 503 
z
" transform="scale(0.015625)"/>
       <path id="ArialMT-20" transform="scale(0.015625)"/>
       <path id="ArialMT-64" d="M 2575 0 
L 2575 419 
Q 2259 -75 1647 -75 
Q 1250 -75 917 144 
Q 584 363 401 755 
Q 219 1147 219 1656 
Q 219 2153 384 2558 
Q 550 2963 881 3178 
Q 1213 3394 1622 3394 
Q 1922 3394 2156 3267 
Q 2391 3141 2538 2938 
L 2538 4581 
L 3097 4581 
L 3097 0 
L 2575 0 
z
M 797 1656 
Q 797 1019 1065 703 
Q 1334 388 1700 388 
Q 2069 388 2326 689 
Q 2584 991 2584 1609 
Q 2584 2291 2321 2609 
Q 2059 2928 1675 2928 
Q 1300 2928 1048 2622 
Q 797 2316 797 1656 
z
" transform="scale(0.015625)"/>
       <path id="ArialMT-65" d="M 2694 1069 
L 3275 997 
Q 3138 488 2766 206 
Q 2394 -75 1816 -75 
Q 1088 -75 661 373 
Q 234 822 234 1631 
Q 234 2469 665 2931 
Q 1097 3394 1784 3394 
Q 2450 3394 2872 2941 
Q 3294 2488 3294 1666 
Q 3294 1616 3291 1516 
L 816 1516 
Q 847 969 1125 678 
Q 1403 388 1819 388 
Q 2128 388 2347 550 
Q 2566 713 2694 1069 
z
M 847 1978 
L 2700 1978 
Q 2663 2397 2488 2606 
Q 2219 2931 1791 2931 
Q 1403 2931 1139 2672 
Q 875 2413 847 1978 
z
" transform="scale(0.015625)"/>
       <path id="ArialMT-66" d="M 556 0 
L 556 2881 
L 59 2881 
L 59 3319 
L 556 3319 
L 556 3672 
Q 556 4006 616 4169 
Q 697 4388 901 4523 
Q 1106 4659 1475 4659 
Q 1713 4659 2000 4603 
L 1916 4113 
Q 1741 4144 1584 4144 
Q 1328 4144 1222 4034 
Q 1116 3925 1116 3625 
L 1116 3319 
L 1763 3319 
L 1763 2881 
L 1116 2881 
L 1116 0 
L 556 0 
z
" transform="scale(0.015625)"/>
       <path id="ArialMT-6c" d="M 409 0 
L 409 4581 
L 972 4581 
L 972 0 
L 409 0 
z
" transform="scale(0.015625)"/>
       <path id="ArialMT-63" d="M 2588 1216 
L 3141 1144 
Q 3050 572 2676 248 
Q 2303 -75 1759 -75 
Q 1078 -75 664 370 
Q 250 816 250 1647 
Q 250 2184 428 2587 
Q 606 2991 970 3192 
Q 1334 3394 1763 3394 
Q 2303 3394 2647 3120 
Q 2991 2847 3088 2344 
L 2541 2259 
Q 2463 2594 2264 2762 
Q 2066 2931 1784 2931 
Q 1359 2931 1093 2626 
Q 828 2322 828 1663 
Q 828 994 1084 691 
Q 1341 388 1753 388 
Q 2084 388 2306 591 
Q 2528 794 2588 1216 
z
" transform="scale(0.015625)"/>
       <path id="ArialMT-69" d="M 425 3934 
L 425 4581 
L 988 4581 
L 988 3934 
L 425 3934 
z
M 425 0 
L 425 3319 
L 988 3319 
L 988 0 
L 425 0 
z
" transform="scale(0.015625)"/>
       <path id="ArialMT-6e" d="M 422 0 
L 422 3319 
L 928 3319 
L 928 2847 
Q 1294 3394 1984 3394 
Q 2284 3394 2536 3286 
Q 2788 3178 2913 3003 
Q 3038 2828 3088 2588 
Q 3119 2431 3119 2041 
L 3119 0 
L 2556 0 
L 2556 2019 
Q 2556 2363 2490 2533 
Q 2425 2703 2258 2804 
Q 2091 2906 1866 2906 
Q 1506 2906 1245 2678 
Q 984 2450 984 1813 
L 984 0 
L 422 0 
z
" transform="scale(0.015625)"/>
       <path id="ArialMT-28" d="M 1497 -1347 
Q 1031 -759 709 28 
Q 388 816 388 1659 
Q 388 2403 628 3084 
Q 909 3875 1497 4659 
L 1900 4659 
Q 1522 4009 1400 3731 
Q 1209 3300 1100 2831 
Q 966 2247 966 1656 
Q 966 153 1900 -1347 
L 1497 -1347 
z
" transform="scale(0.015625)"/>
       <path id="ArialMT-3bc" d="M 3181 3319 
L 3181 0 
L 2678 0 
L 2678 394 
Q 2516 144 2356 50 
Q 2138 -78 1847 -78 
Q 1588 -78 1388 25 
Q 1238 103 1056 334 
L 1056 -1272 
L 500 -1272 
L 500 3319 
L 1056 3319 
L 1056 1913 
Q 1056 1147 1137 920 
Q 1219 694 1401 562 
Q 1584 431 1822 431 
Q 2072 431 2269 568 
Q 2466 706 2547 923 
Q 2628 1141 2628 1903 
L 2628 3319 
L 3181 3319 
z
" transform="scale(0.015625)"/>
       <path id="ArialMT-6d" d="M 422 0 
L 422 3319 
L 925 3319 
L 925 2853 
Q 1081 3097 1340 3245 
Q 1600 3394 1931 3394 
Q 2300 3394 2536 3241 
Q 2772 3088 2869 2813 
Q 3263 3394 3894 3394 
Q 4388 3394 4653 3120 
Q 4919 2847 4919 2278 
L 4919 0 
L 4359 0 
L 4359 2091 
Q 4359 2428 4304 2576 
Q 4250 2725 4106 2815 
Q 3963 2906 3769 2906 
Q 3419 2906 3187 2673 
Q 2956 2441 2956 1928 
L 2956 0 
L 2394 0 
L 2394 2156 
Q 2394 2531 2256 2718 
Q 2119 2906 1806 2906 
Q 1569 2906 1367 2781 
Q 1166 2656 1075 2415 
Q 984 2175 984 1722 
L 984 0 
L 422 0 
z
" transform="scale(0.015625)"/>
       <path id="ArialMT-29" d="M 791 -1347 
L 388 -1347 
Q 1322 153 1322 1656 
Q 1322 2244 1188 2822 
Q 1081 3291 891 3722 
Q 769 4003 388 4659 
L 791 4659 
Q 1378 3875 1659 3084 
Q 1900 2403 1900 1659 
Q 1900 816 1576 28 
Q 1253 -759 791 -1347 
z
" transform="scale(0.015625)"/>
      </defs>
      <use xlink:href="#ArialMT-50"/>
      <use xlink:href="#ArialMT-6f" x="66.699219"/>
      <use xlink:href="#ArialMT-73" x="122.314453"/>
      <use xlink:href="#ArialMT-74" x="172.314453"/>
      <use xlink:href="#ArialMT-20" x="200.097656"/>
      <use xlink:href="#ArialMT-64" x="227.880859"/>
      <use xlink:href="#ArialMT-65" x="283.496094"/>
      <use xlink:href="#ArialMT-66" x="339.111328"/>
      <use xlink:href="#ArialMT-6c" x="366.894531"/>
      <use xlink:href="#ArialMT-65" x="389.111328"/>
      <use xlink:href="#ArialMT-63" x="444.726562"/>
      <use xlink:href="#ArialMT-74" x="494.726562"/>
      <use xlink:href="#ArialMT-69" x="522.509766"/>
      <use xlink:href="#ArialMT-6f" x="544.726562"/>
      <use xlink:href="#ArialMT-6e" x="600.341797"/>
      <use xlink:href="#ArialMT-20" x="655.957031"/>
      <use xlink:href="#ArialMT-28" x="683.740234"/>
      <use xlink:href="#ArialMT-3bc" x="717.041016"/>
      <use xlink:href="#ArialMT-6d" x="774.658203"/>
      <use xlink:href="#ArialMT-29" x="857.958984"/>
     </g>
    </g>
   </g>
   <g id="matplotlib.axis_2">
    <g id="ytick_1">
     <g id="line2d_6">
      <defs>
       <path id="mb5447d44ad" d="M 0 0 
L -3.5 0 
" style="stroke: #262626; stroke-width: 0.8"/>
      </defs>
      <g>
       <use xlink:href="#mb5447d44ad" x="65.120937" y="355.68392" style="fill: #262626; stroke: #262626; stroke-width: 0.8"/>
      </g>
     </g>
     <g id="text_7">
      <!-- 0 -->
      <g style="fill: #262626" transform="translate(48.11125 362.125952) scale(0.18 -0.18)">
       <use xlink:href="#ArialMT-30"/>
      </g>
     </g>
    </g>
    <g id="ytick_2">
     <g id="line2d_7">
      <g>
       <use xlink:href="#mb5447d44ad" x="65.120937" y="282.877262" style="fill: #262626; stroke: #262626; stroke-width: 0.8"/>
      </g>
     </g>
     <g id="text_8">
      <!-- 100 -->
      <g style="fill: #262626" transform="translate(28.091875 289.319293) scale(0.18 -0.18)">
       <use xlink:href="#ArialMT-31"/>
       <use xlink:href="#ArialMT-30" x="55.615234"/>
       <use xlink:href="#ArialMT-30" x="111.230469"/>
      </g>
     </g>
    </g>
    <g id="ytick_3">
     <g id="line2d_8">
      <g>
       <use xlink:href="#mb5447d44ad" x="65.120937" y="210.070603" style="fill: #262626; stroke: #262626; stroke-width: 0.8"/>
      </g>
     </g>
     <g id="text_9">
      <!-- 200 -->
      <g style="fill: #262626" transform="translate(28.091875 216.512634) scale(0.18 -0.18)">
       <use xlink:href="#ArialMT-32"/>
       <use xlink:href="#ArialMT-30" x="55.615234"/>
       <use xlink:href="#ArialMT-30" x="111.230469"/>
      </g>
     </g>
    </g>
    <g id="ytick_4">
     <g id="line2d_9">
      <g>
       <use xlink:href="#mb5447d44ad" x="65.120937" y="137.263944" style="fill: #262626; stroke: #262626; stroke-width: 0.8"/>
      </g>
     </g>
     <g id="text_10">
      <!-- 300 -->
      <g style="fill: #262626" transform="translate(28.091875 143.705976) scale(0.18 -0.18)">
       <use xlink:href="#ArialMT-33"/>
       <use xlink:href="#ArialMT-30" x="55.615234"/>
       <use xlink:href="#ArialMT-30" x="111.230469"/>
      </g>
     </g>
    </g>
    <g id="ytick_5">
     <g id="line2d_10">
      <g>
       <use xlink:href="#mb5447d44ad" x="65.120937" y="64.457286" style="fill: #262626; stroke: #262626; stroke-width: 0.8"/>
      </g>
     </g>
     <g id="text_11">
      <!-- 400 -->
      <g style="fill: #262626" transform="translate(28.091875 70.899317) scale(0.18 -0.18)">
       <use xlink:href="#ArialMT-34"/>
       <use xlink:href="#ArialMT-30" x="55.615234"/>
       <use xlink:href="#ArialMT-30" x="111.230469"/>
      </g>
     </g>
    </g>
    <g id="text_12">
     <!-- Wire deflection (μm) -->
     <g style="fill: #262626" transform="translate(20.303437 280.227031) rotate(-90) scale(0.18 -0.18)">
      <defs>
       <path id="ArialMT-57" d="M 1294 0 
L 78 4581 
L 700 4581 
L 1397 1578 
Q 1509 1106 1591 641 
Q 1766 1375 1797 1488 
L 2669 4581 
L 3400 4581 
L 4056 2263 
Q 4303 1400 4413 641 
Q 4500 1075 4641 1638 
L 5359 4581 
L 5969 4581 
L 4713 0 
L 4128 0 
L 3163 3491 
Q 3041 3928 3019 4028 
Q 2947 3713 2884 3491 
L 1913 0 
L 1294 0 
z
" transform="scale(0.015625)"/>
       <path id="ArialMT-72" d="M 416 0 
L 416 3319 
L 922 3319 
L 922 2816 
Q 1116 3169 1280 3281 
Q 1444 3394 1641 3394 
Q 1925 3394 2219 3213 
L 2025 2691 
Q 1819 2813 1613 2813 
Q 1428 2813 1281 2702 
Q 1134 2591 1072 2394 
Q 978 2094 978 1738 
L 978 0 
L 416 0 
z
" transform="scale(0.015625)"/>
      </defs>
      <use xlink:href="#ArialMT-57"/>
      <use xlink:href="#ArialMT-69" x="94.384766"/>
      <use xlink:href="#ArialMT-72" x="116.601562"/>
      <use xlink:href="#ArialMT-65" x="149.902344"/>
      <use xlink:href="#ArialMT-20" x="205.517578"/>
      <use xlink:href="#ArialMT-64" x="233.300781"/>
      <use xlink:href="#ArialMT-65" x="288.916016"/>
      <use xlink:href="#ArialMT-66" x="344.53125"/>
      <use xlink:href="#ArialMT-6c" x="372.314453"/>
      <use xlink:href="#ArialMT-65" x="394.53125"/>
      <use xlink:href="#ArialMT-63" x="450.146484"/>
      <use xlink:href="#ArialMT-74" x="500.146484"/>
      <use xlink:href="#ArialMT-69" x="527.929688"/>
      <use xlink:href="#ArialMT-6f" x="550.146484"/>
      <use xlink:href="#ArialMT-6e" x="605.761719"/>
      <use xlink:href="#ArialMT-20" x="661.376953"/>
      <use xlink:href="#ArialMT-28" x="689.160156"/>
      <use xlink:href="#ArialMT-3bc" x="722.460938"/>
      <use xlink:href="#ArialMT-6d" x="780.078125"/>
      <use xlink:href="#ArialMT-29" x="863.378906"/>
     </g>
    </g>
   </g>
   <g id="PathCollection_1">
    <defs>
     <path id="m243d450f24" d="M 0 5 
C 1.326016 5 2.597899 4.473168 3.535534 3.535534 
C 4.473168 2.597899 5 1.326016 5 0 
C 5 -1.326016 4.473168 -2.597899 3.535534 -3.535534 
C 2.597899 -4.473168 1.326016 -5 0 -5 
C -1.326016 -5 -2.597899 -4.473168 -3.535534 -3.535534 
C -4.473168 -2.597899 -5 -1.326016 -5 0 
C -5 1.326016 -4.473168 2.597899 -3.535534 3.535534 
C -2.597899 4.473168 -1.326016 5 0 5 
z
" style="stroke: #000000; stroke-opacity: 0.65"/>
    </defs>
    <g clip-path="url(#pc34e16d46e)">
     <use xlink:href="#m243d450f24" x="94.251392" y="355.68392" style="fill-opacity: 0.65; stroke: #000000; stroke-opacity: 0.65"/>
     <use xlink:href="#m243d450f24" x="101.628244" y="352.63881" style="fill-opacity: 0.65; stroke: #000000; stroke-opacity: 0.65"/>
     <use xlink:href="#m243d450f24" x="102.682879" y="350.854135" style="fill-opacity: 0.65; stroke: #000000; stroke-opacity: 0.65"/>
     <use xlink:href="#m243d450f24" x="100.821377" y="349.413266" style="fill-opacity: 0.65; stroke: #000000; stroke-opacity: 0.65"/>
     <use xlink:href="#m243d450f24" x="102.104695" y="347.769628" style="fill-opacity: 0.65; stroke: #000000; stroke-opacity: 0.65"/>
     <use xlink:href="#m243d450f24" x="108.098004" y="346.608724" style="fill-opacity: 0.65; stroke: #000000; stroke-opacity: 0.65"/>
     <use xlink:href="#m243d450f24" x="109.89251" y="345.81338" style="fill-opacity: 0.65; stroke: #000000; stroke-opacity: 0.65"/>
     <use xlink:href="#m243d450f24" x="112.327756" y="345.529013" style="fill-opacity: 0.65; stroke: #000000; stroke-opacity: 0.65"/>
     <use xlink:href="#m243d450f24" x="108.510476" y="345.075962" style="fill-opacity: 0.65; stroke: #000000; stroke-opacity: 0.65"/>
     <use xlink:href="#m243d450f24" x="107.166999" y="344.951554" style="fill-opacity: 0.65; stroke: #000000; stroke-opacity: 0.65"/>
     <use xlink:href="#m243d450f24" x="109.13719" y="344.714298" style="fill-opacity: 0.65; stroke: #000000; stroke-opacity: 0.65"/>
     <use xlink:href="#m243d450f24" x="110.666155" y="344.710372" style="fill-opacity: 0.65; stroke: #000000; stroke-opacity: 0.65"/>
     <use xlink:href="#m243d450f24" x="110.31188" y="344.602036" style="fill-opacity: 0.65; stroke: #000000; stroke-opacity: 0.65"/>
     <use xlink:href="#m243d450f24" x="109.361856" y="344.440068" style="fill-opacity: 0.65; stroke: #000000; stroke-opacity: 0.65"/>
     <use xlink:href="#m243d450f24" x="113.016445" y="344.306009" style="fill-opacity: 0.65; stroke: #000000; stroke-opacity: 0.65"/>
     <use xlink:href="#m243d450f24" x="112.87011" y="343.744382" style="fill-opacity: 0.65; stroke: #000000; stroke-opacity: 0.65"/>
     <use xlink:href="#m243d450f24" x="112.068237" y="343.124493" style="fill-opacity: 0.65; stroke: #000000; stroke-opacity: 0.65"/>
     <use xlink:href="#m243d450f24" x="113.43895" y="342.545182" style="fill-opacity: 0.65; stroke: #000000; stroke-opacity: 0.65"/>
     <use xlink:href="#m243d450f24" x="114.728274" y="342.043986" style="fill-opacity: 0.65; stroke: #000000; stroke-opacity: 0.65"/>
     <use xlink:href="#m243d450f24" x="115.694981" y="341.422902" style="fill-opacity: 0.65; stroke: #000000; stroke-opacity: 0.65"/>
     <use xlink:href="#m243d450f24" x="115.378666" y="340.880207" style="fill-opacity: 0.65; stroke: #000000; stroke-opacity: 0.65"/>
     <use xlink:href="#m243d450f24" x="118.083784" y="340.599913" style="fill-opacity: 0.65; stroke: #000000; stroke-opacity: 0.65"/>
     <use xlink:href="#m243d450f24" x="118.960138" y="340.064551" style="fill-opacity: 0.65; stroke: #000000; stroke-opacity: 0.65"/>
     <use xlink:href="#m243d450f24" x="119.989832" y="339.575045" style="fill-opacity: 0.65; stroke: #000000; stroke-opacity: 0.65"/>
     <use xlink:href="#m243d450f24" x="118.276512" y="338.978501" style="fill-opacity: 0.65; stroke: #000000; stroke-opacity: 0.65"/>
     <use xlink:href="#m243d450f24" x="118.115992" y="338.392822" style="fill-opacity: 0.65; stroke: #000000; stroke-opacity: 0.65"/>
     <use xlink:href="#m243d450f24" x="118.610437" y="337.353233" style="fill-opacity: 0.65; stroke: #000000; stroke-opacity: 0.65"/>
     <use xlink:href="#m243d450f24" x="117.1255" y="336.674527" style="fill-opacity: 0.65; stroke: #000000; stroke-opacity: 0.65"/>
     <use xlink:href="#m243d450f24" x="117.831341" y="336.077426" style="fill-opacity: 0.65; stroke: #000000; stroke-opacity: 0.65"/>
     <use xlink:href="#m243d450f24" x="118.613203" y="334.967912" style="fill-opacity: 0.65; stroke: #000000; stroke-opacity: 0.65"/>
     <use xlink:href="#m243d450f24" x="122.917134" y="333.49272" style="fill-opacity: 0.65; stroke: #000000; stroke-opacity: 0.65"/>
     <use xlink:href="#m243d450f24" x="123.009498" y="331.861764" style="fill-opacity: 0.65; stroke: #000000; stroke-opacity: 0.65"/>
     <use xlink:href="#m243d450f24" x="125.573092" y="330.582473" style="fill-opacity: 0.65; stroke: #000000; stroke-opacity: 0.65"/>
     <use xlink:href="#m243d450f24" x="126.614897" y="328.939383" style="fill-opacity: 0.65; stroke: #000000; stroke-opacity: 0.65"/>
     <use xlink:href="#m243d450f24" x="129.965553" y="327.096864" style="fill-opacity: 0.65; stroke: #000000; stroke-opacity: 0.65"/>
     <use xlink:href="#m243d450f24" x="135.142744" y="323.9687" style="fill-opacity: 0.65; stroke: #000000; stroke-opacity: 0.65"/>
     <use xlink:href="#m243d450f24" x="138.560229" y="319.972625" style="fill-opacity: 0.65; stroke: #000000; stroke-opacity: 0.65"/>
     <use xlink:href="#m243d450f24" x="139.742875" y="315.271737" style="fill-opacity: 0.65; stroke: #000000; stroke-opacity: 0.65"/>
     <use xlink:href="#m243d450f24" x="147.190451" y="309.224843" style="fill-opacity: 0.65; stroke: #000000; stroke-opacity: 0.65"/>
     <use xlink:href="#m243d450f24" x="155.03055" y="304.273782" style="fill-opacity: 0.65; stroke: #000000; stroke-opacity: 0.65"/>
     <use xlink:href="#m243d450f24" x="157.603148" y="302.264874" style="fill-opacity: 0.65; stroke: #000000; stroke-opacity: 0.65"/>
     <use xlink:href="#m243d450f24" x="160.010655" y="300.890689" style="fill-opacity: 0.65; stroke: #000000; stroke-opacity: 0.65"/>
     <use xlink:href="#m243d450f24" x="163.369748" y="299.512849" style="fill-opacity: 0.65; stroke: #000000; stroke-opacity: 0.65"/>
     <use xlink:href="#m243d450f24" x="167.226874" y="297.327319" style="fill-opacity: 0.65; stroke: #000000; stroke-opacity: 0.65"/>
     <use xlink:href="#m243d450f24" x="169.422335" y="294.347733" style="fill-opacity: 0.65; stroke: #000000; stroke-opacity: 0.65"/>
     <use xlink:href="#m243d450f24" x="170.5938" y="291.453649" style="fill-opacity: 0.65; stroke: #000000; stroke-opacity: 0.65"/>
     <use xlink:href="#m243d450f24" x="176.331154" y="289.560911" style="fill-opacity: 0.65; stroke: #000000; stroke-opacity: 0.65"/>
     <use xlink:href="#m243d450f24" x="179.698332" y="287.812333" style="fill-opacity: 0.65; stroke: #000000; stroke-opacity: 0.65"/>
     <use xlink:href="#m243d450f24" x="179.610454" y="286.532897" style="fill-opacity: 0.65; stroke: #000000; stroke-opacity: 0.65"/>
     <use xlink:href="#m243d450f24" x="180.166911" y="285.489806" style="fill-opacity: 0.65; stroke: #000000; stroke-opacity: 0.65"/>
     <use xlink:href="#m243d450f24" x="181.887886" y="284.207177" style="fill-opacity: 0.65; stroke: #000000; stroke-opacity: 0.65"/>
     <use xlink:href="#m243d450f24" x="182.215542" y="282.477386" style="fill-opacity: 0.65; stroke: #000000; stroke-opacity: 0.65"/>
     <use xlink:href="#m243d450f24" x="187.282509" y="281.135242" style="fill-opacity: 0.65; stroke: #000000; stroke-opacity: 0.65"/>
     <use xlink:href="#m243d450f24" x="189.060996" y="280.056018" style="fill-opacity: 0.65; stroke: #000000; stroke-opacity: 0.65"/>
     <use xlink:href="#m243d450f24" x="189.797289" y="279.484656" style="fill-opacity: 0.65; stroke: #000000; stroke-opacity: 0.65"/>
     <use xlink:href="#m243d450f24" x="190.126883" y="278.332954" style="fill-opacity: 0.65; stroke: #000000; stroke-opacity: 0.65"/>
     <use xlink:href="#m243d450f24" x="190.562794" y="276.548844" style="fill-opacity: 0.65; stroke: #000000; stroke-opacity: 0.65"/>
     <use xlink:href="#m243d450f24" x="198.955206" y="273.4107" style="fill-opacity: 0.65; stroke: #000000; stroke-opacity: 0.65"/>
     <use xlink:href="#m243d450f24" x="201.589742" y="269.16897" style="fill-opacity: 0.65; stroke: #000000; stroke-opacity: 0.65"/>
     <use xlink:href="#m243d450f24" x="206.136865" y="265.558839" style="fill-opacity: 0.65; stroke: #000000; stroke-opacity: 0.65"/>
     <use xlink:href="#m243d450f24" x="206.673702" y="262.898486" style="fill-opacity: 0.65; stroke: #000000; stroke-opacity: 0.65"/>
     <use xlink:href="#m243d450f24" x="211.209647" y="261.056247" style="fill-opacity: 0.65; stroke: #000000; stroke-opacity: 0.65"/>
     <use xlink:href="#m243d450f24" x="214.187269" y="259.206313" style="fill-opacity: 0.65; stroke: #000000; stroke-opacity: 0.65"/>
     <use xlink:href="#m243d450f24" x="215.017569" y="256.888183" style="fill-opacity: 0.65; stroke: #000000; stroke-opacity: 0.65"/>
     <use xlink:href="#m243d450f24" x="215.246444" y="254.649048" style="fill-opacity: 0.65; stroke: #000000; stroke-opacity: 0.65"/>
     <use xlink:href="#m243d450f24" x="216.9607" y="252.141038" style="fill-opacity: 0.65; stroke: #000000; stroke-opacity: 0.65"/>
     <use xlink:href="#m243d450f24" x="221.196945" y="250.24628" style="fill-opacity: 0.65; stroke: #000000; stroke-opacity: 0.65"/>
     <use xlink:href="#m243d450f24" x="223.502229" y="247.969327" style="fill-opacity: 0.65; stroke: #000000; stroke-opacity: 0.65"/>
     <use xlink:href="#m243d450f24" x="224.16866" y="245.621851" style="fill-opacity: 0.65; stroke: #000000; stroke-opacity: 0.65"/>
     <use xlink:href="#m243d450f24" x="226.11462" y="243.310822" style="fill-opacity: 0.65; stroke: #000000; stroke-opacity: 0.65"/>
     <use xlink:href="#m243d450f24" x="227.28851" y="240.825845" style="fill-opacity: 0.65; stroke: #000000; stroke-opacity: 0.65"/>
     <use xlink:href="#m243d450f24" x="233.197408" y="236.686331" style="fill-opacity: 0.65; stroke: #000000; stroke-opacity: 0.65"/>
     <use xlink:href="#m243d450f24" x="235.950057" y="232.499345" style="fill-opacity: 0.65; stroke: #000000; stroke-opacity: 0.65"/>
     <use xlink:href="#m243d450f24" x="243.785896" y="228.875878" style="fill-opacity: 0.65; stroke: #000000; stroke-opacity: 0.65"/>
     <use xlink:href="#m243d450f24" x="245.997844" y="225.894469" style="fill-opacity: 0.65; stroke: #000000; stroke-opacity: 0.65"/>
     <use xlink:href="#m243d450f24" x="247.473221" y="222.946045" style="fill-opacity: 0.65; stroke: #000000; stroke-opacity: 0.65"/>
     <use xlink:href="#m243d450f24" x="252.268637" y="219.939471" style="fill-opacity: 0.65; stroke: #000000; stroke-opacity: 0.65"/>
     <use xlink:href="#m243d450f24" x="256.775845" y="216.325995" style="fill-opacity: 0.65; stroke: #000000; stroke-opacity: 0.65"/>
     <use xlink:href="#m243d450f24" x="260.071995" y="212.230683" style="fill-opacity: 0.65; stroke: #000000; stroke-opacity: 0.65"/>
     <use xlink:href="#m243d450f24" x="262.564072" y="209.276596" style="fill-opacity: 0.65; stroke: #000000; stroke-opacity: 0.65"/>
     <use xlink:href="#m243d450f24" x="266.421798" y="207.369514" style="fill-opacity: 0.65; stroke: #000000; stroke-opacity: 0.65"/>
     <use xlink:href="#m243d450f24" x="267.193658" y="205.224773" style="fill-opacity: 0.65; stroke: #000000; stroke-opacity: 0.65"/>
     <use xlink:href="#m243d450f24" x="273.066579" y="202.552018" style="fill-opacity: 0.65; stroke: #000000; stroke-opacity: 0.65"/>
     <use xlink:href="#m243d450f24" x="271.659539" y="199.247016" style="fill-opacity: 0.65; stroke: #000000; stroke-opacity: 0.65"/>
     <use xlink:href="#m243d450f24" x="276.388631" y="196.198284" style="fill-opacity: 0.65; stroke: #000000; stroke-opacity: 0.65"/>
     <use xlink:href="#m243d450f24" x="280.00234" y="193.757265" style="fill-opacity: 0.65; stroke: #000000; stroke-opacity: 0.65"/>
     <use xlink:href="#m243d450f24" x="285.02046" y="191.357683" style="fill-opacity: 0.65; stroke: #000000; stroke-opacity: 0.65"/>
     <use xlink:href="#m243d450f24" x="286.69089" y="189.023997" style="fill-opacity: 0.65; stroke: #000000; stroke-opacity: 0.65"/>
     <use xlink:href="#m243d450f24" x="286.837075" y="186.706362" style="fill-opacity: 0.65; stroke: #000000; stroke-opacity: 0.65"/>
     <use xlink:href="#m243d450f24" x="289.863366" y="185.37002" style="fill-opacity: 0.65; stroke: #000000; stroke-opacity: 0.65"/>
     <use xlink:href="#m243d450f24" x="290.497726" y="183.617555" style="fill-opacity: 0.65; stroke: #000000; stroke-opacity: 0.65"/>
     <use xlink:href="#m243d450f24" x="297.101401" y="181.221824" style="fill-opacity: 0.65; stroke: #000000; stroke-opacity: 0.65"/>
     <use xlink:href="#m243d450f24" x="299.263278" y="178.288587" style="fill-opacity: 0.65; stroke: #000000; stroke-opacity: 0.65"/>
     <use xlink:href="#m243d450f24" x="299.485921" y="176.049964" style="fill-opacity: 0.65; stroke: #000000; stroke-opacity: 0.65"/>
     <use xlink:href="#m243d450f24" x="299.261093" y="174.134415" style="fill-opacity: 0.65; stroke: #000000; stroke-opacity: 0.65"/>
     <use xlink:href="#m243d450f24" x="303.301847" y="172.292904" style="fill-opacity: 0.65; stroke: #000000; stroke-opacity: 0.65"/>
     <use xlink:href="#m243d450f24" x="302.895285" y="169.982618" style="fill-opacity: 0.65; stroke: #000000; stroke-opacity: 0.65"/>
     <use xlink:href="#m243d450f24" x="309.038516" y="166.428122" style="fill-opacity: 0.65; stroke: #000000; stroke-opacity: 0.65"/>
     <use xlink:href="#m243d450f24" x="311.75833" y="162.357679" style="fill-opacity: 0.65; stroke: #000000; stroke-opacity: 0.65"/>
     <use xlink:href="#m243d450f24" x="314.45136" y="158.080009" style="fill-opacity: 0.65; stroke: #000000; stroke-opacity: 0.65"/>
     <use xlink:href="#m243d450f24" x="319.874362" y="153.848488" style="fill-opacity: 0.65; stroke: #000000; stroke-opacity: 0.65"/>
     <use xlink:href="#m243d450f24" x="322.837402" y="149.130161" style="fill-opacity: 0.65; stroke: #000000; stroke-opacity: 0.65"/>
     <use xlink:href="#m243d450f24" x="333.865039" y="144.713183" style="fill-opacity: 0.65; stroke: #000000; stroke-opacity: 0.65"/>
     <use xlink:href="#m243d450f24" x="337.977593" y="140.786009" style="fill-opacity: 0.65; stroke: #000000; stroke-opacity: 0.65"/>
     <use xlink:href="#m243d450f24" x="341.878488" y="137.163683" style="fill-opacity: 0.65; stroke: #000000; stroke-opacity: 0.65"/>
     <use xlink:href="#m243d450f24" x="343.914855" y="133.037307" style="fill-opacity: 0.65; stroke: #000000; stroke-opacity: 0.65"/>
     <use xlink:href="#m243d450f24" x="350.785212" y="129.871401" style="fill-opacity: 0.65; stroke: #000000; stroke-opacity: 0.65"/>
     <use xlink:href="#m243d450f24" x="355.742022" y="126.385567" style="fill-opacity: 0.65; stroke: #000000; stroke-opacity: 0.65"/>
     <use xlink:href="#m243d450f24" x="361.399305" y="122.772032" style="fill-opacity: 0.65; stroke: #000000; stroke-opacity: 0.65"/>
     <use xlink:href="#m243d450f24" x="364.510511" y="118.073107" style="fill-opacity: 0.65; stroke: #000000; stroke-opacity: 0.65"/>
     <use xlink:href="#m243d450f24" x="367.339429" y="112.82017" style="fill-opacity: 0.65; stroke: #000000; stroke-opacity: 0.65"/>
     <use xlink:href="#m243d450f24" x="375.492698" y="106.954755" style="fill-opacity: 0.65; stroke: #000000; stroke-opacity: 0.65"/>
     <use xlink:href="#m243d450f24" x="383.174315" y="102.043566" style="fill-opacity: 0.65; stroke: #000000; stroke-opacity: 0.65"/>
     <use xlink:href="#m243d450f24" x="398.217561" y="97.929908" style="fill-opacity: 0.65; stroke: #000000; stroke-opacity: 0.65"/>
     <use xlink:href="#m243d450f24" x="412.810653" y="93.50531" style="fill-opacity: 0.65; stroke: #000000; stroke-opacity: 0.65"/>
     <use xlink:href="#m243d450f24" x="422.824245" y="88.766088" style="fill-opacity: 0.65; stroke: #000000; stroke-opacity: 0.65"/>
     <use xlink:href="#m243d450f24" x="427.251127" y="84.269368" style="fill-opacity: 0.65; stroke: #000000; stroke-opacity: 0.65"/>
     <use xlink:href="#m243d450f24" x="442.762744" y="81.525658" style="fill-opacity: 0.65; stroke: #000000; stroke-opacity: 0.65"/>
     <use xlink:href="#m243d450f24" x="461.559083" y="79.291006" style="fill-opacity: 0.65; stroke: #000000; stroke-opacity: 0.65"/>
     <use xlink:href="#m243d450f24" x="471.333029" y="77.563263" style="fill-opacity: 0.65; stroke: #000000; stroke-opacity: 0.65"/>
     <use xlink:href="#m243d450f24" x="478.122115" y="75.718262" style="fill-opacity: 0.65; stroke: #000000; stroke-opacity: 0.65"/>
     <use xlink:href="#m243d450f24" x="482.690021" y="73.829997" style="fill-opacity: 0.65; stroke: #000000; stroke-opacity: 0.65"/>
     <use xlink:href="#m243d450f24" x="487.447961" y="72.084151" style="fill-opacity: 0.65; stroke: #000000; stroke-opacity: 0.65"/>
     <use xlink:href="#m243d450f24" x="494.115715" y="70.851609" style="fill-opacity: 0.65; stroke: #000000; stroke-opacity: 0.65"/>
     <use xlink:href="#m243d450f24" x="504.25954" y="69.711453" style="fill-opacity: 0.65; stroke: #000000; stroke-opacity: 0.65"/>
     <use xlink:href="#m243d450f24" x="510.319919" y="68.073474" style="fill-opacity: 0.65; stroke: #000000; stroke-opacity: 0.65"/>
     <use xlink:href="#m243d450f24" x="520.477696" y="66.761141" style="fill-opacity: 0.65; stroke: #000000; stroke-opacity: 0.65"/>
     <use xlink:href="#m243d450f24" x="523.089417" y="64.506094" style="fill-opacity: 0.65; stroke: #000000; stroke-opacity: 0.65"/>
     <use xlink:href="#m243d450f24" x="531.417129" y="62.597924" style="fill-opacity: 0.65; stroke: #000000; stroke-opacity: 0.65"/>
     <use xlink:href="#m243d450f24" x="544.259649" y="60.725382" style="fill-opacity: 0.65; stroke: #000000; stroke-opacity: 0.65"/>
     <use xlink:href="#m243d450f24" x="554.303004" y="59.037695" style="fill-opacity: 0.65; stroke: #000000; stroke-opacity: 0.65"/>
     <use xlink:href="#m243d450f24" x="565.997534" y="57.164401" style="fill-opacity: 0.65; stroke: #000000; stroke-opacity: 0.65"/>
     <use xlink:href="#m243d450f24" x="575.931651" y="54.768461" style="fill-opacity: 0.65; stroke: #000000; stroke-opacity: 0.65"/>
     <use xlink:href="#m243d450f24" x="586.010899" y="52.273667" style="fill-opacity: 0.65; stroke: #000000; stroke-opacity: 0.65"/>
     <use xlink:href="#m243d450f24" x="595.423857" y="50.076871" style="fill-opacity: 0.65; stroke: #000000; stroke-opacity: 0.65"/>
     <use xlink:href="#m243d450f24" x="614.339865" y="48.053281" style="fill-opacity: 0.65; stroke: #000000; stroke-opacity: 0.65"/>
     <use xlink:href="#m243d450f24" x="636.504675" y="45.315945" style="fill-opacity: 0.65; stroke: #000000; stroke-opacity: 0.65"/>
     <use xlink:href="#m243d450f24" x="676.860483" y="43.37483" style="fill-opacity: 0.65; stroke: #000000; stroke-opacity: 0.65"/>
    </g>
   </g>
   <g id="patch_3">
    <path d="M 65.120937 371.299375 
L 65.120937 27.759375 
" style="fill: none; stroke: #262626; stroke-width: 0.8; stroke-linejoin: miter; stroke-linecap: square"/>
   </g>
   <g id="patch_4">
    <path d="M 705.990938 371.299375 
L 705.990938 27.759375 
" style="fill: none; stroke: #262626; stroke-width: 0.8; stroke-linejoin: miter; stroke-linecap: square"/>
   </g>
   <g id="patch_5">
    <path d="M 65.120937 371.299375 
L 705.990938 371.299375 
" style="fill: none; stroke: #262626; stroke-width: 0.8; stroke-linejoin: miter; stroke-linecap: square"/>
   </g>
   <g id="patch_6">
    <path d="M 65.120937 27.759375 
L 705.990938 27.759375 
" style="fill: none; stroke: #262626; stroke-width: 0.8; stroke-linejoin: miter; stroke-linecap: square"/>
   </g>
   <g id="text_13">
    <!-- 202-I_row-4_post-22carbon_15s900C -->
    <g style="fill: #262626" transform="translate(217.127813 21.759375) scale(0.2 -0.2)">
     <defs>
      <path id="ArialMT-2d" d="M 203 1375 
L 203 1941 
L 1931 1941 
L 1931 1375 
L 203 1375 
z
" transform="scale(0.015625)"/>
      <path id="ArialMT-49" d="M 597 0 
L 597 4581 
L 1203 4581 
L 1203 0 
L 597 0 
z
" transform="scale(0.015625)"/>
      <path id="ArialMT-5f" d="M -97 -1272 
L -97 -866 
L 3631 -866 
L 3631 -1272 
L -97 -1272 
z
" transform="scale(0.015625)"/>
      <path id="ArialMT-77" d="M 1034 0 
L 19 3319 
L 600 3319 
L 1128 1403 
L 1325 691 
Q 1338 744 1497 1375 
L 2025 3319 
L 2603 3319 
L 3100 1394 
L 3266 759 
L 3456 1400 
L 4025 3319 
L 4572 3319 
L 3534 0 
L 2950 0 
L 2422 1988 
L 2294 2553 
L 1622 0 
L 1034 0 
z
" transform="scale(0.015625)"/>
      <path id="ArialMT-70" d="M 422 -1272 
L 422 3319 
L 934 3319 
L 934 2888 
Q 1116 3141 1344 3267 
Q 1572 3394 1897 3394 
Q 2322 3394 2647 3175 
Q 2972 2956 3137 2557 
Q 3303 2159 3303 1684 
Q 3303 1175 3120 767 
Q 2938 359 2589 142 
Q 2241 -75 1856 -75 
Q 1575 -75 1351 44 
Q 1128 163 984 344 
L 984 -1272 
L 422 -1272 
z
M 931 1641 
Q 931 1000 1190 694 
Q 1450 388 1819 388 
Q 2194 388 2461 705 
Q 2728 1022 2728 1688 
Q 2728 2322 2467 2637 
Q 2206 2953 1844 2953 
Q 1484 2953 1207 2617 
Q 931 2281 931 1641 
z
" transform="scale(0.015625)"/>
      <path id="ArialMT-61" d="M 2588 409 
Q 2275 144 1986 34 
Q 1697 -75 1366 -75 
Q 819 -75 525 192 
Q 231 459 231 875 
Q 231 1119 342 1320 
Q 453 1522 633 1644 
Q 813 1766 1038 1828 
Q 1203 1872 1538 1913 
Q 2219 1994 2541 2106 
Q 2544 2222 2544 2253 
Q 2544 2597 2384 2738 
Q 2169 2928 1744 2928 
Q 1347 2928 1158 2789 
Q 969 2650 878 2297 
L 328 2372 
Q 403 2725 575 2942 
Q 747 3159 1072 3276 
Q 1397 3394 1825 3394 
Q 2250 3394 2515 3294 
Q 2781 3194 2906 3042 
Q 3031 2891 3081 2659 
Q 3109 2516 3109 2141 
L 3109 1391 
Q 3109 606 3145 398 
Q 3181 191 3288 0 
L 2700 0 
Q 2613 175 2588 409 
z
M 2541 1666 
Q 2234 1541 1622 1453 
Q 1275 1403 1131 1340 
Q 988 1278 909 1158 
Q 831 1038 831 891 
Q 831 666 1001 516 
Q 1172 366 1500 366 
Q 1825 366 2078 508 
Q 2331 650 2450 897 
Q 2541 1088 2541 1459 
L 2541 1666 
z
" transform="scale(0.015625)"/>
      <path id="ArialMT-62" d="M 941 0 
L 419 0 
L 419 4581 
L 981 4581 
L 981 2947 
Q 1338 3394 1891 3394 
Q 2197 3394 2470 3270 
Q 2744 3147 2920 2923 
Q 3097 2700 3197 2384 
Q 3297 2069 3297 1709 
Q 3297 856 2875 390 
Q 2453 -75 1863 -75 
Q 1275 -75 941 416 
L 941 0 
z
M 934 1684 
Q 934 1088 1097 822 
Q 1363 388 1816 388 
Q 2184 388 2453 708 
Q 2722 1028 2722 1663 
Q 2722 2313 2464 2622 
Q 2206 2931 1841 2931 
Q 1472 2931 1203 2611 
Q 934 2291 934 1684 
z
" transform="scale(0.015625)"/>
      <path id="ArialMT-35" d="M 266 1200 
L 856 1250 
Q 922 819 1161 601 
Q 1400 384 1738 384 
Q 2144 384 2425 690 
Q 2706 997 2706 1503 
Q 2706 1984 2436 2262 
Q 2166 2541 1728 2541 
Q 1456 2541 1237 2417 
Q 1019 2294 894 2097 
L 366 2166 
L 809 4519 
L 3088 4519 
L 3088 3981 
L 1259 3981 
L 1013 2750 
Q 1425 3038 1878 3038 
Q 2478 3038 2890 2622 
Q 3303 2206 3303 1553 
Q 3303 931 2941 478 
Q 2500 -78 1738 -78 
Q 1113 -78 717 272 
Q 322 622 266 1200 
z
" transform="scale(0.015625)"/>
      <path id="ArialMT-39" d="M 350 1059 
L 891 1109 
Q 959 728 1153 556 
Q 1347 384 1650 384 
Q 1909 384 2104 503 
Q 2300 622 2425 820 
Q 2550 1019 2634 1356 
Q 2719 1694 2719 2044 
Q 2719 2081 2716 2156 
Q 2547 1888 2255 1720 
Q 1963 1553 1622 1553 
Q 1053 1553 659 1965 
Q 266 2378 266 3053 
Q 266 3750 677 4175 
Q 1088 4600 1706 4600 
Q 2153 4600 2523 4359 
Q 2894 4119 3086 3673 
Q 3278 3228 3278 2384 
Q 3278 1506 3087 986 
Q 2897 466 2520 194 
Q 2144 -78 1638 -78 
Q 1100 -78 759 220 
Q 419 519 350 1059 
z
M 2653 3081 
Q 2653 3566 2395 3850 
Q 2138 4134 1775 4134 
Q 1400 4134 1122 3828 
Q 844 3522 844 3034 
Q 844 2597 1108 2323 
Q 1372 2050 1759 2050 
Q 2150 2050 2401 2323 
Q 2653 2597 2653 3081 
z
" transform="scale(0.015625)"/>
      <path id="ArialMT-43" d="M 3763 1606 
L 4369 1453 
Q 4178 706 3683 314 
Q 3188 -78 2472 -78 
Q 1731 -78 1267 223 
Q 803 525 561 1097 
Q 319 1669 319 2325 
Q 319 3041 592 3573 
Q 866 4106 1370 4382 
Q 1875 4659 2481 4659 
Q 3169 4659 3637 4309 
Q 4106 3959 4291 3325 
L 3694 3184 
Q 3534 3684 3231 3912 
Q 2928 4141 2469 4141 
Q 1941 4141 1586 3887 
Q 1231 3634 1087 3207 
Q 944 2781 944 2328 
Q 944 1744 1114 1308 
Q 1284 872 1643 656 
Q 2003 441 2422 441 
Q 2931 441 3284 734 
Q 3638 1028 3763 1606 
z
" transform="scale(0.015625)"/>
     </defs>
     <use xlink:href="#ArialMT-32"/>
     <use xlink:href="#ArialMT-30" x="55.615234"/>
     <use xlink:href="#ArialMT-32" x="111.230469"/>
     <use xlink:href="#ArialMT-2d" x="166.845703"/>
     <use xlink:href="#ArialMT-49" x="200.146484"/>
     <use xlink:href="#ArialMT-5f" x="227.929688"/>
     <use xlink:href="#ArialMT-72" x="283.544922"/>
     <use xlink:href="#ArialMT-6f" x="316.845703"/>
     <use xlink:href="#ArialMT-77" x="372.460938"/>
     <use xlink:href="#ArialMT-2d" x="444.677734"/>
     <use xlink:href="#ArialMT-34" x="477.978516"/>
     <use xlink:href="#ArialMT-5f" x="533.59375"/>
     <use xlink:href="#ArialMT-70" x="589.208984"/>
     <use xlink:href="#ArialMT-6f" x="644.824219"/>
     <use xlink:href="#ArialMT-73" x="700.439453"/>
     <use xlink:href="#ArialMT-74" x="750.439453"/>
     <use xlink:href="#ArialMT-2d" x="778.222656"/>
     <use xlink:href="#ArialMT-32" x="811.523438"/>
     <use xlink:href="#ArialMT-32" x="867.138672"/>
     <use xlink:href="#ArialMT-63" x="922.753906"/>
     <use xlink:href="#ArialMT-61" x="972.753906"/>
     <use xlink:href="#ArialMT-72" x="1028.369141"/>
     <use xlink:href="#ArialMT-62" x="1061.669922"/>
     <use xlink:href="#ArialMT-6f" x="1117.285156"/>
     <use xlink:href="#ArialMT-6e" x="1172.900391"/>
     <use xlink:href="#ArialMT-5f" x="1228.515625"/>
     <use xlink:href="#ArialMT-31" x="1284.130859"/>
     <use xlink:href="#ArialMT-35" x="1339.746094"/>
     <use xlink:href="#ArialMT-73" x="1395.361328"/>
     <use xlink:href="#ArialMT-39" x="1445.361328"/>
     <use xlink:href="#ArialMT-30" x="1500.976562"/>
     <use xlink:href="#ArialMT-30" x="1556.591797"/>
     <use xlink:href="#ArialMT-43" x="1612.207031"/>
    </g>
   </g>
  </g>
 </g>
 <defs>
  <clipPath id="pc34e16d46e">
   <rect x="65.120937" y="27.759375" width="640.87" height="343.54"/>
  </clipPath>
 </defs>
</svg>
