<?xml version="1.0" encoding="utf-8" standalone="no"?>
<!DOCTYPE svg PUBLIC "-//W3C//DTD SVG 1.1//EN"
  "http://www.w3.org/Graphics/SVG/1.1/DTD/svg11.dtd">
<svg xmlns:xlink="http://www.w3.org/1999/xlink" width="720pt" height="432pt" viewBox="0 0 720 432" xmlns="http://www.w3.org/2000/svg" version="1.1">
 <metadata>
  <rdf:RDF xmlns:dc="http://purl.org/dc/elements/1.1/" xmlns:cc="http://creativecommons.org/ns#" xmlns:rdf="http://www.w3.org/1999/02/22-rdf-syntax-ns#">
   <cc:Work>
    <dc:type rdf:resource="http://purl.org/dc/dcmitype/StillImage"/>
    <dc:date>2023-05-25T01:39:42.180642</dc:date>
    <dc:format>image/svg+xml</dc:format>
    <dc:creator>
     <cc:Agent>
      <dc:title>Matplotlib v3.7.1, https://matplotlib.org/</dc:title>
     </cc:Agent>
    </dc:creator>
   </cc:Work>
  </rdf:RDF>
 </metadata>
 <defs>
  <style type="text/css">*{stroke-linejoin: round; stroke-linecap: butt}</style>
 </defs>
 <g id="figure_1">
  <g id="patch_1">
   <path d="M 0 432 
L 720 432 
L 720 0 
L 0 0 
z
" style="fill: #ffffff"/>
  </g>
  <g id="axes_1">
   <g id="patch_2">
    <path d="M 61.58 387.0925 
L 698.04 387.0925 
L 698.04 10.8 
L 61.58 10.8 
z
" style="fill: #ffffff"/>
   </g>
   <g id="matplotlib.axis_1">
    <g id="xtick_1">
     <g id="line2d_1">
      <defs>
       <path id="m3cfe64e812" d="M 0 0 
L 0 3.5 
" style="stroke: #262626; stroke-width: 0.8"/>
      </defs>
      <g>
       <use xlink:href="#m3cfe64e812" x="61.58" y="387.0925" style="fill: #262626; stroke: #262626; stroke-width: 0.8"/>
      </g>
     </g>
     <g id="text_1">
      <!-- 0 -->
      <g style="fill: #262626" transform="translate(58.799531 401.250312) scale(0.1 -0.1)">
       <defs>
        <path id="ArialMT-30" d="M 266 2259 
Q 266 3072 433 3567 
Q 600 4063 929 4331 
Q 1259 4600 1759 4600 
Q 2128 4600 2406 4451 
Q 2684 4303 2865 4023 
Q 3047 3744 3150 3342 
Q 3253 2941 3253 2259 
Q 3253 1453 3087 958 
Q 2922 463 2592 192 
Q 2263 -78 1759 -78 
Q 1097 -78 719 397 
Q 266 969 266 2259 
z
M 844 2259 
Q 844 1131 1108 757 
Q 1372 384 1759 384 
Q 2147 384 2411 759 
Q 2675 1134 2675 2259 
Q 2675 3391 2411 3762 
Q 2147 4134 1753 4134 
Q 1366 4134 1134 3806 
Q 844 3388 844 2259 
z
" transform="scale(0.015625)"/>
       </defs>
       <use xlink:href="#ArialMT-30"/>
      </g>
     </g>
    </g>
    <g id="xtick_2">
     <g id="line2d_2">
      <g>
       <use xlink:href="#m3cfe64e812" x="188.872" y="387.0925" style="fill: #262626; stroke: #262626; stroke-width: 0.8"/>
      </g>
     </g>
     <g id="text_2">
      <!-- 200 -->
      <g style="fill: #262626" transform="translate(180.530594 401.250312) scale(0.1 -0.1)">
       <defs>
        <path id="ArialMT-32" d="M 3222 541 
L 3222 0 
L 194 0 
Q 188 203 259 391 
Q 375 700 629 1000 
Q 884 1300 1366 1694 
Q 2113 2306 2375 2664 
Q 2638 3022 2638 3341 
Q 2638 3675 2398 3904 
Q 2159 4134 1775 4134 
Q 1369 4134 1125 3890 
Q 881 3647 878 3216 
L 300 3275 
Q 359 3922 746 4261 
Q 1134 4600 1788 4600 
Q 2447 4600 2831 4234 
Q 3216 3869 3216 3328 
Q 3216 3053 3103 2787 
Q 2991 2522 2730 2228 
Q 2469 1934 1863 1422 
Q 1356 997 1212 845 
Q 1069 694 975 541 
L 3222 541 
z
" transform="scale(0.015625)"/>
       </defs>
       <use xlink:href="#ArialMT-32"/>
       <use xlink:href="#ArialMT-30" x="55.615234"/>
       <use xlink:href="#ArialMT-30" x="111.230469"/>
      </g>
     </g>
    </g>
    <g id="xtick_3">
     <g id="line2d_3">
      <g>
       <use xlink:href="#m3cfe64e812" x="316.164" y="387.0925" style="fill: #262626; stroke: #262626; stroke-width: 0.8"/>
      </g>
     </g>
     <g id="text_3">
      <!-- 400 -->
      <g style="fill: #262626" transform="translate(307.822594 401.250312) scale(0.1 -0.1)">
       <defs>
        <path id="ArialMT-34" d="M 2069 0 
L 2069 1097 
L 81 1097 
L 81 1613 
L 2172 4581 
L 2631 4581 
L 2631 1613 
L 3250 1613 
L 3250 1097 
L 2631 1097 
L 2631 0 
L 2069 0 
z
M 2069 1613 
L 2069 3678 
L 634 1613 
L 2069 1613 
z
" transform="scale(0.015625)"/>
       </defs>
       <use xlink:href="#ArialMT-34"/>
       <use xlink:href="#ArialMT-30" x="55.615234"/>
       <use xlink:href="#ArialMT-30" x="111.230469"/>
      </g>
     </g>
    </g>
    <g id="xtick_4">
     <g id="line2d_4">
      <g>
       <use xlink:href="#m3cfe64e812" x="443.456" y="387.0925" style="fill: #262626; stroke: #262626; stroke-width: 0.8"/>
      </g>
     </g>
     <g id="text_4">
      <!-- 600 -->
      <g style="fill: #262626" transform="translate(435.114594 401.250312) scale(0.1 -0.1)">
       <defs>
        <path id="ArialMT-36" d="M 3184 3459 
L 2625 3416 
Q 2550 3747 2413 3897 
Q 2184 4138 1850 4138 
Q 1581 4138 1378 3988 
Q 1113 3794 959 3422 
Q 806 3050 800 2363 
Q 1003 2672 1297 2822 
Q 1591 2972 1913 2972 
Q 2475 2972 2870 2558 
Q 3266 2144 3266 1488 
Q 3266 1056 3080 686 
Q 2894 316 2569 119 
Q 2244 -78 1831 -78 
Q 1128 -78 684 439 
Q 241 956 241 2144 
Q 241 3472 731 4075 
Q 1159 4600 1884 4600 
Q 2425 4600 2770 4297 
Q 3116 3994 3184 3459 
z
M 888 1484 
Q 888 1194 1011 928 
Q 1134 663 1356 523 
Q 1578 384 1822 384 
Q 2178 384 2434 671 
Q 2691 959 2691 1453 
Q 2691 1928 2437 2201 
Q 2184 2475 1800 2475 
Q 1419 2475 1153 2201 
Q 888 1928 888 1484 
z
" transform="scale(0.015625)"/>
       </defs>
       <use xlink:href="#ArialMT-36"/>
       <use xlink:href="#ArialMT-30" x="55.615234"/>
       <use xlink:href="#ArialMT-30" x="111.230469"/>
      </g>
     </g>
    </g>
    <g id="xtick_5">
     <g id="line2d_5">
      <g>
       <use xlink:href="#m3cfe64e812" x="570.748" y="387.0925" style="fill: #262626; stroke: #262626; stroke-width: 0.8"/>
      </g>
     </g>
     <g id="text_5">
      <!-- 800 -->
      <g style="fill: #262626" transform="translate(562.406594 401.250312) scale(0.1 -0.1)">
       <defs>
        <path id="ArialMT-38" d="M 1131 2484 
Q 781 2613 612 2850 
Q 444 3088 444 3419 
Q 444 3919 803 4259 
Q 1163 4600 1759 4600 
Q 2359 4600 2725 4251 
Q 3091 3903 3091 3403 
Q 3091 3084 2923 2848 
Q 2756 2613 2416 2484 
Q 2838 2347 3058 2040 
Q 3278 1734 3278 1309 
Q 3278 722 2862 322 
Q 2447 -78 1769 -78 
Q 1091 -78 675 323 
Q 259 725 259 1325 
Q 259 1772 486 2073 
Q 713 2375 1131 2484 
z
M 1019 3438 
Q 1019 3113 1228 2906 
Q 1438 2700 1772 2700 
Q 2097 2700 2305 2904 
Q 2513 3109 2513 3406 
Q 2513 3716 2298 3927 
Q 2084 4138 1766 4138 
Q 1444 4138 1231 3931 
Q 1019 3725 1019 3438 
z
M 838 1322 
Q 838 1081 952 856 
Q 1066 631 1291 507 
Q 1516 384 1775 384 
Q 2178 384 2440 643 
Q 2703 903 2703 1303 
Q 2703 1709 2433 1975 
Q 2163 2241 1756 2241 
Q 1359 2241 1098 1978 
Q 838 1716 838 1322 
z
" transform="scale(0.015625)"/>
       </defs>
       <use xlink:href="#ArialMT-38"/>
       <use xlink:href="#ArialMT-30" x="55.615234"/>
       <use xlink:href="#ArialMT-30" x="111.230469"/>
      </g>
     </g>
    </g>
    <g id="xtick_6">
     <g id="line2d_6">
      <g>
       <use xlink:href="#m3cfe64e812" x="698.04" y="387.0925" style="fill: #262626; stroke: #262626; stroke-width: 0.8"/>
      </g>
     </g>
     <g id="text_6">
      <!-- 1000 -->
      <g style="fill: #262626" transform="translate(686.918125 401.250312) scale(0.1 -0.1)">
       <defs>
        <path id="ArialMT-31" d="M 2384 0 
L 1822 0 
L 1822 3584 
Q 1619 3391 1289 3197 
Q 959 3003 697 2906 
L 697 3450 
Q 1169 3672 1522 3987 
Q 1875 4303 2022 4600 
L 2384 4600 
L 2384 0 
z
" transform="scale(0.015625)"/>
       </defs>
       <use xlink:href="#ArialMT-31"/>
       <use xlink:href="#ArialMT-30" x="55.615234"/>
       <use xlink:href="#ArialMT-30" x="111.230469"/>
       <use xlink:href="#ArialMT-30" x="166.845703"/>
      </g>
     </g>
    </g>
    <g id="text_7">
     <!-- Distance along Probe (μm) -->
     <g style="fill: #262626" transform="translate(284.49875 418.885312) scale(0.16 -0.16)">
      <defs>
       <path id="ArialMT-44" d="M 494 0 
L 494 4581 
L 2072 4581 
Q 2606 4581 2888 4516 
Q 3281 4425 3559 4188 
Q 3922 3881 4101 3404 
Q 4281 2928 4281 2316 
Q 4281 1794 4159 1391 
Q 4038 988 3847 723 
Q 3656 459 3429 307 
Q 3203 156 2883 78 
Q 2563 0 2147 0 
L 494 0 
z
M 1100 541 
L 2078 541 
Q 2531 541 2789 625 
Q 3047 709 3200 863 
Q 3416 1078 3536 1442 
Q 3656 1806 3656 2325 
Q 3656 3044 3420 3430 
Q 3184 3816 2847 3947 
Q 2603 4041 2063 4041 
L 1100 4041 
L 1100 541 
z
" transform="scale(0.015625)"/>
       <path id="ArialMT-69" d="M 425 3934 
L 425 4581 
L 988 4581 
L 988 3934 
L 425 3934 
z
M 425 0 
L 425 3319 
L 988 3319 
L 988 0 
L 425 0 
z
" transform="scale(0.015625)"/>
       <path id="ArialMT-73" d="M 197 991 
L 753 1078 
Q 800 744 1014 566 
Q 1228 388 1613 388 
Q 2000 388 2187 545 
Q 2375 703 2375 916 
Q 2375 1106 2209 1216 
Q 2094 1291 1634 1406 
Q 1016 1563 777 1677 
Q 538 1791 414 1992 
Q 291 2194 291 2438 
Q 291 2659 392 2848 
Q 494 3038 669 3163 
Q 800 3259 1026 3326 
Q 1253 3394 1513 3394 
Q 1903 3394 2198 3281 
Q 2494 3169 2634 2976 
Q 2775 2784 2828 2463 
L 2278 2388 
Q 2241 2644 2061 2787 
Q 1881 2931 1553 2931 
Q 1166 2931 1000 2803 
Q 834 2675 834 2503 
Q 834 2394 903 2306 
Q 972 2216 1119 2156 
Q 1203 2125 1616 2013 
Q 2213 1853 2448 1751 
Q 2684 1650 2818 1456 
Q 2953 1263 2953 975 
Q 2953 694 2789 445 
Q 2625 197 2315 61 
Q 2006 -75 1616 -75 
Q 969 -75 630 194 
Q 291 463 197 991 
z
" transform="scale(0.015625)"/>
       <path id="ArialMT-74" d="M 1650 503 
L 1731 6 
Q 1494 -44 1306 -44 
Q 1000 -44 831 53 
Q 663 150 594 308 
Q 525 466 525 972 
L 525 2881 
L 113 2881 
L 113 3319 
L 525 3319 
L 525 4141 
L 1084 4478 
L 1084 3319 
L 1650 3319 
L 1650 2881 
L 1084 2881 
L 1084 941 
Q 1084 700 1114 631 
Q 1144 563 1211 522 
Q 1278 481 1403 481 
Q 1497 481 1650 503 
z
" transform="scale(0.015625)"/>
       <path id="ArialMT-61" d="M 2588 409 
Q 2275 144 1986 34 
Q 1697 -75 1366 -75 
Q 819 -75 525 192 
Q 231 459 231 875 
Q 231 1119 342 1320 
Q 453 1522 633 1644 
Q 813 1766 1038 1828 
Q 1203 1872 1538 1913 
Q 2219 1994 2541 2106 
Q 2544 2222 2544 2253 
Q 2544 2597 2384 2738 
Q 2169 2928 1744 2928 
Q 1347 2928 1158 2789 
Q 969 2650 878 2297 
L 328 2372 
Q 403 2725 575 2942 
Q 747 3159 1072 3276 
Q 1397 3394 1825 3394 
Q 2250 3394 2515 3294 
Q 2781 3194 2906 3042 
Q 3031 2891 3081 2659 
Q 3109 2516 3109 2141 
L 3109 1391 
Q 3109 606 3145 398 
Q 3181 191 3288 0 
L 2700 0 
Q 2613 175 2588 409 
z
M 2541 1666 
Q 2234 1541 1622 1453 
Q 1275 1403 1131 1340 
Q 988 1278 909 1158 
Q 831 1038 831 891 
Q 831 666 1001 516 
Q 1172 366 1500 366 
Q 1825 366 2078 508 
Q 2331 650 2450 897 
Q 2541 1088 2541 1459 
L 2541 1666 
z
" transform="scale(0.015625)"/>
       <path id="ArialMT-6e" d="M 422 0 
L 422 3319 
L 928 3319 
L 928 2847 
Q 1294 3394 1984 3394 
Q 2284 3394 2536 3286 
Q 2788 3178 2913 3003 
Q 3038 2828 3088 2588 
Q 3119 2431 3119 2041 
L 3119 0 
L 2556 0 
L 2556 2019 
Q 2556 2363 2490 2533 
Q 2425 2703 2258 2804 
Q 2091 2906 1866 2906 
Q 1506 2906 1245 2678 
Q 984 2450 984 1813 
L 984 0 
L 422 0 
z
" transform="scale(0.015625)"/>
       <path id="ArialMT-63" d="M 2588 1216 
L 3141 1144 
Q 3050 572 2676 248 
Q 2303 -75 1759 -75 
Q 1078 -75 664 370 
Q 250 816 250 1647 
Q 250 2184 428 2587 
Q 606 2991 970 3192 
Q 1334 3394 1763 3394 
Q 2303 3394 2647 3120 
Q 2991 2847 3088 2344 
L 2541 2259 
Q 2463 2594 2264 2762 
Q 2066 2931 1784 2931 
Q 1359 2931 1093 2626 
Q 828 2322 828 1663 
Q 828 994 1084 691 
Q 1341 388 1753 388 
Q 2084 388 2306 591 
Q 2528 794 2588 1216 
z
" transform="scale(0.015625)"/>
       <path id="ArialMT-65" d="M 2694 1069 
L 3275 997 
Q 3138 488 2766 206 
Q 2394 -75 1816 -75 
Q 1088 -75 661 373 
Q 234 822 234 1631 
Q 234 2469 665 2931 
Q 1097 3394 1784 3394 
Q 2450 3394 2872 2941 
Q 3294 2488 3294 1666 
Q 3294 1616 3291 1516 
L 816 1516 
Q 847 969 1125 678 
Q 1403 388 1819 388 
Q 2128 388 2347 550 
Q 2566 713 2694 1069 
z
M 847 1978 
L 2700 1978 
Q 2663 2397 2488 2606 
Q 2219 2931 1791 2931 
Q 1403 2931 1139 2672 
Q 875 2413 847 1978 
z
" transform="scale(0.015625)"/>
       <path id="ArialMT-20" transform="scale(0.015625)"/>
       <path id="ArialMT-6c" d="M 409 0 
L 409 4581 
L 972 4581 
L 972 0 
L 409 0 
z
" transform="scale(0.015625)"/>
       <path id="ArialMT-6f" d="M 213 1659 
Q 213 2581 725 3025 
Q 1153 3394 1769 3394 
Q 2453 3394 2887 2945 
Q 3322 2497 3322 1706 
Q 3322 1066 3130 698 
Q 2938 331 2570 128 
Q 2203 -75 1769 -75 
Q 1072 -75 642 372 
Q 213 819 213 1659 
z
M 791 1659 
Q 791 1022 1069 705 
Q 1347 388 1769 388 
Q 2188 388 2466 706 
Q 2744 1025 2744 1678 
Q 2744 2294 2464 2611 
Q 2184 2928 1769 2928 
Q 1347 2928 1069 2612 
Q 791 2297 791 1659 
z
" transform="scale(0.015625)"/>
       <path id="ArialMT-67" d="M 319 -275 
L 866 -356 
Q 900 -609 1056 -725 
Q 1266 -881 1628 -881 
Q 2019 -881 2231 -725 
Q 2444 -569 2519 -288 
Q 2563 -116 2559 434 
Q 2191 0 1641 0 
Q 956 0 581 494 
Q 206 988 206 1678 
Q 206 2153 378 2554 
Q 550 2956 876 3175 
Q 1203 3394 1644 3394 
Q 2231 3394 2613 2919 
L 2613 3319 
L 3131 3319 
L 3131 450 
Q 3131 -325 2973 -648 
Q 2816 -972 2473 -1159 
Q 2131 -1347 1631 -1347 
Q 1038 -1347 672 -1080 
Q 306 -813 319 -275 
z
M 784 1719 
Q 784 1066 1043 766 
Q 1303 466 1694 466 
Q 2081 466 2343 764 
Q 2606 1063 2606 1700 
Q 2606 2309 2336 2618 
Q 2066 2928 1684 2928 
Q 1309 2928 1046 2623 
Q 784 2319 784 1719 
z
" transform="scale(0.015625)"/>
       <path id="ArialMT-50" d="M 494 0 
L 494 4581 
L 2222 4581 
Q 2678 4581 2919 4538 
Q 3256 4481 3484 4323 
Q 3713 4166 3852 3881 
Q 3991 3597 3991 3256 
Q 3991 2672 3619 2267 
Q 3247 1863 2275 1863 
L 1100 1863 
L 1100 0 
L 494 0 
z
M 1100 2403 
L 2284 2403 
Q 2872 2403 3119 2622 
Q 3366 2841 3366 3238 
Q 3366 3525 3220 3729 
Q 3075 3934 2838 4000 
Q 2684 4041 2272 4041 
L 1100 4041 
L 1100 2403 
z
" transform="scale(0.015625)"/>
       <path id="ArialMT-72" d="M 416 0 
L 416 3319 
L 922 3319 
L 922 2816 
Q 1116 3169 1280 3281 
Q 1444 3394 1641 3394 
Q 1925 3394 2219 3213 
L 2025 2691 
Q 1819 2813 1613 2813 
Q 1428 2813 1281 2702 
Q 1134 2591 1072 2394 
Q 978 2094 978 1738 
L 978 0 
L 416 0 
z
" transform="scale(0.015625)"/>
       <path id="ArialMT-62" d="M 941 0 
L 419 0 
L 419 4581 
L 981 4581 
L 981 2947 
Q 1338 3394 1891 3394 
Q 2197 3394 2470 3270 
Q 2744 3147 2920 2923 
Q 3097 2700 3197 2384 
Q 3297 2069 3297 1709 
Q 3297 856 2875 390 
Q 2453 -75 1863 -75 
Q 1275 -75 941 416 
L 941 0 
z
M 934 1684 
Q 934 1088 1097 822 
Q 1363 388 1816 388 
Q 2184 388 2453 708 
Q 2722 1028 2722 1663 
Q 2722 2313 2464 2622 
Q 2206 2931 1841 2931 
Q 1472 2931 1203 2611 
Q 934 2291 934 1684 
z
" transform="scale(0.015625)"/>
       <path id="ArialMT-28" d="M 1497 -1347 
Q 1031 -759 709 28 
Q 388 816 388 1659 
Q 388 2403 628 3084 
Q 909 3875 1497 4659 
L 1900 4659 
Q 1522 4009 1400 3731 
Q 1209 3300 1100 2831 
Q 966 2247 966 1656 
Q 966 153 1900 -1347 
L 1497 -1347 
z
" transform="scale(0.015625)"/>
       <path id="ArialMT-3bc" d="M 3181 3319 
L 3181 0 
L 2678 0 
L 2678 394 
Q 2516 144 2356 50 
Q 2138 -78 1847 -78 
Q 1588 -78 1388 25 
Q 1238 103 1056 334 
L 1056 -1272 
L 500 -1272 
L 500 3319 
L 1056 3319 
L 1056 1913 
Q 1056 1147 1137 920 
Q 1219 694 1401 562 
Q 1584 431 1822 431 
Q 2072 431 2269 568 
Q 2466 706 2547 923 
Q 2628 1141 2628 1903 
L 2628 3319 
L 3181 3319 
z
" transform="scale(0.015625)"/>
       <path id="ArialMT-6d" d="M 422 0 
L 422 3319 
L 925 3319 
L 925 2853 
Q 1081 3097 1340 3245 
Q 1600 3394 1931 3394 
Q 2300 3394 2536 3241 
Q 2772 3088 2869 2813 
Q 3263 3394 3894 3394 
Q 4388 3394 4653 3120 
Q 4919 2847 4919 2278 
L 4919 0 
L 4359 0 
L 4359 2091 
Q 4359 2428 4304 2576 
Q 4250 2725 4106 2815 
Q 3963 2906 3769 2906 
Q 3419 2906 3187 2673 
Q 2956 2441 2956 1928 
L 2956 0 
L 2394 0 
L 2394 2156 
Q 2394 2531 2256 2718 
Q 2119 2906 1806 2906 
Q 1569 2906 1367 2781 
Q 1166 2656 1075 2415 
Q 984 2175 984 1722 
L 984 0 
L 422 0 
z
" transform="scale(0.015625)"/>
       <path id="ArialMT-29" d="M 791 -1347 
L 388 -1347 
Q 1322 153 1322 1656 
Q 1322 2244 1188 2822 
Q 1081 3291 891 3722 
Q 769 4003 388 4659 
L 791 4659 
Q 1378 3875 1659 3084 
Q 1900 2403 1900 1659 
Q 1900 816 1576 28 
Q 1253 -759 791 -1347 
z
" transform="scale(0.015625)"/>
      </defs>
      <use xlink:href="#ArialMT-44"/>
      <use xlink:href="#ArialMT-69" x="72.216797"/>
      <use xlink:href="#ArialMT-73" x="94.433594"/>
      <use xlink:href="#ArialMT-74" x="144.433594"/>
      <use xlink:href="#ArialMT-61" x="172.216797"/>
      <use xlink:href="#ArialMT-6e" x="227.832031"/>
      <use xlink:href="#ArialMT-63" x="283.447266"/>
      <use xlink:href="#ArialMT-65" x="333.447266"/>
      <use xlink:href="#ArialMT-20" x="389.0625"/>
      <use xlink:href="#ArialMT-61" x="416.845703"/>
      <use xlink:href="#ArialMT-6c" x="472.460938"/>
      <use xlink:href="#ArialMT-6f" x="494.677734"/>
      <use xlink:href="#ArialMT-6e" x="550.292969"/>
      <use xlink:href="#ArialMT-67" x="605.908203"/>
      <use xlink:href="#ArialMT-20" x="661.523438"/>
      <use xlink:href="#ArialMT-50" x="689.306641"/>
      <use xlink:href="#ArialMT-72" x="756.005859"/>
      <use xlink:href="#ArialMT-6f" x="789.306641"/>
      <use xlink:href="#ArialMT-62" x="844.921875"/>
      <use xlink:href="#ArialMT-65" x="900.537109"/>
      <use xlink:href="#ArialMT-20" x="956.152344"/>
      <use xlink:href="#ArialMT-28" x="983.935547"/>
      <use xlink:href="#ArialMT-3bc" x="1017.236328"/>
      <use xlink:href="#ArialMT-6d" x="1074.853516"/>
      <use xlink:href="#ArialMT-29" x="1158.154297"/>
     </g>
    </g>
   </g>
   <g id="matplotlib.axis_2">
    <g id="ytick_1">
     <g id="line2d_7">
      <defs>
       <path id="mada481d05d" d="M 0 0 
L -3.5 0 
" style="stroke: #262626; stroke-width: 0.8"/>
      </defs>
      <g>
       <use xlink:href="#mada481d05d" x="61.58" y="371.894459" style="fill: #262626; stroke: #262626; stroke-width: 0.8"/>
      </g>
     </g>
     <g id="text_8">
      <!-- −0.10 -->
      <g style="fill: #262626" transform="translate(29.278438 375.473365) scale(0.1 -0.1)">
       <defs>
        <path id="ArialMT-2212" d="M 3381 1997 
L 356 1997 
L 356 2522 
L 3381 2522 
L 3381 1997 
z
" transform="scale(0.015625)"/>
        <path id="ArialMT-2e" d="M 581 0 
L 581 641 
L 1222 641 
L 1222 0 
L 581 0 
z
" transform="scale(0.015625)"/>
       </defs>
       <use xlink:href="#ArialMT-2212"/>
       <use xlink:href="#ArialMT-30" x="58.398438"/>
       <use xlink:href="#ArialMT-2e" x="114.013672"/>
       <use xlink:href="#ArialMT-31" x="141.796875"/>
       <use xlink:href="#ArialMT-30" x="197.412109"/>
      </g>
     </g>
    </g>
    <g id="ytick_2">
     <g id="line2d_8">
      <g>
       <use xlink:href="#mada481d05d" x="61.58" y="328.074603" style="fill: #262626; stroke: #262626; stroke-width: 0.8"/>
      </g>
     </g>
     <g id="text_9">
      <!-- −0.08 -->
      <g style="fill: #262626" transform="translate(29.278438 331.653509) scale(0.1 -0.1)">
       <use xlink:href="#ArialMT-2212"/>
       <use xlink:href="#ArialMT-30" x="58.398438"/>
       <use xlink:href="#ArialMT-2e" x="114.013672"/>
       <use xlink:href="#ArialMT-30" x="141.796875"/>
       <use xlink:href="#ArialMT-38" x="197.412109"/>
      </g>
     </g>
    </g>
    <g id="ytick_3">
     <g id="line2d_9">
      <g>
       <use xlink:href="#mada481d05d" x="61.58" y="284.254746" style="fill: #262626; stroke: #262626; stroke-width: 0.8"/>
      </g>
     </g>
     <g id="text_10">
      <!-- −0.06 -->
      <g style="fill: #262626" transform="translate(29.278438 287.833653) scale(0.1 -0.1)">
       <use xlink:href="#ArialMT-2212"/>
       <use xlink:href="#ArialMT-30" x="58.398438"/>
       <use xlink:href="#ArialMT-2e" x="114.013672"/>
       <use xlink:href="#ArialMT-30" x="141.796875"/>
       <use xlink:href="#ArialMT-36" x="197.412109"/>
      </g>
     </g>
    </g>
    <g id="ytick_4">
     <g id="line2d_10">
      <g>
       <use xlink:href="#mada481d05d" x="61.58" y="240.43489" style="fill: #262626; stroke: #262626; stroke-width: 0.8"/>
      </g>
     </g>
     <g id="text_11">
      <!-- −0.04 -->
      <g style="fill: #262626" transform="translate(29.278438 244.013796) scale(0.1 -0.1)">
       <use xlink:href="#ArialMT-2212"/>
       <use xlink:href="#ArialMT-30" x="58.398438"/>
       <use xlink:href="#ArialMT-2e" x="114.013672"/>
       <use xlink:href="#ArialMT-30" x="141.796875"/>
       <use xlink:href="#ArialMT-34" x="197.412109"/>
      </g>
     </g>
    </g>
    <g id="ytick_5">
     <g id="line2d_11">
      <g>
       <use xlink:href="#mada481d05d" x="61.58" y="196.615034" style="fill: #262626; stroke: #262626; stroke-width: 0.8"/>
      </g>
     </g>
     <g id="text_12">
      <!-- −0.02 -->
      <g style="fill: #262626" transform="translate(29.278438 200.19394) scale(0.1 -0.1)">
       <use xlink:href="#ArialMT-2212"/>
       <use xlink:href="#ArialMT-30" x="58.398438"/>
       <use xlink:href="#ArialMT-2e" x="114.013672"/>
       <use xlink:href="#ArialMT-30" x="141.796875"/>
       <use xlink:href="#ArialMT-32" x="197.412109"/>
      </g>
     </g>
    </g>
    <g id="ytick_6">
     <g id="line2d_12">
      <g>
       <use xlink:href="#mada481d05d" x="61.58" y="152.795177" style="fill: #262626; stroke: #262626; stroke-width: 0.8"/>
      </g>
     </g>
     <g id="text_13">
      <!-- 0.00 -->
      <g style="fill: #262626" transform="translate(35.119063 156.374083) scale(0.1 -0.1)">
       <use xlink:href="#ArialMT-30"/>
       <use xlink:href="#ArialMT-2e" x="55.615234"/>
       <use xlink:href="#ArialMT-30" x="83.398438"/>
       <use xlink:href="#ArialMT-30" x="139.013672"/>
      </g>
     </g>
    </g>
    <g id="ytick_7">
     <g id="line2d_13">
      <g>
       <use xlink:href="#mada481d05d" x="61.58" y="108.975321" style="fill: #262626; stroke: #262626; stroke-width: 0.8"/>
      </g>
     </g>
     <g id="text_14">
      <!-- 0.02 -->
      <g style="fill: #262626" transform="translate(35.119063 112.554227) scale(0.1 -0.1)">
       <use xlink:href="#ArialMT-30"/>
       <use xlink:href="#ArialMT-2e" x="55.615234"/>
       <use xlink:href="#ArialMT-30" x="83.398438"/>
       <use xlink:href="#ArialMT-32" x="139.013672"/>
      </g>
     </g>
    </g>
    <g id="ytick_8">
     <g id="line2d_14">
      <g>
       <use xlink:href="#mada481d05d" x="61.58" y="65.155464" style="fill: #262626; stroke: #262626; stroke-width: 0.8"/>
      </g>
     </g>
     <g id="text_15">
      <!-- 0.04 -->
      <g style="fill: #262626" transform="translate(35.119063 68.734371) scale(0.1 -0.1)">
       <use xlink:href="#ArialMT-30"/>
       <use xlink:href="#ArialMT-2e" x="55.615234"/>
       <use xlink:href="#ArialMT-30" x="83.398438"/>
       <use xlink:href="#ArialMT-34" x="139.013672"/>
      </g>
     </g>
    </g>
    <g id="ytick_9">
     <g id="line2d_15">
      <g>
       <use xlink:href="#mada481d05d" x="61.58" y="21.335608" style="fill: #262626; stroke: #262626; stroke-width: 0.8"/>
      </g>
     </g>
     <g id="text_16">
      <!-- 0.06 -->
      <g style="fill: #262626" transform="translate(35.119063 24.914514) scale(0.1 -0.1)">
       <use xlink:href="#ArialMT-30"/>
       <use xlink:href="#ArialMT-2e" x="55.615234"/>
       <use xlink:href="#ArialMT-30" x="83.398438"/>
       <use xlink:href="#ArialMT-36" x="139.013672"/>
      </g>
     </g>
    </g>
    <g id="text_17">
     <!-- Z Strain -->
     <g style="fill: #262626" transform="translate(22.098438 226.9525) rotate(-90) scale(0.16 -0.16)">
      <defs>
       <path id="ArialMT-5a" d="M 128 0 
L 128 563 
L 2475 3497 
Q 2725 3809 2950 4041 
L 394 4041 
L 394 4581 
L 3675 4581 
L 3675 4041 
L 1103 863 
L 825 541 
L 3750 541 
L 3750 0 
L 128 0 
z
" transform="scale(0.015625)"/>
       <path id="ArialMT-53" d="M 288 1472 
L 859 1522 
Q 900 1178 1048 958 
Q 1197 738 1509 602 
Q 1822 466 2213 466 
Q 2559 466 2825 569 
Q 3091 672 3220 851 
Q 3350 1031 3350 1244 
Q 3350 1459 3225 1620 
Q 3100 1781 2813 1891 
Q 2628 1963 1997 2114 
Q 1366 2266 1113 2400 
Q 784 2572 623 2826 
Q 463 3081 463 3397 
Q 463 3744 659 4045 
Q 856 4347 1234 4503 
Q 1613 4659 2075 4659 
Q 2584 4659 2973 4495 
Q 3363 4331 3572 4012 
Q 3781 3694 3797 3291 
L 3216 3247 
Q 3169 3681 2898 3903 
Q 2628 4125 2100 4125 
Q 1550 4125 1298 3923 
Q 1047 3722 1047 3438 
Q 1047 3191 1225 3031 
Q 1400 2872 2139 2705 
Q 2878 2538 3153 2413 
Q 3553 2228 3743 1945 
Q 3934 1663 3934 1294 
Q 3934 928 3725 604 
Q 3516 281 3123 101 
Q 2731 -78 2241 -78 
Q 1619 -78 1198 103 
Q 778 284 539 648 
Q 300 1013 288 1472 
z
" transform="scale(0.015625)"/>
      </defs>
      <use xlink:href="#ArialMT-5a"/>
      <use xlink:href="#ArialMT-20" x="61.083984"/>
      <use xlink:href="#ArialMT-53" x="88.867188"/>
      <use xlink:href="#ArialMT-74" x="155.566406"/>
      <use xlink:href="#ArialMT-72" x="183.349609"/>
      <use xlink:href="#ArialMT-61" x="216.650391"/>
      <use xlink:href="#ArialMT-69" x="272.265625"/>
      <use xlink:href="#ArialMT-6e" x="294.482422"/>
     </g>
    </g>
   </g>
   <g id="line2d_16">
    <path d="M 61.58 152.795177 
L 698.04 152.795177 
" clip-path="url(#p5642ebb62f)" style="fill: none; stroke: #000000; stroke-width: 1.5; stroke-linecap: round"/>
   </g>
   <g id="line2d_17">
    <path d="M 61.58 339.533495 
L 66.401023 292.711979 
L 66.556471 292.711979 
L 66.556471 292.711979 
L 66.556471 285.744622 
L 71.295715 285.766531 
L 71.295715 285.766531 
L 75.511447 275.907064 
L 75.511447 275.907064 
L 75.511447 275.512685 
L 75.929856 275.512685 
L 75.929856 275.512685 
L 79.932591 270.582951 
L 79.932591 270.582951 
L 80.50755 270.714411 
L 80.50755 270.714411 
L 84.326635 270.714411 
L 84.326635 264.75491 
L 84.326635 264.75491 
L 85.083284 264.79873 
L 85.083284 264.79873 
L 88.710081 264.79873 
L 88.710081 262.038079 
L 88.710081 262.038079 
L 93.096443 262.059989 
L 93.096443 258.532491 
L 93.096443 258.532491 
L 97.479125 258.532491 
L 97.479125 258.68586 
L 97.479125 258.68586 
L 101.866791 258.68586 
L 101.866791 256.538687 
L 101.866791 256.538687 
L 106.259664 256.472957 
L 106.259664 251.214575 
L 106.259664 251.214575 
L 107.799152 251.214575 
L 107.799152 250.995475 
L 110.648457 250.995475 
L 110.648457 250.995475 
L 110.648457 253.493207 
L 112.325853 253.493207 
L 112.325853 253.493207 
L 115.028612 253.734216 
L 115.028612 253.734216 
L 116.843765 253.011189 
L 116.843765 253.011189 
L 116.843765 252.74827 
L 121.361109 252.74827 
L 121.361109 252.331981 
L 121.361109 252.331981 
L 123.766597 252.331981 
L 123.766597 252.463441 
L 123.766597 252.463441 
L 125.880217 252.463441 
L 125.880217 247.993815 
L 125.880217 247.993815 
L 128.152443 248.147185 
L 128.152443 248.147185 
L 130.401502 248.147185 
L 130.401502 243.39273 
L 130.401502 243.39273 
L 132.538862 243.39273 
L 132.538862 243.45846 
L 134.917822 244.838786 
L 134.917822 244.751146 
L 136.926553 244.751146 
L 136.926553 244.751146 
L 136.926553 242.932622 
L 141.314245 243.042171 
L 141.314245 243.042171 
L 143.932323 240.32534 
L 145.707092 240.32534 
L 145.707092 240.32534 
L 145.707092 234.935498 
L 148.436296 234.935498 
L 148.436296 234.782129 
L 150.099048 234.782129 
L 150.099048 234.782129 
L 150.099048 243.239361 
L 152.936896 243.239361 
L 152.936896 243.239361 
L 154.495904 243.107901 
L 154.495904 243.107901 
L 157.434313 243.107901 
L 157.434313 238.550636 
L 157.434313 238.550636 
L 158.892506 238.550636 
L 158.892506 238.682096 
L 158.892506 238.682096 
L 161.932621 237.652329 
L 163.288536 237.652329 
L 163.288536 237.652329 
L 163.288536 241.705666 
L 166.42832 241.705666 
L 166.42832 241.705666 
L 166.42832 241.552296 
L 167.688447 241.552296 
L 167.688447 241.552296 
L 167.688447 232.591136 
L 170.919055 232.591136 
L 170.919055 232.591136 
L 172.089568 232.854055 
L 172.089568 232.854055 
L 175.408643 232.854055 
L 175.408643 232.372036 
L 175.408643 232.372036 
L 176.492344 232.372036 
L 176.492344 232.218667 
L 179.893777 232.218667 
L 179.893777 232.218667 
L 179.893777 235.614706 
L 185.306615 235.505156 
L 185.306615 234.804038 
L 193.33874 234.847858 
L 193.33874 229.611386 
L 193.33874 229.611386 
L 197.815791 229.633295 
L 197.815791 234.037191 
L 202.294114 234.102921 
L 202.294114 234.102921 
L 202.294114 226.456356 
L 202.958069 226.456356 
L 202.958069 226.894554 
L 206.767028 226.894554 
L 206.767028 230.443963 
L 206.767028 230.443963 
L 211.239559 230.443963 
L 211.239559 228.537799 
L 211.239559 228.537799 
L 211.796589 228.537799 
L 211.796589 228.34061 
L 215.711073 228.34061 
L 215.711073 228.34061 
L 215.711073 230.991711 
L 216.216867 230.991711 
L 216.216867 230.991711 
L 216.216867 230.816432 
L 220.179213 230.816432 
L 220.179213 230.816432 
L 220.64001 224.002444 
L 220.64001 224.002444 
L 224.645635 224.199633 
L 224.645635 224.199633 
L 225.066271 225.733328 
L 225.066271 225.733328 
L 229.111102 225.733328 
L 229.111102 225.558049 
L 229.111102 225.558049 
L 229.493296 228.493979 
L 229.493296 228.493979 
L 233.922421 228.493979 
L 233.922421 228.493979 
L 238.035544 220.628315 
L 238.035544 220.628315 
L 238.354219 220.715955 
L 238.354219 220.715955 
L 242.498401 224.637832 
L 242.498401 224.637832 
L 242.784617 224.506372 
L 242.784617 224.506372 
L 246.955785 224.506372 
L 246.955785 223.892894 
L 247.220616 223.892894 
L 247.220616 223.892894 
L 247.220616 224.111994 
L 251.656933 224.111994 
L 251.656933 221.570442 
L 255.870171 221.570442 
L 255.870171 221.899091 
L 255.870171 221.899091 
L 256.094269 221.899091 
L 256.094269 218.96316 
L 256.094269 218.96316 
L 260.325582 218.96316 
L 260.325582 218.612602 
L 260.325582 218.612602 
L 260.533514 218.612602 
L 260.533514 222.09628 
L 260.533514 222.09628 
L 264.974159 222.11819 
L 264.974159 222.11819 
L 264.974159 215.720491 
L 269.233094 215.720491 
L 269.233094 215.720491 
L 269.233094 216.1806 
L 269.416395 216.1806 
L 269.416395 216.1806 
L 269.416395 219.0508 
L 273.861177 219.09462 
L 273.861177 219.09462 
L 273.861177 217.495195 
L 278.30405 217.473285 
L 278.30405 217.473285 
L 278.30405 216.859807 
L 282.585962 216.859807 
L 282.585962 216.859807 
L 282.752078 216.640708 
L 282.752078 216.640708 
L 282.752078 218.283953 
L 287.201124 218.262043 
L 287.201124 218.262043 
L 291.485073 211.316595 
L 291.485073 211.316595 
L 291.485073 211.623334 
L 291.647497 211.623334 
L 291.647497 211.623334 
L 291.647497 215.107013 
L 295.9317 215.107013 
L 295.9317 215.107013 
L 295.9317 214.887914 
L 296.098517 214.887914 
L 296.098517 214.887914 
L 300.378137 214.405895 
L 300.378137 214.405895 
L 300.549663 214.668814 
L 300.549663 214.668814 
L 305.002274 211.864344 
L 305.002274 212.149173 
L 305.002274 212.149173 
L 309.267638 212.149173 
L 309.267638 212.95984 
L 309.267638 212.95984 
L 309.456475 212.95984 
L 309.456475 212.740741 
L 313.71051 212.740741 
L 313.71051 212.740741 
L 313.912459 210.243009 
L 313.912459 210.243009 
L 318.156183 210.243009 
L 318.156183 210.571658 
L 318.156183 210.571658 
L 322.596829 210.549748 
L 322.596829 210.549748 
L 322.596829 210.221099 
L 327.036583 210.221099 
L 327.036583 210.221099 
L 327.036583 206.058213 
L 327.285502 206.058213 
L 327.285502 205.839113 
L 331.479964 205.839113 
L 331.479964 205.839113 
L 331.479964 207.679547 
L 331.742759 207.679547 
L 331.742759 207.679547 
L 331.742759 208.052016 
L 331.742759 208.052016 
L 335.919082 208.052016 
L 335.919082 208.534035 
L 335.919082 208.534035 
L 336.204852 208.205386 
L 336.204852 208.205386 
L 340.358136 208.205386 
L 340.358136 204.458788 
L 344.79719 204.568338 
L 344.79719 206.386862 
L 344.79719 206.386862 
L 345.129676 206.386862 
L 345.129676 206.693601 
L 345.129676 206.693601 
L 349.235416 206.693601 
L 349.235416 205.357095 
L 349.235416 205.357095 
L 349.593489 204.918896 
L 349.593489 204.918896 
L 353.67237 204.918896 
L 353.67237 204.918896 
L 353.67237 203.71385 
L 358.521368 203.80149 
L 358.521368 202.158245 
L 358.521368 202.158245 
L 362.54755 202.158245 
L 362.54755 202.530714 
L 362.54755 202.530714 
L 362.989381 202.530714 
L 362.989381 202.705994 
L 366.982531 202.705994 
L 366.982531 202.705994 
L 366.982531 202.443075 
L 367.45733 202.443075 
L 367.45733 203.385201 
L 367.45733 203.385201 
L 371.420566 203.385201 
L 371.420566 203.144192 
L 371.420566 203.144192 
L 371.92286 203.144192 
L 371.92286 197.79817 
L 375.857265 197.79817 
L 375.857265 197.79817 
L 375.857265 198.017269 
L 376.390428 198.017269 
L 376.390428 198.017269 
L 376.390428 200.515001 
L 380.290782 200.515001 
L 380.290782 200.515001 
L 380.290782 200.317812 
L 380.861241 200.317812 
L 380.861241 200.317812 
L 384.725317 197.8639 
L 384.725317 197.8639 
L 385.33129 198.104909 
L 385.33129 198.104909 
L 389.159661 198.104909 
L 389.159661 197.929629 
L 389.159661 197.929629 
L 389.801722 197.82008 
L 389.801722 197.82008 
L 394.273553 197.206602 
L 394.273553 197.206602 
L 398.030131 197.206602 
L 398.030131 194.75269 
L 398.030131 194.75269 
L 398.742903 194.75269 
L 398.742903 195.234708 
L 398.742903 195.234708 
L 402.46543 194.75269 
L 402.46543 194.75269 
L 403.218999 194.79651 
L 403.218999 194.79651 
L 403.218999 193.701013 
L 406.902066 193.701013 
L 406.902066 193.569554 
L 407.695986 193.569554 
L 407.695986 193.569554 
L 407.695986 193.416184 
L 411.338128 193.416184 
L 411.338128 193.416184 
L 411.338128 193.240905 
L 412.167435 193.240905 
L 412.167435 192.934166 
L 412.167435 192.934166 
L 416.637676 192.868436 
L 416.637676 192.452147 
L 416.637676 192.452147 
L 420.189505 192.452147 
L 420.189505 192.254958 
L 420.189505 192.254958 
L 421.102825 192.254958 
L 421.102825 192.254958 
L 424.617484 187.807243 
L 424.617484 187.938702 
L 425.572492 187.938702 
L 425.572492 187.938702 
L 425.572492 190.852723 
L 429.048073 190.852723 
L 429.048073 190.852723 
L 429.048073 190.677443 
L 430.051389 190.677443 
L 430.051389 190.677443 
L 433.486109 187.894882 
L 433.486109 187.894882 
L 434.530667 188.092072 
L 434.530667 188.092072 
L 437.918543 188.398811 
L 437.918543 188.398811 
L 437.918543 188.245441 
L 439.011282 188.245441 
L 439.011282 188.245441 
L 439.011282 184.367384 
L 442.349132 184.367384 
L 442.349132 184.235924 
L 443.488841 184.235924 
L 443.488841 184.235924 
L 446.783222 186.032538 
L 446.783222 186.032538 
L 447.963473 185.966809 
L 447.963473 185.966809 
L 451.215911 185.966809 
L 451.215911 185.66007 
L 451.215911 185.66007 
L 455.645291 185.769619 
L 455.645291 184.717943 
L 455.645291 184.717943 
L 456.917575 184.717943 
L 456.917575 184.893222 
L 456.917575 184.893222 
L 460.078744 184.893222 
L 460.078744 182.789869 
L 464.508824 182.680319 
L 464.508824 181.716282 
L 468.939286 181.628643 
L 468.939286 181.628643 
L 470.349426 181.957292 
L 470.349426 181.957292 
L 474.825013 181.935382 
L 474.825013 180.927525 
L 474.825013 180.927525 
L 477.802437 180.533146 
L 477.802437 180.533146 
L 477.802437 180.379777 
L 483.781469 180.314047 
L 483.781469 179.3281 
L 483.781469 179.3281 
L 488.260493 179.35001 
L 488.260493 179.35001 
L 488.260493 177.378117 
L 488.260493 177.378117 
L 492.737161 177.356207 
L 492.737161 178.188784 
L 492.737161 178.188784 
L 497.217203 178.254514 
L 497.217203 178.254514 
L 499.954363 177.180927 
L 501.696545 177.180927 
L 501.696545 176.918008 
L 501.696545 176.918008 
L 504.38648 176.918008 
L 504.38648 176.764639 
L 504.38648 176.764639 
L 506.174741 176.764639 
L 506.174741 174.354547 
L 506.174741 174.354547 
L 508.815223 174.529826 
L 508.815223 174.529826 
L 510.65542 174.223087 
L 510.65542 174.223087 
L 510.65542 174.025898 
L 513.24734 174.025898 
L 513.24734 174.025898 
L 515.132852 172.010184 
L 517.67691 172.010184 
L 517.67691 172.010184 
L 517.67691 172.798942 
L 522.106417 172.733212 
L 522.106417 172.733212 
L 522.106417 171.309067 
L 526.537834 171.352886 
L 526.537834 170.783228 
L 526.537834 170.783228 
L 530.968041 170.783228 
L 530.968041 170.783228 
L 533.05232 169.468633 
L 533.05232 169.512452 
L 535.397611 169.512452 
L 535.397611 169.512452 
L 537.532553 168.570326 
L 537.532553 168.570326 
L 539.8289 168.570326 
L 539.8289 168.307406 
L 539.8289 168.307406 
L 542.011449 168.110217 
L 542.011449 168.110217 
L 546.492637 168.110217 
L 546.492637 166.839441 
L 546.492637 166.839441 
L 550.972297 166.773711 
L 550.972297 166.160233 
L 553.118313 166.160233 
L 553.118313 166.160233 
L 553.118313 166.028774 
L 555.45202 166.028774 
L 555.45202 166.028774 
L 555.45202 164.999007 
L 555.45202 164.999007 
L 559.932317 165.042827 
L 559.932317 165.042827 
L 561.977581 164.14452 
L 561.977581 164.14452 
L 564.412614 164.07879 
L 564.412614 164.07879 
L 566.408934 163.355763 
L 566.408934 163.355763 
L 568.893101 163.465312 
L 568.893101 163.465312 
L 570.838759 162.106897 
L 573.373652 162.106897 
L 573.373652 162.106897 
L 573.373652 160.923761 
L 577.854076 160.814211 
L 577.854076 160.376012 
L 582.334436 160.266463 
L 582.334436 160.266463 
L 582.334436 159.499615 
L 588.557933 159.411976 
L 588.557933 158.426029 
L 592.986231 158.338389 
L 592.986231 157.593452 
L 597.414465 157.505812 
L 597.414465 157.505812 
L 600.257977 156.388405 
L 601.84569 156.388405 
L 601.84569 156.388405 
L 601.84569 155.380549 
L 604.739737 155.380549 
L 604.739737 155.380549 
L 604.739737 155.249089 
L 606.275324 155.249089 
L 606.275324 155.249089 
L 609.220861 154.482242 
L 609.220861 154.482242 
L 613.70154 154.394602 
L 613.70154 154.394602 
L 613.70154 153.474385 
L 618.181964 153.364835 
L 618.181964 153.364835 
L 618.181964 152.383271 
L 618.181964 152.383271 
L 622.662387 152.29344 
L 622.662387 152.29344 
L 623.994689 151.349122 
L 623.994689 151.349122 
L 627.143193 151.349122 
L 627.143193 151.217662 
L 627.143193 151.217662 
L 628.424705 151.217662 
L 628.424705 150.271154 
L 631.623362 150.271154 
L 631.623362 150.146267 
L 631.623362 150.146267 
L 632.85243 150.146267 
L 632.85243 149.252342 
L 632.85243 149.252342 
L 636.106459 149.252342 
L 636.106459 149.13841 
L 636.106459 149.13841 
L 637.280028 149.13841 
L 637.280028 148.141508 
L 640.587074 148.141508 
L 640.587074 148.141508 
L 641.711126 148.023195 
L 641.711126 148.023195 
L 641.711126 147.381234 
L 645.070044 147.381234 
L 645.070044 147.208146 
L 645.070044 147.208146 
L 646.139997 145.737989 
L 646.139997 145.737989 
L 650.570331 145.656923 
L 650.570331 144.787098 
L 654.033692 144.787098 
L 654.033692 144.787098 
L 654.033692 144.642493 
L 655.001938 144.642493 
L 655.001938 144.642493 
L 655.001938 143.194247 
L 658.514497 143.194247 
L 658.514497 143.194247 
L 658.514497 143.058405 
L 659.438255 143.058405 
L 659.438255 143.058405 
L 663.893921 142.052739 
L 663.893921 142.052739 
L 667.493357 140.582583 
L 667.493357 140.582583 
L 668.418579 140.455506 
L 668.418579 140.455506 
L 672.026161 140.11152 
L 672.026161 140.11152 
L 673.130292 139.804781 
L 673.130292 139.804781 
L 673.130292 137.296094 
L 678.264997 137.256656 
L 678.264997 137.256656 
L 680.992292 135.994644 
L 680.992292 135.994644 
L 684.371512 135.523581 
L 684.371512 135.523581 
L 685.476534 133.628372 
L 690.245338 133.628372 
L 690.245338 132.78484 
L 690.245338 132.78484 
L 694.11807 132.158216 
L 694.11807 132.158216 
L 695.552014 132.158216 
L 695.552014 129.859864 
L 695.552014 129.859864 
L 696.4794 129.859864 
L 696.4794 129.371273 
L 696.4794 129.371273 
L 701.207661 129.371273 
L 701.207661 126.084784 
L 705.408934 126.084784 
L 705.408934 126.084784 
L 705.408934 125.940178 
L 707.499069 125.940178 
L 707.499069 125.940178 
L 713.512979 120.013543 
L 713.512979 120.013543 
L 713.689915 119.56658 
L 713.689915 119.56658 
L 714.256364 119.56658 
L 714.256364 119.56658 
L 714.256364 108.979703 
L 719.964774 108.979703 
L 719.964774 108.979703 
L 721 108.705878 
L 721 108.705878 
" clip-path="url(#p5642ebb62f)" style="fill: none; stroke-dasharray: 5.55,2.4; stroke-dashoffset: 0; stroke: #1f77b4; stroke-width: 1.5"/>
   </g>
   <g id="line2d_18">
    <path d="M 61.58 340.146973 
L 66.401023 293.610286 
L 66.556471 293.610286 
L 66.556471 293.610286 
L 66.556471 287.081127 
L 71.295715 287.103037 
L 71.295715 287.103037 
L 75.511447 276.98065 
L 75.929856 276.98065 
L 75.929856 276.98065 
L 79.932591 272.379565 
L 79.932591 272.379565 
L 80.50755 272.379565 
L 80.50755 272.379565 
L 84.326635 273.343602 
L 84.326635 273.343602 
L 85.083284 265.806587 
L 88.710081 265.806587 
L 88.710081 265.784677 
L 89.634011 263.045936 
L 89.634011 263.045936 
L 93.096443 262.980206 
L 93.096443 262.980206 
L 94.176178 259.343158 
L 94.176178 259.343158 
L 97.479125 259.343158 
L 97.479125 259.343158 
L 98.720961 259.562257 
L 98.720961 259.562257 
L 101.866791 259.474618 
L 101.866791 259.474618 
L 103.263057 257.239805 
L 103.263057 257.239805 
L 106.259664 257.152165 
L 106.259664 257.152165 
L 107.799152 251.565134 
L 107.799152 251.565134 
L 110.648457 251.565134 
L 110.648457 251.696593 
L 110.648457 251.696593 
L 112.325853 254.150505 
L 112.325853 254.150505 
L 115.028612 254.150505 
L 115.028612 253.931406 
L 115.028612 253.931406 
L 116.843765 253.405568 
L 116.843765 253.405568 
L 121.361109 253.493207 
L 121.361109 253.230288 
L 121.361109 253.230288 
L 123.766597 252.967369 
L 123.766597 252.967369 
L 125.880217 248.147185 
L 125.880217 248.147185 
L 130.401502 248.059545 
L 130.401502 243.743289 
L 130.401502 243.743289 
L 132.538862 243.63374 
L 132.538862 243.63374 
L 134.917822 244.729236 
L 134.917822 244.729236 
L 136.926553 244.488227 
L 136.926553 244.488227 
L 139.428032 242.932622 
L 139.428032 242.932622 
L 141.314245 242.647793 
L 141.314245 242.647793 
L 143.932323 242.647793 
L 143.932323 240.237701 
L 143.932323 240.237701 
L 145.707092 240.237701 
L 145.707092 240.237701 
L 148.436296 235.001228 
L 148.436296 235.001228 
L 150.099048 235.001228 
L 150.099048 235.045048 
L 152.936896 243.34891 
L 152.936896 243.34891 
L 154.495904 243.34891 
L 154.495904 243.5461 
L 154.495904 243.5461 
L 157.434313 238.134348 
L 157.434313 238.134348 
L 158.892506 238.046708 
L 158.892506 238.046708 
L 163.288536 236.951211 
L 163.288536 236.951211 
L 166.42832 240.32534 
L 166.42832 240.32534 
L 167.688447 240.4568 
L 167.688447 240.4568 
L 170.919055 232.591136 
L 170.919055 232.591136 
L 172.089568 232.591136 
L 172.089568 232.043388 
L 175.408643 232.043388 
L 175.408643 231.473729 
L 175.408643 231.473729 
L 176.492344 231.42991 
L 176.492344 231.42991 
L 179.893777 231.42991 
L 179.893777 235.286057 
L 179.893777 235.286057 
L 180.898365 235.307967 
L 180.898365 235.307967 
L 184.377638 234.541119 
L 185.306615 234.541119 
L 185.306615 234.2782 
L 188.859398 234.2782 
L 188.859398 228.406339 
L 188.859398 228.406339 
L 189.716901 228.14342 
L 189.716901 228.14342 
L 193.33874 228.14342 
L 193.33874 232.832145 
L 193.33874 232.832145 
L 194.129223 232.613046 
L 194.129223 232.613046 
L 197.815791 226.368716 
L 197.815791 226.368716 
L 198.544537 226.368716 
L 198.544537 225.404679 
L 198.544537 225.404679 
L 202.294114 228.559709 
L 202.294114 228.559709 
L 202.958069 228.29679 
L 202.958069 228.29679 
L 206.767028 226.412536 
L 206.767028 226.412536 
L 207.377202 226.302986 
L 207.377202 226.302986 
L 211.239559 229.238917 
L 211.239559 229.238917 
L 211.796589 229.129367 
L 211.796589 229.129367 
L 215.711073 229.129367 
L 215.711073 222.863128 
L 215.711073 222.863128 
L 216.216867 222.687848 
L 216.216867 222.687848 
L 220.179213 223.388966 
L 220.179213 223.388966 
L 220.64001 223.082227 
L 220.64001 223.082227 
L 224.645635 225.842878 
L 224.645635 225.842878 
L 229.111102 225.842878 
L 229.111102 218.853611 
L 229.111102 218.853611 
L 229.493296 218.503052 
L 229.493296 218.503052 
L 233.574723 218.503052 
L 233.574723 222.490659 
L 233.574723 222.490659 
L 233.922421 222.512569 
L 233.922421 222.512569 
L 238.035544 222.512569 
L 238.035544 222.27156 
L 238.035544 222.27156 
L 238.354219 221.570442 
L 238.354219 221.570442 
L 242.498401 218.98507 
L 242.498401 218.98507 
L 242.784617 218.415412 
L 242.784617 218.415412 
L 246.955785 215.501392 
L 246.955785 215.501392 
L 247.220616 215.501392 
L 247.220616 216.246329 
L 247.220616 216.246329 
L 251.656933 218.152493 
L 251.656933 217.801934 
L 255.870171 217.801934 
L 255.870171 213.551408 
L 255.870171 213.551408 
L 256.094269 212.455912 
L 256.094269 212.455912 
L 260.325582 215.128923 
L 260.325582 215.128923 
L 260.533514 214.668814 
L 260.533514 214.668814 
L 264.974159 213.157029 
L 264.974159 213.157029 
L 269.233094 212.477822 
L 269.233094 212.477822 
L 269.416395 212.083443 
L 269.416395 212.083443 
L 273.68405 212.302542 
L 273.68405 212.302542 
L 273.861177 211.995803 
L 273.861177 211.995803 
L 278.137361 207.087979 
L 278.137361 207.087979 
L 278.30405 207.087979 
L 278.30405 206.715511 
L 278.30405 206.715511 
L 282.752078 209.344702 
L 282.752078 210.155369 
L 282.752078 210.155369 
L 287.201124 208.972233 
L 287.201124 208.555945 
L 287.201124 208.555945 
L 291.485073 206.86888 
L 291.485073 206.86888 
L 291.647497 206.058213 
L 291.647497 206.058213 
L 296.098517 207.723367 
L 296.098517 207.723367 
L 300.378137 207.723367 
L 300.378137 205.159906 
L 300.378137 205.159906 
L 300.549663 203.80149 
L 300.549663 203.80149 
L 305.002274 204.502608 
L 305.002274 204.108229 
L 305.002274 204.108229 
L 309.456475 203.253742 
L 309.456475 203.253742 
L 313.912459 200.405451 
L 318.156183 200.405451 
L 318.156183 201.610497 
L 318.156183 201.610497 
L 318.366088 200.71219 
L 318.366088 200.71219 
L 322.596829 200.69028 
L 322.596829 200.69028 
L 322.82519 200.84365 
L 322.82519 200.84365 
L 327.036583 200.84365 
L 327.036583 198.411648 
L 327.036583 198.411648 
L 327.285502 197.513341 
L 331.479964 197.513341 
L 331.479964 198.849846 
L 331.479964 198.849846 
L 331.742759 198.367828 
L 331.742759 198.367828 
L 331.742759 197.206602 
L 340.666946 197.206602 
L 340.666946 196.330205 
L 344.79719 194.53359 
L 344.79719 194.53359 
L 345.129676 193.898203 
L 345.129676 193.898203 
L 349.235416 193.635283 
L 349.235416 193.635283 
L 349.593489 193.328544 
L 349.593489 193.328544 
L 358.112188 193.438094 
L 358.112188 190.392614 
L 358.112188 190.392614 
L 358.521368 189.625767 
L 358.521368 189.625767 
L 362.54755 191.61957 
L 362.54755 191.61957 
L 362.989381 191.400471 
L 362.989381 191.400471 
L 366.982531 191.400471 
L 366.982531 189.691496 
L 366.982531 189.691496 
L 367.45733 189.121838 
L 367.45733 189.121838 
L 371.420566 188.267351 
L 371.420566 188.267351 
L 371.92286 187.960612 
L 371.92286 187.960612 
L 375.857265 187.960612 
L 375.857265 187.325224 
L 376.390428 187.149945 
L 376.390428 187.149945 
L 380.290782 186.426917 
L 380.290782 186.426917 
L 380.861241 185.090411 
L 380.861241 185.090411 
L 384.725317 184.915132 
L 384.725317 184.915132 
L 385.33129 184.301654 
L 385.33129 184.301654 
L 389.159661 183.556716 
L 389.159661 183.556716 
L 389.801722 183.162338 
L 389.801722 183.162338 
L 393.593178 182.307851 
L 393.593178 182.307851 
L 394.273553 182.307851 
L 394.273553 181.979202 
L 394.273553 181.979202 
L 398.030131 181.541003 
L 398.030131 181.541003 
L 398.742903 180.905615 
L 398.742903 180.905615 
L 402.46543 180.949435 
L 402.46543 180.949435 
L 403.218999 180.752246 
L 403.218999 180.752246 
L 406.902066 178.473613 
L 406.902066 178.473613 
L 407.695986 178.473613 
L 407.695986 177.750585 
L 407.695986 177.750585 
L 411.338128 178.867992 
L 411.338128 178.867992 
L 412.167435 178.517433 
L 412.167435 178.517433 
L 415.763944 176.720819 
L 415.763944 176.720819 
L 416.637676 176.720819 
L 416.637676 175.997791 
L 416.637676 175.997791 
L 420.189505 175.778692 
L 420.189505 175.778692 
L 421.102825 175.581503 
L 424.617484 175.581503 
L 424.617484 173.894438 
L 424.617484 173.894438 
L 425.572492 173.32478 
L 425.572492 173.32478 
L 429.048073 173.543879 
L 429.048073 173.543879 
L 430.051389 173.105681 
L 430.051389 173.105681 
L 433.486109 172.360743 
L 433.486109 172.360743 
L 434.530667 171.769175 
L 434.530667 171.769175 
L 437.918543 171.221427 
L 437.918543 171.221427 
L 439.011282 170.651769 
L 439.011282 170.651769 
L 442.349132 169.753462 
L 443.488841 169.753462 
L 443.488841 169.249533 
L 446.783222 169.249533 
L 446.783222 168.636055 
L 446.783222 168.636055 
L 447.963473 168.088307 
L 447.963473 168.088307 
L 451.215911 167.759658 
L 451.215911 167.759658 
L 452.439187 167.16809 
L 452.439187 167.16809 
L 456.917575 165.875404 
L 456.917575 165.875404 
L 460.078744 165.546755 
L 460.078744 165.546755 
L 461.393098 165.546755 
L 461.393098 165.108557 
L 461.393098 165.108557 
L 464.508824 164.648448 
L 464.508824 164.648448 
L 465.871485 164.648448 
L 465.871485 163.903511 
L 465.871485 163.903511 
L 468.939286 162.720375 
L 468.939286 162.720375 
L 470.349426 162.720375 
L 470.349426 162.238356 
L 473.372166 162.238356 
L 473.372166 162.019257 
L 474.825013 161.361959 
L 474.825013 161.361959 
L 474.825013 160.617022 
L 477.802437 160.617022 
L 477.802437 160.617022 
L 479.303846 159.893994 
L 479.303846 159.893994 
L 482.232771 159.893994 
L 482.232771 159.368156 
L 482.232771 159.368156 
L 483.781469 158.798498 
L 483.781469 158.798498 
L 486.663424 158.11929 
L 486.663424 158.11929 
L 488.260493 157.505812 
L 488.260493 157.505812 
L 488.260493 156.892334 
L 491.095986 156.892334 
L 491.095986 156.892334 
L 492.737161 156.278856 
L 492.737161 156.278856 
L 495.52562 155.599648 
L 495.52562 155.599648 
L 497.217203 155.599648 
L 497.217203 155.00808 
L 499.954363 155.00808 
L 499.954363 154.482242 
L 499.954363 154.482242 
L 501.696545 153.781124 
L 501.696545 153.781124 
L 504.38648 153.167646 
L 504.38648 153.167646 
L 506.174741 152.499393 
L 506.174741 152.499393 
L 508.815223 151.899061 
L 508.815223 151.899061 
L 510.65542 151.204516 
L 510.65542 151.204516 
L 513.24734 150.674296 
L 513.24734 150.674296 
L 515.132852 150.674296 
L 515.132852 149.964415 
L 515.132852 149.964415 
L 517.67691 149.368464 
L 517.67691 149.368464 
L 519.613785 148.682684 
L 519.613785 148.682684 
L 519.613785 147.94651 
L 522.106417 147.94651 
L 522.106417 147.94651 
L 524.093063 147.199382 
L 524.093063 147.199382 
L 526.537834 146.805003 
L 526.537834 146.805003 
L 528.572787 145.963662 
L 528.572787 145.963662 
L 530.968041 145.400576 
L 530.968041 145.400576 
L 533.05232 145.400576 
L 533.05232 144.521988 
L 533.05232 144.521988 
L 535.397611 143.858118 
L 535.397611 143.858118 
L 537.532553 143.858118 
L 537.532553 143.008012 
L 539.8289 143.008012 
L 539.8289 142.541331 
L 539.8289 142.541331 
L 542.011449 141.905943 
L 542.011449 141.905943 
L 546.492637 140.348147 
L 546.492637 140.348147 
L 548.68696 140.006352 
L 548.68696 140.006352 
L 550.972297 139.25046 
L 550.972297 139.25046 
L 553.118313 139.25046 
L 553.118313 138.748722 
L 553.118313 138.748722 
L 555.45202 137.964347 
L 555.45202 137.964347 
L 555.45202 137.184353 
L 559.932317 137.184353 
L 559.932317 136.417506 
L 559.932317 136.417506 
L 564.412614 134.673476 
L 564.412614 134.673476 
L 566.408934 134.465331 
L 566.408934 134.465331 
L 568.893101 133.521013 
L 568.893101 133.521013 
L 570.838759 132.502202 
L 570.838759 132.502202 
L 573.373652 131.529401 
L 573.373652 131.529401 
L 575.268775 131.312493 
L 575.268775 131.312493 
L 577.854076 130.530308 
L 577.854076 130.530308 
L 579.698664 130.451432 
L 579.698664 130.451432 
L 582.334436 130.451432 
L 582.334436 129.274869 
L 582.334436 129.274869 
L 584.127471 127.4673 
L 584.127471 127.4673 
L 586.815178 127.4673 
L 586.815178 126.919552 
L 586.815178 126.919552 
L 588.557933 127.250392 
L 588.557933 127.250392 
L 591.294775 127.250392 
L 591.294775 125.999335 
L 591.294775 125.999335 
L 592.986231 124.61901 
L 592.986231 124.61901 
L 595.777426 124.61901 
L 595.777426 123.341661 
L 595.777426 123.341661 
L 597.414465 123.654973 
L 597.414465 123.654973 
L 600.257977 123.654973 
L 600.257977 123.216774 
L 601.84569 122.040211 
L 601.84569 122.040211 
L 604.739737 120.811064 
L 604.739737 120.811064 
L 606.275324 120.462696 
L 606.275324 120.462696 
L 609.220861 120.462696 
L 609.220861 119.308043 
L 610.705468 119.308043 
L 610.705468 118.863271 
L 610.705468 118.863271 
L 613.70154 117.274802 
L 613.70154 117.274802 
L 615.135739 116.72048 
L 615.135739 116.72048 
L 618.181964 116.72048 
L 618.181964 113.922583 
L 622.662387 113.922583 
L 622.662387 112.150069 
L 622.662387 112.150069 
L 623.994689 113.449328 
L 623.994689 113.449328 
L 627.143193 113.449328 
L 627.143193 111.503727 
L 627.143193 111.503727 
L 628.424705 110.515589 
L 628.424705 110.515589 
L 631.623362 110.515589 
L 631.623362 109.490204 
L 631.623362 109.490204 
L 632.85243 109.113353 
L 632.85243 109.113353 
L 636.106459 107.305784 
L 636.106459 107.305784 
L 637.280028 105.747988 
L 637.280028 105.747988 
L 640.587074 105.747988 
L 640.587074 104.019295 
L 641.711126 104.019295 
L 641.711126 104.003958 
L 645.070044 102.895316 
L 645.070044 102.895316 
L 645.070044 100.649548 
L 646.139997 100.649548 
L 646.139997 100.649548 
L 649.55225 98.29204 
L 649.55225 98.29204 
L 650.570331 96.696997 
L 650.570331 96.696997 
L 654.033692 96.696997 
L 654.033692 95.187403 
L 654.033692 95.187403 
L 655.001938 93.883762 
L 655.001938 93.883762 
L 659.438255 90.717778 
L 659.438255 90.717778 
L 662.996385 90.717778 
L 662.996385 87.348031 
L 662.996385 87.348031 
L 663.893921 85.154847 
L 663.893921 85.154847 
L 667.493357 81.03578 
L 667.493357 81.03578 
L 668.418579 78.080131 
L 668.418579 78.080131 
L 672.026161 70.955022 
L 672.026161 70.955022 
L 673.130292 66.459105 
L 673.130292 66.459105 
L 676.566731 53.372305 
L 676.566731 53.372305 
L 678.264997 53.372305 
L 678.264997 48.002182 
L 678.264997 48.002182 
L 680.992292 28.671052 
L 680.992292 28.671052 
L 684.371512 28.543974 
L 684.371512 28.543974 
L 685.476534 27.904205 
L 685.476534 27.904205 
L 685.476534 33.922862 
L 686.927345 33.922862 
L 686.927345 33.922862 
L 690.245338 40.896792 
L 690.245338 40.896792 
L 694.11807 68.236 
L 694.11807 68.236 
L 695.552014 68.236 
L 695.552014 100.21135 
L 695.552014 100.21135 
L 696.4794 100.21135 
L 696.4794 106.979326 
L 696.4794 106.979326 
L 701.207661 112.741638 
L 701.207661 112.741638 
L 705.408934 112.741638 
L 705.408934 134.305389 
L 705.408934 134.305389 
L 707.499069 142.352905 
L 707.499069 142.352905 
L 713.512979 142.352905 
L 713.512979 148.23353 
L 713.512979 148.23353 
L 713.689915 152.768666 
L 713.689915 152.768666 
L 714.256364 152.768666 
L 714.256364 153.189556 
L 714.256364 153.189556 
L 719.964774 154.109773 
L 719.964774 154.109773 
L 721 154.109773 
L 721 154.109773 
" clip-path="url(#p5642ebb62f)" style="fill: none; stroke: #ff7f0e; stroke-width: 1.5; stroke-linecap: round"/>
   </g>
   <g id="line2d_19">
    <path d="M 61.58 346.829501 
L 66.401023 297.773172 
L 66.401023 297.773172 
L 66.556471 297.641713 
L 66.556471 297.641713 
L 71.023138 290.608626 
L 71.023138 290.608626 
L 71.295715 290.542896 
L 71.295715 290.542896 
L 75.511447 279.346923 
L 75.511447 279.346923 
L 75.929856 279.303103 
L 75.929856 279.303103 
L 79.932591 273.95708 
L 79.932591 273.95708 
L 80.50755 273.803711 
L 80.50755 273.803711 
L 84.326635 266.529615 
L 84.326635 266.529615 
L 85.083284 266.376245 
L 85.083284 266.376245 
L 88.710081 263.265035 
L 88.710081 263.265035 
L 89.634011 262.980206 
L 89.634011 262.980206 
L 93.096443 258.970689 
L 93.096443 258.970689 
L 97.479125 258.554401 
L 97.479125 258.554401 
L 98.720961 258.225752 
L 98.720961 258.225752 
L 101.866791 255.61847 
L 101.866791 255.61847 
L 103.263057 255.333641 
L 103.263057 255.333641 
L 106.259664 249.59324 
L 106.259664 249.59324 
L 107.799152 249.856159 
L 107.799152 249.856159 
L 110.648457 251.411764 
L 110.648457 251.411764 
L 112.325853 250.798286 
L 112.325853 250.798286 
L 115.028612 249.943799 
L 115.028612 249.943799 
L 116.843765 250.053349 
L 116.843765 250.053349 
L 119.393277 249.417961 
L 119.393277 249.417961 
L 121.361109 248.760663 
L 121.361109 248.760663 
L 123.766597 243.940479 
L 123.766597 243.940479 
L 125.880217 243.63374 
L 125.880217 243.63374 
L 128.152443 239.843322 
L 128.152443 239.843322 
L 130.401502 239.514673 
L 130.401502 239.514673 
L 132.538862 239.843322 
L 132.538862 239.843322 
L 134.917822 239.186024 
L 134.917822 239.186024 
L 136.926553 237.674239 
L 136.926553 237.674239 
L 139.428032 236.973121 
L 139.428032 236.973121 
L 141.314245 234.716399 
L 141.314245 234.716399 
L 143.932323 234.606849 
L 143.932323 234.606849 
L 145.707092 230.115314 
L 145.707092 230.115314 
L 148.436296 230.071494 
L 148.436296 230.071494 
L 150.099048 236.184364 
L 150.099048 236.184364 
L 152.936896 236.250094 
L 152.936896 236.250094 
L 154.495904 231.013621 
L 154.495904 231.013621 
L 157.434313 230.706882 
L 157.434313 230.706882 
L 158.892506 229.874305 
L 158.892506 229.874305 
L 161.932621 229.085547 
L 161.932621 229.085547 
L 163.288536 230.882161 
L 163.288536 230.882161 
L 166.42832 230.969801 
L 166.42832 230.969801 
L 167.688447 225.2294 
L 167.688447 225.2294 
L 170.919055 224.177723 
L 172.089568 223.345146 
L 172.089568 223.345146 
L 175.408643 223.104137 
L 175.408643 223.104137 
L 176.492344 225.864788 
L 176.492344 225.864788 
L 179.893777 225.755238 
L 179.893777 225.755238 
L 180.898365 224.747381 
L 180.898365 224.747381 
L 184.377638 223.980534 
L 185.306615 219.02889 
L 185.306615 219.02889 
L 188.859398 218.437322 
L 188.859398 218.437322 
L 189.716901 221.723811 
L 189.716901 221.723811 
L 193.33874 221.132243 
L 193.33874 221.132243 
L 194.129223 217.056997 
L 194.129223 217.056997 
L 197.815791 215.391842 
L 197.815791 215.391842 
L 198.544537 217.078907 
L 198.544537 217.078907 
L 202.294114 216.443519 
L 202.294114 216.443519 
L 202.958069 214.844094 
L 202.958069 214.844094 
L 206.767028 214.515445 
L 206.767028 214.515445 
L 207.377202 216.333969 
L 207.377202 216.333969 
L 211.239559 215.91768 
L 211.239559 215.91768 
L 211.796589 211.667154 
L 211.796589 211.667154 
L 215.711073 211.250866 
L 215.711073 211.250866 
L 216.216867 211.075586 
L 216.216867 211.075586 
L 220.179213 210.330649 
L 220.179213 210.330649 
L 220.64001 211.776704 
L 220.64001 211.776704 
L 224.645635 211.491875 
L 224.645635 211.491875 
L 225.066271 207.00034 
L 225.066271 207.00034 
L 229.111102 206.343042 
L 229.111102 206.343042 
L 229.493296 208.709314 
L 229.493296 208.709314 
L 233.574723 208.512125 
L 233.574723 208.512125 
L 233.922421 208.227296 
L 233.922421 208.227296 
L 238.035544 207.02225 
L 238.035544 207.02225 
L 238.354219 205.094176 
L 238.354219 205.094176 
L 242.498401 204.152049 
L 242.498401 204.152049 
L 242.784617 202.114426 
L 242.784617 202.114426 
L 246.955785 202.640264 
L 246.955785 202.640264 
L 247.220616 203.034643 
L 247.220616 203.034643 
L 251.413105 202.311615 
L 251.413105 202.311615 
L 251.656933 200.142532 
L 251.656933 200.142532 
L 255.870171 198.718387 
L 255.870171 198.718387 
L 256.094269 200.098712 
L 256.094269 200.098712 
L 260.325582 199.178495 
L 260.325582 199.178495 
L 260.533514 198.280188 
L 260.533514 198.280188 
L 264.779975 197.79817 
L 264.779975 197.79817 
L 264.974159 197.162782 
L 264.974159 197.162782 
L 269.233094 196.527394 
L 269.233094 196.527394 
L 269.416395 196.067285 
L 269.416395 196.067285 
L 273.68405 195.497627 
L 273.68405 195.497627 
L 273.861177 193.021805 
L 273.861177 193.021805 
L 278.137361 192.452147 
L 278.137361 192.452147 
L 278.30405 193.547644 
L 278.30405 193.547644 
L 282.585962 193.920112 
L 282.585962 193.920112 
L 282.752078 192.824616 
L 282.752078 192.824616 
L 287.03399 191.992039 
L 287.03399 191.992039 
L 287.201124 191.137552 
L 287.201124 191.137552 
L 291.485073 190.042055 
L 291.485073 190.042055 
L 291.647497 191.049912 
L 291.647497 191.049912 
L 295.9317 190.786993 
L 295.9317 190.786993 
L 296.098517 189.187568 
L 296.098517 189.187568 
L 300.378137 187.785333 
L 300.378137 187.785333 
L 300.549663 188.201621 
L 300.549663 188.201621 
L 304.823428 187.500504 
L 304.823428 187.500504 
L 305.002274 186.908935 
L 305.002274 186.908935 
L 309.267638 186.580287 
L 309.267638 186.580287 
L 309.456475 185.243781 
L 309.456475 185.243781 
L 313.71051 184.871312 
L 313.71051 184.871312 
L 313.912459 185.265691 
L 313.912459 185.265691 
L 318.156183 184.257834 
L 318.156183 184.257834 
L 318.366088 183.951095 
L 318.366088 183.951095 
L 322.596829 183.710086 
L 322.596829 183.710086 
L 322.82519 182.57077 
L 322.82519 182.57077 
L 327.036583 181.541003 
L 327.036583 181.541003 
L 327.285502 182.044931 
L 327.285502 182.044931 
L 331.479964 181.387634 
L 331.479964 181.387634 
L 331.742759 180.730336 
L 331.742759 180.730336 
L 336.204852 180.576966 
L 336.204852 180.576966 
L 340.358136 179.48147 
L 340.358136 179.48147 
L 340.666946 178.473613 
L 340.666946 178.473613 
L 344.79719 177.772495 
L 344.79719 177.772495 
L 345.129676 177.487666 
L 345.129676 177.487666 
L 349.235416 176.983738 
L 349.235416 176.983738 
L 349.593489 176.742729 
L 349.593489 176.742729 
L 353.67237 176.567449 
L 353.67237 176.567449 
L 354.058574 175.296674 
L 354.058574 175.296674 
L 358.112188 174.529826 
L 358.112188 174.529826 
L 358.521368 175.296674 
L 358.521368 175.296674 
L 362.54755 174.880385 
L 362.54755 174.880385 
L 362.989381 174.069718 
L 362.989381 174.069718 
L 366.982531 173.39051 
L 366.982531 173.39051 
L 367.45733 172.820852 
L 367.45733 172.820852 
L 371.420566 172.316923 
L 371.420566 172.316923 
L 371.92286 171.900635 
L 371.92286 171.900635 
L 375.857265 171.637715 
L 375.857265 171.637715 
L 376.390428 171.352886 
L 376.390428 171.352886 
L 380.861241 170.082111 
L 380.861241 170.082111 
L 384.725317 169.468633 
L 384.725317 169.468633 
L 385.33129 169.074254 
L 385.33129 169.074254 
L 389.159661 168.592235 
L 389.159661 168.592235 
L 389.801722 168.066397 
L 389.801722 168.066397 
L 393.593178 167.540559 
L 393.593178 167.540559 
L 394.273553 167.25573 
L 394.273553 167.25573 
L 398.742903 166.664162 
L 398.742903 166.664162 
L 402.46543 166.335513 
L 402.46543 166.335513 
L 403.218999 165.459116 
L 403.218999 165.459116 
L 406.902066 164.823728 
L 406.902066 164.823728 
L 407.695986 165.064737 
L 407.695986 165.064737 
L 411.338128 164.604629 
L 411.338128 164.604629 
L 412.167435 163.859691 
L 412.167435 163.859691 
L 416.637676 163.005204 
L 416.637676 163.005204 
L 420.189505 162.676555 
L 420.189505 162.676555 
L 421.102825 162.063077 
L 421.102825 162.063077 
L 429.048073 160.96758 
L 429.048073 160.96758 
L 430.051389 160.595112 
L 430.051389 160.595112 
L 433.486109 160.047363 
L 433.486109 160.047363 
L 434.530667 159.740624 
L 434.530667 159.740624 
L 437.918543 159.258606 
L 437.918543 159.258606 
L 439.011282 158.886137 
L 439.011282 158.886137 
L 442.349132 158.426029 
L 442.349132 158.426029 
L 443.488841 158.11929 
L 443.488841 158.11929 
L 447.963473 157.418172 
L 447.963473 157.418172 
L 451.215911 156.914244 
L 451.215911 156.914244 
L 452.439187 156.519865 
L 452.439187 156.519865 
L 456.917575 155.862567 
L 456.917575 155.862567 
L 461.393098 155.13954 
L 461.393098 155.13954 
L 464.508824 154.613701 
L 464.508824 154.613701 
L 465.871485 154.241233 
L 465.871485 154.241233 
L 473.372166 153.058096 
L 473.372166 153.058096 
L 474.825013 152.766913 
L 474.825013 152.766913 
L 482.232771 151.502491 
L 482.232771 151.502491 
L 483.781469 151.211089 
L 483.781469 151.211089 
L 488.260493 150.496826 
L 488.260493 150.496826 
L 491.095986 149.979751 
L 491.095986 149.979751 
L 492.737161 149.80009 
L 492.737161 149.80009 
L 495.52562 149.377228 
L 495.52562 149.377228 
L 497.217203 148.877682 
L 497.217203 148.877682 
L 499.954363 148.43072 
L 499.954363 148.43072 
L 501.696545 148.268586 
L 501.696545 148.268586 
L 504.38648 147.839151 
L 504.38648 147.839151 
L 506.174741 147.431627 
L 506.174741 147.431627 
L 508.815223 147.002192 
L 508.815223 147.002192 
L 510.65542 146.848823 
L 510.65542 146.848823 
L 522.106417 144.690695 
L 522.106417 144.690695 
L 524.093063 144.611819 
L 524.093063 144.611819 
L 526.537834 144.031206 
L 526.537834 144.031206 
L 528.572787 143.739804 
L 528.572787 143.739804 
L 530.968041 143.148236 
L 530.968041 143.148236 
L 533.05232 142.793295 
L 533.05232 142.793295 
L 535.397611 142.269648 
L 535.397611 142.269648 
L 537.532553 142.072458 
L 537.532553 142.072458 
L 539.8289 141.748191 
L 539.8289 141.748191 
L 542.011449 141.222353 
L 542.011449 141.222353 
L 544.258089 140.84112 
L 544.258089 140.84112 
L 546.492637 140.740335 
L 546.492637 140.740335 
L 548.68696 140.339383 
L 548.68696 140.339383 
L 550.972297 140.115902 
L 550.972297 140.115902 
L 561.977581 137.764967 
L 561.977581 137.764967 
L 564.412614 137.760585 
L 564.412614 137.760585 
L 570.838759 136.020936 
L 570.838759 136.020936 
L 573.373652 136.005599 
L 573.373652 136.005599 
L 575.268775 135.641894 
L 575.268775 135.641894 
L 577.854076 135.733916 
L 577.854076 135.733916 
L 579.698664 135.074427 
L 579.698664 135.074427 
L 582.334436 133.753259 
L 582.334436 133.753259 
L 584.127471 133.573597 
L 586.815178 133.963594 
L 586.815178 133.963594 
L 588.557933 133.273431 
L 588.557933 133.273431 
L 592.986231 131.625805 
L 592.986231 131.625805 
L 595.777426 131.987318 
L 595.777426 131.987318 
L 597.414465 131.893106 
L 597.414465 131.893106 
L 600.257977 131.073674 
L 600.257977 131.073674 
L 601.84569 130.458005 
L 601.84569 130.458005 
L 604.739737 130.3134 
L 604.739737 130.3134 
L 606.275324 129.776607 
L 606.275324 129.776607 
L 609.220861 129.553125 
L 609.220861 129.553125 
L 610.705468 128.720548 
L 610.705468 128.720548 
L 615.135739 128.231957 
L 615.135739 128.231957 
L 618.181964 126.571184 
L 618.181964 126.571184 
L 619.565946 125.661922 
L 619.565946 125.661922 
L 622.662387 126.728936 
L 622.662387 126.728936 
L 623.994689 125.668495 
L 623.994689 125.668495 
L 628.424705 124.417438 
L 628.424705 124.417438 
L 631.623362 124.28817 
L 631.623362 124.28817 
L 632.85243 123.47312 
L 632.85243 123.47312 
L 636.106459 122.25931 
L 636.106459 122.25931 
L 637.280028 121.444261 
L 637.280028 121.444261 
L 640.587074 121.724708 
L 640.587074 121.724708 
L 641.711126 121.352239 
L 641.711126 121.352239 
L 645.070044 119.378155 
L 645.070044 119.378155 
L 646.139997 118.262939 
L 646.139997 118.262939 
L 654.033692 115.717006 
L 654.033692 115.717006 
L 655.001938 114.387073 
L 655.001938 114.387073 
L 658.514497 114.119772 
L 658.514497 114.119772 
L 659.438255 112.643043 
L 659.438255 112.643043 
L 662.996385 110.885867 
L 662.996385 110.885867 
L 663.893921 109.179083 
L 663.893921 109.179083 
L 667.493357 106.760227 
L 667.493357 106.760227 
L 668.418579 103.513176 
L 668.418579 103.513176 
L 672.026161 99.486131 
L 672.026161 99.486131 
L 673.130292 93.403935 
L 673.130292 93.403935 
L 676.566731 88.18499 
L 676.566731 88.18499 
L 678.264997 76.940815 
L 678.264997 76.940815 
L 680.992292 75.62841 
L 680.992292 75.62841 
L 684.371512 74.721339 
L 684.371512 74.721339 
L 684.371512 76.531099 
L 685.476534 76.531099 
L 685.476534 76.531099 
L 685.476534 78.27732 
L 686.927345 78.27732 
L 686.927345 78.27732 
L 694.11807 123.218965 
L 694.11807 123.218965 
L 695.552014 123.218965 
L 695.552014 124.272833 
L 695.552014 124.272833 
L 696.4794 125.256588 
L 696.4794 125.256588 
L 701.207661 141.640833 
L 701.207661 141.640833 
L 705.408934 147.120506 
L 705.408934 147.120506 
L 707.499069 150.336883 
L 707.499069 150.336883 
L 713.689915 153.342925 
L 713.689915 153.342925 
L 714.256364 153.759214 
L 714.256364 153.759214 
L 721 154.281304 
L 721 154.281304 
" clip-path="url(#p5642ebb62f)" style="fill: none; stroke: #2ca02c; stroke-width: 1.5; stroke-linecap: round"/>
   </g>
   <g id="line2d_20">
    <path d="M 61.58 369.988295 
L 66.556471 309.714083 
L 66.556471 309.714083 
L 71.023138 299.087768 
L 71.023138 299.087768 
L 71.295715 298.145641 
L 71.295715 298.145641 
L 75.511447 284.276656 
L 75.511447 284.276656 
L 75.929856 283.619359 
L 75.929856 283.619359 
L 80.50755 275.359316 
L 80.50755 275.359316 
L 84.326635 265.938046 
L 84.326635 265.938046 
L 85.083284 264.82064 
L 85.083284 264.82064 
L 88.710081 260.394835 
L 88.710081 260.394835 
L 89.634011 258.83923 
L 89.634011 258.83923 
L 93.096443 253.668487 
L 93.096443 253.668487 
L 94.176178 252.50726 
L 94.176178 252.50726 
L 97.479125 250.403907 
L 97.479125 250.403907 
L 98.720961 248.651113 
L 98.720961 248.651113 
L 103.263057 243.43655 
L 103.263057 243.43655 
L 106.259664 237.783789 
L 106.259664 237.783789 
L 107.799152 237.25795 
L 107.799152 237.25795 
L 110.648457 236.425373 
L 110.648457 236.425373 
L 112.325853 234.21247 
L 112.325853 234.21247 
L 115.028612 232.547316 
L 115.028612 232.547316 
L 116.843765 231.101261 
L 116.843765 231.101261 
L 119.393277 229.589476 
L 119.393277 229.589476 
L 121.361109 227.135564 
L 121.361109 227.135564 
L 123.766597 223.235596 
L 123.766597 223.235596 
L 125.880217 221.329433 
L 125.880217 221.329433 
L 128.152443 218.897431 
L 128.152443 218.897431 
L 130.401502 216.947447 
L 130.401502 216.947447 
L 132.538862 215.851951 
L 132.538862 215.851951 
L 134.917822 213.441858 
L 134.917822 213.441858 
L 136.926553 212.127263 
L 136.926553 212.127263 
L 139.428032 209.629531 
L 139.428032 209.629531 
L 141.314245 208.117746 
L 143.932323 206.584051 
L 143.932323 206.584051 
L 145.707092 204.327328 
L 145.707092 204.327328 
L 148.436296 202.968913 
L 148.436296 202.968913 
L 150.099048 204.042499 
L 150.099048 204.042499 
L 152.936896 201.851506 
L 152.936896 201.851506 
L 154.495904 199.178495 
L 154.495904 199.178495 
L 157.434313 197.294241 
L 157.434313 197.294241 
L 158.892506 196.593124 
L 158.892506 196.593124 
L 161.932621 193.920112 
L 161.932621 193.920112 
L 163.288536 193.591464 
L 163.288536 193.591464 
L 166.42832 192.298778 
L 166.42832 192.298778 
L 167.688447 190.852723 
L 167.688447 190.852723 
L 170.919055 188.55218 
L 170.919055 188.55218 
L 175.408643 186.142088 
L 175.408643 186.142088 
L 176.492344 186.383097 
L 176.492344 186.383097 
L 180.898365 184.148284 
L 180.898365 184.148284 
L 184.377638 181.584823 
L 185.306615 180.445507 
L 185.306615 180.445507 
L 188.859398 178.736532 
L 188.859398 178.736532 
L 189.716901 178.977541 
L 189.716901 178.977541 
L 194.129223 176.37026 
L 194.129223 176.37026 
L 197.815791 174.135447 
L 197.815791 174.135447 
L 198.544537 174.003988 
L 198.544537 174.003988 
L 202.958069 171.834905 
L 202.958069 171.834905 
L 206.767028 170.38885 
L 206.767028 170.38885 
L 207.377202 170.36694 
L 207.377202 170.36694 
L 211.239559 168.723695 
L 211.239559 168.723695 
L 211.796589 168.307406 
L 211.796589 168.307406 
L 216.216867 166.707982 
L 216.216867 166.707982 
L 220.179213 165.020917 
L 220.179213 165.020917 
L 220.64001 164.955187 
L 220.64001 164.955187 
L 229.111102 162.041167 
L 229.111102 162.041167 
L 229.493296 162.019257 
L 229.493296 162.019257 
L 233.922421 160.726571 
L 233.922421 160.726571 
L 238.354219 159.170966 
L 238.354219 159.170966 
L 242.784617 157.834461 
L 242.784617 157.834461 
L 256.094269 154.504152 
L 256.094269 154.504152 
L 260.533514 153.430565 
L 260.533514 153.430565 
L 269.416395 151.67558 
L 269.416395 151.67558 
L 278.30405 150.122166 
L 278.30405 150.122166 
L 282.752078 149.377228 
L 282.752078 149.377228 
L 300.549663 147.157753 
L 300.549663 147.157753 
L 313.912459 145.886977 
L 313.912459 145.886977 
L 322.82519 145.277881 
L 322.82519 145.277881 
L 331.742759 144.8353 
L 331.742759 144.8353 
L 336.204852 144.460641 
L 336.204852 144.460641 
L 340.666946 144.559235 
L 340.666946 144.559235 
L 354.058574 144.131992 
L 354.058574 144.131992 
L 358.521368 144.029015 
L 358.521368 144.029015 
L 362.989381 143.917274 
L 362.989381 143.917274 
L 371.92286 144.077217 
L 371.92286 144.077217 
L 376.390428 143.866882 
L 376.390428 143.866882 
L 380.861241 144.094745 
L 380.861241 144.094745 
L 389.801722 144.224013 
L 389.801722 144.224013 
L 394.273553 144.451877 
L 394.273553 144.451877 
L 403.218999 144.368619 
L 403.218999 144.368619 
L 406.902066 144.583336 
L 406.902066 144.583336 
L 407.695986 144.462832 
L 407.695986 144.462832 
L 411.338128 144.52637 
L 411.338128 144.52637 
L 412.167435 144.660021 
L 412.167435 144.660021 
L 416.637676 144.868165 
L 416.637676 144.868165 
L 420.189505 144.798053 
L 420.189505 144.798053 
L 421.102825 144.914176 
L 421.102825 144.914176 
L 430.051389 145.207769 
L 430.051389 145.207769 
L 434.530667 145.448778 
L 434.530667 145.448778 
L 443.488841 145.705124 
L 443.488841 145.705124 
L 455.645291 146.117031 
L 455.645291 146.117031 
L 461.393098 146.108267 
L 461.393098 146.108267 
L 464.508824 146.316411 
L 464.508824 146.316411 
L 465.871485 146.581522 
L 465.871485 146.581522 
L 468.939286 146.684498 
L 468.939286 146.684498 
L 470.349426 146.57714 
L 470.349426 146.57714 
L 488.260493 147.414099 
L 488.260493 147.414099 
L 491.095986 147.427245 
L 491.095986 147.427245 
L 492.737161 147.644153 
L 492.737161 147.644153 
L 495.52562 147.736175 
L 495.52562 147.736175 
L 497.217203 147.582805 
L 497.217203 147.582805 
L 499.954363 147.723029 
L 499.954363 147.723029 
L 501.696545 147.928982 
L 501.696545 147.928982 
L 517.67691 148.538078 
L 517.67691 148.538078 
L 519.613785 148.496449 
L 519.613785 148.496449 
L 539.8289 149.230432 
L 539.8289 149.230432 
L 544.258089 149.3356 
L 544.258089 149.3356 
L 550.972297 149.677394 
L 550.972297 149.677394 
L 566.408934 150.115593 
L 566.408934 150.115593 
L 570.838759 150.155031 
L 570.838759 150.155031 
L 577.854076 150.531882 
L 577.854076 150.531882 
L 579.698664 150.564747 
L 579.698664 150.564747 
L 582.334436 150.48368 
L 582.334436 150.48368 
L 588.557933 150.766318 
L 588.557933 150.766318 
L 592.986231 150.818902 
L 592.986231 150.818902 
L 597.414465 151.044574 
L 597.414465 151.044574 
L 604.739737 151.217662 
L 604.739737 151.217662 
L 637.280028 152.021757 
L 637.280028 152.021757 
L 641.711126 152.194845 
L 641.711126 152.194845 
L 650.570331 152.407372 
L 650.570331 152.407372 
L 663.893921 152.88939 
L 663.893921 152.88939 
L 672.026161 153.386745 
L 672.026161 153.386745 
L 673.130292 153.496295 
L 673.130292 153.496295 
L 678.264997 154.197413 
L 678.264997 154.197413 
L 680.992292 154.350782 
L 680.992292 154.350782 
L 685.476534 154.263142 
L 685.476534 154.263142 
L 686.927345 154.087863 
L 686.927345 154.087863 
L 696.4794 153.430565 
L 696.4794 153.430565 
L 707.499069 153.167646 
L 707.499069 153.167646 
L 721 153.000544 
L 721 153.000544 
" clip-path="url(#p5642ebb62f)" style="fill: none; stroke: #d62728; stroke-width: 1.5; stroke-linecap: round"/>
   </g>
   <g id="patch_3">
    <path d="M 61.58 387.0925 
L 61.58 10.8 
" style="fill: none; stroke: #262626; stroke-width: 0.8; stroke-linejoin: miter; stroke-linecap: square"/>
   </g>
   <g id="patch_4">
    <path d="M 698.04 387.0925 
L 698.04 10.8 
" style="fill: none; stroke: #262626; stroke-width: 0.8; stroke-linejoin: miter; stroke-linecap: square"/>
   </g>
   <g id="patch_5">
    <path d="M 61.58 387.0925 
L 698.04 387.0925 
" style="fill: none; stroke: #262626; stroke-width: 0.8; stroke-linejoin: miter; stroke-linecap: square"/>
   </g>
   <g id="patch_6">
    <path d="M 61.58 10.8 
L 698.04 10.8 
" style="fill: none; stroke: #262626; stroke-width: 0.8; stroke-linejoin: miter; stroke-linecap: square"/>
   </g>
   <g id="legend_1">
    <g id="patch_7">
     <path d="M 69.98 88.2975 
L 200.21 88.2975 
Q 202.61 88.2975 202.61 85.8975 
L 202.61 19.2 
Q 202.61 16.8 200.21 16.8 
L 69.98 16.8 
Q 67.58 16.8 67.58 19.2 
L 67.58 85.8975 
Q 67.58 88.2975 69.98 88.2975 
z
" style="fill: #ffffff; opacity: 0.8; stroke: #cccccc; stroke-linejoin: miter"/>
    </g>
    <g id="line2d_21">
     <path d="M 72.38 25.989375 
L 84.38 25.989375 
L 96.38 25.989375 
" style="fill: none; stroke-dasharray: 5.55,2.4; stroke-dashoffset: 0; stroke: #1f77b4; stroke-width: 1.5"/>
    </g>
    <g id="text_18">
     <!-- Si 165 GPa -->
     <g style="fill: #262626" transform="translate(105.98 30.189375) scale(0.12 -0.12)">
      <defs>
       <path id="ArialMT-35" d="M 266 1200 
L 856 1250 
Q 922 819 1161 601 
Q 1400 384 1738 384 
Q 2144 384 2425 690 
Q 2706 997 2706 1503 
Q 2706 1984 2436 2262 
Q 2166 2541 1728 2541 
Q 1456 2541 1237 2417 
Q 1019 2294 894 2097 
L 366 2166 
L 809 4519 
L 3088 4519 
L 3088 3981 
L 1259 3981 
L 1013 2750 
Q 1425 3038 1878 3038 
Q 2478 3038 2890 2622 
Q 3303 2206 3303 1553 
Q 3303 931 2941 478 
Q 2500 -78 1738 -78 
Q 1113 -78 717 272 
Q 322 622 266 1200 
z
" transform="scale(0.015625)"/>
       <path id="ArialMT-47" d="M 2638 1797 
L 2638 2334 
L 4578 2338 
L 4578 638 
Q 4131 281 3656 101 
Q 3181 -78 2681 -78 
Q 2006 -78 1454 211 
Q 903 500 622 1047 
Q 341 1594 341 2269 
Q 341 2938 620 3517 
Q 900 4097 1425 4378 
Q 1950 4659 2634 4659 
Q 3131 4659 3532 4498 
Q 3934 4338 4162 4050 
Q 4391 3763 4509 3300 
L 3963 3150 
Q 3859 3500 3706 3700 
Q 3553 3900 3268 4020 
Q 2984 4141 2638 4141 
Q 2222 4141 1919 4014 
Q 1616 3888 1430 3681 
Q 1244 3475 1141 3228 
Q 966 2803 966 2306 
Q 966 1694 1177 1281 
Q 1388 869 1791 669 
Q 2194 469 2647 469 
Q 3041 469 3416 620 
Q 3791 772 3984 944 
L 3984 1797 
L 2638 1797 
z
" transform="scale(0.015625)"/>
      </defs>
      <use xlink:href="#ArialMT-53"/>
      <use xlink:href="#ArialMT-69" x="66.699219"/>
      <use xlink:href="#ArialMT-20" x="88.916016"/>
      <use xlink:href="#ArialMT-31" x="116.699219"/>
      <use xlink:href="#ArialMT-36" x="172.314453"/>
      <use xlink:href="#ArialMT-35" x="227.929688"/>
      <use xlink:href="#ArialMT-20" x="283.544922"/>
      <use xlink:href="#ArialMT-47" x="311.328125"/>
      <use xlink:href="#ArialMT-50" x="389.111328"/>
      <use xlink:href="#ArialMT-61" x="455.810547"/>
     </g>
    </g>
    <g id="line2d_22">
     <path d="M 72.38 42.96375 
L 84.38 42.96375 
L 96.38 42.96375 
" style="fill: none; stroke: #ff7f0e; stroke-width: 1.5; stroke-linecap: round"/>
    </g>
    <g id="text_19">
     <!-- CNT 1.7 GPa -->
     <g style="fill: #262626" transform="translate(105.98 47.16375) scale(0.12 -0.12)">
      <defs>
       <path id="ArialMT-43" d="M 3763 1606 
L 4369 1453 
Q 4178 706 3683 314 
Q 3188 -78 2472 -78 
Q 1731 -78 1267 223 
Q 803 525 561 1097 
Q 319 1669 319 2325 
Q 319 3041 592 3573 
Q 866 4106 1370 4382 
Q 1875 4659 2481 4659 
Q 3169 4659 3637 4309 
Q 4106 3959 4291 3325 
L 3694 3184 
Q 3534 3684 3231 3912 
Q 2928 4141 2469 4141 
Q 1941 4141 1586 3887 
Q 1231 3634 1087 3207 
Q 944 2781 944 2328 
Q 944 1744 1114 1308 
Q 1284 872 1643 656 
Q 2003 441 2422 441 
Q 2931 441 3284 734 
Q 3638 1028 3763 1606 
z
" transform="scale(0.015625)"/>
       <path id="ArialMT-4e" d="M 488 0 
L 488 4581 
L 1109 4581 
L 3516 984 
L 3516 4581 
L 4097 4581 
L 4097 0 
L 3475 0 
L 1069 3600 
L 1069 0 
L 488 0 
z
" transform="scale(0.015625)"/>
       <path id="ArialMT-54" d="M 1659 0 
L 1659 4041 
L 150 4041 
L 150 4581 
L 3781 4581 
L 3781 4041 
L 2266 4041 
L 2266 0 
L 1659 0 
z
" transform="scale(0.015625)"/>
       <path id="ArialMT-37" d="M 303 3981 
L 303 4522 
L 3269 4522 
L 3269 4084 
Q 2831 3619 2401 2847 
Q 1972 2075 1738 1259 
Q 1569 684 1522 0 
L 944 0 
Q 953 541 1156 1306 
Q 1359 2072 1739 2783 
Q 2119 3494 2547 3981 
L 303 3981 
z
" transform="scale(0.015625)"/>
      </defs>
      <use xlink:href="#ArialMT-43"/>
      <use xlink:href="#ArialMT-4e" x="72.216797"/>
      <use xlink:href="#ArialMT-54" x="144.433594"/>
      <use xlink:href="#ArialMT-20" x="203.767578"/>
      <use xlink:href="#ArialMT-31" x="231.550781"/>
      <use xlink:href="#ArialMT-2e" x="287.166016"/>
      <use xlink:href="#ArialMT-37" x="314.949219"/>
      <use xlink:href="#ArialMT-20" x="370.564453"/>
      <use xlink:href="#ArialMT-47" x="398.347656"/>
      <use xlink:href="#ArialMT-50" x="476.130859"/>
      <use xlink:href="#ArialMT-61" x="542.830078"/>
     </g>
    </g>
    <g id="line2d_23">
     <path d="M 72.38 59.938125 
L 84.38 59.938125 
L 96.38 59.938125 
" style="fill: none; stroke: #2ca02c; stroke-width: 1.5; stroke-linecap: round"/>
    </g>
    <g id="text_20">
     <!-- CNT 0.072 GPa -->
     <g style="fill: #262626" transform="translate(105.98 64.138125) scale(0.12 -0.12)">
      <use xlink:href="#ArialMT-43"/>
      <use xlink:href="#ArialMT-4e" x="72.216797"/>
      <use xlink:href="#ArialMT-54" x="144.433594"/>
      <use xlink:href="#ArialMT-20" x="203.767578"/>
      <use xlink:href="#ArialMT-30" x="231.550781"/>
      <use xlink:href="#ArialMT-2e" x="287.166016"/>
      <use xlink:href="#ArialMT-30" x="314.949219"/>
      <use xlink:href="#ArialMT-37" x="370.564453"/>
      <use xlink:href="#ArialMT-32" x="426.179688"/>
      <use xlink:href="#ArialMT-20" x="481.794922"/>
      <use xlink:href="#ArialMT-47" x="509.578125"/>
      <use xlink:href="#ArialMT-50" x="587.361328"/>
      <use xlink:href="#ArialMT-61" x="654.060547"/>
     </g>
    </g>
    <g id="line2d_24">
     <path d="M 72.38 76.9125 
L 84.38 76.9125 
L 96.38 76.9125 
" style="fill: none; stroke: #d62728; stroke-width: 1.5; stroke-linecap: round"/>
    </g>
    <g id="text_21">
     <!-- CNT 0.0039 GPa -->
     <g style="fill: #262626" transform="translate(105.98 81.1125) scale(0.12 -0.12)">
      <defs>
       <path id="ArialMT-33" d="M 269 1209 
L 831 1284 
Q 928 806 1161 595 
Q 1394 384 1728 384 
Q 2125 384 2398 659 
Q 2672 934 2672 1341 
Q 2672 1728 2419 1979 
Q 2166 2231 1775 2231 
Q 1616 2231 1378 2169 
L 1441 2663 
Q 1497 2656 1531 2656 
Q 1891 2656 2178 2843 
Q 2466 3031 2466 3422 
Q 2466 3731 2256 3934 
Q 2047 4138 1716 4138 
Q 1388 4138 1169 3931 
Q 950 3725 888 3313 
L 325 3413 
Q 428 3978 793 4289 
Q 1159 4600 1703 4600 
Q 2078 4600 2393 4439 
Q 2709 4278 2876 4000 
Q 3044 3722 3044 3409 
Q 3044 3113 2884 2869 
Q 2725 2625 2413 2481 
Q 2819 2388 3044 2092 
Q 3269 1797 3269 1353 
Q 3269 753 2831 336 
Q 2394 -81 1725 -81 
Q 1122 -81 723 278 
Q 325 638 269 1209 
z
" transform="scale(0.015625)"/>
       <path id="ArialMT-39" d="M 350 1059 
L 891 1109 
Q 959 728 1153 556 
Q 1347 384 1650 384 
Q 1909 384 2104 503 
Q 2300 622 2425 820 
Q 2550 1019 2634 1356 
Q 2719 1694 2719 2044 
Q 2719 2081 2716 2156 
Q 2547 1888 2255 1720 
Q 1963 1553 1622 1553 
Q 1053 1553 659 1965 
Q 266 2378 266 3053 
Q 266 3750 677 4175 
Q 1088 4600 1706 4600 
Q 2153 4600 2523 4359 
Q 2894 4119 3086 3673 
Q 3278 3228 3278 2384 
Q 3278 1506 3087 986 
Q 2897 466 2520 194 
Q 2144 -78 1638 -78 
Q 1100 -78 759 220 
Q 419 519 350 1059 
z
M 2653 3081 
Q 2653 3566 2395 3850 
Q 2138 4134 1775 4134 
Q 1400 4134 1122 3828 
Q 844 3522 844 3034 
Q 844 2597 1108 2323 
Q 1372 2050 1759 2050 
Q 2150 2050 2401 2323 
Q 2653 2597 2653 3081 
z
" transform="scale(0.015625)"/>
      </defs>
      <use xlink:href="#ArialMT-43"/>
      <use xlink:href="#ArialMT-4e" x="72.216797"/>
      <use xlink:href="#ArialMT-54" x="144.433594"/>
      <use xlink:href="#ArialMT-20" x="203.767578"/>
      <use xlink:href="#ArialMT-30" x="231.550781"/>
      <use xlink:href="#ArialMT-2e" x="287.166016"/>
      <use xlink:href="#ArialMT-30" x="314.949219"/>
      <use xlink:href="#ArialMT-30" x="370.564453"/>
      <use xlink:href="#ArialMT-33" x="426.179688"/>
      <use xlink:href="#ArialMT-39" x="481.794922"/>
      <use xlink:href="#ArialMT-20" x="537.410156"/>
      <use xlink:href="#ArialMT-47" x="565.193359"/>
      <use xlink:href="#ArialMT-50" x="642.976562"/>
      <use xlink:href="#ArialMT-61" x="709.675781"/>
     </g>
    </g>
   </g>
  </g>
 </g>
 <defs>
  <clipPath id="p5642ebb62f">
   <rect x="61.58" y="10.8" width="636.46" height="376.2925"/>
  </clipPath>
 </defs>
</svg>
