<?xml version="1.0" encoding="utf-8" standalone="no"?>
<!DOCTYPE svg PUBLIC "-//W3C//DTD SVG 1.1//EN"
  "http://www.w3.org/Graphics/SVG/1.1/DTD/svg11.dtd">
<svg height="439.206719pt" version="1.1" viewBox="0 0 708.779127 439.206719" width="708.779127pt" xmlns="http://www.w3.org/2000/svg" xmlns:xlink="http://www.w3.org/1999/xlink">
 <metadata>
  <rdf:RDF xmlns:cc="http://creativecommons.org/ns#" xmlns:dc="http://purl.org/dc/elements/1.1/" xmlns:rdf="http://www.w3.org/1999/02/22-rdf-syntax-ns#">
   <cc:Work>
    <dc:type rdf:resource="http://purl.org/dc/dcmitype/StillImage"/>
    <dc:date>2022-04-01T16:58:24.413449</dc:date>
    <dc:format>image/svg+xml</dc:format>
    <dc:creator>
     <cc:Agent>
      <dc:title>Matplotlib v3.4.2, https://matplotlib.org/</dc:title>
     </cc:Agent>
    </dc:creator>
   </cc:Work>
  </rdf:RDF>
 </metadata>
 <defs>
  <style type="text/css">*{stroke-linecap:butt;stroke-linejoin:round;}</style>
 </defs>
 <g id="figure_1">
  <g id="patch_1">
   <path d="M 0 439.206719 
L 708.779127 439.206719 
L 708.779127 0 
L 0 0 
z
" style="fill:#ffffff;"/>
  </g>
  <g id="axes_1">
   <g id="patch_2">
    <path d="M 49.23125 397.185625 
L 626.251116 397.185625 
L 626.251116 24.6525 
L 49.23125 24.6525 
z
" style="fill:#eaeaf2;"/>
   </g>
   <g id="matplotlib.axis_1">
    <g id="xtick_1">
     <g id="line2d_1">
      <path clip-path="url(#pbe36855a7c)" d="M 75.459426 397.185625 
L 75.459426 24.6525 
" style="fill:none;stroke:#ffffff;stroke-linecap:round;"/>
     </g>
     <g id="line2d_2">
      <defs>
       <path d="M 0 0 
L 0 6 
" id="m121b2dce83" style="stroke:#262626;stroke-width:1.25;"/>
      </defs>
      <g>
       <use style="fill:#262626;stroke:#262626;stroke-width:1.25;" x="75.459426" xlink:href="#m121b2dce83" y="397.185625"/>
      </g>
     </g>
     <g id="text_1">
      <!-- 0 -->
      <g style="fill:#262626;" transform="translate(72.40091 414.559219)scale(0.11 -0.11)">
       <defs>
        <path d="M 266 2259 
Q 266 3072 433 3567 
Q 600 4063 929 4331 
Q 1259 4600 1759 4600 
Q 2128 4600 2406 4451 
Q 2684 4303 2865 4023 
Q 3047 3744 3150 3342 
Q 3253 2941 3253 2259 
Q 3253 1453 3087 958 
Q 2922 463 2592 192 
Q 2263 -78 1759 -78 
Q 1097 -78 719 397 
Q 266 969 266 2259 
z
M 844 2259 
Q 844 1131 1108 757 
Q 1372 384 1759 384 
Q 2147 384 2411 759 
Q 2675 1134 2675 2259 
Q 2675 3391 2411 3762 
Q 2147 4134 1753 4134 
Q 1366 4134 1134 3806 
Q 844 3388 844 2259 
z
" id="ArialMT-30" transform="scale(0.015625)"/>
       </defs>
       <use xlink:href="#ArialMT-30"/>
      </g>
     </g>
    </g>
    <g id="xtick_2">
     <g id="line2d_3">
      <path clip-path="url(#pbe36855a7c)" d="M 178.790711 397.185625 
L 178.790711 24.6525 
" style="fill:none;stroke:#ffffff;stroke-linecap:round;"/>
     </g>
     <g id="line2d_4">
      <g>
       <use style="fill:#262626;stroke:#262626;stroke-width:1.25;" x="178.790711" xlink:href="#m121b2dce83" y="397.185625"/>
      </g>
     </g>
     <g id="text_2">
      <!-- 5 -->
      <g style="fill:#262626;" transform="translate(175.732195 414.559219)scale(0.11 -0.11)">
       <defs>
        <path d="M 266 1200 
L 856 1250 
Q 922 819 1161 601 
Q 1400 384 1738 384 
Q 2144 384 2425 690 
Q 2706 997 2706 1503 
Q 2706 1984 2436 2262 
Q 2166 2541 1728 2541 
Q 1456 2541 1237 2417 
Q 1019 2294 894 2097 
L 366 2166 
L 809 4519 
L 3088 4519 
L 3088 3981 
L 1259 3981 
L 1013 2750 
Q 1425 3038 1878 3038 
Q 2478 3038 2890 2622 
Q 3303 2206 3303 1553 
Q 3303 931 2941 478 
Q 2500 -78 1738 -78 
Q 1113 -78 717 272 
Q 322 622 266 1200 
z
" id="ArialMT-35" transform="scale(0.015625)"/>
       </defs>
       <use xlink:href="#ArialMT-35"/>
      </g>
     </g>
    </g>
    <g id="xtick_3">
     <g id="line2d_5">
      <path clip-path="url(#pbe36855a7c)" d="M 282.121996 397.185625 
L 282.121996 24.6525 
" style="fill:none;stroke:#ffffff;stroke-linecap:round;"/>
     </g>
     <g id="line2d_6">
      <g>
       <use style="fill:#262626;stroke:#262626;stroke-width:1.25;" x="282.121996" xlink:href="#m121b2dce83" y="397.185625"/>
      </g>
     </g>
     <g id="text_3">
      <!-- 10 -->
      <g style="fill:#262626;" transform="translate(276.004964 414.559219)scale(0.11 -0.11)">
       <defs>
        <path d="M 2384 0 
L 1822 0 
L 1822 3584 
Q 1619 3391 1289 3197 
Q 959 3003 697 2906 
L 697 3450 
Q 1169 3672 1522 3987 
Q 1875 4303 2022 4600 
L 2384 4600 
L 2384 0 
z
" id="ArialMT-31" transform="scale(0.015625)"/>
       </defs>
       <use xlink:href="#ArialMT-31"/>
       <use x="55.615234" xlink:href="#ArialMT-30"/>
      </g>
     </g>
    </g>
    <g id="xtick_4">
     <g id="line2d_7">
      <path clip-path="url(#pbe36855a7c)" d="M 385.45328 397.185625 
L 385.45328 24.6525 
" style="fill:none;stroke:#ffffff;stroke-linecap:round;"/>
     </g>
     <g id="line2d_8">
      <g>
       <use style="fill:#262626;stroke:#262626;stroke-width:1.25;" x="385.45328" xlink:href="#m121b2dce83" y="397.185625"/>
      </g>
     </g>
     <g id="text_4">
      <!-- 15 -->
      <g style="fill:#262626;" transform="translate(379.336249 414.559219)scale(0.11 -0.11)">
       <use xlink:href="#ArialMT-31"/>
       <use x="55.615234" xlink:href="#ArialMT-35"/>
      </g>
     </g>
    </g>
    <g id="xtick_5">
     <g id="line2d_9">
      <path clip-path="url(#pbe36855a7c)" d="M 488.784565 397.185625 
L 488.784565 24.6525 
" style="fill:none;stroke:#ffffff;stroke-linecap:round;"/>
     </g>
     <g id="line2d_10">
      <g>
       <use style="fill:#262626;stroke:#262626;stroke-width:1.25;" x="488.784565" xlink:href="#m121b2dce83" y="397.185625"/>
      </g>
     </g>
     <g id="text_5">
      <!-- 20 -->
      <g style="fill:#262626;" transform="translate(482.667534 414.559219)scale(0.11 -0.11)">
       <defs>
        <path d="M 3222 541 
L 3222 0 
L 194 0 
Q 188 203 259 391 
Q 375 700 629 1000 
Q 884 1300 1366 1694 
Q 2113 2306 2375 2664 
Q 2638 3022 2638 3341 
Q 2638 3675 2398 3904 
Q 2159 4134 1775 4134 
Q 1369 4134 1125 3890 
Q 881 3647 878 3216 
L 300 3275 
Q 359 3922 746 4261 
Q 1134 4600 1788 4600 
Q 2447 4600 2831 4234 
Q 3216 3869 3216 3328 
Q 3216 3053 3103 2787 
Q 2991 2522 2730 2228 
Q 2469 1934 1863 1422 
Q 1356 997 1212 845 
Q 1069 694 975 541 
L 3222 541 
z
" id="ArialMT-32" transform="scale(0.015625)"/>
       </defs>
       <use xlink:href="#ArialMT-32"/>
       <use x="55.615234" xlink:href="#ArialMT-30"/>
      </g>
     </g>
    </g>
    <g id="xtick_6">
     <g id="line2d_11">
      <path clip-path="url(#pbe36855a7c)" d="M 592.11585 397.185625 
L 592.11585 24.6525 
" style="fill:none;stroke:#ffffff;stroke-linecap:round;"/>
     </g>
     <g id="line2d_12">
      <g>
       <use style="fill:#262626;stroke:#262626;stroke-width:1.25;" x="592.11585" xlink:href="#m121b2dce83" y="397.185625"/>
      </g>
     </g>
     <g id="text_6">
      <!-- 25 -->
      <g style="fill:#262626;" transform="translate(585.998819 414.559219)scale(0.11 -0.11)">
       <use xlink:href="#ArialMT-32"/>
       <use x="55.615234" xlink:href="#ArialMT-35"/>
      </g>
     </g>
    </g>
    <g id="text_7">
     <!-- CNT Diameter (nm) -->
     <g style="fill:#262626;" transform="translate(285.513058 429.481094)scale(0.12 -0.12)">
      <defs>
       <path d="M 3763 1606 
L 4369 1453 
Q 4178 706 3683 314 
Q 3188 -78 2472 -78 
Q 1731 -78 1267 223 
Q 803 525 561 1097 
Q 319 1669 319 2325 
Q 319 3041 592 3573 
Q 866 4106 1370 4382 
Q 1875 4659 2481 4659 
Q 3169 4659 3637 4309 
Q 4106 3959 4291 3325 
L 3694 3184 
Q 3534 3684 3231 3912 
Q 2928 4141 2469 4141 
Q 1941 4141 1586 3887 
Q 1231 3634 1087 3207 
Q 944 2781 944 2328 
Q 944 1744 1114 1308 
Q 1284 872 1643 656 
Q 2003 441 2422 441 
Q 2931 441 3284 734 
Q 3638 1028 3763 1606 
z
" id="ArialMT-43" transform="scale(0.015625)"/>
       <path d="M 488 0 
L 488 4581 
L 1109 4581 
L 3516 984 
L 3516 4581 
L 4097 4581 
L 4097 0 
L 3475 0 
L 1069 3600 
L 1069 0 
L 488 0 
z
" id="ArialMT-4e" transform="scale(0.015625)"/>
       <path d="M 1659 0 
L 1659 4041 
L 150 4041 
L 150 4581 
L 3781 4581 
L 3781 4041 
L 2266 4041 
L 2266 0 
L 1659 0 
z
" id="ArialMT-54" transform="scale(0.015625)"/>
       <path id="ArialMT-20" transform="scale(0.015625)"/>
       <path d="M 494 0 
L 494 4581 
L 2072 4581 
Q 2606 4581 2888 4516 
Q 3281 4425 3559 4188 
Q 3922 3881 4101 3404 
Q 4281 2928 4281 2316 
Q 4281 1794 4159 1391 
Q 4038 988 3847 723 
Q 3656 459 3429 307 
Q 3203 156 2883 78 
Q 2563 0 2147 0 
L 494 0 
z
M 1100 541 
L 2078 541 
Q 2531 541 2789 625 
Q 3047 709 3200 863 
Q 3416 1078 3536 1442 
Q 3656 1806 3656 2325 
Q 3656 3044 3420 3430 
Q 3184 3816 2847 3947 
Q 2603 4041 2063 4041 
L 1100 4041 
L 1100 541 
z
" id="ArialMT-44" transform="scale(0.015625)"/>
       <path d="M 425 3934 
L 425 4581 
L 988 4581 
L 988 3934 
L 425 3934 
z
M 425 0 
L 425 3319 
L 988 3319 
L 988 0 
L 425 0 
z
" id="ArialMT-69" transform="scale(0.015625)"/>
       <path d="M 2588 409 
Q 2275 144 1986 34 
Q 1697 -75 1366 -75 
Q 819 -75 525 192 
Q 231 459 231 875 
Q 231 1119 342 1320 
Q 453 1522 633 1644 
Q 813 1766 1038 1828 
Q 1203 1872 1538 1913 
Q 2219 1994 2541 2106 
Q 2544 2222 2544 2253 
Q 2544 2597 2384 2738 
Q 2169 2928 1744 2928 
Q 1347 2928 1158 2789 
Q 969 2650 878 2297 
L 328 2372 
Q 403 2725 575 2942 
Q 747 3159 1072 3276 
Q 1397 3394 1825 3394 
Q 2250 3394 2515 3294 
Q 2781 3194 2906 3042 
Q 3031 2891 3081 2659 
Q 3109 2516 3109 2141 
L 3109 1391 
Q 3109 606 3145 398 
Q 3181 191 3288 0 
L 2700 0 
Q 2613 175 2588 409 
z
M 2541 1666 
Q 2234 1541 1622 1453 
Q 1275 1403 1131 1340 
Q 988 1278 909 1158 
Q 831 1038 831 891 
Q 831 666 1001 516 
Q 1172 366 1500 366 
Q 1825 366 2078 508 
Q 2331 650 2450 897 
Q 2541 1088 2541 1459 
L 2541 1666 
z
" id="ArialMT-61" transform="scale(0.015625)"/>
       <path d="M 422 0 
L 422 3319 
L 925 3319 
L 925 2853 
Q 1081 3097 1340 3245 
Q 1600 3394 1931 3394 
Q 2300 3394 2536 3241 
Q 2772 3088 2869 2813 
Q 3263 3394 3894 3394 
Q 4388 3394 4653 3120 
Q 4919 2847 4919 2278 
L 4919 0 
L 4359 0 
L 4359 2091 
Q 4359 2428 4304 2576 
Q 4250 2725 4106 2815 
Q 3963 2906 3769 2906 
Q 3419 2906 3187 2673 
Q 2956 2441 2956 1928 
L 2956 0 
L 2394 0 
L 2394 2156 
Q 2394 2531 2256 2718 
Q 2119 2906 1806 2906 
Q 1569 2906 1367 2781 
Q 1166 2656 1075 2415 
Q 984 2175 984 1722 
L 984 0 
L 422 0 
z
" id="ArialMT-6d" transform="scale(0.015625)"/>
       <path d="M 2694 1069 
L 3275 997 
Q 3138 488 2766 206 
Q 2394 -75 1816 -75 
Q 1088 -75 661 373 
Q 234 822 234 1631 
Q 234 2469 665 2931 
Q 1097 3394 1784 3394 
Q 2450 3394 2872 2941 
Q 3294 2488 3294 1666 
Q 3294 1616 3291 1516 
L 816 1516 
Q 847 969 1125 678 
Q 1403 388 1819 388 
Q 2128 388 2347 550 
Q 2566 713 2694 1069 
z
M 847 1978 
L 2700 1978 
Q 2663 2397 2488 2606 
Q 2219 2931 1791 2931 
Q 1403 2931 1139 2672 
Q 875 2413 847 1978 
z
" id="ArialMT-65" transform="scale(0.015625)"/>
       <path d="M 1650 503 
L 1731 6 
Q 1494 -44 1306 -44 
Q 1000 -44 831 53 
Q 663 150 594 308 
Q 525 466 525 972 
L 525 2881 
L 113 2881 
L 113 3319 
L 525 3319 
L 525 4141 
L 1084 4478 
L 1084 3319 
L 1650 3319 
L 1650 2881 
L 1084 2881 
L 1084 941 
Q 1084 700 1114 631 
Q 1144 563 1211 522 
Q 1278 481 1403 481 
Q 1497 481 1650 503 
z
" id="ArialMT-74" transform="scale(0.015625)"/>
       <path d="M 416 0 
L 416 3319 
L 922 3319 
L 922 2816 
Q 1116 3169 1280 3281 
Q 1444 3394 1641 3394 
Q 1925 3394 2219 3213 
L 2025 2691 
Q 1819 2813 1613 2813 
Q 1428 2813 1281 2702 
Q 1134 2591 1072 2394 
Q 978 2094 978 1738 
L 978 0 
L 416 0 
z
" id="ArialMT-72" transform="scale(0.015625)"/>
       <path d="M 1497 -1347 
Q 1031 -759 709 28 
Q 388 816 388 1659 
Q 388 2403 628 3084 
Q 909 3875 1497 4659 
L 1900 4659 
Q 1522 4009 1400 3731 
Q 1209 3300 1100 2831 
Q 966 2247 966 1656 
Q 966 153 1900 -1347 
L 1497 -1347 
z
" id="ArialMT-28" transform="scale(0.015625)"/>
       <path d="M 422 0 
L 422 3319 
L 928 3319 
L 928 2847 
Q 1294 3394 1984 3394 
Q 2284 3394 2536 3286 
Q 2788 3178 2913 3003 
Q 3038 2828 3088 2588 
Q 3119 2431 3119 2041 
L 3119 0 
L 2556 0 
L 2556 2019 
Q 2556 2363 2490 2533 
Q 2425 2703 2258 2804 
Q 2091 2906 1866 2906 
Q 1506 2906 1245 2678 
Q 984 2450 984 1813 
L 984 0 
L 422 0 
z
" id="ArialMT-6e" transform="scale(0.015625)"/>
       <path d="M 791 -1347 
L 388 -1347 
Q 1322 153 1322 1656 
Q 1322 2244 1188 2822 
Q 1081 3291 891 3722 
Q 769 4003 388 4659 
L 791 4659 
Q 1378 3875 1659 3084 
Q 1900 2403 1900 1659 
Q 1900 816 1576 28 
Q 1253 -759 791 -1347 
z
" id="ArialMT-29" transform="scale(0.015625)"/>
      </defs>
      <use xlink:href="#ArialMT-43"/>
      <use x="72.216797" xlink:href="#ArialMT-4e"/>
      <use x="144.433594" xlink:href="#ArialMT-54"/>
      <use x="203.767578" xlink:href="#ArialMT-20"/>
      <use x="231.550781" xlink:href="#ArialMT-44"/>
      <use x="303.767578" xlink:href="#ArialMT-69"/>
      <use x="325.984375" xlink:href="#ArialMT-61"/>
      <use x="381.599609" xlink:href="#ArialMT-6d"/>
      <use x="464.900391" xlink:href="#ArialMT-65"/>
      <use x="520.515625" xlink:href="#ArialMT-74"/>
      <use x="548.298828" xlink:href="#ArialMT-65"/>
      <use x="603.914062" xlink:href="#ArialMT-72"/>
      <use x="637.214844" xlink:href="#ArialMT-20"/>
      <use x="664.998047" xlink:href="#ArialMT-28"/>
      <use x="698.298828" xlink:href="#ArialMT-6e"/>
      <use x="753.914062" xlink:href="#ArialMT-6d"/>
      <use x="837.214844" xlink:href="#ArialMT-29"/>
     </g>
    </g>
   </g>
   <g id="matplotlib.axis_2">
    <g id="ytick_1">
     <g id="line2d_13">
      <path clip-path="url(#pbe36855a7c)" d="M 49.23125 328.306982 
L 626.251116 328.306982 
" style="fill:none;stroke:#ffffff;stroke-linecap:round;"/>
     </g>
     <g id="line2d_14">
      <defs>
       <path d="M 0 0 
L -6 0 
" id="m4483889ce2" style="stroke:#262626;stroke-width:1.25;"/>
      </defs>
      <g>
       <use style="fill:#262626;stroke:#262626;stroke-width:1.25;" x="49.23125" xlink:href="#m4483889ce2" y="328.306982"/>
      </g>
     </g>
     <g id="text_8">
      <!-- $\mathdefault{10^{7}}$ -->
      <g style="fill:#262626;" transform="translate(22.46125 333.923857)scale(0.11 -0.11)">
       <defs>
        <path d="M 303 3981 
L 303 4522 
L 3269 4522 
L 3269 4084 
Q 2831 3619 2401 2847 
Q 1972 2075 1738 1259 
Q 1569 684 1522 0 
L 944 0 
Q 953 541 1156 1306 
Q 1359 2072 1739 2783 
Q 2119 3494 2547 3981 
L 303 3981 
z
" id="ArialMT-37" transform="scale(0.015625)"/>
       </defs>
       <use transform="translate(0 0.846875)" xlink:href="#ArialMT-31"/>
       <use transform="translate(55.615234 0.846875)" xlink:href="#ArialMT-30"/>
       <use transform="translate(112.972813 70.540625)scale(0.7)" xlink:href="#ArialMT-37"/>
      </g>
     </g>
    </g>
    <g id="ytick_2">
     <g id="line2d_15">
      <path clip-path="url(#pbe36855a7c)" d="M 49.23125 200.051686 
L 626.251116 200.051686 
" style="fill:none;stroke:#ffffff;stroke-linecap:round;"/>
     </g>
     <g id="line2d_16">
      <g>
       <use style="fill:#262626;stroke:#262626;stroke-width:1.25;" x="49.23125" xlink:href="#m4483889ce2" y="200.051686"/>
      </g>
     </g>
     <g id="text_9">
      <!-- $\mathdefault{10^{8}}$ -->
      <g style="fill:#262626;" transform="translate(22.46125 205.723561)scale(0.11 -0.11)">
       <defs>
        <path d="M 1131 2484 
Q 781 2613 612 2850 
Q 444 3088 444 3419 
Q 444 3919 803 4259 
Q 1163 4600 1759 4600 
Q 2359 4600 2725 4251 
Q 3091 3903 3091 3403 
Q 3091 3084 2923 2848 
Q 2756 2613 2416 2484 
Q 2838 2347 3058 2040 
Q 3278 1734 3278 1309 
Q 3278 722 2862 322 
Q 2447 -78 1769 -78 
Q 1091 -78 675 323 
Q 259 725 259 1325 
Q 259 1772 486 2073 
Q 713 2375 1131 2484 
z
M 1019 3438 
Q 1019 3113 1228 2906 
Q 1438 2700 1772 2700 
Q 2097 2700 2305 2904 
Q 2513 3109 2513 3406 
Q 2513 3716 2298 3927 
Q 2084 4138 1766 4138 
Q 1444 4138 1231 3931 
Q 1019 3725 1019 3438 
z
M 838 1322 
Q 838 1081 952 856 
Q 1066 631 1291 507 
Q 1516 384 1775 384 
Q 2178 384 2440 643 
Q 2703 903 2703 1303 
Q 2703 1709 2433 1975 
Q 2163 2241 1756 2241 
Q 1359 2241 1098 1978 
Q 838 1716 838 1322 
z
" id="ArialMT-38" transform="scale(0.015625)"/>
       </defs>
       <use transform="translate(0 0.99375)" xlink:href="#ArialMT-31"/>
       <use transform="translate(55.615234 0.99375)" xlink:href="#ArialMT-30"/>
       <use transform="translate(112.972813 70.6875)scale(0.7)" xlink:href="#ArialMT-38"/>
      </g>
     </g>
    </g>
    <g id="ytick_3">
     <g id="line2d_17">
      <path clip-path="url(#pbe36855a7c)" d="M 49.23125 71.796389 
L 626.251116 71.796389 
" style="fill:none;stroke:#ffffff;stroke-linecap:round;"/>
     </g>
     <g id="line2d_18">
      <g>
       <use style="fill:#262626;stroke:#262626;stroke-width:1.25;" x="49.23125" xlink:href="#m4483889ce2" y="71.796389"/>
      </g>
     </g>
     <g id="text_10">
      <!-- $\mathdefault{10^{9}}$ -->
      <g style="fill:#262626;" transform="translate(22.46125 77.468264)scale(0.11 -0.11)">
       <defs>
        <path d="M 350 1059 
L 891 1109 
Q 959 728 1153 556 
Q 1347 384 1650 384 
Q 1909 384 2104 503 
Q 2300 622 2425 820 
Q 2550 1019 2634 1356 
Q 2719 1694 2719 2044 
Q 2719 2081 2716 2156 
Q 2547 1888 2255 1720 
Q 1963 1553 1622 1553 
Q 1053 1553 659 1965 
Q 266 2378 266 3053 
Q 266 3750 677 4175 
Q 1088 4600 1706 4600 
Q 2153 4600 2523 4359 
Q 2894 4119 3086 3673 
Q 3278 3228 3278 2384 
Q 3278 1506 3087 986 
Q 2897 466 2520 194 
Q 2144 -78 1638 -78 
Q 1100 -78 759 220 
Q 419 519 350 1059 
z
M 2653 3081 
Q 2653 3566 2395 3850 
Q 2138 4134 1775 4134 
Q 1400 4134 1122 3828 
Q 844 3522 844 3034 
Q 844 2597 1108 2323 
Q 1372 2050 1759 2050 
Q 2150 2050 2401 2323 
Q 2653 2597 2653 3081 
z
" id="ArialMT-39" transform="scale(0.015625)"/>
       </defs>
       <use transform="translate(0 0.99375)" xlink:href="#ArialMT-31"/>
       <use transform="translate(55.615234 0.99375)" xlink:href="#ArialMT-30"/>
       <use transform="translate(112.972813 70.6875)scale(0.7)" xlink:href="#ArialMT-39"/>
      </g>
     </g>
    </g>
    <g id="ytick_4">
     <g id="line2d_19">
      <defs>
       <path d="M 0 0 
L -4 0 
" id="me7d275388f" style="stroke:#262626;"/>
      </defs>
      <g>
       <use style="fill:#262626;stroke:#262626;" x="49.23125" xlink:href="#me7d275388f" y="395.36895"/>
      </g>
     </g>
    </g>
    <g id="ytick_5">
     <g id="line2d_20">
      <g>
       <use style="fill:#262626;stroke:#262626;" x="49.23125" xlink:href="#me7d275388f" y="379.344895"/>
      </g>
     </g>
    </g>
    <g id="ytick_6">
     <g id="line2d_21">
      <g>
       <use style="fill:#262626;stroke:#262626;" x="49.23125" xlink:href="#me7d275388f" y="366.915673"/>
      </g>
     </g>
    </g>
    <g id="ytick_7">
     <g id="line2d_22">
      <g>
       <use style="fill:#262626;stroke:#262626;" x="49.23125" xlink:href="#me7d275388f" y="356.760259"/>
      </g>
     </g>
    </g>
    <g id="ytick_8">
     <g id="line2d_23">
      <g>
       <use style="fill:#262626;stroke:#262626;" x="49.23125" xlink:href="#me7d275388f" y="348.173978"/>
      </g>
     </g>
    </g>
    <g id="ytick_9">
     <g id="line2d_24">
      <g>
       <use style="fill:#262626;stroke:#262626;" x="49.23125" xlink:href="#me7d275388f" y="340.736204"/>
      </g>
     </g>
    </g>
    <g id="ytick_10">
     <g id="line2d_25">
      <g>
       <use style="fill:#262626;stroke:#262626;" x="49.23125" xlink:href="#me7d275388f" y="334.175622"/>
      </g>
     </g>
    </g>
    <g id="ytick_11">
     <g id="line2d_26">
      <g>
       <use style="fill:#262626;stroke:#262626;" x="49.23125" xlink:href="#me7d275388f" y="289.69829"/>
      </g>
     </g>
    </g>
    <g id="ytick_12">
     <g id="line2d_27">
      <g>
       <use style="fill:#262626;stroke:#262626;" x="49.23125" xlink:href="#me7d275388f" y="267.113654"/>
      </g>
     </g>
    </g>
    <g id="ytick_13">
     <g id="line2d_28">
      <g>
       <use style="fill:#262626;stroke:#262626;" x="49.23125" xlink:href="#me7d275388f" y="251.089599"/>
      </g>
     </g>
    </g>
    <g id="ytick_14">
     <g id="line2d_29">
      <g>
       <use style="fill:#262626;stroke:#262626;" x="49.23125" xlink:href="#me7d275388f" y="238.660377"/>
      </g>
     </g>
    </g>
    <g id="ytick_15">
     <g id="line2d_30">
      <g>
       <use style="fill:#262626;stroke:#262626;" x="49.23125" xlink:href="#me7d275388f" y="228.504963"/>
      </g>
     </g>
    </g>
    <g id="ytick_16">
     <g id="line2d_31">
      <g>
       <use style="fill:#262626;stroke:#262626;" x="49.23125" xlink:href="#me7d275388f" y="219.918682"/>
      </g>
     </g>
    </g>
    <g id="ytick_17">
     <g id="line2d_32">
      <g>
       <use style="fill:#262626;stroke:#262626;" x="49.23125" xlink:href="#me7d275388f" y="212.480908"/>
      </g>
     </g>
    </g>
    <g id="ytick_18">
     <g id="line2d_33">
      <g>
       <use style="fill:#262626;stroke:#262626;" x="49.23125" xlink:href="#me7d275388f" y="205.920326"/>
      </g>
     </g>
    </g>
    <g id="ytick_19">
     <g id="line2d_34">
      <g>
       <use style="fill:#262626;stroke:#262626;" x="49.23125" xlink:href="#me7d275388f" y="161.442994"/>
      </g>
     </g>
    </g>
    <g id="ytick_20">
     <g id="line2d_35">
      <g>
       <use style="fill:#262626;stroke:#262626;" x="49.23125" xlink:href="#me7d275388f" y="138.858358"/>
      </g>
     </g>
    </g>
    <g id="ytick_21">
     <g id="line2d_36">
      <g>
       <use style="fill:#262626;stroke:#262626;" x="49.23125" xlink:href="#me7d275388f" y="122.834303"/>
      </g>
     </g>
    </g>
    <g id="ytick_22">
     <g id="line2d_37">
      <g>
       <use style="fill:#262626;stroke:#262626;" x="49.23125" xlink:href="#me7d275388f" y="110.405081"/>
      </g>
     </g>
    </g>
    <g id="ytick_23">
     <g id="line2d_38">
      <g>
       <use style="fill:#262626;stroke:#262626;" x="49.23125" xlink:href="#me7d275388f" y="100.249666"/>
      </g>
     </g>
    </g>
    <g id="ytick_24">
     <g id="line2d_39">
      <g>
       <use style="fill:#262626;stroke:#262626;" x="49.23125" xlink:href="#me7d275388f" y="91.663386"/>
      </g>
     </g>
    </g>
    <g id="ytick_25">
     <g id="line2d_40">
      <g>
       <use style="fill:#262626;stroke:#262626;" x="49.23125" xlink:href="#me7d275388f" y="84.225612"/>
      </g>
     </g>
    </g>
    <g id="ytick_26">
     <g id="line2d_41">
      <g>
       <use style="fill:#262626;stroke:#262626;" x="49.23125" xlink:href="#me7d275388f" y="77.66503"/>
      </g>
     </g>
    </g>
    <g id="ytick_27">
     <g id="line2d_42">
      <g>
       <use style="fill:#262626;stroke:#262626;" x="49.23125" xlink:href="#me7d275388f" y="33.187698"/>
      </g>
     </g>
    </g>
    <g id="text_11">
     <!-- Modulus (Pa) -->
     <g style="fill:#262626;" transform="translate(15.935625 246.5975)rotate(-90)scale(0.12 -0.12)">
      <defs>
       <path d="M 475 0 
L 475 4581 
L 1388 4581 
L 2472 1338 
Q 2622 884 2691 659 
Q 2769 909 2934 1394 
L 4031 4581 
L 4847 4581 
L 4847 0 
L 4263 0 
L 4263 3834 
L 2931 0 
L 2384 0 
L 1059 3900 
L 1059 0 
L 475 0 
z
" id="ArialMT-4d" transform="scale(0.015625)"/>
       <path d="M 213 1659 
Q 213 2581 725 3025 
Q 1153 3394 1769 3394 
Q 2453 3394 2887 2945 
Q 3322 2497 3322 1706 
Q 3322 1066 3130 698 
Q 2938 331 2570 128 
Q 2203 -75 1769 -75 
Q 1072 -75 642 372 
Q 213 819 213 1659 
z
M 791 1659 
Q 791 1022 1069 705 
Q 1347 388 1769 388 
Q 2188 388 2466 706 
Q 2744 1025 2744 1678 
Q 2744 2294 2464 2611 
Q 2184 2928 1769 2928 
Q 1347 2928 1069 2612 
Q 791 2297 791 1659 
z
" id="ArialMT-6f" transform="scale(0.015625)"/>
       <path d="M 2575 0 
L 2575 419 
Q 2259 -75 1647 -75 
Q 1250 -75 917 144 
Q 584 363 401 755 
Q 219 1147 219 1656 
Q 219 2153 384 2558 
Q 550 2963 881 3178 
Q 1213 3394 1622 3394 
Q 1922 3394 2156 3267 
Q 2391 3141 2538 2938 
L 2538 4581 
L 3097 4581 
L 3097 0 
L 2575 0 
z
M 797 1656 
Q 797 1019 1065 703 
Q 1334 388 1700 388 
Q 2069 388 2326 689 
Q 2584 991 2584 1609 
Q 2584 2291 2321 2609 
Q 2059 2928 1675 2928 
Q 1300 2928 1048 2622 
Q 797 2316 797 1656 
z
" id="ArialMT-64" transform="scale(0.015625)"/>
       <path d="M 2597 0 
L 2597 488 
Q 2209 -75 1544 -75 
Q 1250 -75 995 37 
Q 741 150 617 320 
Q 494 491 444 738 
Q 409 903 409 1263 
L 409 3319 
L 972 3319 
L 972 1478 
Q 972 1038 1006 884 
Q 1059 663 1231 536 
Q 1403 409 1656 409 
Q 1909 409 2131 539 
Q 2353 669 2445 892 
Q 2538 1116 2538 1541 
L 2538 3319 
L 3100 3319 
L 3100 0 
L 2597 0 
z
" id="ArialMT-75" transform="scale(0.015625)"/>
       <path d="M 409 0 
L 409 4581 
L 972 4581 
L 972 0 
L 409 0 
z
" id="ArialMT-6c" transform="scale(0.015625)"/>
       <path d="M 197 991 
L 753 1078 
Q 800 744 1014 566 
Q 1228 388 1613 388 
Q 2000 388 2187 545 
Q 2375 703 2375 916 
Q 2375 1106 2209 1216 
Q 2094 1291 1634 1406 
Q 1016 1563 777 1677 
Q 538 1791 414 1992 
Q 291 2194 291 2438 
Q 291 2659 392 2848 
Q 494 3038 669 3163 
Q 800 3259 1026 3326 
Q 1253 3394 1513 3394 
Q 1903 3394 2198 3281 
Q 2494 3169 2634 2976 
Q 2775 2784 2828 2463 
L 2278 2388 
Q 2241 2644 2061 2787 
Q 1881 2931 1553 2931 
Q 1166 2931 1000 2803 
Q 834 2675 834 2503 
Q 834 2394 903 2306 
Q 972 2216 1119 2156 
Q 1203 2125 1616 2013 
Q 2213 1853 2448 1751 
Q 2684 1650 2818 1456 
Q 2953 1263 2953 975 
Q 2953 694 2789 445 
Q 2625 197 2315 61 
Q 2006 -75 1616 -75 
Q 969 -75 630 194 
Q 291 463 197 991 
z
" id="ArialMT-73" transform="scale(0.015625)"/>
       <path d="M 494 0 
L 494 4581 
L 2222 4581 
Q 2678 4581 2919 4538 
Q 3256 4481 3484 4323 
Q 3713 4166 3852 3881 
Q 3991 3597 3991 3256 
Q 3991 2672 3619 2267 
Q 3247 1863 2275 1863 
L 1100 1863 
L 1100 0 
L 494 0 
z
M 1100 2403 
L 2284 2403 
Q 2872 2403 3119 2622 
Q 3366 2841 3366 3238 
Q 3366 3525 3220 3729 
Q 3075 3934 2838 4000 
Q 2684 4041 2272 4041 
L 1100 4041 
L 1100 2403 
z
" id="ArialMT-50" transform="scale(0.015625)"/>
      </defs>
      <use xlink:href="#ArialMT-4d"/>
      <use x="83.300781" xlink:href="#ArialMT-6f"/>
      <use x="138.916016" xlink:href="#ArialMT-64"/>
      <use x="194.53125" xlink:href="#ArialMT-75"/>
      <use x="250.146484" xlink:href="#ArialMT-6c"/>
      <use x="272.363281" xlink:href="#ArialMT-75"/>
      <use x="327.978516" xlink:href="#ArialMT-73"/>
      <use x="377.978516" xlink:href="#ArialMT-20"/>
      <use x="405.761719" xlink:href="#ArialMT-28"/>
      <use x="439.0625" xlink:href="#ArialMT-50"/>
      <use x="505.761719" xlink:href="#ArialMT-61"/>
      <use x="561.376953" xlink:href="#ArialMT-29"/>
     </g>
    </g>
   </g>
   <g id="PathCollection_1">
    <path clip-path="url(#pbe36855a7c)" d="M 553.407951 145.616832 
C 554.20356 145.616832 554.966691 145.300733 555.529271 144.738153 
C 556.091852 144.175572 556.407951 143.412442 556.407951 142.616832 
C 556.407951 141.821223 556.091852 141.058093 555.529271 140.495512 
C 554.966691 139.932931 554.20356 139.616832 553.407951 139.616832 
C 552.612342 139.616832 551.849211 139.932931 551.286631 140.495512 
C 550.72405 141.058093 550.407951 141.821223 550.407951 142.616832 
C 550.407951 143.412442 550.72405 144.175572 551.286631 144.738153 
C 551.849211 145.300733 552.612342 145.616832 553.407951 145.616832 
z
" style="fill:#4c72b0;stroke:#ffffff;stroke-width:0.48;"/>
    <path clip-path="url(#pbe36855a7c)" d="M 519.310349 195.695995 
C 520.105958 195.695995 520.869089 195.379896 521.431669 194.817315 
C 521.99425 194.254734 522.310349 193.491604 522.310349 192.695995 
C 522.310349 191.900385 521.99425 191.137255 521.431669 190.574674 
C 520.869089 190.012094 520.105958 189.695995 519.310349 189.695995 
C 518.51474 189.695995 517.75161 190.012094 517.189029 190.574674 
C 516.626448 191.137255 516.310349 191.900385 516.310349 192.695995 
C 516.310349 193.491604 516.626448 194.254734 517.189029 194.817315 
C 517.75161 195.379896 518.51474 195.695995 519.310349 195.695995 
z
" style="fill:#4c72b0;stroke:#ffffff;stroke-width:0.48;"/>
    <path clip-path="url(#pbe36855a7c)" d="M 524.363593 154.15341 
C 525.159203 154.15341 525.922333 153.837311 526.484914 153.274731 
C 527.047494 152.71215 527.363593 151.949019 527.363593 151.15341 
C 527.363593 150.357801 527.047494 149.594671 526.484914 149.03209 
C 525.922333 148.469509 525.159203 148.15341 524.363593 148.15341 
C 523.567984 148.15341 522.804854 148.469509 522.242273 149.03209 
C 521.679692 149.594671 521.363593 150.357801 521.363593 151.15341 
C 521.363593 151.949019 521.679692 152.71215 522.242273 153.274731 
C 522.804854 153.837311 523.567984 154.15341 524.363593 154.15341 
z
" style="fill:#4c72b0;stroke:#ffffff;stroke-width:0.48;"/>
    <path clip-path="url(#pbe36855a7c)" d="M 537.427768 235.179614 
C 538.223377 235.179614 538.986507 234.863515 539.549088 234.300935 
C 540.111669 233.738354 540.427768 232.975223 540.427768 232.179614 
C 540.427768 231.384005 540.111669 230.620875 539.549088 230.058294 
C 538.986507 229.495713 538.223377 229.179614 537.427768 229.179614 
C 536.632158 229.179614 535.869028 229.495713 535.306447 230.058294 
C 534.743867 230.620875 534.427768 231.384005 534.427768 232.179614 
C 534.427768 232.975223 534.743867 233.738354 535.306447 234.300935 
C 535.869028 234.863515 536.632158 235.179614 537.427768 235.179614 
z
" style="fill:#4c72b0;stroke:#ffffff;stroke-width:0.48;"/>
    <path clip-path="url(#pbe36855a7c)" d="M 600.02294 260.769917 
C 600.818549 260.769917 601.58168 260.453818 602.14426 259.891237 
C 602.706841 259.328656 603.02294 258.565526 603.02294 257.769917 
C 603.02294 256.974308 602.706841 256.211177 602.14426 255.648596 
C 601.58168 255.086016 600.818549 254.769917 600.02294 254.769917 
C 599.227331 254.769917 598.4642 255.086016 597.90162 255.648596 
C 597.339039 256.211177 597.02294 256.974308 597.02294 257.769917 
C 597.02294 258.565526 597.339039 259.328656 597.90162 259.891237 
C 598.4642 260.453818 599.227331 260.769917 600.02294 260.769917 
z
" style="fill:#4c72b0;stroke:#ffffff;stroke-width:0.48;"/>
    <path clip-path="url(#pbe36855a7c)" d="M 555.282944 159.442619 
C 556.078553 159.442619 556.841684 159.126521 557.404264 158.56394 
C 557.966845 158.001359 558.282944 157.238229 558.282944 156.442619 
C 558.282944 155.64701 557.966845 154.88388 557.404264 154.321299 
C 556.841684 153.758718 556.078553 153.442619 555.282944 153.442619 
C 554.487335 153.442619 553.724204 153.758718 553.161624 154.321299 
C 552.599043 154.88388 552.282944 155.64701 552.282944 156.442619 
C 552.282944 157.238229 552.599043 158.001359 553.161624 158.56394 
C 553.724204 159.126521 554.487335 159.442619 555.282944 159.442619 
z
" style="fill:#4c72b0;stroke:#ffffff;stroke-width:0.48;"/>
    <path clip-path="url(#pbe36855a7c)" d="M 541.621296 167.51839 
C 542.416905 167.51839 543.180035 167.202291 543.742616 166.63971 
C 544.305197 166.077129 544.621296 165.313999 544.621296 164.51839 
C 544.621296 163.72278 544.305197 162.95965 543.742616 162.397069 
C 543.180035 161.834488 542.416905 161.51839 541.621296 161.51839 
C 540.825686 161.51839 540.062556 161.834488 539.499975 162.397069 
C 538.937395 162.95965 538.621296 163.72278 538.621296 164.51839 
C 538.621296 165.313999 538.937395 166.077129 539.499975 166.63971 
C 540.062556 167.202291 540.825686 167.51839 541.621296 167.51839 
z
" style="fill:#4c72b0;stroke:#ffffff;stroke-width:0.48;"/>
    <path clip-path="url(#pbe36855a7c)" d="M 536.848374 164.69812 
C 537.643984 164.69812 538.407114 164.382021 538.969695 163.81944 
C 539.532276 163.256859 539.848374 162.493729 539.848374 161.69812 
C 539.848374 160.90251 539.532276 160.13938 538.969695 159.576799 
C 538.407114 159.014218 537.643984 158.69812 536.848374 158.69812 
C 536.052765 158.69812 535.289635 159.014218 534.727054 159.576799 
C 534.164473 160.13938 533.848374 160.90251 533.848374 161.69812 
C 533.848374 162.493729 534.164473 163.256859 534.727054 163.81944 
C 535.289635 164.382021 536.052765 164.69812 536.848374 164.69812 
z
" style="fill:#4c72b0;stroke:#ffffff;stroke-width:0.48;"/>
    <path clip-path="url(#pbe36855a7c)" d="M 447.58813 50.347148 
L 449.08813 48.847148 
L 450.58813 50.347148 
L 452.08813 48.847148 
L 450.58813 47.347148 
L 452.08813 45.847148 
L 450.58813 44.347148 
L 449.08813 45.847148 
L 447.58813 44.347148 
L 446.08813 45.847148 
L 447.58813 47.347148 
L 446.08813 48.847148 
z
" style="fill:#dd8452;stroke:#ffffff;stroke-width:0.48;"/>
    <path clip-path="url(#pbe36855a7c)" d="M 549.180005 44.585824 
L 550.680005 43.085824 
L 552.180005 44.585824 
L 553.680005 43.085824 
L 552.180005 41.585824 
L 553.680005 40.085824 
L 552.180005 38.585824 
L 550.680005 40.085824 
L 549.180005 38.585824 
L 547.680005 40.085824 
L 549.180005 41.585824 
L 547.680005 43.085824 
z
" style="fill:#dd8452;stroke:#ffffff;stroke-width:0.48;"/>
    <path clip-path="url(#pbe36855a7c)" d="M 458.672133 47.828696 
L 460.172133 46.328696 
L 461.672133 47.828696 
L 463.172133 46.328696 
L 461.672133 44.828696 
L 463.172133 43.328696 
L 461.672133 41.828696 
L 460.172133 43.328696 
L 458.672133 41.828696 
L 457.172133 43.328696 
L 458.672133 44.828696 
L 457.172133 46.328696 
z
" style="fill:#dd8452;stroke:#ffffff;stroke-width:0.48;"/>
    <path clip-path="url(#pbe36855a7c)" d="M 464.617439 44.898328 
L 466.117439 43.398328 
L 467.617439 44.898328 
L 469.117439 43.398328 
L 467.617439 41.898328 
L 469.117439 40.398328 
L 467.617439 38.898328 
L 466.117439 40.398328 
L 464.617439 38.898328 
L 463.117439 40.398328 
L 464.617439 41.898328 
L 463.117439 43.398328 
z
" style="fill:#dd8452;stroke:#ffffff;stroke-width:0.48;"/>
    <path clip-path="url(#pbe36855a7c)" d="M 204.526357 350.516913 
L 204.526357 354.759553 
L 208.768997 354.759553 
L 208.768997 350.516913 
z
" style="fill:#55a868;stroke:#ffffff;stroke-width:0.48;"/>
    <path clip-path="url(#pbe36855a7c)" d="M 227.20933 356.435927 
L 227.20933 360.678567 
L 231.45197 360.678567 
L 231.45197 356.435927 
z
" style="fill:#55a868;stroke:#ffffff;stroke-width:0.48;"/>
    <path clip-path="url(#pbe36855a7c)" d="M 254.509261 355.349645 
L 254.509261 359.592286 
L 258.751901 359.592286 
L 258.751901 355.349645 
z
" style="fill:#55a868;stroke:#ffffff;stroke-width:0.48;"/>
    <path clip-path="url(#pbe36855a7c)" d="M 208.161172 356.903261 
L 208.161172 361.145901 
L 212.403812 361.145901 
L 212.403812 356.903261 
z
" style="fill:#55a868;stroke:#ffffff;stroke-width:0.48;"/>
    <path clip-path="url(#pbe36855a7c)" d="M 273.064046 378.130981 
L 273.064046 382.373621 
L 277.306687 382.373621 
L 277.306687 378.130981 
z
" style="fill:#55a868;stroke:#ffffff;stroke-width:0.48;"/>
    <path clip-path="url(#pbe36855a7c)" d="M 212.009428 353.449738 
L 212.009428 357.692379 
L 216.252068 357.692379 
L 216.252068 353.449738 
z
" style="fill:#55a868;stroke:#ffffff;stroke-width:0.48;"/>
    <path clip-path="url(#pbe36855a7c)" d="M 518.643716 188.053879 
L 520.643716 188.053879 
L 520.643716 186.053879 
L 522.643716 186.053879 
L 522.643716 184.053879 
L 520.643716 184.053879 
L 520.643716 182.053879 
L 518.643716 182.053879 
L 518.643716 184.053879 
L 516.643716 184.053879 
L 516.643716 186.053879 
L 518.643716 186.053879 
z
" style="fill:#c44e52;stroke:#ffffff;stroke-width:0.48;"/>
    <path clip-path="url(#pbe36855a7c)" d="M 587.462056 186.671683 
L 589.462056 186.671683 
L 589.462056 184.671683 
L 591.462056 184.671683 
L 591.462056 182.671683 
L 589.462056 182.671683 
L 589.462056 180.671683 
L 587.462056 180.671683 
L 587.462056 182.671683 
L 585.462056 182.671683 
L 585.462056 184.671683 
L 587.462056 184.671683 
z
" style="fill:#c44e52;stroke:#ffffff;stroke-width:0.48;"/>
    <path clip-path="url(#pbe36855a7c)" d="M 579.058158 189.101734 
L 581.058158 189.101734 
L 581.058158 187.101734 
L 583.058158 187.101734 
L 583.058158 185.101734 
L 581.058158 185.101734 
L 581.058158 183.101734 
L 579.058158 183.101734 
L 579.058158 185.101734 
L 577.058158 185.101734 
L 577.058158 187.101734 
L 579.058158 187.101734 
z
" style="fill:#c44e52;stroke:#ffffff;stroke-width:0.48;"/>
    <path clip-path="url(#pbe36855a7c)" d="M 595.614206 195.254173 
L 597.614206 195.254173 
L 597.614206 193.254173 
L 599.614206 193.254173 
L 599.614206 191.254173 
L 597.614206 191.254173 
L 597.614206 189.254173 
L 595.614206 189.254173 
L 595.614206 191.254173 
L 593.614206 191.254173 
L 593.614206 193.254173 
L 595.614206 193.254173 
z
" style="fill:#c44e52;stroke:#ffffff;stroke-width:0.48;"/>
    <path clip-path="url(#pbe36855a7c)" d="M 584.915973 187.323285 
L 586.915973 187.323285 
L 586.915973 185.323285 
L 588.915973 185.323285 
L 588.915973 183.323285 
L 586.915973 183.323285 
L 586.915973 181.323285 
L 584.915973 181.323285 
L 584.915973 183.323285 
L 582.915973 183.323285 
L 582.915973 185.323285 
L 584.915973 185.323285 
z
" style="fill:#c44e52;stroke:#ffffff;stroke-width:0.48;"/>
    <path clip-path="url(#pbe36855a7c)" d="M 75.459426 306.786522 
L 72.459426 309.786522 
L 75.459426 312.786522 
L 78.459426 309.786522 
z
" style="fill:#8172b3;stroke:#ffffff;stroke-width:0.48;"/>
    <path clip-path="url(#pbe36855a7c)" d="M 268.151606 287.787459 
L 265.151606 290.787459 
L 268.151606 293.787459 
L 271.151606 290.787459 
z
" style="fill:#8172b3;stroke:#ffffff;stroke-width:0.48;"/>
    <path clip-path="url(#pbe36855a7c)" d="M 254.140782 291.7798 
L 251.140782 294.7798 
L 254.140782 297.7798 
L 257.140782 294.7798 
z
" style="fill:#8172b3;stroke:#ffffff;stroke-width:0.48;"/>
    <path clip-path="url(#pbe36855a7c)" d="M 261.478471 303.57148 
L 258.478471 306.57148 
L 261.478471 309.57148 
L 264.478471 306.57148 
z
" style="fill:#8172b3;stroke:#ffffff;stroke-width:0.48;"/>
    <path clip-path="url(#pbe36855a7c)" d="M 467.748491 148.599463 
L 466.687831 150.538803 
L 464.748491 151.599463 
L 466.687831 152.660123 
L 467.748491 154.599463 
L 468.809151 152.660123 
L 470.748491 151.599463 
L 468.809151 150.538803 
z
" style="fill:#937860;stroke:#ffffff;stroke-width:0.48;"/>
    <path clip-path="url(#pbe36855a7c)" d="M 411.541391 186.349346 
L 410.480731 188.288686 
L 408.541391 189.349346 
L 410.480731 190.410006 
L 411.541391 192.349346 
L 412.602051 190.410006 
L 414.541391 189.349346 
L 412.602051 188.288686 
z
" style="fill:#937860;stroke:#ffffff;stroke-width:0.48;"/>
    <path clip-path="url(#pbe36855a7c)" d="M 379.212071 192.057596 
L 378.151411 193.996936 
L 376.212071 195.057596 
L 378.151411 196.118257 
L 379.212071 198.057596 
L 380.272731 196.118257 
L 382.212071 195.057596 
L 380.272731 193.996936 
z
" style="fill:#937860;stroke:#ffffff;stroke-width:0.48;"/>
    <path clip-path="url(#pbe36855a7c)" d="M 371.011214 191.580255 
L 369.950554 193.519595 
L 368.011214 194.580255 
L 369.950554 195.640915 
L 371.011214 197.580255 
L 372.071874 195.640915 
L 374.011214 194.580255 
L 372.071874 193.519595 
z
" style="fill:#937860;stroke:#ffffff;stroke-width:0.48;"/>
    <path clip-path="url(#pbe36855a7c)" d="M 428.997084 165.973954 
L 427.936424 167.913294 
L 425.997084 168.973954 
L 427.936424 170.034614 
L 428.997084 171.973954 
L 430.057744 170.034614 
L 431.997084 168.973954 
L 430.057744 167.913294 
z
" style="fill:#937860;stroke:#ffffff;stroke-width:0.48;"/>
    <path clip-path="url(#pbe36855a7c)" d="M 228.980539 259.828563 
L 225.980539 265.828563 
L 231.980539 265.828563 
z
" style="fill:#da8bc3;stroke:#ffffff;stroke-width:0.48;"/>
    <path clip-path="url(#pbe36855a7c)" d="M 196.121246 247.581833 
L 193.121246 253.581833 
L 199.121246 253.581833 
z
" style="fill:#da8bc3;stroke:#ffffff;stroke-width:0.48;"/>
    <path clip-path="url(#pbe36855a7c)" d="M 217.07556 250.673714 
L 214.07556 256.673714 
L 220.07556 256.673714 
z
" style="fill:#da8bc3;stroke:#ffffff;stroke-width:0.48;"/>
    <path clip-path="url(#pbe36855a7c)" d="M 191.459126 250.688523 
L 188.459126 256.688523 
L 194.459126 256.688523 
z
" style="fill:#da8bc3;stroke:#ffffff;stroke-width:0.48;"/>
    <path clip-path="url(#pbe36855a7c)" d="M 218.092145 250.91961 
L 215.092145 256.91961 
L 221.092145 256.91961 
z
" style="fill:#da8bc3;stroke:#ffffff;stroke-width:0.48;"/>
    <path clip-path="url(#pbe36855a7c)" d="M 249.948909 268.048277 
L 246.948909 274.048277 
L 252.948909 274.048277 
z
" style="fill:#da8bc3;stroke:#ffffff;stroke-width:0.48;"/>
    <path clip-path="url(#pbe36855a7c)" d="M 301.744161 208.636481 
L 302.365481 210.757802 
L 301.744161 212.879122 
L 303.865481 212.257802 
L 305.986802 212.879122 
L 305.365481 210.757802 
L 305.986802 208.636481 
L 303.865481 209.257802 
z
" style="fill:#8c8c8c;stroke:#ffffff;stroke-width:0.48;"/>
    <path clip-path="url(#pbe36855a7c)" d="M 279.453959 210.65251 
L 280.075279 212.77383 
L 279.453959 214.895151 
L 281.575279 214.27383 
L 283.696599 214.895151 
L 283.075279 212.77383 
L 283.696599 210.65251 
L 281.575279 211.27383 
z
" style="fill:#8c8c8c;stroke:#ffffff;stroke-width:0.48;"/>
    <path clip-path="url(#pbe36855a7c)" d="M 294.421589 208.94848 
L 295.04291 211.0698 
L 294.421589 213.19112 
L 296.54291 212.5698 
L 298.66423 213.19112 
L 298.04291 211.0698 
L 298.66423 208.94848 
L 296.54291 209.5698 
z
" style="fill:#8c8c8c;stroke:#ffffff;stroke-width:0.48;"/>
    <path clip-path="url(#pbe36855a7c)" d="M 311.125274 232.115478 
L 311.746594 234.236799 
L 311.125274 236.358119 
L 313.246594 235.736799 
L 315.367915 236.358119 
L 314.746594 234.236799 
L 315.367915 232.115478 
L 313.246594 232.736799 
z
" style="fill:#8c8c8c;stroke:#ffffff;stroke-width:0.48;"/>
    <path clip-path="url(#pbe36855a7c)" d="M 325.715966 210.985693 
L 326.337287 213.107014 
L 325.715966 215.228334 
L 327.837287 214.607014 
L 329.958607 215.228334 
L 329.337287 213.107014 
L 329.958607 210.985693 
L 327.837287 211.607014 
z
" style="fill:#8c8c8c;stroke:#ffffff;stroke-width:0.48;"/>
    <path clip-path="url(#pbe36855a7c)" d="M 309.799993 214.216212 
L 310.421313 216.337532 
L 309.799993 218.458852 
L 311.921313 217.837532 
L 314.042633 218.458852 
L 313.421313 216.337532 
L 314.042633 214.216212 
L 311.921313 214.837532 
z
" style="fill:#8c8c8c;stroke:#ffffff;stroke-width:0.48;"/>
    <path clip-path="url(#pbe36855a7c)" d="M 334.663663 213.292999 
L 335.284983 215.41432 
L 334.663663 217.53564 
L 336.784983 216.91432 
L 338.906304 217.53564 
L 338.284983 215.41432 
L 338.906304 213.292999 
L 336.784983 213.91432 
z
" style="fill:#8c8c8c;stroke:#ffffff;stroke-width:0.48;"/>
    <path clip-path="url(#pbe36855a7c)" d="M 297.00475 265.354311 
L 297.62607 267.475632 
L 297.00475 269.596952 
L 299.12607 268.975632 
L 301.247391 269.596952 
L 300.62607 267.475632 
L 301.247391 265.354311 
L 299.12607 265.975632 
z
" style="fill:#8c8c8c;stroke:#ffffff;stroke-width:0.48;"/>
    <path clip-path="url(#pbe36855a7c)" d="M 324.413938 269.356777 
L 325.035258 271.478098 
L 324.413938 273.599418 
L 326.535258 272.978098 
L 328.656578 273.599418 
L 328.035258 271.478098 
L 328.656578 269.356777 
L 326.535258 269.978098 
z
" style="fill:#8c8c8c;stroke:#ffffff;stroke-width:0.48;"/>
    <path clip-path="url(#pbe36855a7c)" d="M 290.760906 264.373727 
L 291.382227 266.495048 
L 290.760906 268.616368 
L 292.882227 267.995048 
L 295.003547 268.616368 
L 294.382227 266.495048 
L 295.003547 264.373727 
L 292.882227 264.995048 
z
" style="fill:#8c8c8c;stroke:#ffffff;stroke-width:0.48;"/>
    <path clip-path="url(#pbe36855a7c)" d="M 339.650188 220.763638 
L 342.650188 214.763638 
L 336.650188 214.763638 
z
" style="fill:#ccb974;stroke:#ffffff;stroke-width:0.48;"/>
    <path clip-path="url(#pbe36855a7c)" d="M 289.700249 224.455228 
L 292.700249 218.455228 
L 286.700249 218.455228 
z
" style="fill:#ccb974;stroke:#ffffff;stroke-width:0.48;"/>
    <path clip-path="url(#pbe36855a7c)" d="M 286.593657 223.792778 
L 289.593657 217.792778 
L 283.593657 217.792778 
z
" style="fill:#ccb974;stroke:#ffffff;stroke-width:0.48;"/>
    <path clip-path="url(#pbe36855a7c)" d="M 285.450161 216.725565 
L 288.450161 210.725565 
L 282.450161 210.725565 
z
" style="fill:#ccb974;stroke:#ffffff;stroke-width:0.48;"/>
    <path clip-path="url(#pbe36855a7c)" d="M 284.744179 223.751669 
L 287.744179 217.751669 
L 281.744179 217.751669 
z
" style="fill:#ccb974;stroke:#ffffff;stroke-width:0.48;"/>
    <path clip-path="url(#pbe36855a7c)" d="M 258.663618 226.649453 
L 261.663618 220.649453 
L 255.663618 220.649453 
z
" style="fill:#ccb974;stroke:#ffffff;stroke-width:0.48;"/>
    <path clip-path="url(#pbe36855a7c)" d="M 270.50292 223.296466 
L 273.50292 217.296466 
L 267.50292 217.296466 
z
" style="fill:#ccb974;stroke:#ffffff;stroke-width:0.48;"/>
    <path clip-path="url(#pbe36855a7c)" d="M 295.736804 221.839985 
L 298.736804 215.839985 
L 292.736804 215.839985 
z
" style="fill:#ccb974;stroke:#ffffff;stroke-width:0.48;"/>
    <path clip-path="url(#pbe36855a7c)" d="M 285.405018 259.999181 
L 285.60598 261.847257 
L 283.905018 262.597257 
L 285.60598 263.347257 
L 285.405018 265.195334 
L 286.905018 264.097257 
L 288.405018 265.195334 
L 288.204056 263.347257 
L 289.905018 262.597257 
L 288.204056 261.847257 
L 288.405018 259.999181 
L 286.905018 261.097257 
z
" style="fill:#64b5cd;stroke:#ffffff;stroke-width:0.48;"/>
    <path clip-path="url(#pbe36855a7c)" d="M 256.197063 207.138409 
L 256.398025 208.986486 
L 254.697063 209.736486 
L 256.398025 210.486486 
L 256.197063 212.334562 
L 257.697063 211.236486 
L 259.197063 212.334562 
L 258.996101 210.486486 
L 260.697063 209.736486 
L 258.996101 208.986486 
L 259.197063 207.138409 
L 257.697063 208.236486 
z
" style="fill:#64b5cd;stroke:#ffffff;stroke-width:0.48;"/>
    <path clip-path="url(#pbe36855a7c)" d="M 255.168843 213.381099 
L 255.369805 215.229175 
L 253.668843 215.979175 
L 255.369805 216.729175 
L 255.168843 218.577251 
L 256.668843 217.479175 
L 258.168843 218.577251 
L 257.967881 216.729175 
L 259.668843 215.979175 
L 257.967881 215.229175 
L 258.168843 213.381099 
L 256.668843 214.479175 
z
" style="fill:#64b5cd;stroke:#ffffff;stroke-width:0.48;"/>
    <path clip-path="url(#pbe36855a7c)" d="M 249.676859 192.071405 
L 249.877821 193.919481 
L 248.176859 194.669481 
L 249.877821 195.419481 
L 249.676859 197.267557 
L 251.176859 196.169481 
L 252.676859 197.267557 
L 252.475897 195.419481 
L 254.176859 194.669481 
L 252.475897 193.919481 
L 252.676859 192.071405 
L 251.176859 193.169481 
z
" style="fill:#64b5cd;stroke:#ffffff;stroke-width:0.48;"/>
    <path clip-path="url(#pbe36855a7c)" d="M 258.889603 192.710134 
L 259.090565 194.55821 
L 257.389603 195.30821 
L 259.090565 196.05821 
L 258.889603 197.906287 
L 260.389603 196.80821 
L 261.889603 197.906287 
L 261.688641 196.05821 
L 263.389603 195.30821 
L 261.688641 194.55821 
L 261.889603 192.710134 
L 260.389603 193.80821 
z
" style="fill:#64b5cd;stroke:#ffffff;stroke-width:0.48;"/>
    <path clip-path="url(#pbe36855a7c)" d="M 267.56781 222.76907 
L 267.768772 224.617146 
L 266.06781 225.367146 
L 267.768772 226.117146 
L 267.56781 227.965222 
L 269.06781 226.867146 
L 270.56781 227.965222 
L 270.366848 226.117146 
L 272.06781 225.367146 
L 270.366848 224.617146 
L 270.56781 222.76907 
L 269.06781 223.867146 
z
" style="fill:#64b5cd;stroke:#ffffff;stroke-width:0.48;"/>
    <path clip-path="url(#pbe36855a7c)" d="M 254.173014 289.105372 
L 254.373976 290.953449 
L 252.673014 291.703449 
L 254.373976 292.453449 
L 254.173014 294.301525 
L 255.673014 293.203449 
L 257.173014 294.301525 
L 256.972052 292.453449 
L 258.673014 291.703449 
L 256.972052 290.953449 
L 257.173014 289.105372 
L 255.673014 290.203449 
z
" style="fill:#64b5cd;stroke:#ffffff;stroke-width:0.48;"/>
    <path clip-path="url(#pbe36855a7c)" d="M 269.104432 269.422904 
L 269.305394 271.270981 
L 267.604432 272.020981 
L 269.305394 272.770981 
L 269.104432 274.619057 
L 270.604432 273.520981 
L 272.104432 274.619057 
L 271.90347 272.770981 
L 273.604432 272.020981 
L 271.90347 271.270981 
L 272.104432 269.422904 
L 270.604432 270.520981 
z
" style="fill:#64b5cd;stroke:#ffffff;stroke-width:0.48;"/>
   </g>
   <g id="PathCollection_2"/>
   <g id="PathCollection_3"/>
   <g id="PathCollection_4"/>
   <g id="PathCollection_5"/>
   <g id="PathCollection_6"/>
   <g id="PathCollection_7"/>
   <g id="PathCollection_8"/>
   <g id="PathCollection_9"/>
   <g id="PathCollection_10"/>
   <g id="PathCollection_11"/>
   <g id="patch_3">
    <path d="M 49.23125 397.185625 
L 49.23125 24.6525 
" style="fill:none;stroke:#ffffff;stroke-linecap:square;stroke-linejoin:miter;stroke-width:1.25;"/>
   </g>
   <g id="patch_4">
    <path d="M 626.251116 397.185625 
L 626.251116 24.6525 
" style="fill:none;stroke:#ffffff;stroke-linecap:square;stroke-linejoin:miter;stroke-width:1.25;"/>
   </g>
   <g id="patch_5">
    <path d="M 49.23125 397.185625 
L 626.251116 397.185625 
" style="fill:none;stroke:#ffffff;stroke-linecap:square;stroke-linejoin:miter;stroke-width:1.25;"/>
   </g>
   <g id="patch_6">
    <path d="M 49.23125 24.6525 
L 626.251116 24.6525 
" style="fill:none;stroke:#ffffff;stroke-linecap:square;stroke-linejoin:miter;stroke-width:1.25;"/>
   </g>
   <g id="text_12">
    <!-- Modulus vs CNT Diameter -->
    <g style="fill:#262626;" transform="translate(244.084933 18.6525)scale(0.16 -0.16)">
     <defs>
      <path d="M 1344 0 
L 81 3319 
L 675 3319 
L 1388 1331 
Q 1503 1009 1600 663 
Q 1675 925 1809 1294 
L 2547 3319 
L 3125 3319 
L 1869 0 
L 1344 0 
z
" id="ArialMT-76" transform="scale(0.015625)"/>
     </defs>
     <use xlink:href="#ArialMT-4d"/>
     <use x="83.300781" xlink:href="#ArialMT-6f"/>
     <use x="138.916016" xlink:href="#ArialMT-64"/>
     <use x="194.53125" xlink:href="#ArialMT-75"/>
     <use x="250.146484" xlink:href="#ArialMT-6c"/>
     <use x="272.363281" xlink:href="#ArialMT-75"/>
     <use x="327.978516" xlink:href="#ArialMT-73"/>
     <use x="377.978516" xlink:href="#ArialMT-20"/>
     <use x="405.761719" xlink:href="#ArialMT-76"/>
     <use x="455.761719" xlink:href="#ArialMT-73"/>
     <use x="505.761719" xlink:href="#ArialMT-20"/>
     <use x="533.544922" xlink:href="#ArialMT-43"/>
     <use x="605.761719" xlink:href="#ArialMT-4e"/>
     <use x="677.978516" xlink:href="#ArialMT-54"/>
     <use x="737.3125" xlink:href="#ArialMT-20"/>
     <use x="765.095703" xlink:href="#ArialMT-44"/>
     <use x="837.3125" xlink:href="#ArialMT-69"/>
     <use x="859.529297" xlink:href="#ArialMT-61"/>
     <use x="915.144531" xlink:href="#ArialMT-6d"/>
     <use x="998.445312" xlink:href="#ArialMT-65"/>
     <use x="1054.060547" xlink:href="#ArialMT-74"/>
     <use x="1081.84375" xlink:href="#ArialMT-65"/>
     <use x="1137.458984" xlink:href="#ArialMT-72"/>
    </g>
   </g>
   <g id="legend_1">
    <g id="patch_7">
     <path d="M 634.221314 183.550937 
L 699.379127 183.550937 
Q 701.579127 183.550937 701.579127 181.350937 
L 701.579127 26.8525 
Q 701.579127 24.6525 699.379127 24.6525 
L 634.221314 24.6525 
Q 632.021314 24.6525 632.021314 26.8525 
L 632.021314 181.350937 
Q 632.021314 183.550937 634.221314 183.550937 
z
" style="fill:#eaeaf2;opacity:0.8;stroke:#cccccc;stroke-linejoin:miter;"/>
    </g>
    <g id="PathCollection_12">
     <defs>
      <path d="M 0 3 
C 0.795609 3 1.55874 2.683901 2.12132 2.12132 
C 2.683901 1.55874 3 0.795609 3 0 
C 3 -0.795609 2.683901 -1.55874 2.12132 -2.12132 
C 1.55874 -2.683901 0.795609 -3 0 -3 
C -0.795609 -3 -1.55874 -2.683901 -2.12132 -2.12132 
C -2.683901 -1.55874 -3 -0.795609 -3 0 
C -3 0.795609 -2.683901 1.55874 -2.12132 2.12132 
C -1.55874 2.683901 -0.795609 3 0 3 
z
" id="m3e38c8f8cc" style="stroke:#4c72b0;"/>
     </defs>
     <g>
      <use style="fill:#4c72b0;stroke:#4c72b0;" x="647.421314" xlink:href="#m3e38c8f8cc" y="34.038594"/>
     </g>
    </g>
    <g id="text_13">
     <!-- 188-I -->
     <g style="fill:#262626;" transform="translate(667.221314 36.926094)scale(0.11 -0.11)">
      <defs>
       <path d="M 203 1375 
L 203 1941 
L 1931 1941 
L 1931 1375 
L 203 1375 
z
" id="ArialMT-2d" transform="scale(0.015625)"/>
       <path d="M 597 0 
L 597 4581 
L 1203 4581 
L 1203 0 
L 597 0 
z
" id="ArialMT-49" transform="scale(0.015625)"/>
      </defs>
      <use xlink:href="#ArialMT-31"/>
      <use x="55.615234" xlink:href="#ArialMT-38"/>
      <use x="111.230469" xlink:href="#ArialMT-38"/>
      <use x="166.845703" xlink:href="#ArialMT-2d"/>
      <use x="200.146484" xlink:href="#ArialMT-49"/>
     </g>
    </g>
    <g id="PathCollection_13">
     <defs>
      <path d="M -1.5 3 
L 0 1.5 
L 1.5 3 
L 3 1.5 
L 1.5 0 
L 3 -1.5 
L 1.5 -3 
L 0 -1.5 
L -1.5 -3 
L -3 -1.5 
L -1.5 0 
L -3 1.5 
z
" id="m2f08a45481" style="stroke:#dd8452;"/>
     </defs>
     <g>
      <use style="fill:#dd8452;stroke:#dd8452;" x="647.421314" xlink:href="#m2f08a45481" y="49.598437"/>
     </g>
    </g>
    <g id="text_14">
     <!-- 190-I -->
     <g style="fill:#262626;" transform="translate(667.221314 52.485937)scale(0.11 -0.11)">
      <use xlink:href="#ArialMT-31"/>
      <use x="55.615234" xlink:href="#ArialMT-39"/>
      <use x="111.230469" xlink:href="#ArialMT-30"/>
      <use x="166.845703" xlink:href="#ArialMT-2d"/>
      <use x="200.146484" xlink:href="#ArialMT-49"/>
     </g>
    </g>
    <g id="PathCollection_14">
     <defs>
      <path d="M -2.12132 -2.12132 
L -2.12132 2.12132 
L 2.12132 2.12132 
L 2.12132 -2.12132 
z
" id="me918d2b101" style="stroke:#55a868;"/>
     </defs>
     <g>
      <use style="fill:#55a868;stroke:#55a868;" x="647.421314" xlink:href="#me918d2b101" y="65.158281"/>
     </g>
    </g>
    <g id="text_15">
     <!-- 194-U -->
     <g style="fill:#262626;" transform="translate(667.221314 68.045781)scale(0.11 -0.11)">
      <defs>
       <path d="M 2069 0 
L 2069 1097 
L 81 1097 
L 81 1613 
L 2172 4581 
L 2631 4581 
L 2631 1613 
L 3250 1613 
L 3250 1097 
L 2631 1097 
L 2631 0 
L 2069 0 
z
M 2069 1613 
L 2069 3678 
L 634 1613 
L 2069 1613 
z
" id="ArialMT-34" transform="scale(0.015625)"/>
       <path d="M 3500 4581 
L 4106 4581 
L 4106 1934 
Q 4106 1244 3950 837 
Q 3794 431 3386 176 
Q 2978 -78 2316 -78 
Q 1672 -78 1262 144 
Q 853 366 678 786 
Q 503 1206 503 1934 
L 503 4581 
L 1109 4581 
L 1109 1938 
Q 1109 1341 1220 1058 
Q 1331 775 1601 622 
Q 1872 469 2263 469 
Q 2931 469 3215 772 
Q 3500 1075 3500 1938 
L 3500 4581 
z
" id="ArialMT-55" transform="scale(0.015625)"/>
      </defs>
      <use xlink:href="#ArialMT-31"/>
      <use x="55.615234" xlink:href="#ArialMT-39"/>
      <use x="111.230469" xlink:href="#ArialMT-34"/>
      <use x="166.845703" xlink:href="#ArialMT-2d"/>
      <use x="200.146484" xlink:href="#ArialMT-55"/>
     </g>
    </g>
    <g id="PathCollection_15">
     <defs>
      <path d="M -1 3 
L 1 3 
L 1 1 
L 3 1 
L 3 -1 
L 1 -1 
L 1 -3 
L -1 -3 
L -1 -1 
L -3 -1 
L -3 1 
L -1 1 
z
" id="mbe80e62bab" style="stroke:#c44e52;"/>
     </defs>
     <g>
      <use style="fill:#c44e52;stroke:#c44e52;" x="647.421314" xlink:href="#mbe80e62bab" y="80.718125"/>
     </g>
    </g>
    <g id="text_16">
     <!-- 195-I -->
     <g style="fill:#262626;" transform="translate(667.221314 83.605625)scale(0.11 -0.11)">
      <use xlink:href="#ArialMT-31"/>
      <use x="55.615234" xlink:href="#ArialMT-39"/>
      <use x="111.230469" xlink:href="#ArialMT-35"/>
      <use x="166.845703" xlink:href="#ArialMT-2d"/>
      <use x="200.146484" xlink:href="#ArialMT-49"/>
     </g>
    </g>
    <g id="PathCollection_16">
     <defs>
      <path d="M 0 -3 
L -3 -0 
L -0 3 
L 3 0 
z
" id="m0a41a338e1" style="stroke:#8172b3;"/>
     </defs>
     <g>
      <use style="fill:#8172b3;stroke:#8172b3;" x="647.421314" xlink:href="#m0a41a338e1" y="96.277969"/>
     </g>
    </g>
    <g id="text_17">
     <!-- 198-U -->
     <g style="fill:#262626;" transform="translate(667.221314 99.165469)scale(0.11 -0.11)">
      <use xlink:href="#ArialMT-31"/>
      <use x="55.615234" xlink:href="#ArialMT-39"/>
      <use x="111.230469" xlink:href="#ArialMT-38"/>
      <use x="166.845703" xlink:href="#ArialMT-2d"/>
      <use x="200.146484" xlink:href="#ArialMT-55"/>
     </g>
    </g>
    <g id="PathCollection_17">
     <defs>
      <path d="M 0 -3 
L -1.06066 -1.06066 
L -3 -0 
L -1.06066 1.06066 
L -0 3 
L 1.06066 1.06066 
L 3 0 
L 1.06066 -1.06066 
z
" id="m9b7d4911ae" style="stroke:#937860;"/>
     </defs>
     <g>
      <use style="fill:#937860;stroke:#937860;" x="647.421314" xlink:href="#m9b7d4911ae" y="111.837812"/>
     </g>
    </g>
    <g id="text_18">
     <!-- 199-I -->
     <g style="fill:#262626;" transform="translate(667.221314 114.725312)scale(0.11 -0.11)">
      <use xlink:href="#ArialMT-31"/>
      <use x="55.615234" xlink:href="#ArialMT-39"/>
      <use x="111.230469" xlink:href="#ArialMT-39"/>
      <use x="166.845703" xlink:href="#ArialMT-2d"/>
      <use x="200.146484" xlink:href="#ArialMT-49"/>
     </g>
    </g>
    <g id="PathCollection_18">
     <defs>
      <path d="M 0 -3 
L -3 3 
L 3 3 
z
" id="m8273e04740" style="stroke:#da8bc3;"/>
     </defs>
     <g>
      <use style="fill:#da8bc3;stroke:#da8bc3;" x="647.421314" xlink:href="#m8273e04740" y="127.397656"/>
     </g>
    </g>
    <g id="text_19">
     <!-- 200-U -->
     <g style="fill:#262626;" transform="translate(667.221314 130.285156)scale(0.11 -0.11)">
      <use xlink:href="#ArialMT-32"/>
      <use x="55.615234" xlink:href="#ArialMT-30"/>
      <use x="111.230469" xlink:href="#ArialMT-30"/>
      <use x="166.845703" xlink:href="#ArialMT-2d"/>
      <use x="200.146484" xlink:href="#ArialMT-55"/>
     </g>
    </g>
    <g id="PathCollection_19">
     <defs>
      <path d="M -2.12132 -2.12132 
L -1.5 -0 
L -2.12132 2.12132 
L -0 1.5 
L 2.12132 2.12132 
L 1.5 0 
L 2.12132 -2.12132 
L 0 -1.5 
z
" id="mbfd85c2cf9" style="stroke:#8c8c8c;"/>
     </defs>
     <g>
      <use style="fill:#8c8c8c;stroke:#8c8c8c;" x="647.421314" xlink:href="#mbfd85c2cf9" y="142.9575"/>
     </g>
    </g>
    <g id="text_20">
     <!-- 201-I -->
     <g style="fill:#262626;" transform="translate(667.221314 145.845)scale(0.11 -0.11)">
      <use xlink:href="#ArialMT-32"/>
      <use x="55.615234" xlink:href="#ArialMT-30"/>
      <use x="111.230469" xlink:href="#ArialMT-31"/>
      <use x="166.845703" xlink:href="#ArialMT-2d"/>
      <use x="200.146484" xlink:href="#ArialMT-49"/>
     </g>
    </g>
    <g id="PathCollection_20">
     <defs>
      <path d="M -0 3 
L 3 -3 
L -3 -3 
z
" id="mdb12837f84" style="stroke:#ccb974;"/>
     </defs>
     <g>
      <use style="fill:#ccb974;stroke:#ccb974;" x="647.421314" xlink:href="#mdb12837f84" y="158.517344"/>
     </g>
    </g>
    <g id="text_21">
     <!-- 202-I -->
     <g style="fill:#262626;" transform="translate(667.221314 161.404844)scale(0.11 -0.11)">
      <use xlink:href="#ArialMT-32"/>
      <use x="55.615234" xlink:href="#ArialMT-30"/>
      <use x="111.230469" xlink:href="#ArialMT-32"/>
      <use x="166.845703" xlink:href="#ArialMT-2d"/>
      <use x="200.146484" xlink:href="#ArialMT-49"/>
     </g>
    </g>
    <g id="PathCollection_21">
     <defs>
      <path d="M -1.5 -2.598076 
L -1.299038 -0.75 
L -3 -0 
L -1.299038 0.75 
L -1.5 2.598076 
L -0 1.5 
L 1.5 2.598076 
L 1.299038 0.75 
L 3 0 
L 1.299038 -0.75 
L 1.5 -2.598076 
L 0 -1.5 
z
" id="mbf187248f4" style="stroke:#64b5cd;"/>
     </defs>
     <g>
      <use style="fill:#64b5cd;stroke:#64b5cd;" x="647.421314" xlink:href="#mbf187248f4" y="174.077187"/>
     </g>
    </g>
    <g id="text_22">
     <!-- 203-I -->
     <g style="fill:#262626;" transform="translate(667.221314 176.964687)scale(0.11 -0.11)">
      <defs>
       <path d="M 269 1209 
L 831 1284 
Q 928 806 1161 595 
Q 1394 384 1728 384 
Q 2125 384 2398 659 
Q 2672 934 2672 1341 
Q 2672 1728 2419 1979 
Q 2166 2231 1775 2231 
Q 1616 2231 1378 2169 
L 1441 2663 
Q 1497 2656 1531 2656 
Q 1891 2656 2178 2843 
Q 2466 3031 2466 3422 
Q 2466 3731 2256 3934 
Q 2047 4138 1716 4138 
Q 1388 4138 1169 3931 
Q 950 3725 888 3313 
L 325 3413 
Q 428 3978 793 4289 
Q 1159 4600 1703 4600 
Q 2078 4600 2393 4439 
Q 2709 4278 2876 4000 
Q 3044 3722 3044 3409 
Q 3044 3113 2884 2869 
Q 2725 2625 2413 2481 
Q 2819 2388 3044 2092 
Q 3269 1797 3269 1353 
Q 3269 753 2831 336 
Q 2394 -81 1725 -81 
Q 1122 -81 723 278 
Q 325 638 269 1209 
z
" id="ArialMT-33" transform="scale(0.015625)"/>
      </defs>
      <use xlink:href="#ArialMT-32"/>
      <use x="55.615234" xlink:href="#ArialMT-30"/>
      <use x="111.230469" xlink:href="#ArialMT-33"/>
      <use x="166.845703" xlink:href="#ArialMT-2d"/>
      <use x="200.146484" xlink:href="#ArialMT-49"/>
     </g>
    </g>
   </g>
  </g>
 </g>
 <defs>
  <clipPath id="pbe36855a7c">
   <rect height="372.533125" width="577.019866" x="49.23125" y="24.6525"/>
  </clipPath>
 </defs>
</svg>
