<?xml version="1.0" encoding="utf-8" standalone="no"?>
<!DOCTYPE svg PUBLIC "-//W3C//DTD SVG 1.1//EN"
  "http://www.w3.org/Graphics/SVG/1.1/DTD/svg11.dtd">
<svg height="439.206719pt" version="1.1" viewBox="0 0 707.653033 439.206719" width="707.653033pt" xmlns="http://www.w3.org/2000/svg" xmlns:xlink="http://www.w3.org/1999/xlink">
 <metadata>
  <rdf:RDF xmlns:cc="http://creativecommons.org/ns#" xmlns:dc="http://purl.org/dc/elements/1.1/" xmlns:rdf="http://www.w3.org/1999/02/22-rdf-syntax-ns#">
   <cc:Work>
    <dc:type rdf:resource="http://purl.org/dc/dcmitype/StillImage"/>
    <dc:date>2022-05-02T18:34:15.181147</dc:date>
    <dc:format>image/svg+xml</dc:format>
    <dc:creator>
     <cc:Agent>
      <dc:title>Matplotlib v3.4.2, https://matplotlib.org/</dc:title>
     </cc:Agent>
    </dc:creator>
   </cc:Work>
  </rdf:RDF>
 </metadata>
 <defs>
  <style type="text/css">*{stroke-linecap:butt;stroke-linejoin:round;}</style>
 </defs>
 <g id="figure_1">
  <g id="patch_1">
   <path d="M 0 439.206719 
L 707.653033 439.206719 
L 707.653033 0 
L 0 0 
z
" style="fill:#ffffff;"/>
  </g>
  <g id="axes_1">
   <g id="patch_2">
    <path d="M 49.23125 397.185625 
L 567.626116 397.185625 
L 567.626116 24.6525 
L 49.23125 24.6525 
z
" style="fill:#eaeaf2;"/>
   </g>
   <g id="matplotlib.axis_1">
    <g id="xtick_1">
     <g id="line2d_1">
      <path clip-path="url(#p1d8265db5e)" d="M 58.181955 397.185625 
L 58.181955 24.6525 
" style="fill:none;stroke:#ffffff;stroke-linecap:round;"/>
     </g>
     <g id="line2d_2">
      <defs>
       <path d="M 0 0 
L 0 6 
" id="me98a5feb38" style="stroke:#262626;stroke-width:1.25;"/>
      </defs>
      <g>
       <use style="fill:#262626;stroke:#262626;stroke-width:1.25;" x="58.181955" xlink:href="#me98a5feb38" y="397.185625"/>
      </g>
     </g>
     <g id="text_1">
      <!-- 5.0 -->
      <g style="fill:#262626;" transform="translate(50.536955 414.559219)scale(0.11 -0.11)">
       <defs>
        <path d="M 266 1200 
L 856 1250 
Q 922 819 1161 601 
Q 1400 384 1738 384 
Q 2144 384 2425 690 
Q 2706 997 2706 1503 
Q 2706 1984 2436 2262 
Q 2166 2541 1728 2541 
Q 1456 2541 1237 2417 
Q 1019 2294 894 2097 
L 366 2166 
L 809 4519 
L 3088 4519 
L 3088 3981 
L 1259 3981 
L 1013 2750 
Q 1425 3038 1878 3038 
Q 2478 3038 2890 2622 
Q 3303 2206 3303 1553 
Q 3303 931 2941 478 
Q 2500 -78 1738 -78 
Q 1113 -78 717 272 
Q 322 622 266 1200 
z
" id="ArialMT-35" transform="scale(0.015625)"/>
        <path d="M 581 0 
L 581 641 
L 1222 641 
L 1222 0 
L 581 0 
z
" id="ArialMT-2e" transform="scale(0.015625)"/>
        <path d="M 266 2259 
Q 266 3072 433 3567 
Q 600 4063 929 4331 
Q 1259 4600 1759 4600 
Q 2128 4600 2406 4451 
Q 2684 4303 2865 4023 
Q 3047 3744 3150 3342 
Q 3253 2941 3253 2259 
Q 3253 1453 3087 958 
Q 2922 463 2592 192 
Q 2263 -78 1759 -78 
Q 1097 -78 719 397 
Q 266 969 266 2259 
z
M 844 2259 
Q 844 1131 1108 757 
Q 1372 384 1759 384 
Q 2147 384 2411 759 
Q 2675 1134 2675 2259 
Q 2675 3391 2411 3762 
Q 2147 4134 1753 4134 
Q 1366 4134 1134 3806 
Q 844 3388 844 2259 
z
" id="ArialMT-30" transform="scale(0.015625)"/>
       </defs>
       <use xlink:href="#ArialMT-35"/>
       <use x="55.615234" xlink:href="#ArialMT-2e"/>
       <use x="83.398438" xlink:href="#ArialMT-30"/>
      </g>
     </g>
    </g>
    <g id="xtick_2">
     <g id="line2d_3">
      <path clip-path="url(#p1d8265db5e)" d="M 117.776971 397.185625 
L 117.776971 24.6525 
" style="fill:none;stroke:#ffffff;stroke-linecap:round;"/>
     </g>
     <g id="line2d_4">
      <g>
       <use style="fill:#262626;stroke:#262626;stroke-width:1.25;" x="117.776971" xlink:href="#me98a5feb38" y="397.185625"/>
      </g>
     </g>
     <g id="text_2">
      <!-- 7.5 -->
      <g style="fill:#262626;" transform="translate(110.131971 414.559219)scale(0.11 -0.11)">
       <defs>
        <path d="M 303 3981 
L 303 4522 
L 3269 4522 
L 3269 4084 
Q 2831 3619 2401 2847 
Q 1972 2075 1738 1259 
Q 1569 684 1522 0 
L 944 0 
Q 953 541 1156 1306 
Q 1359 2072 1739 2783 
Q 2119 3494 2547 3981 
L 303 3981 
z
" id="ArialMT-37" transform="scale(0.015625)"/>
       </defs>
       <use xlink:href="#ArialMT-37"/>
       <use x="55.615234" xlink:href="#ArialMT-2e"/>
       <use x="83.398438" xlink:href="#ArialMT-35"/>
      </g>
     </g>
    </g>
    <g id="xtick_3">
     <g id="line2d_5">
      <path clip-path="url(#p1d8265db5e)" d="M 177.371987 397.185625 
L 177.371987 24.6525 
" style="fill:none;stroke:#ffffff;stroke-linecap:round;"/>
     </g>
     <g id="line2d_6">
      <g>
       <use style="fill:#262626;stroke:#262626;stroke-width:1.25;" x="177.371987" xlink:href="#me98a5feb38" y="397.185625"/>
      </g>
     </g>
     <g id="text_3">
      <!-- 10.0 -->
      <g style="fill:#262626;" transform="translate(166.668472 414.559219)scale(0.11 -0.11)">
       <defs>
        <path d="M 2384 0 
L 1822 0 
L 1822 3584 
Q 1619 3391 1289 3197 
Q 959 3003 697 2906 
L 697 3450 
Q 1169 3672 1522 3987 
Q 1875 4303 2022 4600 
L 2384 4600 
L 2384 0 
z
" id="ArialMT-31" transform="scale(0.015625)"/>
       </defs>
       <use xlink:href="#ArialMT-31"/>
       <use x="55.615234" xlink:href="#ArialMT-30"/>
       <use x="111.230469" xlink:href="#ArialMT-2e"/>
       <use x="139.013672" xlink:href="#ArialMT-30"/>
      </g>
     </g>
    </g>
    <g id="xtick_4">
     <g id="line2d_7">
      <path clip-path="url(#p1d8265db5e)" d="M 236.967003 397.185625 
L 236.967003 24.6525 
" style="fill:none;stroke:#ffffff;stroke-linecap:round;"/>
     </g>
     <g id="line2d_8">
      <g>
       <use style="fill:#262626;stroke:#262626;stroke-width:1.25;" x="236.967003" xlink:href="#me98a5feb38" y="397.185625"/>
      </g>
     </g>
     <g id="text_4">
      <!-- 12.5 -->
      <g style="fill:#262626;" transform="translate(226.263488 414.559219)scale(0.11 -0.11)">
       <defs>
        <path d="M 3222 541 
L 3222 0 
L 194 0 
Q 188 203 259 391 
Q 375 700 629 1000 
Q 884 1300 1366 1694 
Q 2113 2306 2375 2664 
Q 2638 3022 2638 3341 
Q 2638 3675 2398 3904 
Q 2159 4134 1775 4134 
Q 1369 4134 1125 3890 
Q 881 3647 878 3216 
L 300 3275 
Q 359 3922 746 4261 
Q 1134 4600 1788 4600 
Q 2447 4600 2831 4234 
Q 3216 3869 3216 3328 
Q 3216 3053 3103 2787 
Q 2991 2522 2730 2228 
Q 2469 1934 1863 1422 
Q 1356 997 1212 845 
Q 1069 694 975 541 
L 3222 541 
z
" id="ArialMT-32" transform="scale(0.015625)"/>
       </defs>
       <use xlink:href="#ArialMT-31"/>
       <use x="55.615234" xlink:href="#ArialMT-32"/>
       <use x="111.230469" xlink:href="#ArialMT-2e"/>
       <use x="139.013672" xlink:href="#ArialMT-35"/>
      </g>
     </g>
    </g>
    <g id="xtick_5">
     <g id="line2d_9">
      <path clip-path="url(#p1d8265db5e)" d="M 296.56202 397.185625 
L 296.56202 24.6525 
" style="fill:none;stroke:#ffffff;stroke-linecap:round;"/>
     </g>
     <g id="line2d_10">
      <g>
       <use style="fill:#262626;stroke:#262626;stroke-width:1.25;" x="296.56202" xlink:href="#me98a5feb38" y="397.185625"/>
      </g>
     </g>
     <g id="text_5">
      <!-- 15.0 -->
      <g style="fill:#262626;" transform="translate(285.858504 414.559219)scale(0.11 -0.11)">
       <use xlink:href="#ArialMT-31"/>
       <use x="55.615234" xlink:href="#ArialMT-35"/>
       <use x="111.230469" xlink:href="#ArialMT-2e"/>
       <use x="139.013672" xlink:href="#ArialMT-30"/>
      </g>
     </g>
    </g>
    <g id="xtick_6">
     <g id="line2d_11">
      <path clip-path="url(#p1d8265db5e)" d="M 356.157036 397.185625 
L 356.157036 24.6525 
" style="fill:none;stroke:#ffffff;stroke-linecap:round;"/>
     </g>
     <g id="line2d_12">
      <g>
       <use style="fill:#262626;stroke:#262626;stroke-width:1.25;" x="356.157036" xlink:href="#me98a5feb38" y="397.185625"/>
      </g>
     </g>
     <g id="text_6">
      <!-- 17.5 -->
      <g style="fill:#262626;" transform="translate(345.45352 414.559219)scale(0.11 -0.11)">
       <use xlink:href="#ArialMT-31"/>
       <use x="55.615234" xlink:href="#ArialMT-37"/>
       <use x="111.230469" xlink:href="#ArialMT-2e"/>
       <use x="139.013672" xlink:href="#ArialMT-35"/>
      </g>
     </g>
    </g>
    <g id="xtick_7">
     <g id="line2d_13">
      <path clip-path="url(#p1d8265db5e)" d="M 415.752052 397.185625 
L 415.752052 24.6525 
" style="fill:none;stroke:#ffffff;stroke-linecap:round;"/>
     </g>
     <g id="line2d_14">
      <g>
       <use style="fill:#262626;stroke:#262626;stroke-width:1.25;" x="415.752052" xlink:href="#me98a5feb38" y="397.185625"/>
      </g>
     </g>
     <g id="text_7">
      <!-- 20.0 -->
      <g style="fill:#262626;" transform="translate(405.048536 414.559219)scale(0.11 -0.11)">
       <use xlink:href="#ArialMT-32"/>
       <use x="55.615234" xlink:href="#ArialMT-30"/>
       <use x="111.230469" xlink:href="#ArialMT-2e"/>
       <use x="139.013672" xlink:href="#ArialMT-30"/>
      </g>
     </g>
    </g>
    <g id="xtick_8">
     <g id="line2d_15">
      <path clip-path="url(#p1d8265db5e)" d="M 475.347068 397.185625 
L 475.347068 24.6525 
" style="fill:none;stroke:#ffffff;stroke-linecap:round;"/>
     </g>
     <g id="line2d_16">
      <g>
       <use style="fill:#262626;stroke:#262626;stroke-width:1.25;" x="475.347068" xlink:href="#me98a5feb38" y="397.185625"/>
      </g>
     </g>
     <g id="text_8">
      <!-- 22.5 -->
      <g style="fill:#262626;" transform="translate(464.643552 414.559219)scale(0.11 -0.11)">
       <use xlink:href="#ArialMT-32"/>
       <use x="55.615234" xlink:href="#ArialMT-32"/>
       <use x="111.230469" xlink:href="#ArialMT-2e"/>
       <use x="139.013672" xlink:href="#ArialMT-35"/>
      </g>
     </g>
    </g>
    <g id="xtick_9">
     <g id="line2d_17">
      <path clip-path="url(#p1d8265db5e)" d="M 534.942084 397.185625 
L 534.942084 24.6525 
" style="fill:none;stroke:#ffffff;stroke-linecap:round;"/>
     </g>
     <g id="line2d_18">
      <g>
       <use style="fill:#262626;stroke:#262626;stroke-width:1.25;" x="534.942084" xlink:href="#me98a5feb38" y="397.185625"/>
      </g>
     </g>
     <g id="text_9">
      <!-- 25.0 -->
      <g style="fill:#262626;" transform="translate(524.238568 414.559219)scale(0.11 -0.11)">
       <use xlink:href="#ArialMT-32"/>
       <use x="55.615234" xlink:href="#ArialMT-35"/>
       <use x="111.230469" xlink:href="#ArialMT-2e"/>
       <use x="139.013672" xlink:href="#ArialMT-30"/>
      </g>
     </g>
    </g>
    <g id="text_10">
     <!-- CNT Diameter (nm) -->
     <g style="fill:#262626;" transform="translate(256.200558 429.481094)scale(0.12 -0.12)">
      <defs>
       <path d="M 3763 1606 
L 4369 1453 
Q 4178 706 3683 314 
Q 3188 -78 2472 -78 
Q 1731 -78 1267 223 
Q 803 525 561 1097 
Q 319 1669 319 2325 
Q 319 3041 592 3573 
Q 866 4106 1370 4382 
Q 1875 4659 2481 4659 
Q 3169 4659 3637 4309 
Q 4106 3959 4291 3325 
L 3694 3184 
Q 3534 3684 3231 3912 
Q 2928 4141 2469 4141 
Q 1941 4141 1586 3887 
Q 1231 3634 1087 3207 
Q 944 2781 944 2328 
Q 944 1744 1114 1308 
Q 1284 872 1643 656 
Q 2003 441 2422 441 
Q 2931 441 3284 734 
Q 3638 1028 3763 1606 
z
" id="ArialMT-43" transform="scale(0.015625)"/>
       <path d="M 488 0 
L 488 4581 
L 1109 4581 
L 3516 984 
L 3516 4581 
L 4097 4581 
L 4097 0 
L 3475 0 
L 1069 3600 
L 1069 0 
L 488 0 
z
" id="ArialMT-4e" transform="scale(0.015625)"/>
       <path d="M 1659 0 
L 1659 4041 
L 150 4041 
L 150 4581 
L 3781 4581 
L 3781 4041 
L 2266 4041 
L 2266 0 
L 1659 0 
z
" id="ArialMT-54" transform="scale(0.015625)"/>
       <path id="ArialMT-20" transform="scale(0.015625)"/>
       <path d="M 494 0 
L 494 4581 
L 2072 4581 
Q 2606 4581 2888 4516 
Q 3281 4425 3559 4188 
Q 3922 3881 4101 3404 
Q 4281 2928 4281 2316 
Q 4281 1794 4159 1391 
Q 4038 988 3847 723 
Q 3656 459 3429 307 
Q 3203 156 2883 78 
Q 2563 0 2147 0 
L 494 0 
z
M 1100 541 
L 2078 541 
Q 2531 541 2789 625 
Q 3047 709 3200 863 
Q 3416 1078 3536 1442 
Q 3656 1806 3656 2325 
Q 3656 3044 3420 3430 
Q 3184 3816 2847 3947 
Q 2603 4041 2063 4041 
L 1100 4041 
L 1100 541 
z
" id="ArialMT-44" transform="scale(0.015625)"/>
       <path d="M 425 3934 
L 425 4581 
L 988 4581 
L 988 3934 
L 425 3934 
z
M 425 0 
L 425 3319 
L 988 3319 
L 988 0 
L 425 0 
z
" id="ArialMT-69" transform="scale(0.015625)"/>
       <path d="M 2588 409 
Q 2275 144 1986 34 
Q 1697 -75 1366 -75 
Q 819 -75 525 192 
Q 231 459 231 875 
Q 231 1119 342 1320 
Q 453 1522 633 1644 
Q 813 1766 1038 1828 
Q 1203 1872 1538 1913 
Q 2219 1994 2541 2106 
Q 2544 2222 2544 2253 
Q 2544 2597 2384 2738 
Q 2169 2928 1744 2928 
Q 1347 2928 1158 2789 
Q 969 2650 878 2297 
L 328 2372 
Q 403 2725 575 2942 
Q 747 3159 1072 3276 
Q 1397 3394 1825 3394 
Q 2250 3394 2515 3294 
Q 2781 3194 2906 3042 
Q 3031 2891 3081 2659 
Q 3109 2516 3109 2141 
L 3109 1391 
Q 3109 606 3145 398 
Q 3181 191 3288 0 
L 2700 0 
Q 2613 175 2588 409 
z
M 2541 1666 
Q 2234 1541 1622 1453 
Q 1275 1403 1131 1340 
Q 988 1278 909 1158 
Q 831 1038 831 891 
Q 831 666 1001 516 
Q 1172 366 1500 366 
Q 1825 366 2078 508 
Q 2331 650 2450 897 
Q 2541 1088 2541 1459 
L 2541 1666 
z
" id="ArialMT-61" transform="scale(0.015625)"/>
       <path d="M 422 0 
L 422 3319 
L 925 3319 
L 925 2853 
Q 1081 3097 1340 3245 
Q 1600 3394 1931 3394 
Q 2300 3394 2536 3241 
Q 2772 3088 2869 2813 
Q 3263 3394 3894 3394 
Q 4388 3394 4653 3120 
Q 4919 2847 4919 2278 
L 4919 0 
L 4359 0 
L 4359 2091 
Q 4359 2428 4304 2576 
Q 4250 2725 4106 2815 
Q 3963 2906 3769 2906 
Q 3419 2906 3187 2673 
Q 2956 2441 2956 1928 
L 2956 0 
L 2394 0 
L 2394 2156 
Q 2394 2531 2256 2718 
Q 2119 2906 1806 2906 
Q 1569 2906 1367 2781 
Q 1166 2656 1075 2415 
Q 984 2175 984 1722 
L 984 0 
L 422 0 
z
" id="ArialMT-6d" transform="scale(0.015625)"/>
       <path d="M 2694 1069 
L 3275 997 
Q 3138 488 2766 206 
Q 2394 -75 1816 -75 
Q 1088 -75 661 373 
Q 234 822 234 1631 
Q 234 2469 665 2931 
Q 1097 3394 1784 3394 
Q 2450 3394 2872 2941 
Q 3294 2488 3294 1666 
Q 3294 1616 3291 1516 
L 816 1516 
Q 847 969 1125 678 
Q 1403 388 1819 388 
Q 2128 388 2347 550 
Q 2566 713 2694 1069 
z
M 847 1978 
L 2700 1978 
Q 2663 2397 2488 2606 
Q 2219 2931 1791 2931 
Q 1403 2931 1139 2672 
Q 875 2413 847 1978 
z
" id="ArialMT-65" transform="scale(0.015625)"/>
       <path d="M 1650 503 
L 1731 6 
Q 1494 -44 1306 -44 
Q 1000 -44 831 53 
Q 663 150 594 308 
Q 525 466 525 972 
L 525 2881 
L 113 2881 
L 113 3319 
L 525 3319 
L 525 4141 
L 1084 4478 
L 1084 3319 
L 1650 3319 
L 1650 2881 
L 1084 2881 
L 1084 941 
Q 1084 700 1114 631 
Q 1144 563 1211 522 
Q 1278 481 1403 481 
Q 1497 481 1650 503 
z
" id="ArialMT-74" transform="scale(0.015625)"/>
       <path d="M 416 0 
L 416 3319 
L 922 3319 
L 922 2816 
Q 1116 3169 1280 3281 
Q 1444 3394 1641 3394 
Q 1925 3394 2219 3213 
L 2025 2691 
Q 1819 2813 1613 2813 
Q 1428 2813 1281 2702 
Q 1134 2591 1072 2394 
Q 978 2094 978 1738 
L 978 0 
L 416 0 
z
" id="ArialMT-72" transform="scale(0.015625)"/>
       <path d="M 1497 -1347 
Q 1031 -759 709 28 
Q 388 816 388 1659 
Q 388 2403 628 3084 
Q 909 3875 1497 4659 
L 1900 4659 
Q 1522 4009 1400 3731 
Q 1209 3300 1100 2831 
Q 966 2247 966 1656 
Q 966 153 1900 -1347 
L 1497 -1347 
z
" id="ArialMT-28" transform="scale(0.015625)"/>
       <path d="M 422 0 
L 422 3319 
L 928 3319 
L 928 2847 
Q 1294 3394 1984 3394 
Q 2284 3394 2536 3286 
Q 2788 3178 2913 3003 
Q 3038 2828 3088 2588 
Q 3119 2431 3119 2041 
L 3119 0 
L 2556 0 
L 2556 2019 
Q 2556 2363 2490 2533 
Q 2425 2703 2258 2804 
Q 2091 2906 1866 2906 
Q 1506 2906 1245 2678 
Q 984 2450 984 1813 
L 984 0 
L 422 0 
z
" id="ArialMT-6e" transform="scale(0.015625)"/>
       <path d="M 791 -1347 
L 388 -1347 
Q 1322 153 1322 1656 
Q 1322 2244 1188 2822 
Q 1081 3291 891 3722 
Q 769 4003 388 4659 
L 791 4659 
Q 1378 3875 1659 3084 
Q 1900 2403 1900 1659 
Q 1900 816 1576 28 
Q 1253 -759 791 -1347 
z
" id="ArialMT-29" transform="scale(0.015625)"/>
      </defs>
      <use xlink:href="#ArialMT-43"/>
      <use x="72.216797" xlink:href="#ArialMT-4e"/>
      <use x="144.433594" xlink:href="#ArialMT-54"/>
      <use x="203.767578" xlink:href="#ArialMT-20"/>
      <use x="231.550781" xlink:href="#ArialMT-44"/>
      <use x="303.767578" xlink:href="#ArialMT-69"/>
      <use x="325.984375" xlink:href="#ArialMT-61"/>
      <use x="381.599609" xlink:href="#ArialMT-6d"/>
      <use x="464.900391" xlink:href="#ArialMT-65"/>
      <use x="520.515625" xlink:href="#ArialMT-74"/>
      <use x="548.298828" xlink:href="#ArialMT-65"/>
      <use x="603.914062" xlink:href="#ArialMT-72"/>
      <use x="637.214844" xlink:href="#ArialMT-20"/>
      <use x="664.998047" xlink:href="#ArialMT-28"/>
      <use x="698.298828" xlink:href="#ArialMT-6e"/>
      <use x="753.914062" xlink:href="#ArialMT-6d"/>
      <use x="837.214844" xlink:href="#ArialMT-29"/>
     </g>
    </g>
   </g>
   <g id="matplotlib.axis_2">
    <g id="ytick_1">
     <g id="line2d_19">
      <path clip-path="url(#p1d8265db5e)" d="M 49.23125 328.306982 
L 567.626116 328.306982 
" style="fill:none;stroke:#ffffff;stroke-linecap:round;"/>
     </g>
     <g id="line2d_20">
      <defs>
       <path d="M 0 0 
L -6 0 
" id="m57118a24cd" style="stroke:#262626;stroke-width:1.25;"/>
      </defs>
      <g>
       <use style="fill:#262626;stroke:#262626;stroke-width:1.25;" x="49.23125" xlink:href="#m57118a24cd" y="328.306982"/>
      </g>
     </g>
     <g id="text_11">
      <!-- $\mathdefault{10^{7}}$ -->
      <g style="fill:#262626;" transform="translate(22.46125 333.923857)scale(0.11 -0.11)">
       <use transform="translate(0 0.846875)" xlink:href="#ArialMT-31"/>
       <use transform="translate(55.615234 0.846875)" xlink:href="#ArialMT-30"/>
       <use transform="translate(112.972813 70.540625)scale(0.7)" xlink:href="#ArialMT-37"/>
      </g>
     </g>
    </g>
    <g id="ytick_2">
     <g id="line2d_21">
      <path clip-path="url(#p1d8265db5e)" d="M 49.23125 200.051686 
L 567.626116 200.051686 
" style="fill:none;stroke:#ffffff;stroke-linecap:round;"/>
     </g>
     <g id="line2d_22">
      <g>
       <use style="fill:#262626;stroke:#262626;stroke-width:1.25;" x="49.23125" xlink:href="#m57118a24cd" y="200.051686"/>
      </g>
     </g>
     <g id="text_12">
      <!-- $\mathdefault{10^{8}}$ -->
      <g style="fill:#262626;" transform="translate(22.46125 205.723561)scale(0.11 -0.11)">
       <defs>
        <path d="M 1131 2484 
Q 781 2613 612 2850 
Q 444 3088 444 3419 
Q 444 3919 803 4259 
Q 1163 4600 1759 4600 
Q 2359 4600 2725 4251 
Q 3091 3903 3091 3403 
Q 3091 3084 2923 2848 
Q 2756 2613 2416 2484 
Q 2838 2347 3058 2040 
Q 3278 1734 3278 1309 
Q 3278 722 2862 322 
Q 2447 -78 1769 -78 
Q 1091 -78 675 323 
Q 259 725 259 1325 
Q 259 1772 486 2073 
Q 713 2375 1131 2484 
z
M 1019 3438 
Q 1019 3113 1228 2906 
Q 1438 2700 1772 2700 
Q 2097 2700 2305 2904 
Q 2513 3109 2513 3406 
Q 2513 3716 2298 3927 
Q 2084 4138 1766 4138 
Q 1444 4138 1231 3931 
Q 1019 3725 1019 3438 
z
M 838 1322 
Q 838 1081 952 856 
Q 1066 631 1291 507 
Q 1516 384 1775 384 
Q 2178 384 2440 643 
Q 2703 903 2703 1303 
Q 2703 1709 2433 1975 
Q 2163 2241 1756 2241 
Q 1359 2241 1098 1978 
Q 838 1716 838 1322 
z
" id="ArialMT-38" transform="scale(0.015625)"/>
       </defs>
       <use transform="translate(0 0.99375)" xlink:href="#ArialMT-31"/>
       <use transform="translate(55.615234 0.99375)" xlink:href="#ArialMT-30"/>
       <use transform="translate(112.972813 70.6875)scale(0.7)" xlink:href="#ArialMT-38"/>
      </g>
     </g>
    </g>
    <g id="ytick_3">
     <g id="line2d_23">
      <path clip-path="url(#p1d8265db5e)" d="M 49.23125 71.796389 
L 567.626116 71.796389 
" style="fill:none;stroke:#ffffff;stroke-linecap:round;"/>
     </g>
     <g id="line2d_24">
      <g>
       <use style="fill:#262626;stroke:#262626;stroke-width:1.25;" x="49.23125" xlink:href="#m57118a24cd" y="71.796389"/>
      </g>
     </g>
     <g id="text_13">
      <!-- $\mathdefault{10^{9}}$ -->
      <g style="fill:#262626;" transform="translate(22.46125 77.468264)scale(0.11 -0.11)">
       <defs>
        <path d="M 350 1059 
L 891 1109 
Q 959 728 1153 556 
Q 1347 384 1650 384 
Q 1909 384 2104 503 
Q 2300 622 2425 820 
Q 2550 1019 2634 1356 
Q 2719 1694 2719 2044 
Q 2719 2081 2716 2156 
Q 2547 1888 2255 1720 
Q 1963 1553 1622 1553 
Q 1053 1553 659 1965 
Q 266 2378 266 3053 
Q 266 3750 677 4175 
Q 1088 4600 1706 4600 
Q 2153 4600 2523 4359 
Q 2894 4119 3086 3673 
Q 3278 3228 3278 2384 
Q 3278 1506 3087 986 
Q 2897 466 2520 194 
Q 2144 -78 1638 -78 
Q 1100 -78 759 220 
Q 419 519 350 1059 
z
M 2653 3081 
Q 2653 3566 2395 3850 
Q 2138 4134 1775 4134 
Q 1400 4134 1122 3828 
Q 844 3522 844 3034 
Q 844 2597 1108 2323 
Q 1372 2050 1759 2050 
Q 2150 2050 2401 2323 
Q 2653 2597 2653 3081 
z
" id="ArialMT-39" transform="scale(0.015625)"/>
       </defs>
       <use transform="translate(0 0.99375)" xlink:href="#ArialMT-31"/>
       <use transform="translate(55.615234 0.99375)" xlink:href="#ArialMT-30"/>
       <use transform="translate(112.972813 70.6875)scale(0.7)" xlink:href="#ArialMT-39"/>
      </g>
     </g>
    </g>
    <g id="ytick_4">
     <g id="line2d_25">
      <defs>
       <path d="M 0 0 
L -4 0 
" id="mee555e1622" style="stroke:#262626;"/>
      </defs>
      <g>
       <use style="fill:#262626;stroke:#262626;" x="49.23125" xlink:href="#mee555e1622" y="395.36895"/>
      </g>
     </g>
    </g>
    <g id="ytick_5">
     <g id="line2d_26">
      <g>
       <use style="fill:#262626;stroke:#262626;" x="49.23125" xlink:href="#mee555e1622" y="379.344895"/>
      </g>
     </g>
    </g>
    <g id="ytick_6">
     <g id="line2d_27">
      <g>
       <use style="fill:#262626;stroke:#262626;" x="49.23125" xlink:href="#mee555e1622" y="366.915673"/>
      </g>
     </g>
    </g>
    <g id="ytick_7">
     <g id="line2d_28">
      <g>
       <use style="fill:#262626;stroke:#262626;" x="49.23125" xlink:href="#mee555e1622" y="356.760259"/>
      </g>
     </g>
    </g>
    <g id="ytick_8">
     <g id="line2d_29">
      <g>
       <use style="fill:#262626;stroke:#262626;" x="49.23125" xlink:href="#mee555e1622" y="348.173978"/>
      </g>
     </g>
    </g>
    <g id="ytick_9">
     <g id="line2d_30">
      <g>
       <use style="fill:#262626;stroke:#262626;" x="49.23125" xlink:href="#mee555e1622" y="340.736204"/>
      </g>
     </g>
    </g>
    <g id="ytick_10">
     <g id="line2d_31">
      <g>
       <use style="fill:#262626;stroke:#262626;" x="49.23125" xlink:href="#mee555e1622" y="334.175622"/>
      </g>
     </g>
    </g>
    <g id="ytick_11">
     <g id="line2d_32">
      <g>
       <use style="fill:#262626;stroke:#262626;" x="49.23125" xlink:href="#mee555e1622" y="289.69829"/>
      </g>
     </g>
    </g>
    <g id="ytick_12">
     <g id="line2d_33">
      <g>
       <use style="fill:#262626;stroke:#262626;" x="49.23125" xlink:href="#mee555e1622" y="267.113654"/>
      </g>
     </g>
    </g>
    <g id="ytick_13">
     <g id="line2d_34">
      <g>
       <use style="fill:#262626;stroke:#262626;" x="49.23125" xlink:href="#mee555e1622" y="251.089599"/>
      </g>
     </g>
    </g>
    <g id="ytick_14">
     <g id="line2d_35">
      <g>
       <use style="fill:#262626;stroke:#262626;" x="49.23125" xlink:href="#mee555e1622" y="238.660377"/>
      </g>
     </g>
    </g>
    <g id="ytick_15">
     <g id="line2d_36">
      <g>
       <use style="fill:#262626;stroke:#262626;" x="49.23125" xlink:href="#mee555e1622" y="228.504963"/>
      </g>
     </g>
    </g>
    <g id="ytick_16">
     <g id="line2d_37">
      <g>
       <use style="fill:#262626;stroke:#262626;" x="49.23125" xlink:href="#mee555e1622" y="219.918682"/>
      </g>
     </g>
    </g>
    <g id="ytick_17">
     <g id="line2d_38">
      <g>
       <use style="fill:#262626;stroke:#262626;" x="49.23125" xlink:href="#mee555e1622" y="212.480908"/>
      </g>
     </g>
    </g>
    <g id="ytick_18">
     <g id="line2d_39">
      <g>
       <use style="fill:#262626;stroke:#262626;" x="49.23125" xlink:href="#mee555e1622" y="205.920326"/>
      </g>
     </g>
    </g>
    <g id="ytick_19">
     <g id="line2d_40">
      <g>
       <use style="fill:#262626;stroke:#262626;" x="49.23125" xlink:href="#mee555e1622" y="161.442994"/>
      </g>
     </g>
    </g>
    <g id="ytick_20">
     <g id="line2d_41">
      <g>
       <use style="fill:#262626;stroke:#262626;" x="49.23125" xlink:href="#mee555e1622" y="138.858358"/>
      </g>
     </g>
    </g>
    <g id="ytick_21">
     <g id="line2d_42">
      <g>
       <use style="fill:#262626;stroke:#262626;" x="49.23125" xlink:href="#mee555e1622" y="122.834303"/>
      </g>
     </g>
    </g>
    <g id="ytick_22">
     <g id="line2d_43">
      <g>
       <use style="fill:#262626;stroke:#262626;" x="49.23125" xlink:href="#mee555e1622" y="110.405081"/>
      </g>
     </g>
    </g>
    <g id="ytick_23">
     <g id="line2d_44">
      <g>
       <use style="fill:#262626;stroke:#262626;" x="49.23125" xlink:href="#mee555e1622" y="100.249666"/>
      </g>
     </g>
    </g>
    <g id="ytick_24">
     <g id="line2d_45">
      <g>
       <use style="fill:#262626;stroke:#262626;" x="49.23125" xlink:href="#mee555e1622" y="91.663386"/>
      </g>
     </g>
    </g>
    <g id="ytick_25">
     <g id="line2d_46">
      <g>
       <use style="fill:#262626;stroke:#262626;" x="49.23125" xlink:href="#mee555e1622" y="84.225612"/>
      </g>
     </g>
    </g>
    <g id="ytick_26">
     <g id="line2d_47">
      <g>
       <use style="fill:#262626;stroke:#262626;" x="49.23125" xlink:href="#mee555e1622" y="77.66503"/>
      </g>
     </g>
    </g>
    <g id="ytick_27">
     <g id="line2d_48">
      <g>
       <use style="fill:#262626;stroke:#262626;" x="49.23125" xlink:href="#mee555e1622" y="33.187698"/>
      </g>
     </g>
    </g>
    <g id="text_14">
     <!-- Modulus (Pa) -->
     <g style="fill:#262626;" transform="translate(15.935625 246.5975)rotate(-90)scale(0.12 -0.12)">
      <defs>
       <path d="M 475 0 
L 475 4581 
L 1388 4581 
L 2472 1338 
Q 2622 884 2691 659 
Q 2769 909 2934 1394 
L 4031 4581 
L 4847 4581 
L 4847 0 
L 4263 0 
L 4263 3834 
L 2931 0 
L 2384 0 
L 1059 3900 
L 1059 0 
L 475 0 
z
" id="ArialMT-4d" transform="scale(0.015625)"/>
       <path d="M 213 1659 
Q 213 2581 725 3025 
Q 1153 3394 1769 3394 
Q 2453 3394 2887 2945 
Q 3322 2497 3322 1706 
Q 3322 1066 3130 698 
Q 2938 331 2570 128 
Q 2203 -75 1769 -75 
Q 1072 -75 642 372 
Q 213 819 213 1659 
z
M 791 1659 
Q 791 1022 1069 705 
Q 1347 388 1769 388 
Q 2188 388 2466 706 
Q 2744 1025 2744 1678 
Q 2744 2294 2464 2611 
Q 2184 2928 1769 2928 
Q 1347 2928 1069 2612 
Q 791 2297 791 1659 
z
" id="ArialMT-6f" transform="scale(0.015625)"/>
       <path d="M 2575 0 
L 2575 419 
Q 2259 -75 1647 -75 
Q 1250 -75 917 144 
Q 584 363 401 755 
Q 219 1147 219 1656 
Q 219 2153 384 2558 
Q 550 2963 881 3178 
Q 1213 3394 1622 3394 
Q 1922 3394 2156 3267 
Q 2391 3141 2538 2938 
L 2538 4581 
L 3097 4581 
L 3097 0 
L 2575 0 
z
M 797 1656 
Q 797 1019 1065 703 
Q 1334 388 1700 388 
Q 2069 388 2326 689 
Q 2584 991 2584 1609 
Q 2584 2291 2321 2609 
Q 2059 2928 1675 2928 
Q 1300 2928 1048 2622 
Q 797 2316 797 1656 
z
" id="ArialMT-64" transform="scale(0.015625)"/>
       <path d="M 2597 0 
L 2597 488 
Q 2209 -75 1544 -75 
Q 1250 -75 995 37 
Q 741 150 617 320 
Q 494 491 444 738 
Q 409 903 409 1263 
L 409 3319 
L 972 3319 
L 972 1478 
Q 972 1038 1006 884 
Q 1059 663 1231 536 
Q 1403 409 1656 409 
Q 1909 409 2131 539 
Q 2353 669 2445 892 
Q 2538 1116 2538 1541 
L 2538 3319 
L 3100 3319 
L 3100 0 
L 2597 0 
z
" id="ArialMT-75" transform="scale(0.015625)"/>
       <path d="M 409 0 
L 409 4581 
L 972 4581 
L 972 0 
L 409 0 
z
" id="ArialMT-6c" transform="scale(0.015625)"/>
       <path d="M 197 991 
L 753 1078 
Q 800 744 1014 566 
Q 1228 388 1613 388 
Q 2000 388 2187 545 
Q 2375 703 2375 916 
Q 2375 1106 2209 1216 
Q 2094 1291 1634 1406 
Q 1016 1563 777 1677 
Q 538 1791 414 1992 
Q 291 2194 291 2438 
Q 291 2659 392 2848 
Q 494 3038 669 3163 
Q 800 3259 1026 3326 
Q 1253 3394 1513 3394 
Q 1903 3394 2198 3281 
Q 2494 3169 2634 2976 
Q 2775 2784 2828 2463 
L 2278 2388 
Q 2241 2644 2061 2787 
Q 1881 2931 1553 2931 
Q 1166 2931 1000 2803 
Q 834 2675 834 2503 
Q 834 2394 903 2306 
Q 972 2216 1119 2156 
Q 1203 2125 1616 2013 
Q 2213 1853 2448 1751 
Q 2684 1650 2818 1456 
Q 2953 1263 2953 975 
Q 2953 694 2789 445 
Q 2625 197 2315 61 
Q 2006 -75 1616 -75 
Q 969 -75 630 194 
Q 291 463 197 991 
z
" id="ArialMT-73" transform="scale(0.015625)"/>
       <path d="M 494 0 
L 494 4581 
L 2222 4581 
Q 2678 4581 2919 4538 
Q 3256 4481 3484 4323 
Q 3713 4166 3852 3881 
Q 3991 3597 3991 3256 
Q 3991 2672 3619 2267 
Q 3247 1863 2275 1863 
L 1100 1863 
L 1100 0 
L 494 0 
z
M 1100 2403 
L 2284 2403 
Q 2872 2403 3119 2622 
Q 3366 2841 3366 3238 
Q 3366 3525 3220 3729 
Q 3075 3934 2838 4000 
Q 2684 4041 2272 4041 
L 1100 4041 
L 1100 2403 
z
" id="ArialMT-50" transform="scale(0.015625)"/>
      </defs>
      <use xlink:href="#ArialMT-4d"/>
      <use x="83.300781" xlink:href="#ArialMT-6f"/>
      <use x="138.916016" xlink:href="#ArialMT-64"/>
      <use x="194.53125" xlink:href="#ArialMT-75"/>
      <use x="250.146484" xlink:href="#ArialMT-6c"/>
      <use x="272.363281" xlink:href="#ArialMT-75"/>
      <use x="327.978516" xlink:href="#ArialMT-73"/>
      <use x="377.978516" xlink:href="#ArialMT-20"/>
      <use x="405.761719" xlink:href="#ArialMT-28"/>
      <use x="439.0625" xlink:href="#ArialMT-50"/>
      <use x="505.761719" xlink:href="#ArialMT-61"/>
      <use x="561.376953" xlink:href="#ArialMT-29"/>
     </g>
    </g>
   </g>
   <g id="PathCollection_1">
    <path clip-path="url(#p1d8265db5e)" d="M 490.293498 149.6879 
C 492.168767 149.6879 493.967482 148.942848 495.293498 147.616832 
C 496.619513 146.290817 497.364566 144.492101 497.364566 142.616832 
C 497.364566 140.741563 496.619513 138.942848 495.293498 137.616832 
C 493.967482 136.290817 492.168767 135.545765 490.293498 135.545765 
C 488.418229 135.545765 486.619513 136.290817 485.293498 137.616832 
C 483.967482 138.942848 483.22243 140.741563 483.22243 142.616832 
C 483.22243 144.492101 483.967482 146.290817 485.293498 147.616832 
C 486.619513 148.942848 488.418229 149.6879 490.293498 149.6879 
z
" style="fill:#4c72b0;stroke:#ffffff;stroke-width:1.131371;"/>
    <path clip-path="url(#p1d8265db5e)" d="M 450.962774 199.767062 
C 452.838043 199.767062 454.636758 199.02201 455.962774 197.695995 
C 457.288789 196.369979 458.033842 194.571264 458.033842 192.695995 
C 458.033842 190.820725 457.288789 189.02201 455.962774 187.695995 
C 454.636758 186.369979 452.838043 185.624927 450.962774 185.624927 
C 449.087505 185.624927 447.288789 186.369979 445.962774 187.695995 
C 444.636758 189.02201 443.891706 190.820725 443.891706 192.695995 
C 443.891706 194.571264 444.636758 196.369979 445.962774 197.695995 
C 447.288789 199.02201 449.087505 199.767062 450.962774 199.767062 
z
" style="fill:#4c72b0;stroke:#ffffff;stroke-width:1.131371;"/>
    <path clip-path="url(#p1d8265db5e)" d="M 456.791564 158.224478 
C 458.666833 158.224478 460.465548 157.479426 461.791564 156.15341 
C 463.117579 154.827395 463.862632 153.028679 463.862632 151.15341 
C 463.862632 149.278141 463.117579 147.479426 461.791564 146.15341 
C 460.465548 144.827395 458.666833 144.082342 456.791564 144.082342 
C 454.916295 144.082342 453.117579 144.827395 451.791564 146.15341 
C 450.465548 147.479426 449.720496 149.278141 449.720496 151.15341 
C 449.720496 153.028679 450.465548 154.827395 451.791564 156.15341 
C 453.117579 157.479426 454.916295 158.224478 456.791564 158.224478 
z
" style="fill:#4c72b0;stroke:#ffffff;stroke-width:1.131371;"/>
    <path clip-path="url(#p1d8265db5e)" d="M 471.86076 239.250682 
C 473.736029 239.250682 475.534744 238.50563 476.86076 237.179614 
C 478.186775 235.853599 478.931827 234.054883 478.931827 232.179614 
C 478.931827 230.304345 478.186775 228.50563 476.86076 227.179614 
C 475.534744 225.853599 473.736029 225.108546 471.86076 225.108546 
C 469.98549 225.108546 468.186775 225.853599 466.86076 227.179614 
C 465.534744 228.50563 464.789692 230.304345 464.789692 232.179614 
C 464.789692 234.054883 465.534744 235.853599 466.86076 237.179614 
C 468.186775 238.50563 469.98549 239.250682 471.86076 239.250682 
z
" style="fill:#4c72b0;stroke:#ffffff;stroke-width:1.131371;"/>
    <path clip-path="url(#p1d8265db5e)" d="M 544.062713 264.840985 
C 545.937982 264.840985 547.736697 264.095932 549.062713 262.769917 
C 550.388728 261.443901 551.13378 259.645186 551.13378 257.769917 
C 551.13378 255.894648 550.388728 254.095932 549.062713 252.769917 
C 547.736697 251.443901 545.937982 250.698849 544.062713 250.698849 
C 542.187444 250.698849 540.388728 251.443901 539.062713 252.769917 
C 537.736697 254.095932 536.991645 255.894648 536.991645 257.769917 
C 536.991645 259.645186 537.736697 261.443901 539.062713 262.769917 
C 540.388728 264.095932 542.187444 264.840985 544.062713 264.840985 
z
" style="fill:#4c72b0;stroke:#ffffff;stroke-width:1.131371;"/>
    <path clip-path="url(#p1d8265db5e)" d="M 492.456255 163.513687 
C 494.331524 163.513687 496.13024 162.768635 497.456255 161.442619 
C 498.782271 160.116604 499.527323 158.317889 499.527323 156.442619 
C 499.527323 154.56735 498.782271 152.768635 497.456255 151.442619 
C 496.13024 150.116604 494.331524 149.371552 492.456255 149.371552 
C 490.580986 149.371552 488.782271 150.116604 487.456255 151.442619 
C 486.13024 152.768635 485.385188 154.56735 485.385188 156.442619 
C 485.385188 158.317889 486.13024 160.116604 487.456255 161.442619 
C 488.782271 162.768635 490.580986 163.513687 492.456255 163.513687 
z
" style="fill:#4c72b0;stroke:#ffffff;stroke-width:1.131371;"/>
    <path clip-path="url(#p1d8265db5e)" d="M 476.697888 171.589457 
C 478.573157 171.589457 480.371873 170.844405 481.697888 169.51839 
C 483.023904 168.192374 483.768956 166.393659 483.768956 164.51839 
C 483.768956 162.64312 483.023904 160.844405 481.697888 159.51839 
C 480.371873 158.192374 478.573157 157.447322 476.697888 157.447322 
C 474.822619 157.447322 473.023904 158.192374 471.697888 159.51839 
C 470.371873 160.844405 469.626821 162.64312 469.626821 164.51839 
C 469.626821 166.393659 470.371873 168.192374 471.697888 169.51839 
C 473.023904 170.844405 474.822619 171.589457 476.697888 171.589457 
z
" style="fill:#4c72b0;stroke:#ffffff;stroke-width:1.131371;"/>
    <path clip-path="url(#p1d8265db5e)" d="M 471.192444 168.769187 
C 473.067713 168.769187 474.866428 168.024135 476.192444 166.69812 
C 477.518459 165.372104 478.263512 163.573389 478.263512 161.69812 
C 478.263512 159.82285 477.518459 158.024135 476.192444 156.69812 
C 474.866428 155.372104 473.067713 154.627052 471.192444 154.627052 
C 469.317175 154.627052 467.518459 155.372104 466.192444 156.69812 
C 464.866428 158.024135 464.121376 159.82285 464.121376 161.69812 
C 464.121376 163.573389 464.866428 165.372104 466.192444 166.69812 
C 467.518459 168.024135 469.317175 168.769187 471.192444 168.769187 
z
" style="fill:#4c72b0;stroke:#ffffff;stroke-width:1.131371;"/>
    <path clip-path="url(#p1d8265db5e)" d="M 366.427681 54.418216 
L 369.963214 50.882682 
L 373.498748 54.418216 
L 377.034282 50.882682 
L 373.498748 47.347148 
L 377.034282 43.811614 
L 373.498748 40.27608 
L 369.963214 43.811614 
L 366.427681 40.27608 
L 362.892147 43.811614 
L 366.427681 47.347148 
L 362.892147 50.882682 
z
" style="fill:#4c72b0;stroke:#ffffff;stroke-width:1.131371;"/>
    <path clip-path="url(#p1d8265db5e)" d="M 483.611347 48.656892 
L 487.146881 45.121358 
L 490.682415 48.656892 
L 494.217949 45.121358 
L 490.682415 41.585824 
L 494.217949 38.05029 
L 490.682415 34.514756 
L 487.146881 38.05029 
L 483.611347 34.514756 
L 480.075813 38.05029 
L 483.611347 41.585824 
L 480.075813 45.121358 
z
" style="fill:#4c72b0;stroke:#ffffff;stroke-width:1.131371;"/>
    <path clip-path="url(#p1d8265db5e)" d="M 379.212798 51.899764 
L 382.748332 48.36423 
L 386.283866 51.899764 
L 389.8194 48.36423 
L 386.283866 44.828696 
L 389.8194 41.293162 
L 386.283866 37.757628 
L 382.748332 41.293162 
L 379.212798 37.757628 
L 375.677264 41.293162 
L 379.212798 44.828696 
L 375.677264 48.36423 
z
" style="fill:#4c72b0;stroke:#ffffff;stroke-width:1.131371;"/>
    <path clip-path="url(#p1d8265db5e)" d="M 386.070559 48.969395 
L 389.606093 45.433862 
L 393.141627 48.969395 
L 396.677161 45.433862 
L 393.141627 41.898328 
L 396.677161 38.362794 
L 393.141627 34.82726 
L 389.606093 38.362794 
L 386.070559 34.82726 
L 382.535025 38.362794 
L 386.070559 41.898328 
L 382.535025 45.433862 
z
" style="fill:#4c72b0;stroke:#ffffff;stroke-width:1.131371;"/>
    <path clip-path="url(#p1d8265db5e)" d="M 93.945797 350.571059 
L 93.945797 360.571059 
L 103.945797 360.571059 
L 103.945797 350.571059 
z
" style="fill:#dd8452;stroke:#ffffff;stroke-width:1.131371;"/>
    <path clip-path="url(#p1d8265db5e)" d="M 164.37076 375.252301 
L 164.37076 385.252301 
L 174.37076 385.252301 
L 174.37076 375.252301 
z
" style="fill:#dd8452;stroke:#ffffff;stroke-width:1.131371;"/>
    <path clip-path="url(#p1d8265db5e)" d="M 89.506931 354.024581 
L 89.506931 364.024581 
L 99.506931 364.024581 
L 99.506931 354.024581 
z
" style="fill:#dd8452;stroke:#ffffff;stroke-width:1.131371;"/>
    <path clip-path="url(#p1d8265db5e)" d="M 142.968283 352.470965 
L 142.968283 362.470965 
L 152.968283 362.470965 
L 152.968283 352.470965 
z
" style="fill:#dd8452;stroke:#ffffff;stroke-width:1.131371;"/>
    <path clip-path="url(#p1d8265db5e)" d="M 111.478501 353.557247 
L 111.478501 363.557247 
L 121.478501 363.557247 
L 121.478501 353.557247 
z
" style="fill:#dd8452;stroke:#ffffff;stroke-width:1.131371;"/>
    <path clip-path="url(#p1d8265db5e)" d="M 85.314263 347.638233 
L 85.314263 357.638233 
L 95.314263 357.638233 
L 95.314263 347.638233 
z
" style="fill:#dd8452;stroke:#ffffff;stroke-width:1.131371;"/>
    <path clip-path="url(#p1d8265db5e)" d="M 448.990281 192.124947 
L 453.704326 192.124947 
L 453.704326 187.410902 
L 458.418371 187.410902 
L 458.418371 182.696856 
L 453.704326 182.696856 
L 453.704326 177.982811 
L 448.990281 177.982811 
L 448.990281 182.696856 
L 444.276236 182.696856 
L 444.276236 187.410902 
L 448.990281 187.410902 
z
" style="fill:#4c72b0;stroke:#ffffff;stroke-width:1.131371;"/>
    <path clip-path="url(#p1d8265db5e)" d="M 528.370502 190.742751 
L 533.084547 190.742751 
L 533.084547 186.028706 
L 537.798592 186.028706 
L 537.798592 181.31466 
L 533.084547 181.31466 
L 533.084547 176.600615 
L 528.370502 176.600615 
L 528.370502 181.31466 
L 523.656457 181.31466 
L 523.656457 186.028706 
L 528.370502 186.028706 
z
" style="fill:#4c72b0;stroke:#ffffff;stroke-width:1.131371;"/>
    <path clip-path="url(#p1d8265db5e)" d="M 518.676818 193.172801 
L 523.390863 193.172801 
L 523.390863 188.458756 
L 528.104908 188.458756 
L 528.104908 183.744711 
L 523.390863 183.744711 
L 523.390863 179.030666 
L 518.676818 179.030666 
L 518.676818 183.744711 
L 513.962773 183.744711 
L 513.962773 188.458756 
L 518.676818 188.458756 
z
" style="fill:#4c72b0;stroke:#ffffff;stroke-width:1.131371;"/>
    <path clip-path="url(#p1d8265db5e)" d="M 537.773801 199.325241 
L 542.487846 199.325241 
L 542.487846 194.611196 
L 547.201891 194.611196 
L 547.201891 189.897151 
L 542.487846 189.897151 
L 542.487846 185.183105 
L 537.773801 185.183105 
L 537.773801 189.897151 
L 533.059756 189.897151 
L 533.059756 194.611196 
L 537.773801 194.611196 
z
" style="fill:#4c72b0;stroke:#ffffff;stroke-width:1.131371;"/>
    <path clip-path="url(#p1d8265db5e)" d="M 525.43366 191.394352 
L 530.147705 191.394352 
L 530.147705 186.680307 
L 534.86175 186.680307 
L 534.86175 181.966262 
L 530.147705 181.966262 
L 530.147705 177.252217 
L 525.43366 177.252217 
L 525.43366 181.966262 
L 520.719614 181.966262 
L 520.719614 186.680307 
L 525.43366 186.680307 
z
" style="fill:#4c72b0;stroke:#ffffff;stroke-width:1.131371;"/>
    <path clip-path="url(#p1d8265db5e)" d="M 154.516877 302.715454 
L 147.445809 309.786522 
L 154.516877 316.85759 
L 161.587944 309.786522 
z
" style="fill:#dd8452;stroke:#ffffff;stroke-width:1.131371;"/>
    <path clip-path="url(#p1d8265db5e)" d="M 161.257495 283.716391 
L 154.186427 290.787459 
L 161.257495 297.858527 
L 168.328563 290.787459 
z
" style="fill:#dd8452;stroke:#ffffff;stroke-width:1.131371;"/>
    <path clip-path="url(#p1d8265db5e)" d="M 145.096363 287.708732 
L 138.025295 294.7798 
L 145.096363 301.850868 
L 152.167431 294.7798 
z
" style="fill:#dd8452;stroke:#ffffff;stroke-width:1.131371;"/>
    <path clip-path="url(#p1d8265db5e)" d="M 153.560203 299.500412 
L 146.489135 306.57148 
L 153.560203 313.642548 
L 160.63127 306.57148 
z
" style="fill:#dd8452;stroke:#ffffff;stroke-width:1.131371;"/>
    <path clip-path="url(#p1d8265db5e)" d="M 279.90346 187.509187 
L 277.40346 192.080255 
L 272.832392 194.580255 
L 277.40346 197.080255 
L 279.90346 201.651323 
L 282.40346 197.080255 
L 286.974528 194.580255 
L 282.40346 192.080255 
z
" style="fill:#4c72b0;stroke:#ffffff;stroke-width:1.131371;"/>
    <path clip-path="url(#p1d8265db5e)" d="M 346.788699 161.902886 
L 344.288699 166.473954 
L 339.717631 168.973954 
L 344.288699 171.473954 
L 346.788699 176.045022 
L 349.288699 171.473954 
L 353.859767 168.973954 
L 349.288699 166.473954 
z
" style="fill:#4c72b0;stroke:#ffffff;stroke-width:1.131371;"/>
    <path clip-path="url(#p1d8265db5e)" d="M 326.653997 182.278278 
L 324.153997 186.849346 
L 319.582929 189.349346 
L 324.153997 191.849346 
L 326.653997 196.420414 
L 329.153997 191.849346 
L 333.725065 189.349346 
L 329.153997 186.849346 
z
" style="fill:#4c72b0;stroke:#ffffff;stroke-width:1.131371;"/>
    <path clip-path="url(#p1d8265db5e)" d="M 391.487471 144.528395 
L 388.987471 149.099463 
L 384.416403 151.599463 
L 388.987471 154.099463 
L 391.487471 158.670531 
L 393.987471 154.099463 
L 398.558538 151.599463 
L 393.987471 149.099463 
z
" style="fill:#4c72b0;stroke:#ffffff;stroke-width:1.131371;"/>
    <path clip-path="url(#p1d8265db5e)" d="M 289.362942 187.986529 
L 286.862942 192.557596 
L 282.291874 195.057596 
L 286.862942 197.557596 
L 289.362942 202.128664 
L 291.862942 197.557596 
L 296.434009 195.057596 
L 291.862942 192.557596 
z
" style="fill:#4c72b0;stroke:#ffffff;stroke-width:1.131371;"/>
    <path clip-path="url(#p1d8265db5e)" d="M 116.074657 255.757495 
L 109.003589 269.899631 
L 123.145725 269.899631 
z
" style="fill:#dd8452;stroke:#ffffff;stroke-width:1.131371;"/>
    <path clip-path="url(#p1d8265db5e)" d="M 78.172291 243.510765 
L 71.101223 257.652901 
L 85.243358 257.652901 
z
" style="fill:#dd8452;stroke:#ffffff;stroke-width:1.131371;"/>
    <path clip-path="url(#p1d8265db5e)" d="M 102.342563 246.602646 
L 95.271495 260.744782 
L 109.413631 260.744782 
z
" style="fill:#dd8452;stroke:#ffffff;stroke-width:1.131371;"/>
    <path clip-path="url(#p1d8265db5e)" d="M 72.794653 246.617455 
L 65.723585 260.759591 
L 79.865721 260.759591 
z
" style="fill:#dd8452;stroke:#ffffff;stroke-width:1.131371;"/>
    <path clip-path="url(#p1d8265db5e)" d="M 103.515169 246.848542 
L 96.444101 260.990678 
L 110.586236 260.990678 
z
" style="fill:#dd8452;stroke:#ffffff;stroke-width:1.131371;"/>
    <path clip-path="url(#p1d8265db5e)" d="M 140.261143 263.977209 
L 133.190075 278.119345 
L 147.332211 278.119345 
z
" style="fill:#dd8452;stroke:#ffffff;stroke-width:1.131371;"/>
    <path clip-path="url(#p1d8265db5e)" d="M 184.783643 261.495048 
L 186.248109 266.495048 
L 184.783643 271.495048 
L 189.783643 270.030581 
L 194.783643 271.495048 
L 193.319177 266.495048 
L 194.783643 261.495048 
L 189.783643 262.959514 
z
" style="fill:#55a868;stroke:#ffffff;stroke-width:1.131371;"/>
    <path clip-path="url(#p1d8265db5e)" d="M 191.985759 262.475632 
L 193.450225 267.475632 
L 191.985759 272.475632 
L 196.985759 271.011166 
L 201.985759 272.475632 
L 200.521293 267.475632 
L 201.985759 262.475632 
L 196.985759 263.940098 
z
" style="fill:#55a868;stroke:#ffffff;stroke-width:1.131371;"/>
    <path clip-path="url(#p1d8265db5e)" d="M 235.424366 210.41432 
L 236.888832 215.41432 
L 235.424366 220.41432 
L 240.424366 218.949854 
L 245.424366 220.41432 
L 243.9599 215.41432 
L 245.424366 210.41432 
L 240.424366 211.878786 
z
" style="fill:#55a868;stroke:#ffffff;stroke-width:1.131371;"/>
    <path clip-path="url(#p1d8265db5e)" d="M 206.744749 211.337532 
L 208.209215 216.337532 
L 206.744749 221.337532 
L 211.744749 219.873066 
L 216.744749 221.337532 
L 215.280283 216.337532 
L 216.744749 211.337532 
L 211.744749 212.801998 
z
" style="fill:#55a868;stroke:#ffffff;stroke-width:1.131371;"/>
    <path clip-path="url(#p1d8265db5e)" d="M 223.601566 266.478098 
L 225.066032 271.478098 
L 223.601566 276.478098 
L 228.601566 275.013631 
L 233.601566 276.478098 
L 232.1371 271.478098 
L 233.601566 266.478098 
L 228.601566 267.942564 
z
" style="fill:#55a868;stroke:#ffffff;stroke-width:1.131371;"/>
    <path clip-path="url(#p1d8265db5e)" d="M 208.273427 229.236799 
L 209.737893 234.236799 
L 208.273427 239.236799 
L 213.273427 237.772333 
L 218.273427 239.236799 
L 216.808961 234.236799 
L 218.273427 229.236799 
L 213.273427 230.701265 
z
" style="fill:#55a868;stroke:#ffffff;stroke-width:1.131371;"/>
    <path clip-path="url(#p1d8265db5e)" d="M 189.006148 206.0698 
L 190.470614 211.0698 
L 189.006148 216.0698 
L 194.006148 214.605334 
L 199.006148 216.0698 
L 197.541682 211.0698 
L 199.006148 206.0698 
L 194.006148 207.534266 
z
" style="fill:#55a868;stroke:#ffffff;stroke-width:1.131371;"/>
    <path clip-path="url(#p1d8265db5e)" d="M 171.741364 207.77383 
L 173.20583 212.77383 
L 171.741364 217.77383 
L 176.741364 216.309364 
L 181.741364 217.77383 
L 180.276898 212.77383 
L 181.741364 207.77383 
L 176.741364 209.238296 
z
" style="fill:#55a868;stroke:#ffffff;stroke-width:1.131371;"/>
    <path clip-path="url(#p1d8265db5e)" d="M 197.45255 205.757802 
L 198.917016 210.757802 
L 197.45255 215.757802 
L 202.45255 214.293336 
L 207.45255 215.757802 
L 205.988084 210.757802 
L 207.45255 205.757802 
L 202.45255 207.222268 
z
" style="fill:#55a868;stroke:#ffffff;stroke-width:1.131371;"/>
    <path clip-path="url(#p1d8265db5e)" d="M 225.103423 208.107014 
L 226.567889 213.107014 
L 225.103423 218.107014 
L 230.103423 216.642548 
L 235.103423 218.107014 
L 233.638957 213.107014 
L 235.103423 208.107014 
L 230.103423 209.57148 
z
" style="fill:#55a868;stroke:#ffffff;stroke-width:1.131371;"/>
    <path clip-path="url(#p1d8265db5e)" d="M 163.969676 227.367534 
L 171.040744 213.225398 
L 156.898608 213.225398 
z
" style="fill:#55a868;stroke:#ffffff;stroke-width:1.131371;"/>
    <path clip-path="url(#p1d8265db5e)" d="M 150.313341 230.720521 
L 157.384409 216.578385 
L 143.242273 216.578385 
z
" style="fill:#55a868;stroke:#ffffff;stroke-width:1.131371;"/>
    <path clip-path="url(#p1d8265db5e)" d="M 180.39661 227.822737 
L 187.467677 213.680601 
L 173.325542 213.680601 
z
" style="fill:#55a868;stroke:#ffffff;stroke-width:1.131371;"/>
    <path clip-path="url(#p1d8265db5e)" d="M 193.076326 225.911053 
L 200.147394 211.768917 
L 186.005258 211.768917 
z
" style="fill:#55a868;stroke:#ffffff;stroke-width:1.131371;"/>
    <path clip-path="url(#p1d8265db5e)" d="M 182.529936 227.863845 
L 189.601004 213.72171 
L 175.458868 213.72171 
z
" style="fill:#55a868;stroke:#ffffff;stroke-width:1.131371;"/>
    <path clip-path="url(#p1d8265db5e)" d="M 181.210943 220.796633 
L 188.282011 206.654498 
L 174.139875 206.654498 
z
" style="fill:#55a868;stroke:#ffffff;stroke-width:1.131371;"/>
    <path clip-path="url(#p1d8265db5e)" d="M 186.113312 228.526296 
L 193.18438 214.38416 
L 179.042244 214.38416 
z
" style="fill:#55a868;stroke:#ffffff;stroke-width:1.131371;"/>
    <path clip-path="url(#p1d8265db5e)" d="M 243.729308 224.834706 
L 250.800375 210.69257 
L 236.65824 210.69257 
z
" style="fill:#55a868;stroke:#ffffff;stroke-width:1.131371;"/>
    <path clip-path="url(#p1d8265db5e)" d="M 144.476884 209.855451 
L 144.950555 214.211408 
L 140.94135 215.979175 
L 144.950555 217.746942 
L 144.476884 222.1029 
L 148.012417 219.514709 
L 151.547951 222.1029 
L 151.07428 217.746942 
L 155.083485 215.979175 
L 151.07428 214.211408 
L 151.547951 209.855451 
L 148.012417 212.443641 
z
" style="fill:#55a868;stroke:#ffffff;stroke-width:1.131371;"/>
    <path clip-path="url(#p1d8265db5e)" d="M 138.142018 188.545757 
L 138.61569 192.901714 
L 134.606485 194.669481 
L 138.61569 196.437248 
L 138.142018 200.793205 
L 141.677552 198.205015 
L 145.213086 200.793205 
L 144.739415 196.437248 
L 148.74862 194.669481 
L 144.739415 192.901714 
L 145.213086 188.545757 
L 141.677552 191.133947 
z
" style="fill:#55a868;stroke:#ffffff;stroke-width:1.131371;"/>
    <path clip-path="url(#p1d8265db5e)" d="M 148.768686 189.184486 
L 149.242358 193.540443 
L 145.233152 195.30821 
L 149.242358 197.075977 
L 148.768686 201.431935 
L 152.30422 198.843744 
L 155.839754 201.431935 
L 155.366082 197.075977 
L 159.375288 195.30821 
L 155.366082 193.540443 
L 155.839754 189.184486 
L 152.30422 191.772676 
z
" style="fill:#55a868;stroke:#ffffff;stroke-width:1.131371;"/>
    <path clip-path="url(#p1d8265db5e)" d="M 158.778779 219.243422 
L 159.252451 223.599379 
L 155.243245 225.367146 
L 159.252451 227.134913 
L 158.778779 231.49087 
L 162.314313 228.90268 
L 165.849847 231.49087 
L 165.376175 227.134913 
L 169.385381 225.367146 
L 165.376175 223.599379 
L 165.849847 219.243422 
L 162.314313 221.831612 
z
" style="fill:#55a868;stroke:#ffffff;stroke-width:1.131371;"/>
    <path clip-path="url(#p1d8265db5e)" d="M 143.32822 285.579724 
L 143.801891 289.935682 
L 139.792686 291.703449 
L 143.801891 293.471216 
L 143.32822 297.827173 
L 146.863753 295.238982 
L 150.399287 297.827173 
L 149.925616 293.471216 
L 153.934821 291.703449 
L 149.925616 289.935682 
L 150.399287 285.579724 
L 146.863753 288.167915 
z
" style="fill:#55a868;stroke:#ffffff;stroke-width:1.131371;"/>
    <path clip-path="url(#p1d8265db5e)" d="M 179.35355 256.473533 
L 179.827221 260.829491 
L 175.818016 262.597257 
L 179.827221 264.365024 
L 179.35355 268.720982 
L 182.889084 266.132791 
L 186.424617 268.720982 
L 185.950946 264.365024 
L 189.960151 262.597257 
L 185.950946 260.829491 
L 186.424617 256.473533 
L 182.889084 259.061724 
z
" style="fill:#55a868;stroke:#ffffff;stroke-width:1.131371;"/>
    <path clip-path="url(#p1d8265db5e)" d="M 145.66291 203.612761 
L 146.136581 207.968719 
L 142.127376 209.736486 
L 146.136581 211.504253 
L 145.66291 215.86021 
L 149.198443 213.27202 
L 152.733977 215.86021 
L 152.260306 211.504253 
L 156.269511 209.736486 
L 152.260306 207.968719 
L 152.733977 203.612761 
L 149.198443 206.200952 
z
" style="fill:#55a868;stroke:#ffffff;stroke-width:1.131371;"/>
    <path clip-path="url(#p1d8265db5e)" d="M 160.551234 265.897256 
L 161.024906 270.253214 
L 157.015701 272.020981 
L 161.024906 273.788747 
L 160.551234 278.144705 
L 164.086768 275.556514 
L 167.622302 278.144705 
L 167.14863 273.788747 
L 171.157836 272.020981 
L 167.14863 270.253214 
L 167.622302 265.897256 
L 164.086768 268.485447 
z
" style="fill:#55a868;stroke:#ffffff;stroke-width:1.131371;"/>
   </g>
   <g id="PathCollection_2"/>
   <g id="PathCollection_3"/>
   <g id="PathCollection_4"/>
   <g id="PathCollection_5"/>
   <g id="PathCollection_6"/>
   <g id="PathCollection_7"/>
   <g id="PathCollection_8"/>
   <g id="PathCollection_9"/>
   <g id="PathCollection_10"/>
   <g id="PathCollection_11"/>
   <g id="PathCollection_12"/>
   <g id="PathCollection_13"/>
   <g id="PathCollection_14"/>
   <g id="patch_3">
    <path d="M 49.23125 397.185625 
L 49.23125 24.6525 
" style="fill:none;stroke:#ffffff;stroke-linecap:square;stroke-linejoin:miter;stroke-width:1.25;"/>
   </g>
   <g id="patch_4">
    <path d="M 567.626116 397.185625 
L 567.626116 24.6525 
" style="fill:none;stroke:#ffffff;stroke-linecap:square;stroke-linejoin:miter;stroke-width:1.25;"/>
   </g>
   <g id="patch_5">
    <path d="M 49.23125 397.185625 
L 567.626116 397.185625 
" style="fill:none;stroke:#ffffff;stroke-linecap:square;stroke-linejoin:miter;stroke-width:1.25;"/>
   </g>
   <g id="patch_6">
    <path d="M 49.23125 24.6525 
L 567.626116 24.6525 
" style="fill:none;stroke:#ffffff;stroke-linecap:square;stroke-linejoin:miter;stroke-width:1.25;"/>
   </g>
   <g id="text_15">
    <!-- Modulus vs CNT Diameter -->
    <g style="fill:#262626;" transform="translate(214.772433 18.6525)scale(0.16 -0.16)">
     <defs>
      <path d="M 1344 0 
L 81 3319 
L 675 3319 
L 1388 1331 
Q 1503 1009 1600 663 
Q 1675 925 1809 1294 
L 2547 3319 
L 3125 3319 
L 1869 0 
L 1344 0 
z
" id="ArialMT-76" transform="scale(0.015625)"/>
     </defs>
     <use xlink:href="#ArialMT-4d"/>
     <use x="83.300781" xlink:href="#ArialMT-6f"/>
     <use x="138.916016" xlink:href="#ArialMT-64"/>
     <use x="194.53125" xlink:href="#ArialMT-75"/>
     <use x="250.146484" xlink:href="#ArialMT-6c"/>
     <use x="272.363281" xlink:href="#ArialMT-75"/>
     <use x="327.978516" xlink:href="#ArialMT-73"/>
     <use x="377.978516" xlink:href="#ArialMT-20"/>
     <use x="405.761719" xlink:href="#ArialMT-76"/>
     <use x="455.761719" xlink:href="#ArialMT-73"/>
     <use x="505.761719" xlink:href="#ArialMT-20"/>
     <use x="533.544922" xlink:href="#ArialMT-43"/>
     <use x="605.761719" xlink:href="#ArialMT-4e"/>
     <use x="677.978516" xlink:href="#ArialMT-54"/>
     <use x="737.3125" xlink:href="#ArialMT-20"/>
     <use x="765.095703" xlink:href="#ArialMT-44"/>
     <use x="837.3125" xlink:href="#ArialMT-69"/>
     <use x="859.529297" xlink:href="#ArialMT-61"/>
     <use x="915.144531" xlink:href="#ArialMT-6d"/>
     <use x="998.445312" xlink:href="#ArialMT-65"/>
     <use x="1054.060547" xlink:href="#ArialMT-74"/>
     <use x="1081.84375" xlink:href="#ArialMT-65"/>
     <use x="1137.458984" xlink:href="#ArialMT-72"/>
    </g>
   </g>
   <g id="legend_1">
    <g id="patch_7">
     <path d="M 575.010064 261.886406 
L 698.253033 261.886406 
Q 700.453033 261.886406 700.453033 259.686406 
L 700.453033 26.8525 
Q 700.453033 24.6525 698.253033 24.6525 
L 575.010064 24.6525 
Q 572.810064 24.6525 572.810064 26.8525 
L 572.810064 259.686406 
Q 572.810064 261.886406 575.010064 261.886406 
z
" style="fill:#eaeaf2;opacity:0.8;stroke:#cccccc;stroke-linejoin:miter;"/>
    </g>
    <g id="text_16">
     <!-- Infiltration_Recipe -->
     <g style="fill:#262626;" transform="translate(608.010064 37.060156)scale(0.11 -0.11)">
      <defs>
       <path d="M 597 0 
L 597 4581 
L 1203 4581 
L 1203 0 
L 597 0 
z
" id="ArialMT-49" transform="scale(0.015625)"/>
       <path d="M 556 0 
L 556 2881 
L 59 2881 
L 59 3319 
L 556 3319 
L 556 3672 
Q 556 4006 616 4169 
Q 697 4388 901 4523 
Q 1106 4659 1475 4659 
Q 1713 4659 2000 4603 
L 1916 4113 
Q 1741 4144 1584 4144 
Q 1328 4144 1222 4034 
Q 1116 3925 1116 3625 
L 1116 3319 
L 1763 3319 
L 1763 2881 
L 1116 2881 
L 1116 0 
L 556 0 
z
" id="ArialMT-66" transform="scale(0.015625)"/>
       <path d="M -97 -1272 
L -97 -866 
L 3631 -866 
L 3631 -1272 
L -97 -1272 
z
" id="ArialMT-5f" transform="scale(0.015625)"/>
       <path d="M 503 0 
L 503 4581 
L 2534 4581 
Q 3147 4581 3465 4457 
Q 3784 4334 3975 4021 
Q 4166 3709 4166 3331 
Q 4166 2844 3850 2509 
Q 3534 2175 2875 2084 
Q 3116 1969 3241 1856 
Q 3506 1613 3744 1247 
L 4541 0 
L 3778 0 
L 3172 953 
Q 2906 1366 2734 1584 
Q 2563 1803 2427 1890 
Q 2291 1978 2150 2013 
Q 2047 2034 1813 2034 
L 1109 2034 
L 1109 0 
L 503 0 
z
M 1109 2559 
L 2413 2559 
Q 2828 2559 3062 2645 
Q 3297 2731 3419 2920 
Q 3541 3109 3541 3331 
Q 3541 3656 3305 3865 
Q 3069 4075 2559 4075 
L 1109 4075 
L 1109 2559 
z
" id="ArialMT-52" transform="scale(0.015625)"/>
       <path d="M 2588 1216 
L 3141 1144 
Q 3050 572 2676 248 
Q 2303 -75 1759 -75 
Q 1078 -75 664 370 
Q 250 816 250 1647 
Q 250 2184 428 2587 
Q 606 2991 970 3192 
Q 1334 3394 1763 3394 
Q 2303 3394 2647 3120 
Q 2991 2847 3088 2344 
L 2541 2259 
Q 2463 2594 2264 2762 
Q 2066 2931 1784 2931 
Q 1359 2931 1093 2626 
Q 828 2322 828 1663 
Q 828 994 1084 691 
Q 1341 388 1753 388 
Q 2084 388 2306 591 
Q 2528 794 2588 1216 
z
" id="ArialMT-63" transform="scale(0.015625)"/>
       <path d="M 422 -1272 
L 422 3319 
L 934 3319 
L 934 2888 
Q 1116 3141 1344 3267 
Q 1572 3394 1897 3394 
Q 2322 3394 2647 3175 
Q 2972 2956 3137 2557 
Q 3303 2159 3303 1684 
Q 3303 1175 3120 767 
Q 2938 359 2589 142 
Q 2241 -75 1856 -75 
Q 1575 -75 1351 44 
Q 1128 163 984 344 
L 984 -1272 
L 422 -1272 
z
M 931 1641 
Q 931 1000 1190 694 
Q 1450 388 1819 388 
Q 2194 388 2461 705 
Q 2728 1022 2728 1688 
Q 2728 2322 2467 2637 
Q 2206 2953 1844 2953 
Q 1484 2953 1207 2617 
Q 931 2281 931 1641 
z
" id="ArialMT-70" transform="scale(0.015625)"/>
      </defs>
      <use xlink:href="#ArialMT-49"/>
      <use x="27.783203" xlink:href="#ArialMT-6e"/>
      <use x="83.398438" xlink:href="#ArialMT-66"/>
      <use x="111.181641" xlink:href="#ArialMT-69"/>
      <use x="133.398438" xlink:href="#ArialMT-6c"/>
      <use x="155.615234" xlink:href="#ArialMT-74"/>
      <use x="183.398438" xlink:href="#ArialMT-72"/>
      <use x="216.699219" xlink:href="#ArialMT-61"/>
      <use x="272.314453" xlink:href="#ArialMT-74"/>
      <use x="300.097656" xlink:href="#ArialMT-69"/>
      <use x="322.314453" xlink:href="#ArialMT-6f"/>
      <use x="377.929688" xlink:href="#ArialMT-6e"/>
      <use x="433.544922" xlink:href="#ArialMT-5f"/>
      <use x="489.160156" xlink:href="#ArialMT-52"/>
      <use x="561.376953" xlink:href="#ArialMT-65"/>
      <use x="616.992188" xlink:href="#ArialMT-63"/>
      <use x="666.992188" xlink:href="#ArialMT-69"/>
      <use x="689.208984" xlink:href="#ArialMT-70"/>
      <use x="744.824219" xlink:href="#ArialMT-65"/>
     </g>
    </g>
    <g id="PathCollection_15">
     <defs>
      <path d="M 0 3 
C 0.795609 3 1.55874 2.683901 2.12132 2.12132 
C 2.683901 1.55874 3 0.795609 3 0 
C 3 -0.795609 2.683901 -1.55874 2.12132 -2.12132 
C 1.55874 -2.683901 0.795609 -3 0 -3 
C -0.795609 -3 -1.55874 -2.683901 -2.12132 -2.12132 
C -2.683901 -1.55874 -3 -0.795609 -3 0 
C -3 0.795609 -2.683901 1.55874 -2.12132 2.12132 
C -1.55874 2.683901 -0.795609 3 0 3 
z
" id="m1a364c0364" style="stroke:#4c72b0;"/>
     </defs>
     <g>
      <use style="fill:#4c72b0;stroke:#4c72b0;" x="588.210064" xlink:href="#m1a364c0364" y="49.866562"/>
     </g>
    </g>
    <g id="text_17">
     <!-- carbon_30s900C -->
     <g style="fill:#262626;" transform="translate(608.010064 52.754062)scale(0.11 -0.11)">
      <defs>
       <path d="M 941 0 
L 419 0 
L 419 4581 
L 981 4581 
L 981 2947 
Q 1338 3394 1891 3394 
Q 2197 3394 2470 3270 
Q 2744 3147 2920 2923 
Q 3097 2700 3197 2384 
Q 3297 2069 3297 1709 
Q 3297 856 2875 390 
Q 2453 -75 1863 -75 
Q 1275 -75 941 416 
L 941 0 
z
M 934 1684 
Q 934 1088 1097 822 
Q 1363 388 1816 388 
Q 2184 388 2453 708 
Q 2722 1028 2722 1663 
Q 2722 2313 2464 2622 
Q 2206 2931 1841 2931 
Q 1472 2931 1203 2611 
Q 934 2291 934 1684 
z
" id="ArialMT-62" transform="scale(0.015625)"/>
       <path d="M 269 1209 
L 831 1284 
Q 928 806 1161 595 
Q 1394 384 1728 384 
Q 2125 384 2398 659 
Q 2672 934 2672 1341 
Q 2672 1728 2419 1979 
Q 2166 2231 1775 2231 
Q 1616 2231 1378 2169 
L 1441 2663 
Q 1497 2656 1531 2656 
Q 1891 2656 2178 2843 
Q 2466 3031 2466 3422 
Q 2466 3731 2256 3934 
Q 2047 4138 1716 4138 
Q 1388 4138 1169 3931 
Q 950 3725 888 3313 
L 325 3413 
Q 428 3978 793 4289 
Q 1159 4600 1703 4600 
Q 2078 4600 2393 4439 
Q 2709 4278 2876 4000 
Q 3044 3722 3044 3409 
Q 3044 3113 2884 2869 
Q 2725 2625 2413 2481 
Q 2819 2388 3044 2092 
Q 3269 1797 3269 1353 
Q 3269 753 2831 336 
Q 2394 -81 1725 -81 
Q 1122 -81 723 278 
Q 325 638 269 1209 
z
" id="ArialMT-33" transform="scale(0.015625)"/>
      </defs>
      <use xlink:href="#ArialMT-63"/>
      <use x="50" xlink:href="#ArialMT-61"/>
      <use x="105.615234" xlink:href="#ArialMT-72"/>
      <use x="138.916016" xlink:href="#ArialMT-62"/>
      <use x="194.53125" xlink:href="#ArialMT-6f"/>
      <use x="250.146484" xlink:href="#ArialMT-6e"/>
      <use x="305.761719" xlink:href="#ArialMT-5f"/>
      <use x="361.376953" xlink:href="#ArialMT-33"/>
      <use x="416.992188" xlink:href="#ArialMT-30"/>
      <use x="472.607422" xlink:href="#ArialMT-73"/>
      <use x="522.607422" xlink:href="#ArialMT-39"/>
      <use x="578.222656" xlink:href="#ArialMT-30"/>
      <use x="633.837891" xlink:href="#ArialMT-30"/>
      <use x="689.453125" xlink:href="#ArialMT-43"/>
     </g>
    </g>
    <g id="PathCollection_16">
     <defs>
      <path d="M 0 3 
C 0.795609 3 1.55874 2.683901 2.12132 2.12132 
C 2.683901 1.55874 3 0.795609 3 0 
C 3 -0.795609 2.683901 -1.55874 2.12132 -2.12132 
C 1.55874 -2.683901 0.795609 -3 0 -3 
C -0.795609 -3 -1.55874 -2.683901 -2.12132 -2.12132 
C -2.683901 -1.55874 -3 -0.795609 -3 0 
C -3 0.795609 -2.683901 1.55874 -2.12132 2.12132 
C -1.55874 2.683901 -0.795609 3 0 3 
z
" id="mad64624f05" style="stroke:#dd8452;"/>
     </defs>
     <g>
      <use style="fill:#dd8452;stroke:#dd8452;" x="588.210064" xlink:href="#mad64624f05" y="65.426406"/>
     </g>
    </g>
    <g id="text_18">
     <!-- - -->
     <g style="fill:#262626;" transform="translate(608.010064 68.313906)scale(0.11 -0.11)">
      <defs>
       <path d="M 203 1375 
L 203 1941 
L 1931 1941 
L 1931 1375 
L 203 1375 
z
" id="ArialMT-2d" transform="scale(0.015625)"/>
      </defs>
      <use xlink:href="#ArialMT-2d"/>
     </g>
    </g>
    <g id="PathCollection_17">
     <defs>
      <path d="M 0 3 
C 0.795609 3 1.55874 2.683901 2.12132 2.12132 
C 2.683901 1.55874 3 0.795609 3 0 
C 3 -0.795609 2.683901 -1.55874 2.12132 -2.12132 
C 1.55874 -2.683901 0.795609 -3 0 -3 
C -0.795609 -3 -1.55874 -2.683901 -2.12132 -2.12132 
C -2.683901 -1.55874 -3 -0.795609 -3 0 
C -3 0.795609 -2.683901 1.55874 -2.12132 2.12132 
C -1.55874 2.683901 -0.795609 3 0 3 
z
" id="m5516add5d0" style="stroke:#55a868;"/>
     </defs>
     <g>
      <use style="fill:#55a868;stroke:#55a868;" x="588.210064" xlink:href="#m5516add5d0" y="81.120312"/>
     </g>
    </g>
    <g id="text_19">
     <!-- carbon_15s900C -->
     <g style="fill:#262626;" transform="translate(608.010064 84.007812)scale(0.11 -0.11)">
      <use xlink:href="#ArialMT-63"/>
      <use x="50" xlink:href="#ArialMT-61"/>
      <use x="105.615234" xlink:href="#ArialMT-72"/>
      <use x="138.916016" xlink:href="#ArialMT-62"/>
      <use x="194.53125" xlink:href="#ArialMT-6f"/>
      <use x="250.146484" xlink:href="#ArialMT-6e"/>
      <use x="305.761719" xlink:href="#ArialMT-5f"/>
      <use x="361.376953" xlink:href="#ArialMT-31"/>
      <use x="416.992188" xlink:href="#ArialMT-35"/>
      <use x="472.607422" xlink:href="#ArialMT-73"/>
      <use x="522.607422" xlink:href="#ArialMT-39"/>
      <use x="578.222656" xlink:href="#ArialMT-30"/>
      <use x="633.837891" xlink:href="#ArialMT-30"/>
      <use x="689.453125" xlink:href="#ArialMT-43"/>
     </g>
    </g>
    <g id="text_20">
     <!-- Sample -->
     <g style="fill:#262626;" transform="translate(608.010064 99.701719)scale(0.11 -0.11)">
      <defs>
       <path d="M 288 1472 
L 859 1522 
Q 900 1178 1048 958 
Q 1197 738 1509 602 
Q 1822 466 2213 466 
Q 2559 466 2825 569 
Q 3091 672 3220 851 
Q 3350 1031 3350 1244 
Q 3350 1459 3225 1620 
Q 3100 1781 2813 1891 
Q 2628 1963 1997 2114 
Q 1366 2266 1113 2400 
Q 784 2572 623 2826 
Q 463 3081 463 3397 
Q 463 3744 659 4045 
Q 856 4347 1234 4503 
Q 1613 4659 2075 4659 
Q 2584 4659 2973 4495 
Q 3363 4331 3572 4012 
Q 3781 3694 3797 3291 
L 3216 3247 
Q 3169 3681 2898 3903 
Q 2628 4125 2100 4125 
Q 1550 4125 1298 3923 
Q 1047 3722 1047 3438 
Q 1047 3191 1225 3031 
Q 1400 2872 2139 2705 
Q 2878 2538 3153 2413 
Q 3553 2228 3743 1945 
Q 3934 1663 3934 1294 
Q 3934 928 3725 604 
Q 3516 281 3123 101 
Q 2731 -78 2241 -78 
Q 1619 -78 1198 103 
Q 778 284 539 648 
Q 300 1013 288 1472 
z
" id="ArialMT-53" transform="scale(0.015625)"/>
      </defs>
      <use xlink:href="#ArialMT-53"/>
      <use x="66.699219" xlink:href="#ArialMT-61"/>
      <use x="122.314453" xlink:href="#ArialMT-6d"/>
      <use x="205.615234" xlink:href="#ArialMT-70"/>
      <use x="261.230469" xlink:href="#ArialMT-6c"/>
      <use x="283.447266" xlink:href="#ArialMT-65"/>
     </g>
    </g>
    <g id="PathCollection_18">
     <defs>
      <path d="M 0 3 
C 0.795609 3 1.55874 2.683901 2.12132 2.12132 
C 2.683901 1.55874 3 0.795609 3 0 
C 3 -0.795609 2.683901 -1.55874 2.12132 -2.12132 
C 1.55874 -2.683901 0.795609 -3 0 -3 
C -0.795609 -3 -1.55874 -2.683901 -2.12132 -2.12132 
C -2.683901 -1.55874 -3 -0.795609 -3 0 
C -3 0.795609 -2.683901 1.55874 -2.12132 2.12132 
C -1.55874 2.683901 -0.795609 3 0 3 
z
" id="m569a7a40d9" style="stroke:#333333;"/>
     </defs>
     <g>
      <use style="fill:#333333;stroke:#333333;" x="588.210064" xlink:href="#m569a7a40d9" y="112.374062"/>
     </g>
    </g>
    <g id="text_21">
     <!-- 188-I -->
     <g style="fill:#262626;" transform="translate(608.010064 115.261562)scale(0.11 -0.11)">
      <use xlink:href="#ArialMT-31"/>
      <use x="55.615234" xlink:href="#ArialMT-38"/>
      <use x="111.230469" xlink:href="#ArialMT-38"/>
      <use x="166.845703" xlink:href="#ArialMT-2d"/>
      <use x="200.146484" xlink:href="#ArialMT-49"/>
     </g>
    </g>
    <g id="PathCollection_19">
     <defs>
      <path d="M -1.5 3 
L 0 1.5 
L 1.5 3 
L 3 1.5 
L 1.5 0 
L 3 -1.5 
L 1.5 -3 
L 0 -1.5 
L -1.5 -3 
L -3 -1.5 
L -1.5 0 
L -3 1.5 
z
" id="m65eee0ea95" style="stroke:#333333;"/>
     </defs>
     <g>
      <use style="fill:#333333;stroke:#333333;" x="588.210064" xlink:href="#m65eee0ea95" y="127.933906"/>
     </g>
    </g>
    <g id="text_22">
     <!-- 190-I -->
     <g style="fill:#262626;" transform="translate(608.010064 130.821406)scale(0.11 -0.11)">
      <use xlink:href="#ArialMT-31"/>
      <use x="55.615234" xlink:href="#ArialMT-39"/>
      <use x="111.230469" xlink:href="#ArialMT-30"/>
      <use x="166.845703" xlink:href="#ArialMT-2d"/>
      <use x="200.146484" xlink:href="#ArialMT-49"/>
     </g>
    </g>
    <g id="PathCollection_20">
     <defs>
      <path d="M -2.12132 -2.12132 
L -2.12132 2.12132 
L 2.12132 2.12132 
L 2.12132 -2.12132 
z
" id="m8fe2013775" style="stroke:#333333;"/>
     </defs>
     <g>
      <use style="fill:#333333;stroke:#333333;" x="588.210064" xlink:href="#m8fe2013775" y="143.49375"/>
     </g>
    </g>
    <g id="text_23">
     <!-- 194-U -->
     <g style="fill:#262626;" transform="translate(608.010064 146.38125)scale(0.11 -0.11)">
      <defs>
       <path d="M 2069 0 
L 2069 1097 
L 81 1097 
L 81 1613 
L 2172 4581 
L 2631 4581 
L 2631 1613 
L 3250 1613 
L 3250 1097 
L 2631 1097 
L 2631 0 
L 2069 0 
z
M 2069 1613 
L 2069 3678 
L 634 1613 
L 2069 1613 
z
" id="ArialMT-34" transform="scale(0.015625)"/>
       <path d="M 3500 4581 
L 4106 4581 
L 4106 1934 
Q 4106 1244 3950 837 
Q 3794 431 3386 176 
Q 2978 -78 2316 -78 
Q 1672 -78 1262 144 
Q 853 366 678 786 
Q 503 1206 503 1934 
L 503 4581 
L 1109 4581 
L 1109 1938 
Q 1109 1341 1220 1058 
Q 1331 775 1601 622 
Q 1872 469 2263 469 
Q 2931 469 3215 772 
Q 3500 1075 3500 1938 
L 3500 4581 
z
" id="ArialMT-55" transform="scale(0.015625)"/>
      </defs>
      <use xlink:href="#ArialMT-31"/>
      <use x="55.615234" xlink:href="#ArialMT-39"/>
      <use x="111.230469" xlink:href="#ArialMT-34"/>
      <use x="166.845703" xlink:href="#ArialMT-2d"/>
      <use x="200.146484" xlink:href="#ArialMT-55"/>
     </g>
    </g>
    <g id="PathCollection_21">
     <defs>
      <path d="M -1 3 
L 1 3 
L 1 1 
L 3 1 
L 3 -1 
L 1 -1 
L 1 -3 
L -1 -3 
L -1 -1 
L -3 -1 
L -3 1 
L -1 1 
z
" id="mb021298e28" style="stroke:#333333;"/>
     </defs>
     <g>
      <use style="fill:#333333;stroke:#333333;" x="588.210064" xlink:href="#mb021298e28" y="159.053594"/>
     </g>
    </g>
    <g id="text_24">
     <!-- 195-I -->
     <g style="fill:#262626;" transform="translate(608.010064 161.941094)scale(0.11 -0.11)">
      <use xlink:href="#ArialMT-31"/>
      <use x="55.615234" xlink:href="#ArialMT-39"/>
      <use x="111.230469" xlink:href="#ArialMT-35"/>
      <use x="166.845703" xlink:href="#ArialMT-2d"/>
      <use x="200.146484" xlink:href="#ArialMT-49"/>
     </g>
    </g>
    <g id="PathCollection_22">
     <defs>
      <path d="M 0 -3 
L -3 -0 
L -0 3 
L 3 0 
z
" id="m27b92aca53" style="stroke:#333333;"/>
     </defs>
     <g>
      <use style="fill:#333333;stroke:#333333;" x="588.210064" xlink:href="#m27b92aca53" y="174.613437"/>
     </g>
    </g>
    <g id="text_25">
     <!-- 198-U -->
     <g style="fill:#262626;" transform="translate(608.010064 177.500937)scale(0.11 -0.11)">
      <use xlink:href="#ArialMT-31"/>
      <use x="55.615234" xlink:href="#ArialMT-39"/>
      <use x="111.230469" xlink:href="#ArialMT-38"/>
      <use x="166.845703" xlink:href="#ArialMT-2d"/>
      <use x="200.146484" xlink:href="#ArialMT-55"/>
     </g>
    </g>
    <g id="PathCollection_23">
     <defs>
      <path d="M 0 -3 
L -1.06066 -1.06066 
L -3 -0 
L -1.06066 1.06066 
L -0 3 
L 1.06066 1.06066 
L 3 0 
L 1.06066 -1.06066 
z
" id="m8d850c1b49" style="stroke:#333333;"/>
     </defs>
     <g>
      <use style="fill:#333333;stroke:#333333;" x="588.210064" xlink:href="#m8d850c1b49" y="190.173281"/>
     </g>
    </g>
    <g id="text_26">
     <!-- 199-I -->
     <g style="fill:#262626;" transform="translate(608.010064 193.060781)scale(0.11 -0.11)">
      <use xlink:href="#ArialMT-31"/>
      <use x="55.615234" xlink:href="#ArialMT-39"/>
      <use x="111.230469" xlink:href="#ArialMT-39"/>
      <use x="166.845703" xlink:href="#ArialMT-2d"/>
      <use x="200.146484" xlink:href="#ArialMT-49"/>
     </g>
    </g>
    <g id="PathCollection_24">
     <defs>
      <path d="M 0 -3 
L -3 3 
L 3 3 
z
" id="mb0623a4cf0" style="stroke:#333333;"/>
     </defs>
     <g>
      <use style="fill:#333333;stroke:#333333;" x="588.210064" xlink:href="#mb0623a4cf0" y="205.733125"/>
     </g>
    </g>
    <g id="text_27">
     <!-- 200-U -->
     <g style="fill:#262626;" transform="translate(608.010064 208.620625)scale(0.11 -0.11)">
      <use xlink:href="#ArialMT-32"/>
      <use x="55.615234" xlink:href="#ArialMT-30"/>
      <use x="111.230469" xlink:href="#ArialMT-30"/>
      <use x="166.845703" xlink:href="#ArialMT-2d"/>
      <use x="200.146484" xlink:href="#ArialMT-55"/>
     </g>
    </g>
    <g id="PathCollection_25">
     <defs>
      <path d="M -2.12132 -2.12132 
L -1.5 -0 
L -2.12132 2.12132 
L -0 1.5 
L 2.12132 2.12132 
L 1.5 0 
L 2.12132 -2.12132 
L 0 -1.5 
z
" id="m65d7ec5c8a" style="stroke:#333333;"/>
     </defs>
     <g>
      <use style="fill:#333333;stroke:#333333;" x="588.210064" xlink:href="#m65d7ec5c8a" y="221.292969"/>
     </g>
    </g>
    <g id="text_28">
     <!-- 201-I -->
     <g style="fill:#262626;" transform="translate(608.010064 224.180469)scale(0.11 -0.11)">
      <use xlink:href="#ArialMT-32"/>
      <use x="55.615234" xlink:href="#ArialMT-30"/>
      <use x="111.230469" xlink:href="#ArialMT-31"/>
      <use x="166.845703" xlink:href="#ArialMT-2d"/>
      <use x="200.146484" xlink:href="#ArialMT-49"/>
     </g>
    </g>
    <g id="PathCollection_26">
     <defs>
      <path d="M -0 3 
L 3 -3 
L -3 -3 
z
" id="m7dee639615" style="stroke:#333333;"/>
     </defs>
     <g>
      <use style="fill:#333333;stroke:#333333;" x="588.210064" xlink:href="#m7dee639615" y="236.852812"/>
     </g>
    </g>
    <g id="text_29">
     <!-- 202-I -->
     <g style="fill:#262626;" transform="translate(608.010064 239.740312)scale(0.11 -0.11)">
      <use xlink:href="#ArialMT-32"/>
      <use x="55.615234" xlink:href="#ArialMT-30"/>
      <use x="111.230469" xlink:href="#ArialMT-32"/>
      <use x="166.845703" xlink:href="#ArialMT-2d"/>
      <use x="200.146484" xlink:href="#ArialMT-49"/>
     </g>
    </g>
    <g id="PathCollection_27">
     <defs>
      <path d="M -1.5 -2.598076 
L -1.299038 -0.75 
L -3 -0 
L -1.299038 0.75 
L -1.5 2.598076 
L -0 1.5 
L 1.5 2.598076 
L 1.299038 0.75 
L 3 0 
L 1.299038 -0.75 
L 1.5 -2.598076 
L 0 -1.5 
z
" id="m217acdf446" style="stroke:#333333;"/>
     </defs>
     <g>
      <use style="fill:#333333;stroke:#333333;" x="588.210064" xlink:href="#m217acdf446" y="252.412656"/>
     </g>
    </g>
    <g id="text_30">
     <!-- 203-I -->
     <g style="fill:#262626;" transform="translate(608.010064 255.300156)scale(0.11 -0.11)">
      <use xlink:href="#ArialMT-32"/>
      <use x="55.615234" xlink:href="#ArialMT-30"/>
      <use x="111.230469" xlink:href="#ArialMT-33"/>
      <use x="166.845703" xlink:href="#ArialMT-2d"/>
      <use x="200.146484" xlink:href="#ArialMT-49"/>
     </g>
    </g>
   </g>
  </g>
 </g>
 <defs>
  <clipPath id="p1d8265db5e">
   <rect height="372.533125" width="518.394866" x="49.23125" y="24.6525"/>
  </clipPath>
 </defs>
</svg>
