<?xml version="1.0" encoding="utf-8" standalone="no"?>
<!DOCTYPE svg PUBLIC "-//W3C//DTD SVG 1.1//EN"
  "http://www.w3.org/Graphics/SVG/1.1/DTD/svg11.dtd">
<svg height="439.401719pt" version="1.1" viewBox="0 0 708.779127 439.401719" width="708.779127pt" xmlns="http://www.w3.org/2000/svg" xmlns:xlink="http://www.w3.org/1999/xlink">
 <metadata>
  <rdf:RDF xmlns:cc="http://creativecommons.org/ns#" xmlns:dc="http://purl.org/dc/elements/1.1/" xmlns:rdf="http://www.w3.org/1999/02/22-rdf-syntax-ns#">
   <cc:Work>
    <dc:type rdf:resource="http://purl.org/dc/dcmitype/StillImage"/>
    <dc:date>2022-04-01T16:58:23.851466</dc:date>
    <dc:format>image/svg+xml</dc:format>
    <dc:creator>
     <cc:Agent>
      <dc:title>Matplotlib v3.4.2, https://matplotlib.org/</dc:title>
     </cc:Agent>
    </dc:creator>
   </cc:Work>
  </rdf:RDF>
 </metadata>
 <defs>
  <style type="text/css">*{stroke-linecap:butt;stroke-linejoin:round;}</style>
 </defs>
 <g id="figure_1">
  <g id="patch_1">
   <path d="M 0 439.401719 
L 708.779127 439.401719 
L 708.779127 0 
L 0 0 
z
" style="fill:#ffffff;"/>
  </g>
  <g id="axes_1">
   <g id="patch_2">
    <path d="M 49.23125 397.380625 
L 626.251116 397.380625 
L 626.251116 24.8475 
L 49.23125 24.8475 
z
" style="fill:#eaeaf2;"/>
   </g>
   <g id="matplotlib.axis_1">
    <g id="xtick_1">
     <g id="line2d_1">
      <path clip-path="url(#pefa05f7f8f)" d="M 95.299998 397.380625 
L 95.299998 24.8475 
" style="fill:none;stroke:#ffffff;stroke-linecap:round;"/>
     </g>
     <g id="line2d_2">
      <defs>
       <path d="M 0 0 
L 0 6 
" id="m1840238361" style="stroke:#262626;stroke-width:1.25;"/>
      </defs>
      <g>
       <use style="fill:#262626;stroke:#262626;stroke-width:1.25;" x="95.299998" xlink:href="#m1840238361" y="397.380625"/>
      </g>
     </g>
     <g id="text_1">
      <!-- 7.5 -->
      <g style="fill:#262626;" transform="translate(87.654998 414.754219)scale(0.11 -0.11)">
       <defs>
        <path d="M 303 3981 
L 303 4522 
L 3269 4522 
L 3269 4084 
Q 2831 3619 2401 2847 
Q 1972 2075 1738 1259 
Q 1569 684 1522 0 
L 944 0 
Q 953 541 1156 1306 
Q 1359 2072 1739 2783 
Q 2119 3494 2547 3981 
L 303 3981 
z
" id="ArialMT-37" transform="scale(0.015625)"/>
        <path d="M 581 0 
L 581 641 
L 1222 641 
L 1222 0 
L 581 0 
z
" id="ArialMT-2e" transform="scale(0.015625)"/>
        <path d="M 266 1200 
L 856 1250 
Q 922 819 1161 601 
Q 1400 384 1738 384 
Q 2144 384 2425 690 
Q 2706 997 2706 1503 
Q 2706 1984 2436 2262 
Q 2166 2541 1728 2541 
Q 1456 2541 1237 2417 
Q 1019 2294 894 2097 
L 366 2166 
L 809 4519 
L 3088 4519 
L 3088 3981 
L 1259 3981 
L 1013 2750 
Q 1425 3038 1878 3038 
Q 2478 3038 2890 2622 
Q 3303 2206 3303 1553 
Q 3303 931 2941 478 
Q 2500 -78 1738 -78 
Q 1113 -78 717 272 
Q 322 622 266 1200 
z
" id="ArialMT-35" transform="scale(0.015625)"/>
       </defs>
       <use xlink:href="#ArialMT-37"/>
       <use x="55.615234" xlink:href="#ArialMT-2e"/>
       <use x="83.398438" xlink:href="#ArialMT-35"/>
      </g>
     </g>
    </g>
    <g id="xtick_2">
     <g id="line2d_3">
      <path clip-path="url(#pefa05f7f8f)" d="M 171.174788 397.380625 
L 171.174788 24.8475 
" style="fill:none;stroke:#ffffff;stroke-linecap:round;"/>
     </g>
     <g id="line2d_4">
      <g>
       <use style="fill:#262626;stroke:#262626;stroke-width:1.25;" x="171.174788" xlink:href="#m1840238361" y="397.380625"/>
      </g>
     </g>
     <g id="text_2">
      <!-- 10.0 -->
      <g style="fill:#262626;" transform="translate(160.471272 414.754219)scale(0.11 -0.11)">
       <defs>
        <path d="M 2384 0 
L 1822 0 
L 1822 3584 
Q 1619 3391 1289 3197 
Q 959 3003 697 2906 
L 697 3450 
Q 1169 3672 1522 3987 
Q 1875 4303 2022 4600 
L 2384 4600 
L 2384 0 
z
" id="ArialMT-31" transform="scale(0.015625)"/>
        <path d="M 266 2259 
Q 266 3072 433 3567 
Q 600 4063 929 4331 
Q 1259 4600 1759 4600 
Q 2128 4600 2406 4451 
Q 2684 4303 2865 4023 
Q 3047 3744 3150 3342 
Q 3253 2941 3253 2259 
Q 3253 1453 3087 958 
Q 2922 463 2592 192 
Q 2263 -78 1759 -78 
Q 1097 -78 719 397 
Q 266 969 266 2259 
z
M 844 2259 
Q 844 1131 1108 757 
Q 1372 384 1759 384 
Q 2147 384 2411 759 
Q 2675 1134 2675 2259 
Q 2675 3391 2411 3762 
Q 2147 4134 1753 4134 
Q 1366 4134 1134 3806 
Q 844 3388 844 2259 
z
" id="ArialMT-30" transform="scale(0.015625)"/>
       </defs>
       <use xlink:href="#ArialMT-31"/>
       <use x="55.615234" xlink:href="#ArialMT-30"/>
       <use x="111.230469" xlink:href="#ArialMT-2e"/>
       <use x="139.013672" xlink:href="#ArialMT-30"/>
      </g>
     </g>
    </g>
    <g id="xtick_3">
     <g id="line2d_5">
      <path clip-path="url(#pefa05f7f8f)" d="M 247.049578 397.380625 
L 247.049578 24.8475 
" style="fill:none;stroke:#ffffff;stroke-linecap:round;"/>
     </g>
     <g id="line2d_6">
      <g>
       <use style="fill:#262626;stroke:#262626;stroke-width:1.25;" x="247.049578" xlink:href="#m1840238361" y="397.380625"/>
      </g>
     </g>
     <g id="text_3">
      <!-- 12.5 -->
      <g style="fill:#262626;" transform="translate(236.346062 414.754219)scale(0.11 -0.11)">
       <defs>
        <path d="M 3222 541 
L 3222 0 
L 194 0 
Q 188 203 259 391 
Q 375 700 629 1000 
Q 884 1300 1366 1694 
Q 2113 2306 2375 2664 
Q 2638 3022 2638 3341 
Q 2638 3675 2398 3904 
Q 2159 4134 1775 4134 
Q 1369 4134 1125 3890 
Q 881 3647 878 3216 
L 300 3275 
Q 359 3922 746 4261 
Q 1134 4600 1788 4600 
Q 2447 4600 2831 4234 
Q 3216 3869 3216 3328 
Q 3216 3053 3103 2787 
Q 2991 2522 2730 2228 
Q 2469 1934 1863 1422 
Q 1356 997 1212 845 
Q 1069 694 975 541 
L 3222 541 
z
" id="ArialMT-32" transform="scale(0.015625)"/>
       </defs>
       <use xlink:href="#ArialMT-31"/>
       <use x="55.615234" xlink:href="#ArialMT-32"/>
       <use x="111.230469" xlink:href="#ArialMT-2e"/>
       <use x="139.013672" xlink:href="#ArialMT-35"/>
      </g>
     </g>
    </g>
    <g id="xtick_4">
     <g id="line2d_7">
      <path clip-path="url(#pefa05f7f8f)" d="M 322.924367 397.380625 
L 322.924367 24.8475 
" style="fill:none;stroke:#ffffff;stroke-linecap:round;"/>
     </g>
     <g id="line2d_8">
      <g>
       <use style="fill:#262626;stroke:#262626;stroke-width:1.25;" x="322.924367" xlink:href="#m1840238361" y="397.380625"/>
      </g>
     </g>
     <g id="text_4">
      <!-- 15.0 -->
      <g style="fill:#262626;" transform="translate(312.220852 414.754219)scale(0.11 -0.11)">
       <use xlink:href="#ArialMT-31"/>
       <use x="55.615234" xlink:href="#ArialMT-35"/>
       <use x="111.230469" xlink:href="#ArialMT-2e"/>
       <use x="139.013672" xlink:href="#ArialMT-30"/>
      </g>
     </g>
    </g>
    <g id="xtick_5">
     <g id="line2d_9">
      <path clip-path="url(#pefa05f7f8f)" d="M 398.799157 397.380625 
L 398.799157 24.8475 
" style="fill:none;stroke:#ffffff;stroke-linecap:round;"/>
     </g>
     <g id="line2d_10">
      <g>
       <use style="fill:#262626;stroke:#262626;stroke-width:1.25;" x="398.799157" xlink:href="#m1840238361" y="397.380625"/>
      </g>
     </g>
     <g id="text_5">
      <!-- 17.5 -->
      <g style="fill:#262626;" transform="translate(388.095642 414.754219)scale(0.11 -0.11)">
       <use xlink:href="#ArialMT-31"/>
       <use x="55.615234" xlink:href="#ArialMT-37"/>
       <use x="111.230469" xlink:href="#ArialMT-2e"/>
       <use x="139.013672" xlink:href="#ArialMT-35"/>
      </g>
     </g>
    </g>
    <g id="xtick_6">
     <g id="line2d_11">
      <path clip-path="url(#pefa05f7f8f)" d="M 474.673947 397.380625 
L 474.673947 24.8475 
" style="fill:none;stroke:#ffffff;stroke-linecap:round;"/>
     </g>
     <g id="line2d_12">
      <g>
       <use style="fill:#262626;stroke:#262626;stroke-width:1.25;" x="474.673947" xlink:href="#m1840238361" y="397.380625"/>
      </g>
     </g>
     <g id="text_6">
      <!-- 20.0 -->
      <g style="fill:#262626;" transform="translate(463.970431 414.754219)scale(0.11 -0.11)">
       <use xlink:href="#ArialMT-32"/>
       <use x="55.615234" xlink:href="#ArialMT-30"/>
       <use x="111.230469" xlink:href="#ArialMT-2e"/>
       <use x="139.013672" xlink:href="#ArialMT-30"/>
      </g>
     </g>
    </g>
    <g id="xtick_7">
     <g id="line2d_13">
      <path clip-path="url(#pefa05f7f8f)" d="M 550.548737 397.380625 
L 550.548737 24.8475 
" style="fill:none;stroke:#ffffff;stroke-linecap:round;"/>
     </g>
     <g id="line2d_14">
      <g>
       <use style="fill:#262626;stroke:#262626;stroke-width:1.25;" x="550.548737" xlink:href="#m1840238361" y="397.380625"/>
      </g>
     </g>
     <g id="text_7">
      <!-- 22.5 -->
      <g style="fill:#262626;" transform="translate(539.845221 414.754219)scale(0.11 -0.11)">
       <use xlink:href="#ArialMT-32"/>
       <use x="55.615234" xlink:href="#ArialMT-32"/>
       <use x="111.230469" xlink:href="#ArialMT-2e"/>
       <use x="139.013672" xlink:href="#ArialMT-35"/>
      </g>
     </g>
    </g>
    <g id="text_8">
     <!-- Sample Average CNT Diameter (nm) -->
     <g style="fill:#262626;" transform="translate(239.925245 429.676094)scale(0.12 -0.12)">
      <defs>
       <path d="M 288 1472 
L 859 1522 
Q 900 1178 1048 958 
Q 1197 738 1509 602 
Q 1822 466 2213 466 
Q 2559 466 2825 569 
Q 3091 672 3220 851 
Q 3350 1031 3350 1244 
Q 3350 1459 3225 1620 
Q 3100 1781 2813 1891 
Q 2628 1963 1997 2114 
Q 1366 2266 1113 2400 
Q 784 2572 623 2826 
Q 463 3081 463 3397 
Q 463 3744 659 4045 
Q 856 4347 1234 4503 
Q 1613 4659 2075 4659 
Q 2584 4659 2973 4495 
Q 3363 4331 3572 4012 
Q 3781 3694 3797 3291 
L 3216 3247 
Q 3169 3681 2898 3903 
Q 2628 4125 2100 4125 
Q 1550 4125 1298 3923 
Q 1047 3722 1047 3438 
Q 1047 3191 1225 3031 
Q 1400 2872 2139 2705 
Q 2878 2538 3153 2413 
Q 3553 2228 3743 1945 
Q 3934 1663 3934 1294 
Q 3934 928 3725 604 
Q 3516 281 3123 101 
Q 2731 -78 2241 -78 
Q 1619 -78 1198 103 
Q 778 284 539 648 
Q 300 1013 288 1472 
z
" id="ArialMT-53" transform="scale(0.015625)"/>
       <path d="M 2588 409 
Q 2275 144 1986 34 
Q 1697 -75 1366 -75 
Q 819 -75 525 192 
Q 231 459 231 875 
Q 231 1119 342 1320 
Q 453 1522 633 1644 
Q 813 1766 1038 1828 
Q 1203 1872 1538 1913 
Q 2219 1994 2541 2106 
Q 2544 2222 2544 2253 
Q 2544 2597 2384 2738 
Q 2169 2928 1744 2928 
Q 1347 2928 1158 2789 
Q 969 2650 878 2297 
L 328 2372 
Q 403 2725 575 2942 
Q 747 3159 1072 3276 
Q 1397 3394 1825 3394 
Q 2250 3394 2515 3294 
Q 2781 3194 2906 3042 
Q 3031 2891 3081 2659 
Q 3109 2516 3109 2141 
L 3109 1391 
Q 3109 606 3145 398 
Q 3181 191 3288 0 
L 2700 0 
Q 2613 175 2588 409 
z
M 2541 1666 
Q 2234 1541 1622 1453 
Q 1275 1403 1131 1340 
Q 988 1278 909 1158 
Q 831 1038 831 891 
Q 831 666 1001 516 
Q 1172 366 1500 366 
Q 1825 366 2078 508 
Q 2331 650 2450 897 
Q 2541 1088 2541 1459 
L 2541 1666 
z
" id="ArialMT-61" transform="scale(0.015625)"/>
       <path d="M 422 0 
L 422 3319 
L 925 3319 
L 925 2853 
Q 1081 3097 1340 3245 
Q 1600 3394 1931 3394 
Q 2300 3394 2536 3241 
Q 2772 3088 2869 2813 
Q 3263 3394 3894 3394 
Q 4388 3394 4653 3120 
Q 4919 2847 4919 2278 
L 4919 0 
L 4359 0 
L 4359 2091 
Q 4359 2428 4304 2576 
Q 4250 2725 4106 2815 
Q 3963 2906 3769 2906 
Q 3419 2906 3187 2673 
Q 2956 2441 2956 1928 
L 2956 0 
L 2394 0 
L 2394 2156 
Q 2394 2531 2256 2718 
Q 2119 2906 1806 2906 
Q 1569 2906 1367 2781 
Q 1166 2656 1075 2415 
Q 984 2175 984 1722 
L 984 0 
L 422 0 
z
" id="ArialMT-6d" transform="scale(0.015625)"/>
       <path d="M 422 -1272 
L 422 3319 
L 934 3319 
L 934 2888 
Q 1116 3141 1344 3267 
Q 1572 3394 1897 3394 
Q 2322 3394 2647 3175 
Q 2972 2956 3137 2557 
Q 3303 2159 3303 1684 
Q 3303 1175 3120 767 
Q 2938 359 2589 142 
Q 2241 -75 1856 -75 
Q 1575 -75 1351 44 
Q 1128 163 984 344 
L 984 -1272 
L 422 -1272 
z
M 931 1641 
Q 931 1000 1190 694 
Q 1450 388 1819 388 
Q 2194 388 2461 705 
Q 2728 1022 2728 1688 
Q 2728 2322 2467 2637 
Q 2206 2953 1844 2953 
Q 1484 2953 1207 2617 
Q 931 2281 931 1641 
z
" id="ArialMT-70" transform="scale(0.015625)"/>
       <path d="M 409 0 
L 409 4581 
L 972 4581 
L 972 0 
L 409 0 
z
" id="ArialMT-6c" transform="scale(0.015625)"/>
       <path d="M 2694 1069 
L 3275 997 
Q 3138 488 2766 206 
Q 2394 -75 1816 -75 
Q 1088 -75 661 373 
Q 234 822 234 1631 
Q 234 2469 665 2931 
Q 1097 3394 1784 3394 
Q 2450 3394 2872 2941 
Q 3294 2488 3294 1666 
Q 3294 1616 3291 1516 
L 816 1516 
Q 847 969 1125 678 
Q 1403 388 1819 388 
Q 2128 388 2347 550 
Q 2566 713 2694 1069 
z
M 847 1978 
L 2700 1978 
Q 2663 2397 2488 2606 
Q 2219 2931 1791 2931 
Q 1403 2931 1139 2672 
Q 875 2413 847 1978 
z
" id="ArialMT-65" transform="scale(0.015625)"/>
       <path id="ArialMT-20" transform="scale(0.015625)"/>
       <path d="M -9 0 
L 1750 4581 
L 2403 4581 
L 4278 0 
L 3588 0 
L 3053 1388 
L 1138 1388 
L 634 0 
L -9 0 
z
M 1313 1881 
L 2866 1881 
L 2388 3150 
Q 2169 3728 2063 4100 
Q 1975 3659 1816 3225 
L 1313 1881 
z
" id="ArialMT-41" transform="scale(0.015625)"/>
       <path d="M 1344 0 
L 81 3319 
L 675 3319 
L 1388 1331 
Q 1503 1009 1600 663 
Q 1675 925 1809 1294 
L 2547 3319 
L 3125 3319 
L 1869 0 
L 1344 0 
z
" id="ArialMT-76" transform="scale(0.015625)"/>
       <path d="M 416 0 
L 416 3319 
L 922 3319 
L 922 2816 
Q 1116 3169 1280 3281 
Q 1444 3394 1641 3394 
Q 1925 3394 2219 3213 
L 2025 2691 
Q 1819 2813 1613 2813 
Q 1428 2813 1281 2702 
Q 1134 2591 1072 2394 
Q 978 2094 978 1738 
L 978 0 
L 416 0 
z
" id="ArialMT-72" transform="scale(0.015625)"/>
       <path d="M 319 -275 
L 866 -356 
Q 900 -609 1056 -725 
Q 1266 -881 1628 -881 
Q 2019 -881 2231 -725 
Q 2444 -569 2519 -288 
Q 2563 -116 2559 434 
Q 2191 0 1641 0 
Q 956 0 581 494 
Q 206 988 206 1678 
Q 206 2153 378 2554 
Q 550 2956 876 3175 
Q 1203 3394 1644 3394 
Q 2231 3394 2613 2919 
L 2613 3319 
L 3131 3319 
L 3131 450 
Q 3131 -325 2973 -648 
Q 2816 -972 2473 -1159 
Q 2131 -1347 1631 -1347 
Q 1038 -1347 672 -1080 
Q 306 -813 319 -275 
z
M 784 1719 
Q 784 1066 1043 766 
Q 1303 466 1694 466 
Q 2081 466 2343 764 
Q 2606 1063 2606 1700 
Q 2606 2309 2336 2618 
Q 2066 2928 1684 2928 
Q 1309 2928 1046 2623 
Q 784 2319 784 1719 
z
" id="ArialMT-67" transform="scale(0.015625)"/>
       <path d="M 3763 1606 
L 4369 1453 
Q 4178 706 3683 314 
Q 3188 -78 2472 -78 
Q 1731 -78 1267 223 
Q 803 525 561 1097 
Q 319 1669 319 2325 
Q 319 3041 592 3573 
Q 866 4106 1370 4382 
Q 1875 4659 2481 4659 
Q 3169 4659 3637 4309 
Q 4106 3959 4291 3325 
L 3694 3184 
Q 3534 3684 3231 3912 
Q 2928 4141 2469 4141 
Q 1941 4141 1586 3887 
Q 1231 3634 1087 3207 
Q 944 2781 944 2328 
Q 944 1744 1114 1308 
Q 1284 872 1643 656 
Q 2003 441 2422 441 
Q 2931 441 3284 734 
Q 3638 1028 3763 1606 
z
" id="ArialMT-43" transform="scale(0.015625)"/>
       <path d="M 488 0 
L 488 4581 
L 1109 4581 
L 3516 984 
L 3516 4581 
L 4097 4581 
L 4097 0 
L 3475 0 
L 1069 3600 
L 1069 0 
L 488 0 
z
" id="ArialMT-4e" transform="scale(0.015625)"/>
       <path d="M 1659 0 
L 1659 4041 
L 150 4041 
L 150 4581 
L 3781 4581 
L 3781 4041 
L 2266 4041 
L 2266 0 
L 1659 0 
z
" id="ArialMT-54" transform="scale(0.015625)"/>
       <path d="M 494 0 
L 494 4581 
L 2072 4581 
Q 2606 4581 2888 4516 
Q 3281 4425 3559 4188 
Q 3922 3881 4101 3404 
Q 4281 2928 4281 2316 
Q 4281 1794 4159 1391 
Q 4038 988 3847 723 
Q 3656 459 3429 307 
Q 3203 156 2883 78 
Q 2563 0 2147 0 
L 494 0 
z
M 1100 541 
L 2078 541 
Q 2531 541 2789 625 
Q 3047 709 3200 863 
Q 3416 1078 3536 1442 
Q 3656 1806 3656 2325 
Q 3656 3044 3420 3430 
Q 3184 3816 2847 3947 
Q 2603 4041 2063 4041 
L 1100 4041 
L 1100 541 
z
" id="ArialMT-44" transform="scale(0.015625)"/>
       <path d="M 425 3934 
L 425 4581 
L 988 4581 
L 988 3934 
L 425 3934 
z
M 425 0 
L 425 3319 
L 988 3319 
L 988 0 
L 425 0 
z
" id="ArialMT-69" transform="scale(0.015625)"/>
       <path d="M 1650 503 
L 1731 6 
Q 1494 -44 1306 -44 
Q 1000 -44 831 53 
Q 663 150 594 308 
Q 525 466 525 972 
L 525 2881 
L 113 2881 
L 113 3319 
L 525 3319 
L 525 4141 
L 1084 4478 
L 1084 3319 
L 1650 3319 
L 1650 2881 
L 1084 2881 
L 1084 941 
Q 1084 700 1114 631 
Q 1144 563 1211 522 
Q 1278 481 1403 481 
Q 1497 481 1650 503 
z
" id="ArialMT-74" transform="scale(0.015625)"/>
       <path d="M 1497 -1347 
Q 1031 -759 709 28 
Q 388 816 388 1659 
Q 388 2403 628 3084 
Q 909 3875 1497 4659 
L 1900 4659 
Q 1522 4009 1400 3731 
Q 1209 3300 1100 2831 
Q 966 2247 966 1656 
Q 966 153 1900 -1347 
L 1497 -1347 
z
" id="ArialMT-28" transform="scale(0.015625)"/>
       <path d="M 422 0 
L 422 3319 
L 928 3319 
L 928 2847 
Q 1294 3394 1984 3394 
Q 2284 3394 2536 3286 
Q 2788 3178 2913 3003 
Q 3038 2828 3088 2588 
Q 3119 2431 3119 2041 
L 3119 0 
L 2556 0 
L 2556 2019 
Q 2556 2363 2490 2533 
Q 2425 2703 2258 2804 
Q 2091 2906 1866 2906 
Q 1506 2906 1245 2678 
Q 984 2450 984 1813 
L 984 0 
L 422 0 
z
" id="ArialMT-6e" transform="scale(0.015625)"/>
       <path d="M 791 -1347 
L 388 -1347 
Q 1322 153 1322 1656 
Q 1322 2244 1188 2822 
Q 1081 3291 891 3722 
Q 769 4003 388 4659 
L 791 4659 
Q 1378 3875 1659 3084 
Q 1900 2403 1900 1659 
Q 1900 816 1576 28 
Q 1253 -759 791 -1347 
z
" id="ArialMT-29" transform="scale(0.015625)"/>
      </defs>
      <use xlink:href="#ArialMT-53"/>
      <use x="66.699219" xlink:href="#ArialMT-61"/>
      <use x="122.314453" xlink:href="#ArialMT-6d"/>
      <use x="205.615234" xlink:href="#ArialMT-70"/>
      <use x="261.230469" xlink:href="#ArialMT-6c"/>
      <use x="283.447266" xlink:href="#ArialMT-65"/>
      <use x="339.0625" xlink:href="#ArialMT-20"/>
      <use x="361.345703" xlink:href="#ArialMT-41"/>
      <use x="426.294922" xlink:href="#ArialMT-76"/>
      <use x="476.294922" xlink:href="#ArialMT-65"/>
      <use x="531.910156" xlink:href="#ArialMT-72"/>
      <use x="565.210938" xlink:href="#ArialMT-61"/>
      <use x="620.826172" xlink:href="#ArialMT-67"/>
      <use x="676.441406" xlink:href="#ArialMT-65"/>
      <use x="732.056641" xlink:href="#ArialMT-20"/>
      <use x="759.839844" xlink:href="#ArialMT-43"/>
      <use x="832.056641" xlink:href="#ArialMT-4e"/>
      <use x="904.273438" xlink:href="#ArialMT-54"/>
      <use x="963.607422" xlink:href="#ArialMT-20"/>
      <use x="991.390625" xlink:href="#ArialMT-44"/>
      <use x="1063.607422" xlink:href="#ArialMT-69"/>
      <use x="1085.824219" xlink:href="#ArialMT-61"/>
      <use x="1141.439453" xlink:href="#ArialMT-6d"/>
      <use x="1224.740234" xlink:href="#ArialMT-65"/>
      <use x="1280.355469" xlink:href="#ArialMT-74"/>
      <use x="1308.138672" xlink:href="#ArialMT-65"/>
      <use x="1363.753906" xlink:href="#ArialMT-72"/>
      <use x="1397.054688" xlink:href="#ArialMT-20"/>
      <use x="1424.837891" xlink:href="#ArialMT-28"/>
      <use x="1458.138672" xlink:href="#ArialMT-6e"/>
      <use x="1513.753906" xlink:href="#ArialMT-6d"/>
      <use x="1597.054688" xlink:href="#ArialMT-29"/>
     </g>
    </g>
   </g>
   <g id="matplotlib.axis_2">
    <g id="ytick_1">
     <g id="line2d_15">
      <path clip-path="url(#pefa05f7f8f)" d="M 49.23125 328.501982 
L 626.251116 328.501982 
" style="fill:none;stroke:#ffffff;stroke-linecap:round;"/>
     </g>
     <g id="line2d_16">
      <defs>
       <path d="M 0 0 
L -6 0 
" id="m08093b752e" style="stroke:#262626;stroke-width:1.25;"/>
      </defs>
      <g>
       <use style="fill:#262626;stroke:#262626;stroke-width:1.25;" x="49.23125" xlink:href="#m08093b752e" y="328.501982"/>
      </g>
     </g>
     <g id="text_9">
      <!-- $\mathdefault{10^{7}}$ -->
      <g style="fill:#262626;" transform="translate(22.46125 334.118857)scale(0.11 -0.11)">
       <use transform="translate(0 0.846875)" xlink:href="#ArialMT-31"/>
       <use transform="translate(55.615234 0.846875)" xlink:href="#ArialMT-30"/>
       <use transform="translate(112.972813 70.540625)scale(0.7)" xlink:href="#ArialMT-37"/>
      </g>
     </g>
    </g>
    <g id="ytick_2">
     <g id="line2d_17">
      <path clip-path="url(#pefa05f7f8f)" d="M 49.23125 200.246686 
L 626.251116 200.246686 
" style="fill:none;stroke:#ffffff;stroke-linecap:round;"/>
     </g>
     <g id="line2d_18">
      <g>
       <use style="fill:#262626;stroke:#262626;stroke-width:1.25;" x="49.23125" xlink:href="#m08093b752e" y="200.246686"/>
      </g>
     </g>
     <g id="text_10">
      <!-- $\mathdefault{10^{8}}$ -->
      <g style="fill:#262626;" transform="translate(22.46125 205.918561)scale(0.11 -0.11)">
       <defs>
        <path d="M 1131 2484 
Q 781 2613 612 2850 
Q 444 3088 444 3419 
Q 444 3919 803 4259 
Q 1163 4600 1759 4600 
Q 2359 4600 2725 4251 
Q 3091 3903 3091 3403 
Q 3091 3084 2923 2848 
Q 2756 2613 2416 2484 
Q 2838 2347 3058 2040 
Q 3278 1734 3278 1309 
Q 3278 722 2862 322 
Q 2447 -78 1769 -78 
Q 1091 -78 675 323 
Q 259 725 259 1325 
Q 259 1772 486 2073 
Q 713 2375 1131 2484 
z
M 1019 3438 
Q 1019 3113 1228 2906 
Q 1438 2700 1772 2700 
Q 2097 2700 2305 2904 
Q 2513 3109 2513 3406 
Q 2513 3716 2298 3927 
Q 2084 4138 1766 4138 
Q 1444 4138 1231 3931 
Q 1019 3725 1019 3438 
z
M 838 1322 
Q 838 1081 952 856 
Q 1066 631 1291 507 
Q 1516 384 1775 384 
Q 2178 384 2440 643 
Q 2703 903 2703 1303 
Q 2703 1709 2433 1975 
Q 2163 2241 1756 2241 
Q 1359 2241 1098 1978 
Q 838 1716 838 1322 
z
" id="ArialMT-38" transform="scale(0.015625)"/>
       </defs>
       <use transform="translate(0 0.99375)" xlink:href="#ArialMT-31"/>
       <use transform="translate(55.615234 0.99375)" xlink:href="#ArialMT-30"/>
       <use transform="translate(112.972813 70.6875)scale(0.7)" xlink:href="#ArialMT-38"/>
      </g>
     </g>
    </g>
    <g id="ytick_3">
     <g id="line2d_19">
      <path clip-path="url(#pefa05f7f8f)" d="M 49.23125 71.991389 
L 626.251116 71.991389 
" style="fill:none;stroke:#ffffff;stroke-linecap:round;"/>
     </g>
     <g id="line2d_20">
      <g>
       <use style="fill:#262626;stroke:#262626;stroke-width:1.25;" x="49.23125" xlink:href="#m08093b752e" y="71.991389"/>
      </g>
     </g>
     <g id="text_11">
      <!-- $\mathdefault{10^{9}}$ -->
      <g style="fill:#262626;" transform="translate(22.46125 77.663264)scale(0.11 -0.11)">
       <defs>
        <path d="M 350 1059 
L 891 1109 
Q 959 728 1153 556 
Q 1347 384 1650 384 
Q 1909 384 2104 503 
Q 2300 622 2425 820 
Q 2550 1019 2634 1356 
Q 2719 1694 2719 2044 
Q 2719 2081 2716 2156 
Q 2547 1888 2255 1720 
Q 1963 1553 1622 1553 
Q 1053 1553 659 1965 
Q 266 2378 266 3053 
Q 266 3750 677 4175 
Q 1088 4600 1706 4600 
Q 2153 4600 2523 4359 
Q 2894 4119 3086 3673 
Q 3278 3228 3278 2384 
Q 3278 1506 3087 986 
Q 2897 466 2520 194 
Q 2144 -78 1638 -78 
Q 1100 -78 759 220 
Q 419 519 350 1059 
z
M 2653 3081 
Q 2653 3566 2395 3850 
Q 2138 4134 1775 4134 
Q 1400 4134 1122 3828 
Q 844 3522 844 3034 
Q 844 2597 1108 2323 
Q 1372 2050 1759 2050 
Q 2150 2050 2401 2323 
Q 2653 2597 2653 3081 
z
" id="ArialMT-39" transform="scale(0.015625)"/>
       </defs>
       <use transform="translate(0 0.99375)" xlink:href="#ArialMT-31"/>
       <use transform="translate(55.615234 0.99375)" xlink:href="#ArialMT-30"/>
       <use transform="translate(112.972813 70.6875)scale(0.7)" xlink:href="#ArialMT-39"/>
      </g>
     </g>
    </g>
    <g id="ytick_4">
     <g id="line2d_21">
      <defs>
       <path d="M 0 0 
L -4 0 
" id="m156001c48e" style="stroke:#262626;"/>
      </defs>
      <g>
       <use style="fill:#262626;stroke:#262626;" x="49.23125" xlink:href="#m156001c48e" y="395.56395"/>
      </g>
     </g>
    </g>
    <g id="ytick_5">
     <g id="line2d_22">
      <g>
       <use style="fill:#262626;stroke:#262626;" x="49.23125" xlink:href="#m156001c48e" y="379.539895"/>
      </g>
     </g>
    </g>
    <g id="ytick_6">
     <g id="line2d_23">
      <g>
       <use style="fill:#262626;stroke:#262626;" x="49.23125" xlink:href="#m156001c48e" y="367.110673"/>
      </g>
     </g>
    </g>
    <g id="ytick_7">
     <g id="line2d_24">
      <g>
       <use style="fill:#262626;stroke:#262626;" x="49.23125" xlink:href="#m156001c48e" y="356.955259"/>
      </g>
     </g>
    </g>
    <g id="ytick_8">
     <g id="line2d_25">
      <g>
       <use style="fill:#262626;stroke:#262626;" x="49.23125" xlink:href="#m156001c48e" y="348.368978"/>
      </g>
     </g>
    </g>
    <g id="ytick_9">
     <g id="line2d_26">
      <g>
       <use style="fill:#262626;stroke:#262626;" x="49.23125" xlink:href="#m156001c48e" y="340.931204"/>
      </g>
     </g>
    </g>
    <g id="ytick_10">
     <g id="line2d_27">
      <g>
       <use style="fill:#262626;stroke:#262626;" x="49.23125" xlink:href="#m156001c48e" y="334.370622"/>
      </g>
     </g>
    </g>
    <g id="ytick_11">
     <g id="line2d_28">
      <g>
       <use style="fill:#262626;stroke:#262626;" x="49.23125" xlink:href="#m156001c48e" y="289.89329"/>
      </g>
     </g>
    </g>
    <g id="ytick_12">
     <g id="line2d_29">
      <g>
       <use style="fill:#262626;stroke:#262626;" x="49.23125" xlink:href="#m156001c48e" y="267.308654"/>
      </g>
     </g>
    </g>
    <g id="ytick_13">
     <g id="line2d_30">
      <g>
       <use style="fill:#262626;stroke:#262626;" x="49.23125" xlink:href="#m156001c48e" y="251.284599"/>
      </g>
     </g>
    </g>
    <g id="ytick_14">
     <g id="line2d_31">
      <g>
       <use style="fill:#262626;stroke:#262626;" x="49.23125" xlink:href="#m156001c48e" y="238.855377"/>
      </g>
     </g>
    </g>
    <g id="ytick_15">
     <g id="line2d_32">
      <g>
       <use style="fill:#262626;stroke:#262626;" x="49.23125" xlink:href="#m156001c48e" y="228.699963"/>
      </g>
     </g>
    </g>
    <g id="ytick_16">
     <g id="line2d_33">
      <g>
       <use style="fill:#262626;stroke:#262626;" x="49.23125" xlink:href="#m156001c48e" y="220.113682"/>
      </g>
     </g>
    </g>
    <g id="ytick_17">
     <g id="line2d_34">
      <g>
       <use style="fill:#262626;stroke:#262626;" x="49.23125" xlink:href="#m156001c48e" y="212.675908"/>
      </g>
     </g>
    </g>
    <g id="ytick_18">
     <g id="line2d_35">
      <g>
       <use style="fill:#262626;stroke:#262626;" x="49.23125" xlink:href="#m156001c48e" y="206.115326"/>
      </g>
     </g>
    </g>
    <g id="ytick_19">
     <g id="line2d_36">
      <g>
       <use style="fill:#262626;stroke:#262626;" x="49.23125" xlink:href="#m156001c48e" y="161.637994"/>
      </g>
     </g>
    </g>
    <g id="ytick_20">
     <g id="line2d_37">
      <g>
       <use style="fill:#262626;stroke:#262626;" x="49.23125" xlink:href="#m156001c48e" y="139.053358"/>
      </g>
     </g>
    </g>
    <g id="ytick_21">
     <g id="line2d_38">
      <g>
       <use style="fill:#262626;stroke:#262626;" x="49.23125" xlink:href="#m156001c48e" y="123.029303"/>
      </g>
     </g>
    </g>
    <g id="ytick_22">
     <g id="line2d_39">
      <g>
       <use style="fill:#262626;stroke:#262626;" x="49.23125" xlink:href="#m156001c48e" y="110.600081"/>
      </g>
     </g>
    </g>
    <g id="ytick_23">
     <g id="line2d_40">
      <g>
       <use style="fill:#262626;stroke:#262626;" x="49.23125" xlink:href="#m156001c48e" y="100.444666"/>
      </g>
     </g>
    </g>
    <g id="ytick_24">
     <g id="line2d_41">
      <g>
       <use style="fill:#262626;stroke:#262626;" x="49.23125" xlink:href="#m156001c48e" y="91.858386"/>
      </g>
     </g>
    </g>
    <g id="ytick_25">
     <g id="line2d_42">
      <g>
       <use style="fill:#262626;stroke:#262626;" x="49.23125" xlink:href="#m156001c48e" y="84.420612"/>
      </g>
     </g>
    </g>
    <g id="ytick_26">
     <g id="line2d_43">
      <g>
       <use style="fill:#262626;stroke:#262626;" x="49.23125" xlink:href="#m156001c48e" y="77.86003"/>
      </g>
     </g>
    </g>
    <g id="ytick_27">
     <g id="line2d_44">
      <g>
       <use style="fill:#262626;stroke:#262626;" x="49.23125" xlink:href="#m156001c48e" y="33.382698"/>
      </g>
     </g>
    </g>
    <g id="text_12">
     <!-- Modulus (Pa) -->
     <g style="fill:#262626;" transform="translate(15.935625 246.7925)rotate(-90)scale(0.12 -0.12)">
      <defs>
       <path d="M 475 0 
L 475 4581 
L 1388 4581 
L 2472 1338 
Q 2622 884 2691 659 
Q 2769 909 2934 1394 
L 4031 4581 
L 4847 4581 
L 4847 0 
L 4263 0 
L 4263 3834 
L 2931 0 
L 2384 0 
L 1059 3900 
L 1059 0 
L 475 0 
z
" id="ArialMT-4d" transform="scale(0.015625)"/>
       <path d="M 213 1659 
Q 213 2581 725 3025 
Q 1153 3394 1769 3394 
Q 2453 3394 2887 2945 
Q 3322 2497 3322 1706 
Q 3322 1066 3130 698 
Q 2938 331 2570 128 
Q 2203 -75 1769 -75 
Q 1072 -75 642 372 
Q 213 819 213 1659 
z
M 791 1659 
Q 791 1022 1069 705 
Q 1347 388 1769 388 
Q 2188 388 2466 706 
Q 2744 1025 2744 1678 
Q 2744 2294 2464 2611 
Q 2184 2928 1769 2928 
Q 1347 2928 1069 2612 
Q 791 2297 791 1659 
z
" id="ArialMT-6f" transform="scale(0.015625)"/>
       <path d="M 2575 0 
L 2575 419 
Q 2259 -75 1647 -75 
Q 1250 -75 917 144 
Q 584 363 401 755 
Q 219 1147 219 1656 
Q 219 2153 384 2558 
Q 550 2963 881 3178 
Q 1213 3394 1622 3394 
Q 1922 3394 2156 3267 
Q 2391 3141 2538 2938 
L 2538 4581 
L 3097 4581 
L 3097 0 
L 2575 0 
z
M 797 1656 
Q 797 1019 1065 703 
Q 1334 388 1700 388 
Q 2069 388 2326 689 
Q 2584 991 2584 1609 
Q 2584 2291 2321 2609 
Q 2059 2928 1675 2928 
Q 1300 2928 1048 2622 
Q 797 2316 797 1656 
z
" id="ArialMT-64" transform="scale(0.015625)"/>
       <path d="M 2597 0 
L 2597 488 
Q 2209 -75 1544 -75 
Q 1250 -75 995 37 
Q 741 150 617 320 
Q 494 491 444 738 
Q 409 903 409 1263 
L 409 3319 
L 972 3319 
L 972 1478 
Q 972 1038 1006 884 
Q 1059 663 1231 536 
Q 1403 409 1656 409 
Q 1909 409 2131 539 
Q 2353 669 2445 892 
Q 2538 1116 2538 1541 
L 2538 3319 
L 3100 3319 
L 3100 0 
L 2597 0 
z
" id="ArialMT-75" transform="scale(0.015625)"/>
       <path d="M 197 991 
L 753 1078 
Q 800 744 1014 566 
Q 1228 388 1613 388 
Q 2000 388 2187 545 
Q 2375 703 2375 916 
Q 2375 1106 2209 1216 
Q 2094 1291 1634 1406 
Q 1016 1563 777 1677 
Q 538 1791 414 1992 
Q 291 2194 291 2438 
Q 291 2659 392 2848 
Q 494 3038 669 3163 
Q 800 3259 1026 3326 
Q 1253 3394 1513 3394 
Q 1903 3394 2198 3281 
Q 2494 3169 2634 2976 
Q 2775 2784 2828 2463 
L 2278 2388 
Q 2241 2644 2061 2787 
Q 1881 2931 1553 2931 
Q 1166 2931 1000 2803 
Q 834 2675 834 2503 
Q 834 2394 903 2306 
Q 972 2216 1119 2156 
Q 1203 2125 1616 2013 
Q 2213 1853 2448 1751 
Q 2684 1650 2818 1456 
Q 2953 1263 2953 975 
Q 2953 694 2789 445 
Q 2625 197 2315 61 
Q 2006 -75 1616 -75 
Q 969 -75 630 194 
Q 291 463 197 991 
z
" id="ArialMT-73" transform="scale(0.015625)"/>
       <path d="M 494 0 
L 494 4581 
L 2222 4581 
Q 2678 4581 2919 4538 
Q 3256 4481 3484 4323 
Q 3713 4166 3852 3881 
Q 3991 3597 3991 3256 
Q 3991 2672 3619 2267 
Q 3247 1863 2275 1863 
L 1100 1863 
L 1100 0 
L 494 0 
z
M 1100 2403 
L 2284 2403 
Q 2872 2403 3119 2622 
Q 3366 2841 3366 3238 
Q 3366 3525 3220 3729 
Q 3075 3934 2838 4000 
Q 2684 4041 2272 4041 
L 1100 4041 
L 1100 2403 
z
" id="ArialMT-50" transform="scale(0.015625)"/>
      </defs>
      <use xlink:href="#ArialMT-4d"/>
      <use x="83.300781" xlink:href="#ArialMT-6f"/>
      <use x="138.916016" xlink:href="#ArialMT-64"/>
      <use x="194.53125" xlink:href="#ArialMT-75"/>
      <use x="250.146484" xlink:href="#ArialMT-6c"/>
      <use x="272.363281" xlink:href="#ArialMT-75"/>
      <use x="327.978516" xlink:href="#ArialMT-73"/>
      <use x="377.978516" xlink:href="#ArialMT-20"/>
      <use x="405.761719" xlink:href="#ArialMT-28"/>
      <use x="439.0625" xlink:href="#ArialMT-50"/>
      <use x="505.761719" xlink:href="#ArialMT-61"/>
      <use x="561.376953" xlink:href="#ArialMT-29"/>
     </g>
    </g>
   </g>
   <g id="PathCollection_1">
    <defs>
     <path d="M 0 3 
C 0.795609 3 1.55874 2.683901 2.12132 2.12132 
C 2.683901 1.55874 3 0.795609 3 -0 
C 3 -0.795609 2.683901 -1.55874 2.12132 -2.12132 
C 1.55874 -2.683901 0.795609 -3 0 -3 
C -0.795609 -3 -1.55874 -2.683901 -2.12132 -2.12132 
C -2.683901 -1.55874 -3 -0.795609 -3 0 
C -3 0.795609 -2.683901 1.55874 -2.12132 2.12132 
C -1.55874 2.683901 -0.795609 3 0 3 
z
" id="C0_0_21bbad10b1"/>
    </defs>
    <g clip-path="url(#pefa05f7f8f)">
     <use style="fill:#4c72b0;stroke:#ffffff;stroke-width:0.48;" x="556.144419" xlink:href="#C0_0_21bbad10b1" y="142.811832"/>
    </g>
    <g clip-path="url(#pefa05f7f8f)">
     <use style="fill:#4c72b0;stroke:#ffffff;stroke-width:0.48;" x="556.144419" xlink:href="#C0_0_21bbad10b1" y="192.890995"/>
    </g>
    <g clip-path="url(#pefa05f7f8f)">
     <use style="fill:#4c72b0;stroke:#ffffff;stroke-width:0.48;" x="556.144419" xlink:href="#C0_0_21bbad10b1" y="151.34841"/>
    </g>
    <g clip-path="url(#pefa05f7f8f)">
     <use style="fill:#4c72b0;stroke:#ffffff;stroke-width:0.48;" x="556.144419" xlink:href="#C0_0_21bbad10b1" y="232.374614"/>
    </g>
    <g clip-path="url(#pefa05f7f8f)">
     <use style="fill:#4c72b0;stroke:#ffffff;stroke-width:0.48;" x="556.144419" xlink:href="#C0_0_21bbad10b1" y="257.964917"/>
    </g>
    <g clip-path="url(#pefa05f7f8f)">
     <use style="fill:#4c72b0;stroke:#ffffff;stroke-width:0.48;" x="556.144419" xlink:href="#C0_0_21bbad10b1" y="156.637619"/>
    </g>
    <g clip-path="url(#pefa05f7f8f)">
     <use style="fill:#4c72b0;stroke:#ffffff;stroke-width:0.48;" x="556.144419" xlink:href="#C0_0_21bbad10b1" y="164.71339"/>
    </g>
    <g clip-path="url(#pefa05f7f8f)">
     <use style="fill:#4c72b0;stroke:#ffffff;stroke-width:0.48;" x="556.144419" xlink:href="#C0_0_21bbad10b1" y="161.89312"/>
    </g>
    <g clip-path="url(#pefa05f7f8f)">
     <use style="fill:#dd8452;stroke:#ffffff;stroke-width:0.48;" x="458.183773" xlink:href="#C0_0_21bbad10b1" y="47.542148"/>
    </g>
    <g clip-path="url(#pefa05f7f8f)">
     <use style="fill:#dd8452;stroke:#ffffff;stroke-width:0.48;" x="458.183773" xlink:href="#C0_0_21bbad10b1" y="41.780824"/>
    </g>
    <g clip-path="url(#pefa05f7f8f)">
     <use style="fill:#dd8452;stroke:#ffffff;stroke-width:0.48;" x="458.183773" xlink:href="#C0_0_21bbad10b1" y="45.023696"/>
    </g>
    <g clip-path="url(#pefa05f7f8f)">
     <use style="fill:#dd8452;stroke:#ffffff;stroke-width:0.48;" x="458.183773" xlink:href="#C0_0_21bbad10b1" y="42.093328"/>
    </g>
    <g clip-path="url(#pefa05f7f8f)">
     <use style="fill:#55a868;stroke:#ffffff;stroke-width:0.48;" x="117.665309" xlink:href="#C0_0_21bbad10b1" y="352.833233"/>
    </g>
    <g clip-path="url(#pefa05f7f8f)">
     <use style="fill:#55a868;stroke:#ffffff;stroke-width:0.48;" x="117.665309" xlink:href="#C0_0_21bbad10b1" y="358.752247"/>
    </g>
    <g clip-path="url(#pefa05f7f8f)">
     <use style="fill:#55a868;stroke:#ffffff;stroke-width:0.48;" x="117.665309" xlink:href="#C0_0_21bbad10b1" y="357.665965"/>
    </g>
    <g clip-path="url(#pefa05f7f8f)">
     <use style="fill:#55a868;stroke:#ffffff;stroke-width:0.48;" x="117.665309" xlink:href="#C0_0_21bbad10b1" y="359.219581"/>
    </g>
    <g clip-path="url(#pefa05f7f8f)">
     <use style="fill:#55a868;stroke:#ffffff;stroke-width:0.48;" x="117.665309" xlink:href="#C0_0_21bbad10b1" y="380.447301"/>
    </g>
    <g clip-path="url(#pefa05f7f8f)">
     <use style="fill:#55a868;stroke:#ffffff;stroke-width:0.48;" x="117.665309" xlink:href="#C0_0_21bbad10b1" y="355.766059"/>
    </g>
    <g clip-path="url(#pefa05f7f8f)">
     <use style="fill:#c44e52;stroke:#ffffff;stroke-width:0.48;" x="600.02294" xlink:href="#C0_0_21bbad10b1" y="185.248879"/>
    </g>
    <g clip-path="url(#pefa05f7f8f)">
     <use style="fill:#c44e52;stroke:#ffffff;stroke-width:0.48;" x="600.02294" xlink:href="#C0_0_21bbad10b1" y="183.866683"/>
    </g>
    <g clip-path="url(#pefa05f7f8f)">
     <use style="fill:#c44e52;stroke:#ffffff;stroke-width:0.48;" x="600.02294" xlink:href="#C0_0_21bbad10b1" y="186.296734"/>
    </g>
    <g clip-path="url(#pefa05f7f8f)">
     <use style="fill:#c44e52;stroke:#ffffff;stroke-width:0.48;" x="600.02294" xlink:href="#C0_0_21bbad10b1" y="192.449173"/>
    </g>
    <g clip-path="url(#pefa05f7f8f)">
     <use style="fill:#c44e52;stroke:#ffffff;stroke-width:0.48;" x="600.02294" xlink:href="#C0_0_21bbad10b1" y="184.518285"/>
    </g>
    <g clip-path="url(#pefa05f7f8f)">
     <use style="fill:#8172b3;stroke:#ffffff;stroke-width:0.48;" x="142.076269" xlink:href="#C0_0_21bbad10b1" y="309.981522"/>
    </g>
    <g clip-path="url(#pefa05f7f8f)">
     <use style="fill:#8172b3;stroke:#ffffff;stroke-width:0.48;" x="142.076269" xlink:href="#C0_0_21bbad10b1" y="290.982459"/>
    </g>
    <g clip-path="url(#pefa05f7f8f)">
     <use style="fill:#8172b3;stroke:#ffffff;stroke-width:0.48;" x="142.076269" xlink:href="#C0_0_21bbad10b1" y="294.9748"/>
    </g>
    <g clip-path="url(#pefa05f7f8f)">
     <use style="fill:#8172b3;stroke:#ffffff;stroke-width:0.48;" x="142.076269" xlink:href="#C0_0_21bbad10b1" y="306.76648"/>
    </g>
    <g clip-path="url(#pefa05f7f8f)">
     <use style="fill:#937860;stroke:#ffffff;stroke-width:0.48;" x="352.666018" xlink:href="#C0_0_21bbad10b1" y="151.794463"/>
    </g>
    <g clip-path="url(#pefa05f7f8f)">
     <use style="fill:#937860;stroke:#ffffff;stroke-width:0.48;" x="352.666018" xlink:href="#C0_0_21bbad10b1" y="189.544346"/>
    </g>
    <g clip-path="url(#pefa05f7f8f)">
     <use style="fill:#937860;stroke:#ffffff;stroke-width:0.48;" x="352.666018" xlink:href="#C0_0_21bbad10b1" y="195.252596"/>
    </g>
    <g clip-path="url(#pefa05f7f8f)">
     <use style="fill:#937860;stroke:#ffffff;stroke-width:0.48;" x="352.666018" xlink:href="#C0_0_21bbad10b1" y="194.775255"/>
    </g>
    <g clip-path="url(#pefa05f7f8f)">
     <use style="fill:#937860;stroke:#ffffff;stroke-width:0.48;" x="352.666018" xlink:href="#C0_0_21bbad10b1" y="169.168954"/>
    </g>
    <g clip-path="url(#pefa05f7f8f)">
     <use style="fill:#da8bc3;stroke:#ffffff;stroke-width:0.48;" x="75.459426" xlink:href="#C0_0_21bbad10b1" y="263.023563"/>
    </g>
    <g clip-path="url(#pefa05f7f8f)">
     <use style="fill:#da8bc3;stroke:#ffffff;stroke-width:0.48;" x="75.459426" xlink:href="#C0_0_21bbad10b1" y="250.776833"/>
    </g>
    <g clip-path="url(#pefa05f7f8f)">
     <use style="fill:#da8bc3;stroke:#ffffff;stroke-width:0.48;" x="75.459426" xlink:href="#C0_0_21bbad10b1" y="253.868714"/>
    </g>
    <g clip-path="url(#pefa05f7f8f)">
     <use style="fill:#da8bc3;stroke:#ffffff;stroke-width:0.48;" x="75.459426" xlink:href="#C0_0_21bbad10b1" y="253.883523"/>
    </g>
    <g clip-path="url(#pefa05f7f8f)">
     <use style="fill:#da8bc3;stroke:#ffffff;stroke-width:0.48;" x="75.459426" xlink:href="#C0_0_21bbad10b1" y="254.11461"/>
    </g>
    <g clip-path="url(#pefa05f7f8f)">
     <use style="fill:#da8bc3;stroke:#ffffff;stroke-width:0.48;" x="75.459426" xlink:href="#C0_0_21bbad10b1" y="271.243277"/>
    </g>
    <g clip-path="url(#pefa05f7f8f)">
     <use style="fill:#8c8c8c;stroke:#ffffff;stroke-width:0.48;" x="209.341374" xlink:href="#C0_0_21bbad10b1" y="210.952802"/>
    </g>
    <g clip-path="url(#pefa05f7f8f)">
     <use style="fill:#8c8c8c;stroke:#ffffff;stroke-width:0.48;" x="209.341374" xlink:href="#C0_0_21bbad10b1" y="212.96883"/>
    </g>
    <g clip-path="url(#pefa05f7f8f)">
     <use style="fill:#8c8c8c;stroke:#ffffff;stroke-width:0.48;" x="209.341374" xlink:href="#C0_0_21bbad10b1" y="211.2648"/>
    </g>
    <g clip-path="url(#pefa05f7f8f)">
     <use style="fill:#8c8c8c;stroke:#ffffff;stroke-width:0.48;" x="209.341374" xlink:href="#C0_0_21bbad10b1" y="234.431799"/>
    </g>
    <g clip-path="url(#pefa05f7f8f)">
     <use style="fill:#8c8c8c;stroke:#ffffff;stroke-width:0.48;" x="209.341374" xlink:href="#C0_0_21bbad10b1" y="213.302014"/>
    </g>
    <g clip-path="url(#pefa05f7f8f)">
     <use style="fill:#8c8c8c;stroke:#ffffff;stroke-width:0.48;" x="209.341374" xlink:href="#C0_0_21bbad10b1" y="216.532532"/>
    </g>
    <g clip-path="url(#pefa05f7f8f)">
     <use style="fill:#8c8c8c;stroke:#ffffff;stroke-width:0.48;" x="209.341374" xlink:href="#C0_0_21bbad10b1" y="215.60932"/>
    </g>
    <g clip-path="url(#pefa05f7f8f)">
     <use style="fill:#8c8c8c;stroke:#ffffff;stroke-width:0.48;" x="209.341374" xlink:href="#C0_0_21bbad10b1" y="267.670632"/>
    </g>
    <g clip-path="url(#pefa05f7f8f)">
     <use style="fill:#8c8c8c;stroke:#ffffff;stroke-width:0.48;" x="209.341374" xlink:href="#C0_0_21bbad10b1" y="271.673098"/>
    </g>
    <g clip-path="url(#pefa05f7f8f)">
     <use style="fill:#8c8c8c;stroke:#ffffff;stroke-width:0.48;" x="209.341374" xlink:href="#C0_0_21bbad10b1" y="266.690048"/>
    </g>
    <g clip-path="url(#pefa05f7f8f)">
     <use style="fill:#ccb974;stroke:#ffffff;stroke-width:0.48;" x="181.09974" xlink:href="#C0_0_21bbad10b1" y="217.958638"/>
    </g>
    <g clip-path="url(#pefa05f7f8f)">
     <use style="fill:#ccb974;stroke:#ffffff;stroke-width:0.48;" x="181.09974" xlink:href="#C0_0_21bbad10b1" y="221.650228"/>
    </g>
    <g clip-path="url(#pefa05f7f8f)">
     <use style="fill:#ccb974;stroke:#ffffff;stroke-width:0.48;" x="181.09974" xlink:href="#C0_0_21bbad10b1" y="220.987778"/>
    </g>
    <g clip-path="url(#pefa05f7f8f)">
     <use style="fill:#ccb974;stroke:#ffffff;stroke-width:0.48;" x="181.09974" xlink:href="#C0_0_21bbad10b1" y="213.920565"/>
    </g>
    <g clip-path="url(#pefa05f7f8f)">
     <use style="fill:#ccb974;stroke:#ffffff;stroke-width:0.48;" x="181.09974" xlink:href="#C0_0_21bbad10b1" y="220.946669"/>
    </g>
    <g clip-path="url(#pefa05f7f8f)">
     <use style="fill:#ccb974;stroke:#ffffff;stroke-width:0.48;" x="181.09974" xlink:href="#C0_0_21bbad10b1" y="223.844453"/>
    </g>
    <g clip-path="url(#pefa05f7f8f)">
     <use style="fill:#ccb974;stroke:#ffffff;stroke-width:0.48;" x="181.09974" xlink:href="#C0_0_21bbad10b1" y="220.491466"/>
    </g>
    <g clip-path="url(#pefa05f7f8f)">
     <use style="fill:#ccb974;stroke:#ffffff;stroke-width:0.48;" x="181.09974" xlink:href="#C0_0_21bbad10b1" y="219.034985"/>
    </g>
    <g clip-path="url(#pefa05f7f8f)">
     <use style="fill:#64b5cd;stroke:#ffffff;stroke-width:0.48;" x="143.860548" xlink:href="#C0_0_21bbad10b1" y="262.792257"/>
    </g>
    <g clip-path="url(#pefa05f7f8f)">
     <use style="fill:#64b5cd;stroke:#ffffff;stroke-width:0.48;" x="143.860548" xlink:href="#C0_0_21bbad10b1" y="209.931486"/>
    </g>
    <g clip-path="url(#pefa05f7f8f)">
     <use style="fill:#64b5cd;stroke:#ffffff;stroke-width:0.48;" x="143.860548" xlink:href="#C0_0_21bbad10b1" y="216.174175"/>
    </g>
    <g clip-path="url(#pefa05f7f8f)">
     <use style="fill:#64b5cd;stroke:#ffffff;stroke-width:0.48;" x="143.860548" xlink:href="#C0_0_21bbad10b1" y="194.864481"/>
    </g>
    <g clip-path="url(#pefa05f7f8f)">
     <use style="fill:#64b5cd;stroke:#ffffff;stroke-width:0.48;" x="143.860548" xlink:href="#C0_0_21bbad10b1" y="195.50321"/>
    </g>
    <g clip-path="url(#pefa05f7f8f)">
     <use style="fill:#64b5cd;stroke:#ffffff;stroke-width:0.48;" x="143.860548" xlink:href="#C0_0_21bbad10b1" y="225.562146"/>
    </g>
    <g clip-path="url(#pefa05f7f8f)">
     <use style="fill:#64b5cd;stroke:#ffffff;stroke-width:0.48;" x="143.860548" xlink:href="#C0_0_21bbad10b1" y="291.898449"/>
    </g>
    <g clip-path="url(#pefa05f7f8f)">
     <use style="fill:#64b5cd;stroke:#ffffff;stroke-width:0.48;" x="143.860548" xlink:href="#C0_0_21bbad10b1" y="272.215981"/>
    </g>
   </g>
   <g id="PathCollection_2"/>
   <g id="PathCollection_3"/>
   <g id="PathCollection_4"/>
   <g id="PathCollection_5"/>
   <g id="PathCollection_6"/>
   <g id="PathCollection_7"/>
   <g id="PathCollection_8"/>
   <g id="PathCollection_9"/>
   <g id="PathCollection_10"/>
   <g id="PathCollection_11"/>
   <g id="patch_3">
    <path d="M 49.23125 397.380625 
L 49.23125 24.8475 
" style="fill:none;stroke:#ffffff;stroke-linecap:square;stroke-linejoin:miter;stroke-width:1.25;"/>
   </g>
   <g id="patch_4">
    <path d="M 626.251116 397.380625 
L 626.251116 24.8475 
" style="fill:none;stroke:#ffffff;stroke-linecap:square;stroke-linejoin:miter;stroke-width:1.25;"/>
   </g>
   <g id="patch_5">
    <path d="M 49.23125 397.380625 
L 626.251116 397.380625 
" style="fill:none;stroke:#ffffff;stroke-linecap:square;stroke-linejoin:miter;stroke-width:1.25;"/>
   </g>
   <g id="patch_6">
    <path d="M 49.23125 24.8475 
L 626.251116 24.8475 
" style="fill:none;stroke:#ffffff;stroke-linecap:square;stroke-linejoin:miter;stroke-width:1.25;"/>
   </g>
   <g id="text_13">
    <!-- Modulus vs Average CNT Diameter -->
    <g style="fill:#262626;" transform="translate(212.647433 18.8475)scale(0.16 -0.16)">
     <use xlink:href="#ArialMT-4d"/>
     <use x="83.300781" xlink:href="#ArialMT-6f"/>
     <use x="138.916016" xlink:href="#ArialMT-64"/>
     <use x="194.53125" xlink:href="#ArialMT-75"/>
     <use x="250.146484" xlink:href="#ArialMT-6c"/>
     <use x="272.363281" xlink:href="#ArialMT-75"/>
     <use x="327.978516" xlink:href="#ArialMT-73"/>
     <use x="377.978516" xlink:href="#ArialMT-20"/>
     <use x="405.761719" xlink:href="#ArialMT-76"/>
     <use x="455.761719" xlink:href="#ArialMT-73"/>
     <use x="505.761719" xlink:href="#ArialMT-20"/>
     <use x="528.044922" xlink:href="#ArialMT-41"/>
     <use x="592.994141" xlink:href="#ArialMT-76"/>
     <use x="642.994141" xlink:href="#ArialMT-65"/>
     <use x="698.609375" xlink:href="#ArialMT-72"/>
     <use x="731.910156" xlink:href="#ArialMT-61"/>
     <use x="787.525391" xlink:href="#ArialMT-67"/>
     <use x="843.140625" xlink:href="#ArialMT-65"/>
     <use x="898.755859" xlink:href="#ArialMT-20"/>
     <use x="926.539062" xlink:href="#ArialMT-43"/>
     <use x="998.755859" xlink:href="#ArialMT-4e"/>
     <use x="1070.972656" xlink:href="#ArialMT-54"/>
     <use x="1130.306641" xlink:href="#ArialMT-20"/>
     <use x="1158.089844" xlink:href="#ArialMT-44"/>
     <use x="1230.306641" xlink:href="#ArialMT-69"/>
     <use x="1252.523438" xlink:href="#ArialMT-61"/>
     <use x="1308.138672" xlink:href="#ArialMT-6d"/>
     <use x="1391.439453" xlink:href="#ArialMT-65"/>
     <use x="1447.054688" xlink:href="#ArialMT-74"/>
     <use x="1474.837891" xlink:href="#ArialMT-65"/>
     <use x="1530.453125" xlink:href="#ArialMT-72"/>
    </g>
   </g>
   <g id="legend_1">
    <g id="patch_7">
     <path d="M 634.221314 183.745937 
L 699.379127 183.745937 
Q 701.579127 183.745937 701.579127 181.545937 
L 701.579127 27.0475 
Q 701.579127 24.8475 699.379127 24.8475 
L 634.221314 24.8475 
Q 632.021314 24.8475 632.021314 27.0475 
L 632.021314 181.545937 
Q 632.021314 183.745937 634.221314 183.745937 
z
" style="fill:#eaeaf2;opacity:0.8;stroke:#cccccc;stroke-linejoin:miter;"/>
    </g>
    <g id="PathCollection_12">
     <defs>
      <path d="M 0 3 
C 0.795609 3 1.55874 2.683901 2.12132 2.12132 
C 2.683901 1.55874 3 0.795609 3 0 
C 3 -0.795609 2.683901 -1.55874 2.12132 -2.12132 
C 1.55874 -2.683901 0.795609 -3 0 -3 
C -0.795609 -3 -1.55874 -2.683901 -2.12132 -2.12132 
C -2.683901 -1.55874 -3 -0.795609 -3 0 
C -3 0.795609 -2.683901 1.55874 -2.12132 2.12132 
C -1.55874 2.683901 -0.795609 3 0 3 
z
" id="m47fe0be475" style="stroke:#4c72b0;"/>
     </defs>
     <g>
      <use style="fill:#4c72b0;stroke:#4c72b0;" x="647.421314" xlink:href="#m47fe0be475" y="34.233594"/>
     </g>
    </g>
    <g id="text_14">
     <!-- 188-I -->
     <g style="fill:#262626;" transform="translate(667.221314 37.121094)scale(0.11 -0.11)">
      <defs>
       <path d="M 203 1375 
L 203 1941 
L 1931 1941 
L 1931 1375 
L 203 1375 
z
" id="ArialMT-2d" transform="scale(0.015625)"/>
       <path d="M 597 0 
L 597 4581 
L 1203 4581 
L 1203 0 
L 597 0 
z
" id="ArialMT-49" transform="scale(0.015625)"/>
      </defs>
      <use xlink:href="#ArialMT-31"/>
      <use x="55.615234" xlink:href="#ArialMT-38"/>
      <use x="111.230469" xlink:href="#ArialMT-38"/>
      <use x="166.845703" xlink:href="#ArialMT-2d"/>
      <use x="200.146484" xlink:href="#ArialMT-49"/>
     </g>
    </g>
    <g id="PathCollection_13">
     <defs>
      <path d="M 0 3 
C 0.795609 3 1.55874 2.683901 2.12132 2.12132 
C 2.683901 1.55874 3 0.795609 3 0 
C 3 -0.795609 2.683901 -1.55874 2.12132 -2.12132 
C 1.55874 -2.683901 0.795609 -3 0 -3 
C -0.795609 -3 -1.55874 -2.683901 -2.12132 -2.12132 
C -2.683901 -1.55874 -3 -0.795609 -3 0 
C -3 0.795609 -2.683901 1.55874 -2.12132 2.12132 
C -1.55874 2.683901 -0.795609 3 0 3 
z
" id="m894d657601" style="stroke:#dd8452;"/>
     </defs>
     <g>
      <use style="fill:#dd8452;stroke:#dd8452;" x="647.421314" xlink:href="#m894d657601" y="49.793437"/>
     </g>
    </g>
    <g id="text_15">
     <!-- 190-I -->
     <g style="fill:#262626;" transform="translate(667.221314 52.680937)scale(0.11 -0.11)">
      <use xlink:href="#ArialMT-31"/>
      <use x="55.615234" xlink:href="#ArialMT-39"/>
      <use x="111.230469" xlink:href="#ArialMT-30"/>
      <use x="166.845703" xlink:href="#ArialMT-2d"/>
      <use x="200.146484" xlink:href="#ArialMT-49"/>
     </g>
    </g>
    <g id="PathCollection_14">
     <defs>
      <path d="M 0 3 
C 0.795609 3 1.55874 2.683901 2.12132 2.12132 
C 2.683901 1.55874 3 0.795609 3 0 
C 3 -0.795609 2.683901 -1.55874 2.12132 -2.12132 
C 1.55874 -2.683901 0.795609 -3 0 -3 
C -0.795609 -3 -1.55874 -2.683901 -2.12132 -2.12132 
C -2.683901 -1.55874 -3 -0.795609 -3 0 
C -3 0.795609 -2.683901 1.55874 -2.12132 2.12132 
C -1.55874 2.683901 -0.795609 3 0 3 
z
" id="m2cc97b3247" style="stroke:#55a868;"/>
     </defs>
     <g>
      <use style="fill:#55a868;stroke:#55a868;" x="647.421314" xlink:href="#m2cc97b3247" y="65.353281"/>
     </g>
    </g>
    <g id="text_16">
     <!-- 194-U -->
     <g style="fill:#262626;" transform="translate(667.221314 68.240781)scale(0.11 -0.11)">
      <defs>
       <path d="M 2069 0 
L 2069 1097 
L 81 1097 
L 81 1613 
L 2172 4581 
L 2631 4581 
L 2631 1613 
L 3250 1613 
L 3250 1097 
L 2631 1097 
L 2631 0 
L 2069 0 
z
M 2069 1613 
L 2069 3678 
L 634 1613 
L 2069 1613 
z
" id="ArialMT-34" transform="scale(0.015625)"/>
       <path d="M 3500 4581 
L 4106 4581 
L 4106 1934 
Q 4106 1244 3950 837 
Q 3794 431 3386 176 
Q 2978 -78 2316 -78 
Q 1672 -78 1262 144 
Q 853 366 678 786 
Q 503 1206 503 1934 
L 503 4581 
L 1109 4581 
L 1109 1938 
Q 1109 1341 1220 1058 
Q 1331 775 1601 622 
Q 1872 469 2263 469 
Q 2931 469 3215 772 
Q 3500 1075 3500 1938 
L 3500 4581 
z
" id="ArialMT-55" transform="scale(0.015625)"/>
      </defs>
      <use xlink:href="#ArialMT-31"/>
      <use x="55.615234" xlink:href="#ArialMT-39"/>
      <use x="111.230469" xlink:href="#ArialMT-34"/>
      <use x="166.845703" xlink:href="#ArialMT-2d"/>
      <use x="200.146484" xlink:href="#ArialMT-55"/>
     </g>
    </g>
    <g id="PathCollection_15">
     <defs>
      <path d="M 0 3 
C 0.795609 3 1.55874 2.683901 2.12132 2.12132 
C 2.683901 1.55874 3 0.795609 3 0 
C 3 -0.795609 2.683901 -1.55874 2.12132 -2.12132 
C 1.55874 -2.683901 0.795609 -3 0 -3 
C -0.795609 -3 -1.55874 -2.683901 -2.12132 -2.12132 
C -2.683901 -1.55874 -3 -0.795609 -3 0 
C -3 0.795609 -2.683901 1.55874 -2.12132 2.12132 
C -1.55874 2.683901 -0.795609 3 0 3 
z
" id="m6dce8b84ee" style="stroke:#c44e52;"/>
     </defs>
     <g>
      <use style="fill:#c44e52;stroke:#c44e52;" x="647.421314" xlink:href="#m6dce8b84ee" y="80.913125"/>
     </g>
    </g>
    <g id="text_17">
     <!-- 195-I -->
     <g style="fill:#262626;" transform="translate(667.221314 83.800625)scale(0.11 -0.11)">
      <use xlink:href="#ArialMT-31"/>
      <use x="55.615234" xlink:href="#ArialMT-39"/>
      <use x="111.230469" xlink:href="#ArialMT-35"/>
      <use x="166.845703" xlink:href="#ArialMT-2d"/>
      <use x="200.146484" xlink:href="#ArialMT-49"/>
     </g>
    </g>
    <g id="PathCollection_16">
     <defs>
      <path d="M 0 3 
C 0.795609 3 1.55874 2.683901 2.12132 2.12132 
C 2.683901 1.55874 3 0.795609 3 0 
C 3 -0.795609 2.683901 -1.55874 2.12132 -2.12132 
C 1.55874 -2.683901 0.795609 -3 0 -3 
C -0.795609 -3 -1.55874 -2.683901 -2.12132 -2.12132 
C -2.683901 -1.55874 -3 -0.795609 -3 0 
C -3 0.795609 -2.683901 1.55874 -2.12132 2.12132 
C -1.55874 2.683901 -0.795609 3 0 3 
z
" id="mda0421d49b" style="stroke:#8172b3;"/>
     </defs>
     <g>
      <use style="fill:#8172b3;stroke:#8172b3;" x="647.421314" xlink:href="#mda0421d49b" y="96.472969"/>
     </g>
    </g>
    <g id="text_18">
     <!-- 198-U -->
     <g style="fill:#262626;" transform="translate(667.221314 99.360469)scale(0.11 -0.11)">
      <use xlink:href="#ArialMT-31"/>
      <use x="55.615234" xlink:href="#ArialMT-39"/>
      <use x="111.230469" xlink:href="#ArialMT-38"/>
      <use x="166.845703" xlink:href="#ArialMT-2d"/>
      <use x="200.146484" xlink:href="#ArialMT-55"/>
     </g>
    </g>
    <g id="PathCollection_17">
     <defs>
      <path d="M 0 3 
C 0.795609 3 1.55874 2.683901 2.12132 2.12132 
C 2.683901 1.55874 3 0.795609 3 0 
C 3 -0.795609 2.683901 -1.55874 2.12132 -2.12132 
C 1.55874 -2.683901 0.795609 -3 0 -3 
C -0.795609 -3 -1.55874 -2.683901 -2.12132 -2.12132 
C -2.683901 -1.55874 -3 -0.795609 -3 0 
C -3 0.795609 -2.683901 1.55874 -2.12132 2.12132 
C -1.55874 2.683901 -0.795609 3 0 3 
z
" id="mbe22f3f922" style="stroke:#937860;"/>
     </defs>
     <g>
      <use style="fill:#937860;stroke:#937860;" x="647.421314" xlink:href="#mbe22f3f922" y="112.032812"/>
     </g>
    </g>
    <g id="text_19">
     <!-- 199-I -->
     <g style="fill:#262626;" transform="translate(667.221314 114.920312)scale(0.11 -0.11)">
      <use xlink:href="#ArialMT-31"/>
      <use x="55.615234" xlink:href="#ArialMT-39"/>
      <use x="111.230469" xlink:href="#ArialMT-39"/>
      <use x="166.845703" xlink:href="#ArialMT-2d"/>
      <use x="200.146484" xlink:href="#ArialMT-49"/>
     </g>
    </g>
    <g id="PathCollection_18">
     <defs>
      <path d="M 0 3 
C 0.795609 3 1.55874 2.683901 2.12132 2.12132 
C 2.683901 1.55874 3 0.795609 3 0 
C 3 -0.795609 2.683901 -1.55874 2.12132 -2.12132 
C 1.55874 -2.683901 0.795609 -3 0 -3 
C -0.795609 -3 -1.55874 -2.683901 -2.12132 -2.12132 
C -2.683901 -1.55874 -3 -0.795609 -3 0 
C -3 0.795609 -2.683901 1.55874 -2.12132 2.12132 
C -1.55874 2.683901 -0.795609 3 0 3 
z
" id="mf643694d58" style="stroke:#da8bc3;"/>
     </defs>
     <g>
      <use style="fill:#da8bc3;stroke:#da8bc3;" x="647.421314" xlink:href="#mf643694d58" y="127.592656"/>
     </g>
    </g>
    <g id="text_20">
     <!-- 200-U -->
     <g style="fill:#262626;" transform="translate(667.221314 130.480156)scale(0.11 -0.11)">
      <use xlink:href="#ArialMT-32"/>
      <use x="55.615234" xlink:href="#ArialMT-30"/>
      <use x="111.230469" xlink:href="#ArialMT-30"/>
      <use x="166.845703" xlink:href="#ArialMT-2d"/>
      <use x="200.146484" xlink:href="#ArialMT-55"/>
     </g>
    </g>
    <g id="PathCollection_19">
     <defs>
      <path d="M 0 3 
C 0.795609 3 1.55874 2.683901 2.12132 2.12132 
C 2.683901 1.55874 3 0.795609 3 0 
C 3 -0.795609 2.683901 -1.55874 2.12132 -2.12132 
C 1.55874 -2.683901 0.795609 -3 0 -3 
C -0.795609 -3 -1.55874 -2.683901 -2.12132 -2.12132 
C -2.683901 -1.55874 -3 -0.795609 -3 0 
C -3 0.795609 -2.683901 1.55874 -2.12132 2.12132 
C -1.55874 2.683901 -0.795609 3 0 3 
z
" id="mcd953c3917" style="stroke:#8c8c8c;"/>
     </defs>
     <g>
      <use style="fill:#8c8c8c;stroke:#8c8c8c;" x="647.421314" xlink:href="#mcd953c3917" y="143.1525"/>
     </g>
    </g>
    <g id="text_21">
     <!-- 201-I -->
     <g style="fill:#262626;" transform="translate(667.221314 146.04)scale(0.11 -0.11)">
      <use xlink:href="#ArialMT-32"/>
      <use x="55.615234" xlink:href="#ArialMT-30"/>
      <use x="111.230469" xlink:href="#ArialMT-31"/>
      <use x="166.845703" xlink:href="#ArialMT-2d"/>
      <use x="200.146484" xlink:href="#ArialMT-49"/>
     </g>
    </g>
    <g id="PathCollection_20">
     <defs>
      <path d="M 0 3 
C 0.795609 3 1.55874 2.683901 2.12132 2.12132 
C 2.683901 1.55874 3 0.795609 3 0 
C 3 -0.795609 2.683901 -1.55874 2.12132 -2.12132 
C 1.55874 -2.683901 0.795609 -3 0 -3 
C -0.795609 -3 -1.55874 -2.683901 -2.12132 -2.12132 
C -2.683901 -1.55874 -3 -0.795609 -3 0 
C -3 0.795609 -2.683901 1.55874 -2.12132 2.12132 
C -1.55874 2.683901 -0.795609 3 0 3 
z
" id="md8b26fbb0e" style="stroke:#ccb974;"/>
     </defs>
     <g>
      <use style="fill:#ccb974;stroke:#ccb974;" x="647.421314" xlink:href="#md8b26fbb0e" y="158.712344"/>
     </g>
    </g>
    <g id="text_22">
     <!-- 202-I -->
     <g style="fill:#262626;" transform="translate(667.221314 161.599844)scale(0.11 -0.11)">
      <use xlink:href="#ArialMT-32"/>
      <use x="55.615234" xlink:href="#ArialMT-30"/>
      <use x="111.230469" xlink:href="#ArialMT-32"/>
      <use x="166.845703" xlink:href="#ArialMT-2d"/>
      <use x="200.146484" xlink:href="#ArialMT-49"/>
     </g>
    </g>
    <g id="PathCollection_21">
     <defs>
      <path d="M 0 3 
C 0.795609 3 1.55874 2.683901 2.12132 2.12132 
C 2.683901 1.55874 3 0.795609 3 0 
C 3 -0.795609 2.683901 -1.55874 2.12132 -2.12132 
C 1.55874 -2.683901 0.795609 -3 0 -3 
C -0.795609 -3 -1.55874 -2.683901 -2.12132 -2.12132 
C -2.683901 -1.55874 -3 -0.795609 -3 0 
C -3 0.795609 -2.683901 1.55874 -2.12132 2.12132 
C -1.55874 2.683901 -0.795609 3 0 3 
z
" id="mf00b6e6932" style="stroke:#64b5cd;"/>
     </defs>
     <g>
      <use style="fill:#64b5cd;stroke:#64b5cd;" x="647.421314" xlink:href="#mf00b6e6932" y="174.272187"/>
     </g>
    </g>
    <g id="text_23">
     <!-- 203-I -->
     <g style="fill:#262626;" transform="translate(667.221314 177.159687)scale(0.11 -0.11)">
      <defs>
       <path d="M 269 1209 
L 831 1284 
Q 928 806 1161 595 
Q 1394 384 1728 384 
Q 2125 384 2398 659 
Q 2672 934 2672 1341 
Q 2672 1728 2419 1979 
Q 2166 2231 1775 2231 
Q 1616 2231 1378 2169 
L 1441 2663 
Q 1497 2656 1531 2656 
Q 1891 2656 2178 2843 
Q 2466 3031 2466 3422 
Q 2466 3731 2256 3934 
Q 2047 4138 1716 4138 
Q 1388 4138 1169 3931 
Q 950 3725 888 3313 
L 325 3413 
Q 428 3978 793 4289 
Q 1159 4600 1703 4600 
Q 2078 4600 2393 4439 
Q 2709 4278 2876 4000 
Q 3044 3722 3044 3409 
Q 3044 3113 2884 2869 
Q 2725 2625 2413 2481 
Q 2819 2388 3044 2092 
Q 3269 1797 3269 1353 
Q 3269 753 2831 336 
Q 2394 -81 1725 -81 
Q 1122 -81 723 278 
Q 325 638 269 1209 
z
" id="ArialMT-33" transform="scale(0.015625)"/>
      </defs>
      <use xlink:href="#ArialMT-32"/>
      <use x="55.615234" xlink:href="#ArialMT-30"/>
      <use x="111.230469" xlink:href="#ArialMT-33"/>
      <use x="166.845703" xlink:href="#ArialMT-2d"/>
      <use x="200.146484" xlink:href="#ArialMT-49"/>
     </g>
    </g>
   </g>
  </g>
 </g>
 <defs>
  <clipPath id="pefa05f7f8f">
   <rect height="372.533125" width="577.019866" x="49.23125" y="24.8475"/>
  </clipPath>
 </defs>
</svg>
