<?xml version="1.0" encoding="utf-8" standalone="no"?>
<!DOCTYPE svg PUBLIC "-//W3C//DTD SVG 1.1//EN"
  "http://www.w3.org/Graphics/SVG/1.1/DTD/svg11.dtd">
<svg xmlns:xlink="http://www.w3.org/1999/xlink" width="712.211649pt" height="425.264063pt" viewBox="0 0 712.211649 425.264063" xmlns="http://www.w3.org/2000/svg" version="1.1">
 <metadata>
  <rdf:RDF xmlns:dc="http://purl.org/dc/elements/1.1/" xmlns:cc="http://creativecommons.org/ns#" xmlns:rdf="http://www.w3.org/1999/02/22-rdf-syntax-ns#">
   <cc:Work>
    <dc:type rdf:resource="http://purl.org/dc/dcmitype/StillImage"/>
    <dc:date>2023-05-24T22:21:10.623571</dc:date>
    <dc:format>image/svg+xml</dc:format>
    <dc:creator>
     <cc:Agent>
      <dc:title>Matplotlib v3.7.1, https://matplotlib.org/</dc:title>
     </cc:Agent>
    </dc:creator>
   </cc:Work>
  </rdf:RDF>
 </metadata>
 <defs>
  <style type="text/css">*{stroke-linejoin: round; stroke-linecap: butt}</style>
 </defs>
 <g id="figure_1">
  <g id="patch_1">
   <path d="M 0 425.264063 
L 712.211649 425.264063 
L 712.211649 0 
L 0 0 
z
" style="fill: #ffffff"/>
  </g>
  <g id="axes_1">
   <g id="patch_2">
    <path d="M 52.66875 379.15 
L 705.011649 379.15 
L 705.011649 7.2 
L 52.66875 7.2 
z
" style="fill: #ffffff"/>
   </g>
   <g id="matplotlib.axis_1">
    <g id="xtick_1">
     <g id="line2d_1">
      <defs>
       <path id="m6b437b5bbb" d="M 0 0 
L 0 3.5 
" style="stroke: #262626; stroke-width: 0.8"/>
      </defs>
      <g>
       <use xlink:href="#m6b437b5bbb" x="63.932227" y="379.15" style="fill: #262626; stroke: #262626; stroke-width: 0.8"/>
      </g>
     </g>
     <g id="text_1">
      <!-- 5.0 -->
      <g style="fill: #262626" transform="translate(56.982227 393.307813) scale(0.1 -0.1)">
       <defs>
        <path id="ArialMT-35" d="M 266 1200 
L 856 1250 
Q 922 819 1161 601 
Q 1400 384 1738 384 
Q 2144 384 2425 690 
Q 2706 997 2706 1503 
Q 2706 1984 2436 2262 
Q 2166 2541 1728 2541 
Q 1456 2541 1237 2417 
Q 1019 2294 894 2097 
L 366 2166 
L 809 4519 
L 3088 4519 
L 3088 3981 
L 1259 3981 
L 1013 2750 
Q 1425 3038 1878 3038 
Q 2478 3038 2890 2622 
Q 3303 2206 3303 1553 
Q 3303 931 2941 478 
Q 2500 -78 1738 -78 
Q 1113 -78 717 272 
Q 322 622 266 1200 
z
" transform="scale(0.015625)"/>
        <path id="ArialMT-2e" d="M 581 0 
L 581 641 
L 1222 641 
L 1222 0 
L 581 0 
z
" transform="scale(0.015625)"/>
        <path id="ArialMT-30" d="M 266 2259 
Q 266 3072 433 3567 
Q 600 4063 929 4331 
Q 1259 4600 1759 4600 
Q 2128 4600 2406 4451 
Q 2684 4303 2865 4023 
Q 3047 3744 3150 3342 
Q 3253 2941 3253 2259 
Q 3253 1453 3087 958 
Q 2922 463 2592 192 
Q 2263 -78 1759 -78 
Q 1097 -78 719 397 
Q 266 969 266 2259 
z
M 844 2259 
Q 844 1131 1108 757 
Q 1372 384 1759 384 
Q 2147 384 2411 759 
Q 2675 1134 2675 2259 
Q 2675 3391 2411 3762 
Q 2147 4134 1753 4134 
Q 1366 4134 1134 3806 
Q 844 3388 844 2259 
z
" transform="scale(0.015625)"/>
       </defs>
       <use xlink:href="#ArialMT-35"/>
       <use xlink:href="#ArialMT-2e" x="55.615234"/>
       <use xlink:href="#ArialMT-30" x="83.398438"/>
      </g>
     </g>
    </g>
    <g id="xtick_2">
     <g id="line2d_2">
      <g>
       <use xlink:href="#m6b437b5bbb" x="138.925998" y="379.15" style="fill: #262626; stroke: #262626; stroke-width: 0.8"/>
      </g>
     </g>
     <g id="text_2">
      <!-- 7.5 -->
      <g style="fill: #262626" transform="translate(131.975998 393.307813) scale(0.1 -0.1)">
       <defs>
        <path id="ArialMT-37" d="M 303 3981 
L 303 4522 
L 3269 4522 
L 3269 4084 
Q 2831 3619 2401 2847 
Q 1972 2075 1738 1259 
Q 1569 684 1522 0 
L 944 0 
Q 953 541 1156 1306 
Q 1359 2072 1739 2783 
Q 2119 3494 2547 3981 
L 303 3981 
z
" transform="scale(0.015625)"/>
       </defs>
       <use xlink:href="#ArialMT-37"/>
       <use xlink:href="#ArialMT-2e" x="55.615234"/>
       <use xlink:href="#ArialMT-35" x="83.398438"/>
      </g>
     </g>
    </g>
    <g id="xtick_3">
     <g id="line2d_3">
      <g>
       <use xlink:href="#m6b437b5bbb" x="213.919769" y="379.15" style="fill: #262626; stroke: #262626; stroke-width: 0.8"/>
      </g>
     </g>
     <g id="text_3">
      <!-- 10.0 -->
      <g style="fill: #262626" transform="translate(204.1893 393.307813) scale(0.1 -0.1)">
       <defs>
        <path id="ArialMT-31" d="M 2384 0 
L 1822 0 
L 1822 3584 
Q 1619 3391 1289 3197 
Q 959 3003 697 2906 
L 697 3450 
Q 1169 3672 1522 3987 
Q 1875 4303 2022 4600 
L 2384 4600 
L 2384 0 
z
" transform="scale(0.015625)"/>
       </defs>
       <use xlink:href="#ArialMT-31"/>
       <use xlink:href="#ArialMT-30" x="55.615234"/>
       <use xlink:href="#ArialMT-2e" x="111.230469"/>
       <use xlink:href="#ArialMT-30" x="139.013672"/>
      </g>
     </g>
    </g>
    <g id="xtick_4">
     <g id="line2d_4">
      <g>
       <use xlink:href="#m6b437b5bbb" x="288.913539" y="379.15" style="fill: #262626; stroke: #262626; stroke-width: 0.8"/>
      </g>
     </g>
     <g id="text_4">
      <!-- 12.5 -->
      <g style="fill: #262626" transform="translate(279.18307 393.307813) scale(0.1 -0.1)">
       <defs>
        <path id="ArialMT-32" d="M 3222 541 
L 3222 0 
L 194 0 
Q 188 203 259 391 
Q 375 700 629 1000 
Q 884 1300 1366 1694 
Q 2113 2306 2375 2664 
Q 2638 3022 2638 3341 
Q 2638 3675 2398 3904 
Q 2159 4134 1775 4134 
Q 1369 4134 1125 3890 
Q 881 3647 878 3216 
L 300 3275 
Q 359 3922 746 4261 
Q 1134 4600 1788 4600 
Q 2447 4600 2831 4234 
Q 3216 3869 3216 3328 
Q 3216 3053 3103 2787 
Q 2991 2522 2730 2228 
Q 2469 1934 1863 1422 
Q 1356 997 1212 845 
Q 1069 694 975 541 
L 3222 541 
z
" transform="scale(0.015625)"/>
       </defs>
       <use xlink:href="#ArialMT-31"/>
       <use xlink:href="#ArialMT-32" x="55.615234"/>
       <use xlink:href="#ArialMT-2e" x="111.230469"/>
       <use xlink:href="#ArialMT-35" x="139.013672"/>
      </g>
     </g>
    </g>
    <g id="xtick_5">
     <g id="line2d_5">
      <g>
       <use xlink:href="#m6b437b5bbb" x="363.90731" y="379.15" style="fill: #262626; stroke: #262626; stroke-width: 0.8"/>
      </g>
     </g>
     <g id="text_5">
      <!-- 15.0 -->
      <g style="fill: #262626" transform="translate(354.176841 393.307813) scale(0.1 -0.1)">
       <use xlink:href="#ArialMT-31"/>
       <use xlink:href="#ArialMT-35" x="55.615234"/>
       <use xlink:href="#ArialMT-2e" x="111.230469"/>
       <use xlink:href="#ArialMT-30" x="139.013672"/>
      </g>
     </g>
    </g>
    <g id="xtick_6">
     <g id="line2d_6">
      <g>
       <use xlink:href="#m6b437b5bbb" x="438.90108" y="379.15" style="fill: #262626; stroke: #262626; stroke-width: 0.8"/>
      </g>
     </g>
     <g id="text_6">
      <!-- 17.5 -->
      <g style="fill: #262626" transform="translate(429.170612 393.307813) scale(0.1 -0.1)">
       <use xlink:href="#ArialMT-31"/>
       <use xlink:href="#ArialMT-37" x="55.615234"/>
       <use xlink:href="#ArialMT-2e" x="111.230469"/>
       <use xlink:href="#ArialMT-35" x="139.013672"/>
      </g>
     </g>
    </g>
    <g id="xtick_7">
     <g id="line2d_7">
      <g>
       <use xlink:href="#m6b437b5bbb" x="513.894851" y="379.15" style="fill: #262626; stroke: #262626; stroke-width: 0.8"/>
      </g>
     </g>
     <g id="text_7">
      <!-- 20.0 -->
      <g style="fill: #262626" transform="translate(504.164382 393.307813) scale(0.1 -0.1)">
       <use xlink:href="#ArialMT-32"/>
       <use xlink:href="#ArialMT-30" x="55.615234"/>
       <use xlink:href="#ArialMT-2e" x="111.230469"/>
       <use xlink:href="#ArialMT-30" x="139.013672"/>
      </g>
     </g>
    </g>
    <g id="xtick_8">
     <g id="line2d_8">
      <g>
       <use xlink:href="#m6b437b5bbb" x="588.888621" y="379.15" style="fill: #262626; stroke: #262626; stroke-width: 0.8"/>
      </g>
     </g>
     <g id="text_8">
      <!-- 22.5 -->
      <g style="fill: #262626" transform="translate(579.158153 393.307813) scale(0.1 -0.1)">
       <use xlink:href="#ArialMT-32"/>
       <use xlink:href="#ArialMT-32" x="55.615234"/>
       <use xlink:href="#ArialMT-2e" x="111.230469"/>
       <use xlink:href="#ArialMT-35" x="139.013672"/>
      </g>
     </g>
    </g>
    <g id="xtick_9">
     <g id="line2d_9">
      <g>
       <use xlink:href="#m6b437b5bbb" x="663.882392" y="379.15" style="fill: #262626; stroke: #262626; stroke-width: 0.8"/>
      </g>
     </g>
     <g id="text_9">
      <!-- 25.0 -->
      <g style="fill: #262626" transform="translate(654.151923 393.307813) scale(0.1 -0.1)">
       <use xlink:href="#ArialMT-32"/>
       <use xlink:href="#ArialMT-35" x="55.615234"/>
       <use xlink:href="#ArialMT-2e" x="111.230469"/>
       <use xlink:href="#ArialMT-30" x="139.013672"/>
      </g>
     </g>
    </g>
    <g id="text_10">
     <!-- CNT Diameter (nm) -->
     <g style="fill: #262626" transform="translate(291.793325 413.854688) scale(0.2 -0.2)">
      <defs>
       <path id="ArialMT-43" d="M 3763 1606 
L 4369 1453 
Q 4178 706 3683 314 
Q 3188 -78 2472 -78 
Q 1731 -78 1267 223 
Q 803 525 561 1097 
Q 319 1669 319 2325 
Q 319 3041 592 3573 
Q 866 4106 1370 4382 
Q 1875 4659 2481 4659 
Q 3169 4659 3637 4309 
Q 4106 3959 4291 3325 
L 3694 3184 
Q 3534 3684 3231 3912 
Q 2928 4141 2469 4141 
Q 1941 4141 1586 3887 
Q 1231 3634 1087 3207 
Q 944 2781 944 2328 
Q 944 1744 1114 1308 
Q 1284 872 1643 656 
Q 2003 441 2422 441 
Q 2931 441 3284 734 
Q 3638 1028 3763 1606 
z
" transform="scale(0.015625)"/>
       <path id="ArialMT-4e" d="M 488 0 
L 488 4581 
L 1109 4581 
L 3516 984 
L 3516 4581 
L 4097 4581 
L 4097 0 
L 3475 0 
L 1069 3600 
L 1069 0 
L 488 0 
z
" transform="scale(0.015625)"/>
       <path id="ArialMT-54" d="M 1659 0 
L 1659 4041 
L 150 4041 
L 150 4581 
L 3781 4581 
L 3781 4041 
L 2266 4041 
L 2266 0 
L 1659 0 
z
" transform="scale(0.015625)"/>
       <path id="ArialMT-20" transform="scale(0.015625)"/>
       <path id="ArialMT-44" d="M 494 0 
L 494 4581 
L 2072 4581 
Q 2606 4581 2888 4516 
Q 3281 4425 3559 4188 
Q 3922 3881 4101 3404 
Q 4281 2928 4281 2316 
Q 4281 1794 4159 1391 
Q 4038 988 3847 723 
Q 3656 459 3429 307 
Q 3203 156 2883 78 
Q 2563 0 2147 0 
L 494 0 
z
M 1100 541 
L 2078 541 
Q 2531 541 2789 625 
Q 3047 709 3200 863 
Q 3416 1078 3536 1442 
Q 3656 1806 3656 2325 
Q 3656 3044 3420 3430 
Q 3184 3816 2847 3947 
Q 2603 4041 2063 4041 
L 1100 4041 
L 1100 541 
z
" transform="scale(0.015625)"/>
       <path id="ArialMT-69" d="M 425 3934 
L 425 4581 
L 988 4581 
L 988 3934 
L 425 3934 
z
M 425 0 
L 425 3319 
L 988 3319 
L 988 0 
L 425 0 
z
" transform="scale(0.015625)"/>
       <path id="ArialMT-61" d="M 2588 409 
Q 2275 144 1986 34 
Q 1697 -75 1366 -75 
Q 819 -75 525 192 
Q 231 459 231 875 
Q 231 1119 342 1320 
Q 453 1522 633 1644 
Q 813 1766 1038 1828 
Q 1203 1872 1538 1913 
Q 2219 1994 2541 2106 
Q 2544 2222 2544 2253 
Q 2544 2597 2384 2738 
Q 2169 2928 1744 2928 
Q 1347 2928 1158 2789 
Q 969 2650 878 2297 
L 328 2372 
Q 403 2725 575 2942 
Q 747 3159 1072 3276 
Q 1397 3394 1825 3394 
Q 2250 3394 2515 3294 
Q 2781 3194 2906 3042 
Q 3031 2891 3081 2659 
Q 3109 2516 3109 2141 
L 3109 1391 
Q 3109 606 3145 398 
Q 3181 191 3288 0 
L 2700 0 
Q 2613 175 2588 409 
z
M 2541 1666 
Q 2234 1541 1622 1453 
Q 1275 1403 1131 1340 
Q 988 1278 909 1158 
Q 831 1038 831 891 
Q 831 666 1001 516 
Q 1172 366 1500 366 
Q 1825 366 2078 508 
Q 2331 650 2450 897 
Q 2541 1088 2541 1459 
L 2541 1666 
z
" transform="scale(0.015625)"/>
       <path id="ArialMT-6d" d="M 422 0 
L 422 3319 
L 925 3319 
L 925 2853 
Q 1081 3097 1340 3245 
Q 1600 3394 1931 3394 
Q 2300 3394 2536 3241 
Q 2772 3088 2869 2813 
Q 3263 3394 3894 3394 
Q 4388 3394 4653 3120 
Q 4919 2847 4919 2278 
L 4919 0 
L 4359 0 
L 4359 2091 
Q 4359 2428 4304 2576 
Q 4250 2725 4106 2815 
Q 3963 2906 3769 2906 
Q 3419 2906 3187 2673 
Q 2956 2441 2956 1928 
L 2956 0 
L 2394 0 
L 2394 2156 
Q 2394 2531 2256 2718 
Q 2119 2906 1806 2906 
Q 1569 2906 1367 2781 
Q 1166 2656 1075 2415 
Q 984 2175 984 1722 
L 984 0 
L 422 0 
z
" transform="scale(0.015625)"/>
       <path id="ArialMT-65" d="M 2694 1069 
L 3275 997 
Q 3138 488 2766 206 
Q 2394 -75 1816 -75 
Q 1088 -75 661 373 
Q 234 822 234 1631 
Q 234 2469 665 2931 
Q 1097 3394 1784 3394 
Q 2450 3394 2872 2941 
Q 3294 2488 3294 1666 
Q 3294 1616 3291 1516 
L 816 1516 
Q 847 969 1125 678 
Q 1403 388 1819 388 
Q 2128 388 2347 550 
Q 2566 713 2694 1069 
z
M 847 1978 
L 2700 1978 
Q 2663 2397 2488 2606 
Q 2219 2931 1791 2931 
Q 1403 2931 1139 2672 
Q 875 2413 847 1978 
z
" transform="scale(0.015625)"/>
       <path id="ArialMT-74" d="M 1650 503 
L 1731 6 
Q 1494 -44 1306 -44 
Q 1000 -44 831 53 
Q 663 150 594 308 
Q 525 466 525 972 
L 525 2881 
L 113 2881 
L 113 3319 
L 525 3319 
L 525 4141 
L 1084 4478 
L 1084 3319 
L 1650 3319 
L 1650 2881 
L 1084 2881 
L 1084 941 
Q 1084 700 1114 631 
Q 1144 563 1211 522 
Q 1278 481 1403 481 
Q 1497 481 1650 503 
z
" transform="scale(0.015625)"/>
       <path id="ArialMT-72" d="M 416 0 
L 416 3319 
L 922 3319 
L 922 2816 
Q 1116 3169 1280 3281 
Q 1444 3394 1641 3394 
Q 1925 3394 2219 3213 
L 2025 2691 
Q 1819 2813 1613 2813 
Q 1428 2813 1281 2702 
Q 1134 2591 1072 2394 
Q 978 2094 978 1738 
L 978 0 
L 416 0 
z
" transform="scale(0.015625)"/>
       <path id="ArialMT-28" d="M 1497 -1347 
Q 1031 -759 709 28 
Q 388 816 388 1659 
Q 388 2403 628 3084 
Q 909 3875 1497 4659 
L 1900 4659 
Q 1522 4009 1400 3731 
Q 1209 3300 1100 2831 
Q 966 2247 966 1656 
Q 966 153 1900 -1347 
L 1497 -1347 
z
" transform="scale(0.015625)"/>
       <path id="ArialMT-6e" d="M 422 0 
L 422 3319 
L 928 3319 
L 928 2847 
Q 1294 3394 1984 3394 
Q 2284 3394 2536 3286 
Q 2788 3178 2913 3003 
Q 3038 2828 3088 2588 
Q 3119 2431 3119 2041 
L 3119 0 
L 2556 0 
L 2556 2019 
Q 2556 2363 2490 2533 
Q 2425 2703 2258 2804 
Q 2091 2906 1866 2906 
Q 1506 2906 1245 2678 
Q 984 2450 984 1813 
L 984 0 
L 422 0 
z
" transform="scale(0.015625)"/>
       <path id="ArialMT-29" d="M 791 -1347 
L 388 -1347 
Q 1322 153 1322 1656 
Q 1322 2244 1188 2822 
Q 1081 3291 891 3722 
Q 769 4003 388 4659 
L 791 4659 
Q 1378 3875 1659 3084 
Q 1900 2403 1900 1659 
Q 1900 816 1576 28 
Q 1253 -759 791 -1347 
z
" transform="scale(0.015625)"/>
      </defs>
      <use xlink:href="#ArialMT-43"/>
      <use xlink:href="#ArialMT-4e" x="72.216797"/>
      <use xlink:href="#ArialMT-54" x="144.433594"/>
      <use xlink:href="#ArialMT-20" x="203.767578"/>
      <use xlink:href="#ArialMT-44" x="231.550781"/>
      <use xlink:href="#ArialMT-69" x="303.767578"/>
      <use xlink:href="#ArialMT-61" x="325.984375"/>
      <use xlink:href="#ArialMT-6d" x="381.599609"/>
      <use xlink:href="#ArialMT-65" x="464.900391"/>
      <use xlink:href="#ArialMT-74" x="520.515625"/>
      <use xlink:href="#ArialMT-65" x="548.298828"/>
      <use xlink:href="#ArialMT-72" x="603.914062"/>
      <use xlink:href="#ArialMT-20" x="637.214844"/>
      <use xlink:href="#ArialMT-28" x="664.998047"/>
      <use xlink:href="#ArialMT-6e" x="698.298828"/>
      <use xlink:href="#ArialMT-6d" x="753.914062"/>
      <use xlink:href="#ArialMT-29" x="837.214844"/>
     </g>
    </g>
   </g>
   <g id="matplotlib.axis_2">
    <g id="ytick_1">
     <g id="line2d_10">
      <defs>
       <path id="mdaafbe71e1" d="M 0 0 
L -3.5 0 
" style="stroke: #262626; stroke-width: 0.8"/>
      </defs>
      <g>
       <use xlink:href="#mdaafbe71e1" x="52.66875" y="310.379172" style="fill: #262626; stroke: #262626; stroke-width: 0.8"/>
      </g>
     </g>
     <g id="text_11">
      <!-- $\mathdefault{10^{7}}$ -->
      <g style="fill: #262626" transform="translate(29.96875 315.485422) scale(0.1 -0.1)">
       <use xlink:href="#ArialMT-31" transform="translate(0 0.846875)"/>
       <use xlink:href="#ArialMT-30" transform="translate(55.615234 0.846875)"/>
       <use xlink:href="#ArialMT-37" transform="translate(112.972813 70.540625) scale(0.7)"/>
      </g>
     </g>
    </g>
    <g id="ytick_2">
     <g id="line2d_11">
      <g>
       <use xlink:href="#mdaafbe71e1" x="52.66875" y="182.324634" style="fill: #262626; stroke: #262626; stroke-width: 0.8"/>
      </g>
     </g>
     <g id="text_12">
      <!-- $\mathdefault{10^{8}}$ -->
      <g style="fill: #262626" transform="translate(29.96875 187.480884) scale(0.1 -0.1)">
       <defs>
        <path id="ArialMT-38" d="M 1131 2484 
Q 781 2613 612 2850 
Q 444 3088 444 3419 
Q 444 3919 803 4259 
Q 1163 4600 1759 4600 
Q 2359 4600 2725 4251 
Q 3091 3903 3091 3403 
Q 3091 3084 2923 2848 
Q 2756 2613 2416 2484 
Q 2838 2347 3058 2040 
Q 3278 1734 3278 1309 
Q 3278 722 2862 322 
Q 2447 -78 1769 -78 
Q 1091 -78 675 323 
Q 259 725 259 1325 
Q 259 1772 486 2073 
Q 713 2375 1131 2484 
z
M 1019 3438 
Q 1019 3113 1228 2906 
Q 1438 2700 1772 2700 
Q 2097 2700 2305 2904 
Q 2513 3109 2513 3406 
Q 2513 3716 2298 3927 
Q 2084 4138 1766 4138 
Q 1444 4138 1231 3931 
Q 1019 3725 1019 3438 
z
M 838 1322 
Q 838 1081 952 856 
Q 1066 631 1291 507 
Q 1516 384 1775 384 
Q 2178 384 2440 643 
Q 2703 903 2703 1303 
Q 2703 1709 2433 1975 
Q 2163 2241 1756 2241 
Q 1359 2241 1098 1978 
Q 838 1716 838 1322 
z
" transform="scale(0.015625)"/>
       </defs>
       <use xlink:href="#ArialMT-31" transform="translate(0 0.99375)"/>
       <use xlink:href="#ArialMT-30" transform="translate(55.615234 0.99375)"/>
       <use xlink:href="#ArialMT-38" transform="translate(112.972813 70.6875) scale(0.7)"/>
      </g>
     </g>
    </g>
    <g id="ytick_3">
     <g id="line2d_12">
      <g>
       <use xlink:href="#mdaafbe71e1" x="52.66875" y="54.270095" style="fill: #262626; stroke: #262626; stroke-width: 0.8"/>
      </g>
     </g>
     <g id="text_13">
      <!-- $\mathdefault{10^{9}}$ -->
      <g style="fill: #262626" transform="translate(29.96875 59.426345) scale(0.1 -0.1)">
       <defs>
        <path id="ArialMT-39" d="M 350 1059 
L 891 1109 
Q 959 728 1153 556 
Q 1347 384 1650 384 
Q 1909 384 2104 503 
Q 2300 622 2425 820 
Q 2550 1019 2634 1356 
Q 2719 1694 2719 2044 
Q 2719 2081 2716 2156 
Q 2547 1888 2255 1720 
Q 1963 1553 1622 1553 
Q 1053 1553 659 1965 
Q 266 2378 266 3053 
Q 266 3750 677 4175 
Q 1088 4600 1706 4600 
Q 2153 4600 2523 4359 
Q 2894 4119 3086 3673 
Q 3278 3228 3278 2384 
Q 3278 1506 3087 986 
Q 2897 466 2520 194 
Q 2144 -78 1638 -78 
Q 1100 -78 759 220 
Q 419 519 350 1059 
z
M 2653 3081 
Q 2653 3566 2395 3850 
Q 2138 4134 1775 4134 
Q 1400 4134 1122 3828 
Q 844 3522 844 3034 
Q 844 2597 1108 2323 
Q 1372 2050 1759 2050 
Q 2150 2050 2401 2323 
Q 2653 2597 2653 3081 
z
" transform="scale(0.015625)"/>
       </defs>
       <use xlink:href="#ArialMT-31" transform="translate(0 0.99375)"/>
       <use xlink:href="#ArialMT-30" transform="translate(55.615234 0.99375)"/>
       <use xlink:href="#ArialMT-39" transform="translate(112.972813 70.6875) scale(0.7)"/>
      </g>
     </g>
    </g>
    <g id="ytick_4">
     <g id="line2d_13">
      <defs>
       <path id="mb7fb902d31" d="M 0 0 
L -2 0 
" style="stroke: #262626; stroke-width: 0.6"/>
      </defs>
      <g>
       <use xlink:href="#mb7fb902d31" x="52.66875" y="377.336168" style="fill: #262626; stroke: #262626; stroke-width: 0.6"/>
      </g>
     </g>
    </g>
    <g id="ytick_5">
     <g id="line2d_14">
      <g>
       <use xlink:href="#mb7fb902d31" x="52.66875" y="361.337196" style="fill: #262626; stroke: #262626; stroke-width: 0.6"/>
      </g>
     </g>
    </g>
    <g id="ytick_6">
     <g id="line2d_15">
      <g>
       <use xlink:href="#mb7fb902d31" x="52.66875" y="348.927429" style="fill: #262626; stroke: #262626; stroke-width: 0.6"/>
      </g>
     </g>
    </g>
    <g id="ytick_7">
     <g id="line2d_16">
      <g>
       <use xlink:href="#mb7fb902d31" x="52.66875" y="338.787911" style="fill: #262626; stroke: #262626; stroke-width: 0.6"/>
      </g>
     </g>
    </g>
    <g id="ytick_8">
     <g id="line2d_17">
      <g>
       <use xlink:href="#mb7fb902d31" x="52.66875" y="330.215071" style="fill: #262626; stroke: #262626; stroke-width: 0.6"/>
      </g>
     </g>
    </g>
    <g id="ytick_9">
     <g id="line2d_18">
      <g>
       <use xlink:href="#mb7fb902d31" x="52.66875" y="322.788939" style="fill: #262626; stroke: #262626; stroke-width: 0.6"/>
      </g>
     </g>
    </g>
    <g id="ytick_10">
     <g id="line2d_19">
      <g>
       <use xlink:href="#mb7fb902d31" x="52.66875" y="316.238626" style="fill: #262626; stroke: #262626; stroke-width: 0.6"/>
      </g>
     </g>
    </g>
    <g id="ytick_11">
     <g id="line2d_20">
      <g>
       <use xlink:href="#mb7fb902d31" x="52.66875" y="271.830915" style="fill: #262626; stroke: #262626; stroke-width: 0.6"/>
      </g>
     </g>
    </g>
    <g id="ytick_12">
     <g id="line2d_21">
      <g>
       <use xlink:href="#mb7fb902d31" x="52.66875" y="249.28163" style="fill: #262626; stroke: #262626; stroke-width: 0.6"/>
      </g>
     </g>
    </g>
    <g id="ytick_13">
     <g id="line2d_22">
      <g>
       <use xlink:href="#mb7fb902d31" x="52.66875" y="233.282658" style="fill: #262626; stroke: #262626; stroke-width: 0.6"/>
      </g>
     </g>
    </g>
    <g id="ytick_14">
     <g id="line2d_23">
      <g>
       <use xlink:href="#mb7fb902d31" x="52.66875" y="220.872891" style="fill: #262626; stroke: #262626; stroke-width: 0.6"/>
      </g>
     </g>
    </g>
    <g id="ytick_15">
     <g id="line2d_24">
      <g>
       <use xlink:href="#mb7fb902d31" x="52.66875" y="210.733373" style="fill: #262626; stroke: #262626; stroke-width: 0.6"/>
      </g>
     </g>
    </g>
    <g id="ytick_16">
     <g id="line2d_25">
      <g>
       <use xlink:href="#mb7fb902d31" x="52.66875" y="202.160532" style="fill: #262626; stroke: #262626; stroke-width: 0.6"/>
      </g>
     </g>
    </g>
    <g id="ytick_17">
     <g id="line2d_26">
      <g>
       <use xlink:href="#mb7fb902d31" x="52.66875" y="194.7344" style="fill: #262626; stroke: #262626; stroke-width: 0.6"/>
      </g>
     </g>
    </g>
    <g id="ytick_18">
     <g id="line2d_27">
      <g>
       <use xlink:href="#mb7fb902d31" x="52.66875" y="188.184088" style="fill: #262626; stroke: #262626; stroke-width: 0.6"/>
      </g>
     </g>
    </g>
    <g id="ytick_19">
     <g id="line2d_28">
      <g>
       <use xlink:href="#mb7fb902d31" x="52.66875" y="143.776376" style="fill: #262626; stroke: #262626; stroke-width: 0.6"/>
      </g>
     </g>
    </g>
    <g id="ytick_20">
     <g id="line2d_29">
      <g>
       <use xlink:href="#mb7fb902d31" x="52.66875" y="121.227091" style="fill: #262626; stroke: #262626; stroke-width: 0.6"/>
      </g>
     </g>
    </g>
    <g id="ytick_21">
     <g id="line2d_30">
      <g>
       <use xlink:href="#mb7fb902d31" x="52.66875" y="105.228119" style="fill: #262626; stroke: #262626; stroke-width: 0.6"/>
      </g>
     </g>
    </g>
    <g id="ytick_22">
     <g id="line2d_31">
      <g>
       <use xlink:href="#mb7fb902d31" x="52.66875" y="92.818352" style="fill: #262626; stroke: #262626; stroke-width: 0.6"/>
      </g>
     </g>
    </g>
    <g id="ytick_23">
     <g id="line2d_32">
      <g>
       <use xlink:href="#mb7fb902d31" x="52.66875" y="82.678834" style="fill: #262626; stroke: #262626; stroke-width: 0.6"/>
      </g>
     </g>
    </g>
    <g id="ytick_24">
     <g id="line2d_33">
      <g>
       <use xlink:href="#mb7fb902d31" x="52.66875" y="74.105994" style="fill: #262626; stroke: #262626; stroke-width: 0.6"/>
      </g>
     </g>
    </g>
    <g id="ytick_25">
     <g id="line2d_34">
      <g>
       <use xlink:href="#mb7fb902d31" x="52.66875" y="66.679862" style="fill: #262626; stroke: #262626; stroke-width: 0.6"/>
      </g>
     </g>
    </g>
    <g id="ytick_26">
     <g id="line2d_35">
      <g>
       <use xlink:href="#mb7fb902d31" x="52.66875" y="60.129549" style="fill: #262626; stroke: #262626; stroke-width: 0.6"/>
      </g>
     </g>
    </g>
    <g id="ytick_27">
     <g id="line2d_36">
      <g>
       <use xlink:href="#mb7fb902d31" x="52.66875" y="15.721838" style="fill: #262626; stroke: #262626; stroke-width: 0.6"/>
      </g>
     </g>
    </g>
    <g id="text_14">
     <!-- Modulus (Pa) -->
     <g style="fill: #262626" transform="translate(21.759375 252.639063) rotate(-90) scale(0.2 -0.2)">
      <defs>
       <path id="ArialMT-4d" d="M 475 0 
L 475 4581 
L 1388 4581 
L 2472 1338 
Q 2622 884 2691 659 
Q 2769 909 2934 1394 
L 4031 4581 
L 4847 4581 
L 4847 0 
L 4263 0 
L 4263 3834 
L 2931 0 
L 2384 0 
L 1059 3900 
L 1059 0 
L 475 0 
z
" transform="scale(0.015625)"/>
       <path id="ArialMT-6f" d="M 213 1659 
Q 213 2581 725 3025 
Q 1153 3394 1769 3394 
Q 2453 3394 2887 2945 
Q 3322 2497 3322 1706 
Q 3322 1066 3130 698 
Q 2938 331 2570 128 
Q 2203 -75 1769 -75 
Q 1072 -75 642 372 
Q 213 819 213 1659 
z
M 791 1659 
Q 791 1022 1069 705 
Q 1347 388 1769 388 
Q 2188 388 2466 706 
Q 2744 1025 2744 1678 
Q 2744 2294 2464 2611 
Q 2184 2928 1769 2928 
Q 1347 2928 1069 2612 
Q 791 2297 791 1659 
z
" transform="scale(0.015625)"/>
       <path id="ArialMT-64" d="M 2575 0 
L 2575 419 
Q 2259 -75 1647 -75 
Q 1250 -75 917 144 
Q 584 363 401 755 
Q 219 1147 219 1656 
Q 219 2153 384 2558 
Q 550 2963 881 3178 
Q 1213 3394 1622 3394 
Q 1922 3394 2156 3267 
Q 2391 3141 2538 2938 
L 2538 4581 
L 3097 4581 
L 3097 0 
L 2575 0 
z
M 797 1656 
Q 797 1019 1065 703 
Q 1334 388 1700 388 
Q 2069 388 2326 689 
Q 2584 991 2584 1609 
Q 2584 2291 2321 2609 
Q 2059 2928 1675 2928 
Q 1300 2928 1048 2622 
Q 797 2316 797 1656 
z
" transform="scale(0.015625)"/>
       <path id="ArialMT-75" d="M 2597 0 
L 2597 488 
Q 2209 -75 1544 -75 
Q 1250 -75 995 37 
Q 741 150 617 320 
Q 494 491 444 738 
Q 409 903 409 1263 
L 409 3319 
L 972 3319 
L 972 1478 
Q 972 1038 1006 884 
Q 1059 663 1231 536 
Q 1403 409 1656 409 
Q 1909 409 2131 539 
Q 2353 669 2445 892 
Q 2538 1116 2538 1541 
L 2538 3319 
L 3100 3319 
L 3100 0 
L 2597 0 
z
" transform="scale(0.015625)"/>
       <path id="ArialMT-6c" d="M 409 0 
L 409 4581 
L 972 4581 
L 972 0 
L 409 0 
z
" transform="scale(0.015625)"/>
       <path id="ArialMT-73" d="M 197 991 
L 753 1078 
Q 800 744 1014 566 
Q 1228 388 1613 388 
Q 2000 388 2187 545 
Q 2375 703 2375 916 
Q 2375 1106 2209 1216 
Q 2094 1291 1634 1406 
Q 1016 1563 777 1677 
Q 538 1791 414 1992 
Q 291 2194 291 2438 
Q 291 2659 392 2848 
Q 494 3038 669 3163 
Q 800 3259 1026 3326 
Q 1253 3394 1513 3394 
Q 1903 3394 2198 3281 
Q 2494 3169 2634 2976 
Q 2775 2784 2828 2463 
L 2278 2388 
Q 2241 2644 2061 2787 
Q 1881 2931 1553 2931 
Q 1166 2931 1000 2803 
Q 834 2675 834 2503 
Q 834 2394 903 2306 
Q 972 2216 1119 2156 
Q 1203 2125 1616 2013 
Q 2213 1853 2448 1751 
Q 2684 1650 2818 1456 
Q 2953 1263 2953 975 
Q 2953 694 2789 445 
Q 2625 197 2315 61 
Q 2006 -75 1616 -75 
Q 969 -75 630 194 
Q 291 463 197 991 
z
" transform="scale(0.015625)"/>
       <path id="ArialMT-50" d="M 494 0 
L 494 4581 
L 2222 4581 
Q 2678 4581 2919 4538 
Q 3256 4481 3484 4323 
Q 3713 4166 3852 3881 
Q 3991 3597 3991 3256 
Q 3991 2672 3619 2267 
Q 3247 1863 2275 1863 
L 1100 1863 
L 1100 0 
L 494 0 
z
M 1100 2403 
L 2284 2403 
Q 2872 2403 3119 2622 
Q 3366 2841 3366 3238 
Q 3366 3525 3220 3729 
Q 3075 3934 2838 4000 
Q 2684 4041 2272 4041 
L 1100 4041 
L 1100 2403 
z
" transform="scale(0.015625)"/>
      </defs>
      <use xlink:href="#ArialMT-4d"/>
      <use xlink:href="#ArialMT-6f" x="83.300781"/>
      <use xlink:href="#ArialMT-64" x="138.916016"/>
      <use xlink:href="#ArialMT-75" x="194.53125"/>
      <use xlink:href="#ArialMT-6c" x="250.146484"/>
      <use xlink:href="#ArialMT-75" x="272.363281"/>
      <use xlink:href="#ArialMT-73" x="327.978516"/>
      <use xlink:href="#ArialMT-20" x="377.978516"/>
      <use xlink:href="#ArialMT-28" x="405.761719"/>
      <use xlink:href="#ArialMT-50" x="439.0625"/>
      <use xlink:href="#ArialMT-61" x="505.761719"/>
      <use xlink:href="#ArialMT-29" x="561.376953"/>
     </g>
    </g>
   </g>
   <g id="PathCollection_1">
    <path d="M 607.697059 132.050752 
C 609.572328 132.050752 611.371044 131.3057 612.697059 129.979685 
C 614.023075 128.653669 614.768127 126.854954 614.768127 124.979685 
C 614.768127 123.104415 614.023075 121.3057 612.697059 119.979685 
C 611.371044 118.653669 609.572328 117.908617 607.697059 117.908617 
C 605.82179 117.908617 604.023075 118.653669 602.697059 119.979685 
C 601.371044 121.3057 600.625991 123.104415 600.625991 124.979685 
C 600.625991 126.854954 601.371044 128.653669 602.697059 129.979685 
C 604.023075 131.3057 605.82179 132.050752 607.697059 132.050752 
z
" clip-path="url(#p6622699a64)" style="fill: #2ca02c; stroke: #ffffff; stroke-width: 1.131371"/>
    <path d="M 558.20367 182.051521 
C 560.078939 182.051521 561.877655 181.306469 563.20367 179.980453 
C 564.529686 178.654438 565.274738 176.855722 565.274738 174.980453 
C 565.274738 173.105184 564.529686 171.306469 563.20367 169.980453 
C 561.877655 168.654438 560.078939 167.909385 558.20367 167.909385 
C 556.328401 167.909385 554.529686 168.654438 553.20367 169.980453 
C 551.877655 171.306469 551.132602 173.105184 551.132602 174.980453 
C 551.132602 176.855722 551.877655 178.654438 553.20367 179.980453 
C 554.529686 181.306469 556.328401 182.051521 558.20367 182.051521 
z
" clip-path="url(#p6622699a64)" style="fill: #2ca02c; stroke: #ffffff; stroke-width: 1.131371"/>
    <path d="M 565.538561 140.573966 
C 567.41383 140.573966 569.212545 139.828914 570.538561 138.502899 
C 571.864576 137.176883 572.609629 135.378168 572.609629 133.502899 
C 572.609629 131.627629 571.864576 129.828914 570.538561 128.502899 
C 569.212545 127.176883 567.41383 126.431831 565.538561 126.431831 
C 563.663292 126.431831 561.864576 127.176883 560.538561 128.502899 
C 559.212545 129.828914 558.467493 131.627629 558.467493 133.502899 
C 558.467493 135.378168 559.212545 137.176883 560.538561 138.502899 
C 561.864576 139.828914 563.663292 140.573966 565.538561 140.573966 
z
" clip-path="url(#p6622699a64)" style="fill: #2ca02c; stroke: #ffffff; stroke-width: 1.131371"/>
    <path d="M 584.501486 221.473391 
C 586.376755 221.473391 588.17547 220.728339 589.501486 219.402323 
C 590.827501 218.076308 591.572554 216.277592 591.572554 214.402323 
C 591.572554 212.527054 590.827501 210.728339 589.501486 209.402323 
C 588.17547 208.076308 586.376755 207.331255 584.501486 207.331255 
C 582.626217 207.331255 580.827501 208.076308 579.501486 209.402323 
C 578.17547 210.728339 577.430418 212.527054 577.430418 214.402323 
C 577.430418 216.277592 578.17547 218.076308 579.501486 219.402323 
C 580.827501 220.728339 582.626217 221.473391 584.501486 221.473391 
z
" clip-path="url(#p6622699a64)" style="fill: #2ca02c; stroke: #ffffff; stroke-width: 1.131371"/>
    <path d="M 675.359699 247.023583 
C 677.234969 247.023583 679.033684 246.278531 680.359699 244.952516 
C 681.685715 243.6265 682.430767 241.827785 682.430767 239.952516 
C 682.430767 238.077246 681.685715 236.278531 680.359699 234.952516 
C 679.033684 233.6265 677.234969 232.881448 675.359699 232.881448 
C 673.48443 232.881448 671.685715 233.6265 670.359699 234.952516 
C 669.033684 236.278531 668.288632 238.077246 668.288632 239.952516 
C 668.288632 241.827785 669.033684 243.6265 670.359699 244.952516 
C 671.685715 246.278531 673.48443 247.023583 675.359699 247.023583 
z
" clip-path="url(#p6622699a64)" style="fill: #2ca02c; stroke: #ffffff; stroke-width: 1.131371"/>
    <path d="M 610.418651 145.854896 
C 612.29392 145.854896 614.092636 145.109844 615.418651 143.783829 
C 616.744667 142.457813 617.489719 140.659098 617.489719 138.783829 
C 617.489719 136.90856 616.744667 135.109844 615.418651 133.783829 
C 614.092636 132.457813 612.29392 131.712761 610.418651 131.712761 
C 608.543382 131.712761 606.744667 132.457813 605.418651 133.783829 
C 604.092636 135.109844 603.347583 136.90856 603.347583 138.783829 
C 603.347583 140.659098 604.092636 142.457813 605.418651 143.783829 
C 606.744667 145.109844 608.543382 145.854896 610.418651 145.854896 
z
" clip-path="url(#p6622699a64)" style="fill: #2ca02c; stroke: #ffffff; stroke-width: 1.131371"/>
    <path d="M 590.58848 153.918025 
C 592.463749 153.918025 594.262465 153.172973 595.58848 151.846957 
C 596.914496 150.520942 597.659548 148.722226 597.659548 146.846957 
C 597.659548 144.971688 596.914496 143.172973 595.58848 141.846957 
C 594.262465 140.520942 592.463749 139.775889 590.58848 139.775889 
C 588.713211 139.775889 586.914496 140.520942 585.58848 141.846957 
C 584.262465 143.172973 583.517412 144.971688 583.517412 146.846957 
C 583.517412 148.722226 584.262465 150.520942 585.58848 151.846957 
C 586.914496 153.172973 588.713211 153.918025 590.58848 153.918025 
z
" clip-path="url(#p6622699a64)" style="fill: #2ca02c; stroke: #ffffff; stroke-width: 1.131371"/>
    <path d="M 583.660484 151.10217 
C 585.535753 151.10217 587.334469 150.357118 588.660484 149.031103 
C 589.9865 147.705087 590.731552 145.906372 590.731552 144.031103 
C 590.731552 142.155833 589.9865 140.357118 588.660484 139.031103 
C 587.334469 137.705087 585.535753 136.960035 583.660484 136.960035 
C 581.785215 136.960035 579.9865 137.705087 578.660484 139.031103 
C 577.334469 140.357118 576.589416 142.155833 576.589416 144.031103 
C 576.589416 145.906372 577.334469 147.705087 578.660484 149.031103 
C 579.9865 150.357118 581.785215 151.10217 583.660484 151.10217 
z
" clip-path="url(#p6622699a64)" style="fill: #2ca02c; stroke: #ffffff; stroke-width: 1.131371"/>
    <path d="M 452.739103 36.930192 
L 456.274637 33.394658 
L 459.810171 36.930192 
L 463.345705 33.394658 
L 459.810171 29.859124 
L 463.345705 26.32359 
L 459.810171 22.788056 
L 456.274637 26.32359 
L 452.739103 22.788056 
L 449.203569 26.32359 
L 452.739103 29.859124 
L 449.203569 33.394658 
z
" clip-path="url(#p6622699a64)" style="fill: #2ca02c; stroke: #ffffff; stroke-width: 1.131371"/>
    <path d="M 600.201854 31.177886 
L 603.737388 27.642352 
L 607.272922 31.177886 
L 610.808456 27.642352 
L 607.272922 24.106818 
L 610.808456 20.571284 
L 607.272922 17.03575 
L 603.737388 20.571284 
L 600.201854 17.03575 
L 596.66632 20.571284 
L 600.201854 24.106818 
L 596.66632 27.642352 
z
" clip-path="url(#p6622699a64)" style="fill: #2ca02c; stroke: #ffffff; stroke-width: 1.131371"/>
    <path d="M 468.827767 34.415682 
L 472.363301 30.880148 
L 475.898835 34.415682 
L 479.434368 30.880148 
L 475.898835 27.344615 
L 479.434368 23.809081 
L 475.898835 20.273547 
L 472.363301 23.809081 
L 468.827767 20.273547 
L 465.292233 23.809081 
L 468.827767 27.344615 
L 465.292233 30.880148 
z
" clip-path="url(#p6622699a64)" style="fill: #2ca02c; stroke: #ffffff; stroke-width: 1.131371"/>
    <path d="M 477.457504 31.489901 
L 480.993038 27.954367 
L 484.528572 31.489901 
L 488.064106 27.954367 
L 484.528572 24.418833 
L 488.064106 20.883299 
L 484.528572 17.347765 
L 480.993038 20.883299 
L 477.457504 17.347765 
L 473.921971 20.883299 
L 477.457504 24.418833 
L 473.921971 27.954367 
z
" clip-path="url(#p6622699a64)" style="fill: #2ca02c; stroke: #ffffff; stroke-width: 1.131371"/>
    <path d="M 110.229038 332.600569 
L 110.229038 342.600569 
L 120.229038 342.600569 
L 120.229038 332.600569 
z
" clip-path="url(#p6622699a64)" style="fill: #1f77b4; stroke: #ffffff; stroke-width: 1.131371"/>
    <path d="M 198.851105 357.243182 
L 198.851105 367.243182 
L 208.851105 367.243182 
L 208.851105 357.243182 
z
" clip-path="url(#p6622699a64)" style="fill: #1f77b4; stroke: #ffffff; stroke-width: 1.131371"/>
    <path d="M 104.643213 336.048694 
L 104.643213 346.048694 
L 114.643213 346.048694 
L 114.643213 336.048694 
z
" clip-path="url(#p6622699a64)" style="fill: #1f77b4; stroke: #ffffff; stroke-width: 1.131371"/>
    <path d="M 171.918442 334.497505 
L 171.918442 344.497505 
L 181.918442 344.497505 
L 181.918442 334.497505 
z
" clip-path="url(#p6622699a64)" style="fill: #1f77b4; stroke: #ffffff; stroke-width: 1.131371"/>
    <path d="M 132.292016 335.582093 
L 132.292016 345.582093 
L 142.292016 345.582093 
L 142.292016 335.582093 
z
" clip-path="url(#p6622699a64)" style="fill: #1f77b4; stroke: #ffffff; stroke-width: 1.131371"/>
    <path d="M 99.367202 329.67234 
L 99.367202 339.67234 
L 109.367202 339.67234 
L 109.367202 329.67234 
z
" clip-path="url(#p6622699a64)" style="fill: #1f77b4; stroke: #ffffff; stroke-width: 1.131371"/>
    <path d="M 556.330536 174.421371 
L 561.044581 174.421371 
L 561.044581 169.707326 
L 565.758626 169.707326 
L 565.758626 164.993281 
L 561.044581 164.993281 
L 561.044581 160.279235 
L 556.330536 160.279235 
L 556.330536 164.993281 
L 551.616491 164.993281 
L 551.616491 169.707326 
L 556.330536 169.707326 
z
" clip-path="url(#p6622699a64)" style="fill: #2ca02c; stroke: #ffffff; stroke-width: 1.131371"/>
    <path d="M 656.22181 173.041338 
L 660.935855 173.041338 
L 660.935855 168.327293 
L 665.6499 168.327293 
L 665.6499 163.613248 
L 660.935855 163.613248 
L 660.935855 158.899203 
L 656.22181 158.899203 
L 656.22181 163.613248 
L 651.507765 163.613248 
L 651.507765 168.327293 
L 656.22181 168.327293 
z
" clip-path="url(#p6622699a64)" style="fill: #2ca02c; stroke: #ffffff; stroke-width: 1.131371"/>
    <path d="M 644.023375 175.467585 
L 648.73742 175.467585 
L 648.73742 170.75354 
L 653.451465 170.75354 
L 653.451465 166.039495 
L 648.73742 166.039495 
L 648.73742 161.32545 
L 644.023375 161.32545 
L 644.023375 166.039495 
L 639.30933 166.039495 
L 639.30933 170.75354 
L 644.023375 170.75354 
z
" clip-path="url(#p6622699a64)" style="fill: #2ca02c; stroke: #ffffff; stroke-width: 1.131371"/>
    <path d="M 668.054827 181.610394 
L 672.768872 181.610394 
L 672.768872 176.896349 
L 677.482917 176.896349 
L 677.482917 172.182304 
L 672.768872 172.182304 
L 672.768872 167.468259 
L 668.054827 167.468259 
L 668.054827 172.182304 
L 663.340782 172.182304 
L 663.340782 176.896349 
L 668.054827 176.896349 
z
" clip-path="url(#p6622699a64)" style="fill: #2ca02c; stroke: #ffffff; stroke-width: 1.131371"/>
    <path d="M 652.526117 173.691917 
L 657.240162 173.691917 
L 657.240162 168.977872 
L 661.954207 168.977872 
L 661.954207 164.263827 
L 657.240162 164.263827 
L 657.240162 159.549781 
L 652.526117 159.549781 
L 652.526117 164.263827 
L 647.812072 164.263827 
L 647.812072 168.977872 
L 652.526117 168.977872 
z
" clip-path="url(#p6622699a64)" style="fill: #2ca02c; stroke: #ffffff; stroke-width: 1.131371"/>
    <path d="M 185.159127 284.81666 
L 178.088059 291.887727 
L 185.159127 298.958795 
L 192.230194 291.887727 
z
" clip-path="url(#p6622699a64)" style="fill: #1f77b4; stroke: #ffffff; stroke-width: 1.131371"/>
    <path d="M 193.641453 265.847311 
L 186.570385 272.918378 
L 193.641453 279.989446 
L 200.712521 272.918378 
z
" clip-path="url(#p6622699a64)" style="fill: #1f77b4; stroke: #ffffff; stroke-width: 1.131371"/>
    <path d="M 173.304447 269.833412 
L 166.233379 276.90448 
L 173.304447 283.975548 
L 180.375514 276.90448 
z
" clip-path="url(#p6622699a64)" style="fill: #1f77b4; stroke: #ffffff; stroke-width: 1.131371"/>
    <path d="M 183.955258 281.606645 
L 176.88419 288.677713 
L 183.955258 295.748781 
L 191.026325 288.677713 
z
" clip-path="url(#p6622699a64)" style="fill: #1f77b4; stroke: #ffffff; stroke-width: 1.131371"/>
    <path d="M 342.944345 169.790699 
L 340.444345 174.361767 
L 335.873277 176.861767 
L 340.444345 179.361767 
L 342.944345 183.932835 
L 345.444345 179.361767 
L 350.015413 176.861767 
L 345.444345 174.361767 
z
" clip-path="url(#p6622699a64)" style="fill: #2ca02c; stroke: #ffffff; stroke-width: 1.131371"/>
    <path d="M 354.848062 170.267294 
L 352.348062 174.838362 
L 347.776994 177.338362 
L 352.348062 179.838362 
L 354.848062 184.40943 
L 357.348062 179.838362 
L 361.91913 177.338362 
L 357.348062 174.838362 
z
" clip-path="url(#p6622699a64)" style="fill: #2ca02c; stroke: #ffffff; stroke-width: 1.131371"/>
    <path d="M 427.11206 144.22449 
L 424.61206 148.795557 
L 420.040992 151.295557 
L 424.61206 153.795557 
L 427.11206 158.366625 
L 429.61206 153.795557 
L 434.183127 151.295557 
L 429.61206 148.795557 
z
" clip-path="url(#p6622699a64)" style="fill: #2ca02c; stroke: #ffffff; stroke-width: 1.131371"/>
    <path d="M 483.360545 126.877179 
L 480.860545 131.448247 
L 476.289477 133.948247 
L 480.860545 136.448247 
L 483.360545 141.019315 
L 485.860545 136.448247 
L 490.431613 133.948247 
L 485.860545 131.448247 
z
" clip-path="url(#p6622699a64)" style="fill: #2ca02c; stroke: #ffffff; stroke-width: 1.131371"/>
    <path d="M 401.774752 164.567979 
L 399.274752 169.139046 
L 394.703685 171.639046 
L 399.274752 174.139046 
L 401.774752 178.710114 
L 404.274752 174.139046 
L 408.84582 171.639046 
L 404.274752 169.139046 
z
" clip-path="url(#p6622699a64)" style="fill: #2ca02c; stroke: #ffffff; stroke-width: 1.131371"/>
    <path d="M 136.783823 237.93218 
L 129.712755 252.074316 
L 143.854891 252.074316 
z
" clip-path="url(#p6622699a64)" style="fill: #1f77b4; stroke: #ffffff; stroke-width: 1.131371"/>
    <path d="M 89.087865 225.70462 
L 82.016797 239.846756 
L 96.158933 239.846756 
z
" clip-path="url(#p6622699a64)" style="fill: #1f77b4; stroke: #ffffff; stroke-width: 1.131371"/>
    <path d="M 119.503494 228.791654 
L 112.432426 242.93379 
L 126.574562 242.93379 
z
" clip-path="url(#p6622699a64)" style="fill: #1f77b4; stroke: #ffffff; stroke-width: 1.131371"/>
    <path d="M 82.3207 228.806442 
L 75.249632 242.948578 
L 89.391768 242.948578 
z
" clip-path="url(#p6622699a64)" style="fill: #1f77b4; stroke: #ffffff; stroke-width: 1.131371"/>
    <path d="M 120.979089 229.037171 
L 113.908021 243.179306 
L 128.050157 243.179306 
z
" clip-path="url(#p6622699a64)" style="fill: #1f77b4; stroke: #ffffff; stroke-width: 1.131371"/>
    <path d="M 167.219855 246.139026 
L 160.148787 260.281162 
L 174.290922 260.281162 
z
" clip-path="url(#p6622699a64)" style="fill: #1f77b4; stroke: #ffffff; stroke-width: 1.131371"/>
    <path d="M 224.538471 243.663986 
L 226.002937 248.663986 
L 224.538471 253.663986 
L 229.538471 252.19952 
L 234.538471 253.663986 
L 233.074005 248.663986 
L 234.538471 243.663986 
L 229.538471 245.128452 
z
" clip-path="url(#p6622699a64)" style="fill: #ff7f0e; stroke: #ffffff; stroke-width: 1.131371"/>
    <path d="M 233.601542 244.643041 
L 235.066008 249.643041 
L 233.601542 254.643041 
L 238.601542 253.178575 
L 243.601542 254.643041 
L 242.137076 249.643041 
L 243.601542 244.643041 
L 238.601542 246.107507 
z
" clip-path="url(#p6622699a64)" style="fill: #ff7f0e; stroke: #ffffff; stroke-width: 1.131371"/>
    <path d="M 288.264249 192.663221 
L 289.728715 197.663221 
L 288.264249 202.663221 
L 293.264249 201.198754 
L 298.264249 202.663221 
L 296.799783 197.663221 
L 298.264249 192.663221 
L 293.264249 194.127687 
z
" clip-path="url(#p6622699a64)" style="fill: #ff7f0e; stroke: #ffffff; stroke-width: 1.131371"/>
    <path d="M 252.174107 193.584988 
L 253.638573 198.584988 
L 252.174107 203.584988 
L 257.174107 202.120521 
L 262.174107 203.584988 
L 260.709641 198.584988 
L 262.174107 193.584988 
L 257.174107 195.049454 
z
" clip-path="url(#p6622699a64)" style="fill: #ff7f0e; stroke: #ffffff; stroke-width: 1.131371"/>
    <path d="M 273.386556 248.639244 
L 274.851023 253.639244 
L 273.386556 258.639244 
L 278.386556 257.174778 
L 283.386556 258.639244 
L 281.92209 253.639244 
L 283.386556 248.639244 
L 278.386556 250.10371 
z
" clip-path="url(#p6622699a64)" style="fill: #ff7f0e; stroke: #ffffff; stroke-width: 1.131371"/>
    <path d="M 254.097781 211.456237 
L 255.562247 216.456237 
L 254.097781 221.456237 
L 259.097781 219.991771 
L 264.097781 221.456237 
L 262.633314 216.456237 
L 264.097781 211.456237 
L 259.097781 212.920703 
z
" clip-path="url(#p6622699a64)" style="fill: #ff7f0e; stroke: #ffffff; stroke-width: 1.131371"/>
    <path d="M 229.85203 188.325502 
L 231.316496 193.325502 
L 229.85203 198.325502 
L 234.85203 196.861036 
L 239.85203 198.325502 
L 238.387564 193.325502 
L 239.85203 188.325502 
L 234.85203 189.789969 
z
" clip-path="url(#p6622699a64)" style="fill: #ff7f0e; stroke: #ffffff; stroke-width: 1.131371"/>
    <path d="M 208.126198 190.026864 
L 209.590664 195.026864 
L 208.126198 200.026864 
L 213.126198 198.562398 
L 218.126198 200.026864 
L 216.661732 195.026864 
L 218.126198 190.026864 
L 213.126198 191.49133 
z
" clip-path="url(#p6622699a64)" style="fill: #ff7f0e; stroke: #ffffff; stroke-width: 1.131371"/>
    <path d="M 240.480897 188.013991 
L 241.945363 193.013991 
L 240.480897 198.013991 
L 245.480897 196.549525 
L 250.480897 198.013991 
L 249.016431 193.013991 
L 250.480897 188.013991 
L 245.480897 189.478458 
z
" clip-path="url(#p6622699a64)" style="fill: #ff7f0e; stroke: #ffffff; stroke-width: 1.131371"/>
    <path d="M 275.276479 190.359526 
L 276.740945 195.359526 
L 275.276479 200.359526 
L 280.276479 198.89506 
L 285.276479 200.359526 
L 283.812013 195.359526 
L 285.276479 190.359526 
L 280.276479 191.823992 
z
" clip-path="url(#p6622699a64)" style="fill: #ff7f0e; stroke: #ffffff; stroke-width: 1.131371"/>
    <path d="M 233.681951 208.154591 
L 240.753018 194.012455 
L 226.610883 194.012455 
z
" clip-path="url(#p6622699a64)" style="fill: #ff7f0e; stroke: #ffffff; stroke-width: 1.131371"/>
    <path d="M 197.054435 209.608798 
L 204.125503 195.466662 
L 189.983367 195.466662 
z
" clip-path="url(#p6622699a64)" style="fill: #ff7f0e; stroke: #ffffff; stroke-width: 1.131371"/>
    <path d="M 217.725923 210.063283 
L 224.796991 195.921148 
L 210.654855 195.921148 
z
" clip-path="url(#p6622699a64)" style="fill: #ff7f0e; stroke: #ffffff; stroke-width: 1.131371"/>
    <path d="M 179.869439 212.956531 
L 186.940507 198.814396 
L 172.798371 198.814396 
z
" clip-path="url(#p6622699a64)" style="fill: #ff7f0e; stroke: #ffffff; stroke-width: 1.131371"/>
    <path d="M 220.410479 210.104327 
L 227.481547 195.962192 
L 213.339412 195.962192 
z
" clip-path="url(#p6622699a64)" style="fill: #ff7f0e; stroke: #ffffff; stroke-width: 1.131371"/>
    <path d="M 224.919764 210.765741 
L 231.990832 196.623606 
L 217.848696 196.623606 
z
" clip-path="url(#p6622699a64)" style="fill: #ff7f0e; stroke: #ffffff; stroke-width: 1.131371"/>
    <path d="M 297.423155 207.07993 
L 304.494223 192.937794 
L 290.352087 192.937794 
z
" clip-path="url(#p6622699a64)" style="fill: #ff7f0e; stroke: #ffffff; stroke-width: 1.131371"/>
    <path d="M 218.750672 203.048178 
L 225.821739 188.906042 
L 211.679604 188.906042 
z
" clip-path="url(#p6622699a64)" style="fill: #ff7f0e; stroke: #ffffff; stroke-width: 1.131371"/>
    <path d="M 171.992979 267.70921 
L 172.466651 272.065167 
L 168.457445 273.832934 
L 172.466651 275.600701 
L 171.992979 279.956659 
L 175.528513 277.368468 
L 179.064047 279.956659 
L 178.590375 275.600701 
L 182.599581 273.832934 
L 178.590375 272.065167 
L 179.064047 267.70921 
L 175.528513 270.2974 
z
" clip-path="url(#p6622699a64)" style="fill: #ff7f0e; stroke: #ffffff; stroke-width: 1.131371"/>
    <path d="M 217.326893 238.648579 
L 217.800565 243.004536 
L 213.791359 244.772303 
L 217.800565 246.54007 
L 217.326893 250.896027 
L 220.862427 248.307837 
L 224.397961 250.896027 
L 223.924289 246.54007 
L 227.933495 244.772303 
L 223.924289 243.004536 
L 224.397961 238.648579 
L 220.862427 241.236769 
z
" clip-path="url(#p6622699a64)" style="fill: #ff7f0e; stroke: #ffffff; stroke-width: 1.131371"/>
    <path d="M 174.93093 185.870559 
L 175.404601 190.226516 
L 171.395396 191.994283 
L 175.404601 193.76205 
L 174.93093 198.118008 
L 178.466464 195.529817 
L 182.001997 198.118008 
L 181.528326 193.76205 
L 185.537531 191.994283 
L 181.528326 190.226516 
L 182.001997 185.870559 
L 178.466464 188.458749 
z
" clip-path="url(#p6622699a64)" style="fill: #ff7f0e; stroke: #ffffff; stroke-width: 1.131371"/>
    <path d="M 173.438446 192.103467 
L 173.912118 196.459425 
L 169.902913 198.227192 
L 173.912118 199.994959 
L 173.438446 204.350916 
L 176.97398 201.762726 
L 180.509514 204.350916 
L 180.035843 199.994959 
L 184.045048 198.227192 
L 180.035843 196.459425 
L 180.509514 192.103467 
L 176.97398 194.691658 
z
" clip-path="url(#p6622699a64)" style="fill: #ff7f0e; stroke: #ffffff; stroke-width: 1.131371"/>
    <path d="M 165.466716 170.827129 
L 165.940388 175.183086 
L 161.931182 176.950853 
L 165.940388 178.71862 
L 165.466716 183.074577 
L 169.00225 180.486387 
L 172.537784 183.074577 
L 172.064112 178.71862 
L 176.073317 176.950853 
L 172.064112 175.183086 
L 172.537784 170.827129 
L 169.00225 173.415319 
z
" clip-path="url(#p6622699a64)" style="fill: #ff7f0e; stroke: #ffffff; stroke-width: 1.131371"/>
    <path d="M 178.839208 171.464857 
L 179.31288 175.820814 
L 175.303674 177.588581 
L 179.31288 179.356348 
L 178.839208 183.712305 
L 182.374742 181.124115 
L 185.910276 183.712305 
L 185.436604 179.356348 
L 189.44581 177.588581 
L 185.436604 175.820814 
L 185.910276 171.464857 
L 182.374742 174.053047 
z
" clip-path="url(#p6622699a64)" style="fill: #ff7f0e; stroke: #ffffff; stroke-width: 1.131371"/>
    <path d="M 191.435809 201.476743 
L 191.90948 205.832701 
L 187.900275 207.600468 
L 191.90948 209.368235 
L 191.435809 213.724192 
L 194.971343 211.136002 
L 198.506876 213.724192 
L 198.033205 209.368235 
L 202.04241 207.600468 
L 198.033205 205.832701 
L 198.506876 201.476743 
L 194.971343 204.064934 
z
" clip-path="url(#p6622699a64)" style="fill: #ff7f0e; stroke: #ffffff; stroke-width: 1.131371"/>
    <path d="M 193.666248 248.057551 
L 194.13992 252.413508 
L 190.130714 254.181275 
L 194.13992 255.949042 
L 193.666248 260.305 
L 197.201782 257.716809 
L 200.737316 260.305 
L 200.263644 255.949042 
L 204.27285 254.181275 
L 200.263644 252.413508 
L 200.737316 248.057551 
L 197.201782 250.645742 
z
" clip-path="url(#p6622699a64)" style="fill: #ff7f0e; stroke: #ffffff; stroke-width: 1.131371"/>
   </g>
   <g id="PathCollection_2"/>
   <g id="PathCollection_3"/>
   <g id="PathCollection_4"/>
   <g id="PathCollection_5"/>
   <g id="PathCollection_6"/>
   <g id="PathCollection_7"/>
   <g id="PathCollection_8"/>
   <g id="PathCollection_9"/>
   <g id="PathCollection_10"/>
   <g id="PathCollection_11"/>
   <g id="PathCollection_12"/>
   <g id="PathCollection_13"/>
   <g id="PathCollection_14"/>
   <g id="patch_3">
    <path d="M 52.66875 379.15 
L 52.66875 7.2 
" style="fill: none; stroke: #262626; stroke-width: 0.8; stroke-linejoin: miter; stroke-linecap: square"/>
   </g>
   <g id="patch_4">
    <path d="M 705.011649 379.15 
L 705.011649 7.2 
" style="fill: none; stroke: #262626; stroke-width: 0.8; stroke-linejoin: miter; stroke-linecap: square"/>
   </g>
   <g id="patch_5">
    <path d="M 52.66875 379.15 
L 705.011649 379.15 
" style="fill: none; stroke: #262626; stroke-width: 0.8; stroke-linejoin: miter; stroke-linecap: square"/>
   </g>
   <g id="patch_6">
    <path d="M 52.66875 7.2 
L 705.011649 7.2 
" style="fill: none; stroke: #262626; stroke-width: 0.8; stroke-linejoin: miter; stroke-linecap: square"/>
   </g>
   <g id="legend_1">
    <g id="patch_7">
     <path d="M 63.86875 110.9125 
L 209.84875 110.9125 
Q 213.04875 110.9125 213.04875 107.7125 
L 213.04875 18.4 
Q 213.04875 15.2 209.84875 15.2 
L 63.86875 15.2 
Q 60.66875 15.2 60.66875 18.4 
L 60.66875 107.7125 
Q 60.66875 110.9125 63.86875 110.9125 
z
" style="fill: #ffffff; opacity: 0.8; stroke: #cccccc; stroke-linejoin: miter"/>
    </g>
    <g id="text_15">
     <!-- Infiltration Times (s) -->
     <g style="fill: #262626" transform="translate(67.06875 33.2475) scale(0.16 -0.16)">
      <defs>
       <path id="ArialMT-49" d="M 597 0 
L 597 4581 
L 1203 4581 
L 1203 0 
L 597 0 
z
" transform="scale(0.015625)"/>
       <path id="ArialMT-66" d="M 556 0 
L 556 2881 
L 59 2881 
L 59 3319 
L 556 3319 
L 556 3672 
Q 556 4006 616 4169 
Q 697 4388 901 4523 
Q 1106 4659 1475 4659 
Q 1713 4659 2000 4603 
L 1916 4113 
Q 1741 4144 1584 4144 
Q 1328 4144 1222 4034 
Q 1116 3925 1116 3625 
L 1116 3319 
L 1763 3319 
L 1763 2881 
L 1116 2881 
L 1116 0 
L 556 0 
z
" transform="scale(0.015625)"/>
      </defs>
      <use xlink:href="#ArialMT-49"/>
      <use xlink:href="#ArialMT-6e" x="27.783203"/>
      <use xlink:href="#ArialMT-66" x="83.398438"/>
      <use xlink:href="#ArialMT-69" x="111.181641"/>
      <use xlink:href="#ArialMT-6c" x="133.398438"/>
      <use xlink:href="#ArialMT-74" x="155.615234"/>
      <use xlink:href="#ArialMT-72" x="183.398438"/>
      <use xlink:href="#ArialMT-61" x="216.699219"/>
      <use xlink:href="#ArialMT-74" x="272.314453"/>
      <use xlink:href="#ArialMT-69" x="300.097656"/>
      <use xlink:href="#ArialMT-6f" x="322.314453"/>
      <use xlink:href="#ArialMT-6e" x="377.929688"/>
      <use xlink:href="#ArialMT-20" x="433.544922"/>
      <use xlink:href="#ArialMT-54" x="459.578125"/>
      <use xlink:href="#ArialMT-69" x="516.912109"/>
      <use xlink:href="#ArialMT-6d" x="539.128906"/>
      <use xlink:href="#ArialMT-65" x="622.429688"/>
      <use xlink:href="#ArialMT-73" x="678.044922"/>
      <use xlink:href="#ArialMT-20" x="728.044922"/>
      <use xlink:href="#ArialMT-28" x="755.828125"/>
      <use xlink:href="#ArialMT-73" x="789.128906"/>
      <use xlink:href="#ArialMT-29" x="839.128906"/>
     </g>
    </g>
    <g id="PathCollection_15">
     <defs>
      <path id="m1daa8318ab" d="M 0 3 
C 0.795609 3 1.55874 2.683901 2.12132 2.12132 
C 2.683901 1.55874 3 0.795609 3 0 
C 3 -0.795609 2.683901 -1.55874 2.12132 -2.12132 
C 1.55874 -2.683901 0.795609 -3 0 -3 
C -0.795609 -3 -1.55874 -2.683901 -2.12132 -2.12132 
C -2.683901 -1.55874 -3 -0.795609 -3 0 
C -3 0.795609 -2.683901 1.55874 -2.12132 2.12132 
C -1.55874 2.683901 -0.795609 3 0 3 
z
" style="stroke: #1f77b4"/>
     </defs>
     <g>
      <use xlink:href="#m1daa8318ab" x="121.56125" y="51.8675" style="fill: #1f77b4; stroke: #1f77b4"/>
     </g>
    </g>
    <g id="text_16">
     <!-- 0 -->
     <g style="fill: #262626" transform="translate(150.36125 56.0675) scale(0.16 -0.16)">
      <use xlink:href="#ArialMT-30"/>
     </g>
    </g>
    <g id="PathCollection_16">
     <defs>
      <path id="mef7008ca4c" d="M 0 3 
C 0.795609 3 1.55874 2.683901 2.12132 2.12132 
C 2.683901 1.55874 3 0.795609 3 0 
C 3 -0.795609 2.683901 -1.55874 2.12132 -2.12132 
C 1.55874 -2.683901 0.795609 -3 0 -3 
C -0.795609 -3 -1.55874 -2.683901 -2.12132 -2.12132 
C -2.683901 -1.55874 -3 -0.795609 -3 0 
C -3 0.795609 -2.683901 1.55874 -2.12132 2.12132 
C -1.55874 2.683901 -0.795609 3 0 3 
z
" style="stroke: #ff7f0e"/>
     </defs>
     <g>
      <use xlink:href="#mef7008ca4c" x="121.56125" y="74.5" style="fill: #ff7f0e; stroke: #ff7f0e"/>
     </g>
    </g>
    <g id="text_17">
     <!-- 15 -->
     <g style="fill: #262626" transform="translate(150.36125 78.7) scale(0.16 -0.16)">
      <use xlink:href="#ArialMT-31"/>
      <use xlink:href="#ArialMT-35" x="55.615234"/>
     </g>
    </g>
    <g id="PathCollection_17">
     <defs>
      <path id="m7b4fcf2b32" d="M 0 3 
C 0.795609 3 1.55874 2.683901 2.12132 2.12132 
C 2.683901 1.55874 3 0.795609 3 0 
C 3 -0.795609 2.683901 -1.55874 2.12132 -2.12132 
C 1.55874 -2.683901 0.795609 -3 0 -3 
C -0.795609 -3 -1.55874 -2.683901 -2.12132 -2.12132 
C -2.683901 -1.55874 -3 -0.795609 -3 0 
C -3 0.795609 -2.683901 1.55874 -2.12132 2.12132 
C -1.55874 2.683901 -0.795609 3 0 3 
z
" style="stroke: #2ca02c"/>
     </defs>
     <g>
      <use xlink:href="#m7b4fcf2b32" x="121.56125" y="97.1325" style="fill: #2ca02c; stroke: #2ca02c"/>
     </g>
    </g>
    <g id="text_18">
     <!-- 30 -->
     <g style="fill: #262626" transform="translate(150.36125 101.3325) scale(0.16 -0.16)">
      <defs>
       <path id="ArialMT-33" d="M 269 1209 
L 831 1284 
Q 928 806 1161 595 
Q 1394 384 1728 384 
Q 2125 384 2398 659 
Q 2672 934 2672 1341 
Q 2672 1728 2419 1979 
Q 2166 2231 1775 2231 
Q 1616 2231 1378 2169 
L 1441 2663 
Q 1497 2656 1531 2656 
Q 1891 2656 2178 2843 
Q 2466 3031 2466 3422 
Q 2466 3731 2256 3934 
Q 2047 4138 1716 4138 
Q 1388 4138 1169 3931 
Q 950 3725 888 3313 
L 325 3413 
Q 428 3978 793 4289 
Q 1159 4600 1703 4600 
Q 2078 4600 2393 4439 
Q 2709 4278 2876 4000 
Q 3044 3722 3044 3409 
Q 3044 3113 2884 2869 
Q 2725 2625 2413 2481 
Q 2819 2388 3044 2092 
Q 3269 1797 3269 1353 
Q 3269 753 2831 336 
Q 2394 -81 1725 -81 
Q 1122 -81 723 278 
Q 325 638 269 1209 
z
" transform="scale(0.015625)"/>
      </defs>
      <use xlink:href="#ArialMT-33"/>
      <use xlink:href="#ArialMT-30" x="55.615234"/>
     </g>
    </g>
   </g>
  </g>
 </g>
 <defs>
  <clipPath id="p6622699a64">
   <rect x="52.66875" y="7.2" width="652.342899" height="371.95"/>
  </clipPath>
 </defs>
</svg>
