<?xml version="1.0" encoding="utf-8" standalone="no"?>
<!DOCTYPE svg PUBLIC "-//W3C//DTD SVG 1.1//EN"
  "http://www.w3.org/Graphics/SVG/1.1/DTD/svg11.dtd">
<svg height="439.401719pt" version="1.1" viewBox="0 0 709.796656 439.401719" width="709.796656pt" xmlns="http://www.w3.org/2000/svg" xmlns:xlink="http://www.w3.org/1999/xlink">
 <metadata>
  <rdf:RDF xmlns:cc="http://creativecommons.org/ns#" xmlns:dc="http://purl.org/dc/elements/1.1/" xmlns:rdf="http://www.w3.org/1999/02/22-rdf-syntax-ns#">
   <cc:Work>
    <dc:type rdf:resource="http://purl.org/dc/dcmitype/StillImage"/>
    <dc:date>2022-04-01T16:58:26.326592</dc:date>
    <dc:format>image/svg+xml</dc:format>
    <dc:creator>
     <cc:Agent>
      <dc:title>Matplotlib v3.4.2, https://matplotlib.org/</dc:title>
     </cc:Agent>
    </dc:creator>
   </cc:Work>
  </rdf:RDF>
 </metadata>
 <defs>
  <style type="text/css">*{stroke-linecap:butt;stroke-linejoin:round;}</style>
 </defs>
 <g id="figure_1">
  <g id="patch_1">
   <path d="M 0 439.401719 
L 709.796656 439.401719 
L 709.796656 0 
L 0 0 
z
" style="fill:#ffffff;"/>
  </g>
  <g id="axes_1">
   <g id="patch_2">
    <path d="M 44.195313 397.380625 
L 632.048437 397.380625 
L 632.048437 24.8475 
L 44.195313 24.8475 
z
" style="fill:#eaeaf2;"/>
   </g>
   <g id="matplotlib.axis_1">
    <g id="xtick_1">
     <g id="line2d_1">
      <path clip-path="url(#p23f9024b03)" d="M 70.915909 397.380625 
L 70.915909 24.8475 
" style="fill:none;stroke:#ffffff;stroke-linecap:round;"/>
     </g>
     <g id="line2d_2">
      <defs>
       <path d="M 0 0 
L 0 6 
" id="m66e812b77d" style="stroke:#262626;stroke-width:1.25;"/>
      </defs>
      <g>
       <use style="fill:#262626;stroke:#262626;stroke-width:1.25;" x="70.915909" xlink:href="#m66e812b77d" y="397.380625"/>
      </g>
     </g>
     <g id="text_1">
      <!-- 0 -->
      <g style="fill:#262626;" transform="translate(67.857393 414.754219)scale(0.11 -0.11)">
       <defs>
        <path d="M 266 2259 
Q 266 3072 433 3567 
Q 600 4063 929 4331 
Q 1259 4600 1759 4600 
Q 2128 4600 2406 4451 
Q 2684 4303 2865 4023 
Q 3047 3744 3150 3342 
Q 3253 2941 3253 2259 
Q 3253 1453 3087 958 
Q 2922 463 2592 192 
Q 2263 -78 1759 -78 
Q 1097 -78 719 397 
Q 266 969 266 2259 
z
M 844 2259 
Q 844 1131 1108 757 
Q 1372 384 1759 384 
Q 2147 384 2411 759 
Q 2675 1134 2675 2259 
Q 2675 3391 2411 3762 
Q 2147 4134 1753 4134 
Q 1366 4134 1134 3806 
Q 844 3388 844 2259 
z
" id="ArialMT-30" transform="scale(0.015625)"/>
       </defs>
       <use xlink:href="#ArialMT-30"/>
      </g>
     </g>
    </g>
    <g id="xtick_2">
     <g id="line2d_3">
      <path clip-path="url(#p23f9024b03)" d="M 179.222007 397.380625 
L 179.222007 24.8475 
" style="fill:none;stroke:#ffffff;stroke-linecap:round;"/>
     </g>
     <g id="line2d_4">
      <g>
       <use style="fill:#262626;stroke:#262626;stroke-width:1.25;" x="179.222007" xlink:href="#m66e812b77d" y="397.380625"/>
      </g>
     </g>
     <g id="text_2">
      <!-- 2 -->
      <g style="fill:#262626;" transform="translate(176.163491 414.754219)scale(0.11 -0.11)">
       <defs>
        <path d="M 3222 541 
L 3222 0 
L 194 0 
Q 188 203 259 391 
Q 375 700 629 1000 
Q 884 1300 1366 1694 
Q 2113 2306 2375 2664 
Q 2638 3022 2638 3341 
Q 2638 3675 2398 3904 
Q 2159 4134 1775 4134 
Q 1369 4134 1125 3890 
Q 881 3647 878 3216 
L 300 3275 
Q 359 3922 746 4261 
Q 1134 4600 1788 4600 
Q 2447 4600 2831 4234 
Q 3216 3869 3216 3328 
Q 3216 3053 3103 2787 
Q 2991 2522 2730 2228 
Q 2469 1934 1863 1422 
Q 1356 997 1212 845 
Q 1069 694 975 541 
L 3222 541 
z
" id="ArialMT-32" transform="scale(0.015625)"/>
       </defs>
       <use xlink:href="#ArialMT-32"/>
      </g>
     </g>
    </g>
    <g id="xtick_3">
     <g id="line2d_5">
      <path clip-path="url(#p23f9024b03)" d="M 287.528104 397.380625 
L 287.528104 24.8475 
" style="fill:none;stroke:#ffffff;stroke-linecap:round;"/>
     </g>
     <g id="line2d_6">
      <g>
       <use style="fill:#262626;stroke:#262626;stroke-width:1.25;" x="287.528104" xlink:href="#m66e812b77d" y="397.380625"/>
      </g>
     </g>
     <g id="text_3">
      <!-- 4 -->
      <g style="fill:#262626;" transform="translate(284.469588 414.754219)scale(0.11 -0.11)">
       <defs>
        <path d="M 2069 0 
L 2069 1097 
L 81 1097 
L 81 1613 
L 2172 4581 
L 2631 4581 
L 2631 1613 
L 3250 1613 
L 3250 1097 
L 2631 1097 
L 2631 0 
L 2069 0 
z
M 2069 1613 
L 2069 3678 
L 634 1613 
L 2069 1613 
z
" id="ArialMT-34" transform="scale(0.015625)"/>
       </defs>
       <use xlink:href="#ArialMT-34"/>
      </g>
     </g>
    </g>
    <g id="xtick_4">
     <g id="line2d_7">
      <path clip-path="url(#p23f9024b03)" d="M 395.834202 397.380625 
L 395.834202 24.8475 
" style="fill:none;stroke:#ffffff;stroke-linecap:round;"/>
     </g>
     <g id="line2d_8">
      <g>
       <use style="fill:#262626;stroke:#262626;stroke-width:1.25;" x="395.834202" xlink:href="#m66e812b77d" y="397.380625"/>
      </g>
     </g>
     <g id="text_4">
      <!-- 6 -->
      <g style="fill:#262626;" transform="translate(392.775686 414.754219)scale(0.11 -0.11)">
       <defs>
        <path d="M 3184 3459 
L 2625 3416 
Q 2550 3747 2413 3897 
Q 2184 4138 1850 4138 
Q 1581 4138 1378 3988 
Q 1113 3794 959 3422 
Q 806 3050 800 2363 
Q 1003 2672 1297 2822 
Q 1591 2972 1913 2972 
Q 2475 2972 2870 2558 
Q 3266 2144 3266 1488 
Q 3266 1056 3080 686 
Q 2894 316 2569 119 
Q 2244 -78 1831 -78 
Q 1128 -78 684 439 
Q 241 956 241 2144 
Q 241 3472 731 4075 
Q 1159 4600 1884 4600 
Q 2425 4600 2770 4297 
Q 3116 3994 3184 3459 
z
M 888 1484 
Q 888 1194 1011 928 
Q 1134 663 1356 523 
Q 1578 384 1822 384 
Q 2178 384 2434 671 
Q 2691 959 2691 1453 
Q 2691 1928 2437 2201 
Q 2184 2475 1800 2475 
Q 1419 2475 1153 2201 
Q 888 1928 888 1484 
z
" id="ArialMT-36" transform="scale(0.015625)"/>
       </defs>
       <use xlink:href="#ArialMT-36"/>
      </g>
     </g>
    </g>
    <g id="xtick_5">
     <g id="line2d_9">
      <path clip-path="url(#p23f9024b03)" d="M 504.140299 397.380625 
L 504.140299 24.8475 
" style="fill:none;stroke:#ffffff;stroke-linecap:round;"/>
     </g>
     <g id="line2d_10">
      <g>
       <use style="fill:#262626;stroke:#262626;stroke-width:1.25;" x="504.140299" xlink:href="#m66e812b77d" y="397.380625"/>
      </g>
     </g>
     <g id="text_5">
      <!-- 8 -->
      <g style="fill:#262626;" transform="translate(501.081783 414.754219)scale(0.11 -0.11)">
       <defs>
        <path d="M 1131 2484 
Q 781 2613 612 2850 
Q 444 3088 444 3419 
Q 444 3919 803 4259 
Q 1163 4600 1759 4600 
Q 2359 4600 2725 4251 
Q 3091 3903 3091 3403 
Q 3091 3084 2923 2848 
Q 2756 2613 2416 2484 
Q 2838 2347 3058 2040 
Q 3278 1734 3278 1309 
Q 3278 722 2862 322 
Q 2447 -78 1769 -78 
Q 1091 -78 675 323 
Q 259 725 259 1325 
Q 259 1772 486 2073 
Q 713 2375 1131 2484 
z
M 1019 3438 
Q 1019 3113 1228 2906 
Q 1438 2700 1772 2700 
Q 2097 2700 2305 2904 
Q 2513 3109 2513 3406 
Q 2513 3716 2298 3927 
Q 2084 4138 1766 4138 
Q 1444 4138 1231 3931 
Q 1019 3725 1019 3438 
z
M 838 1322 
Q 838 1081 952 856 
Q 1066 631 1291 507 
Q 1516 384 1775 384 
Q 2178 384 2440 643 
Q 2703 903 2703 1303 
Q 2703 1709 2433 1975 
Q 2163 2241 1756 2241 
Q 1359 2241 1098 1978 
Q 838 1716 838 1322 
z
" id="ArialMT-38" transform="scale(0.015625)"/>
       </defs>
       <use xlink:href="#ArialMT-38"/>
      </g>
     </g>
    </g>
    <g id="xtick_6">
     <g id="line2d_11">
      <path clip-path="url(#p23f9024b03)" d="M 612.446397 397.380625 
L 612.446397 24.8475 
" style="fill:none;stroke:#ffffff;stroke-linecap:round;"/>
     </g>
     <g id="line2d_12">
      <g>
       <use style="fill:#262626;stroke:#262626;stroke-width:1.25;" x="612.446397" xlink:href="#m66e812b77d" y="397.380625"/>
      </g>
     </g>
     <g id="text_6">
      <!-- 10 -->
      <g style="fill:#262626;" transform="translate(606.329365 414.754219)scale(0.11 -0.11)">
       <defs>
        <path d="M 2384 0 
L 1822 0 
L 1822 3584 
Q 1619 3391 1289 3197 
Q 959 3003 697 2906 
L 697 3450 
Q 1169 3672 1522 3987 
Q 1875 4303 2022 4600 
L 2384 4600 
L 2384 0 
z
" id="ArialMT-31" transform="scale(0.015625)"/>
       </defs>
       <use xlink:href="#ArialMT-31"/>
       <use x="55.615234" xlink:href="#ArialMT-30"/>
      </g>
     </g>
    </g>
    <g id="text_7">
     <!-- Post deflection (μm) -->
     <g style="fill:#262626;" transform="translate(284.64875 429.676094)scale(0.12 -0.12)">
      <defs>
       <path d="M 494 0 
L 494 4581 
L 2222 4581 
Q 2678 4581 2919 4538 
Q 3256 4481 3484 4323 
Q 3713 4166 3852 3881 
Q 3991 3597 3991 3256 
Q 3991 2672 3619 2267 
Q 3247 1863 2275 1863 
L 1100 1863 
L 1100 0 
L 494 0 
z
M 1100 2403 
L 2284 2403 
Q 2872 2403 3119 2622 
Q 3366 2841 3366 3238 
Q 3366 3525 3220 3729 
Q 3075 3934 2838 4000 
Q 2684 4041 2272 4041 
L 1100 4041 
L 1100 2403 
z
" id="ArialMT-50" transform="scale(0.015625)"/>
       <path d="M 213 1659 
Q 213 2581 725 3025 
Q 1153 3394 1769 3394 
Q 2453 3394 2887 2945 
Q 3322 2497 3322 1706 
Q 3322 1066 3130 698 
Q 2938 331 2570 128 
Q 2203 -75 1769 -75 
Q 1072 -75 642 372 
Q 213 819 213 1659 
z
M 791 1659 
Q 791 1022 1069 705 
Q 1347 388 1769 388 
Q 2188 388 2466 706 
Q 2744 1025 2744 1678 
Q 2744 2294 2464 2611 
Q 2184 2928 1769 2928 
Q 1347 2928 1069 2612 
Q 791 2297 791 1659 
z
" id="ArialMT-6f" transform="scale(0.015625)"/>
       <path d="M 197 991 
L 753 1078 
Q 800 744 1014 566 
Q 1228 388 1613 388 
Q 2000 388 2187 545 
Q 2375 703 2375 916 
Q 2375 1106 2209 1216 
Q 2094 1291 1634 1406 
Q 1016 1563 777 1677 
Q 538 1791 414 1992 
Q 291 2194 291 2438 
Q 291 2659 392 2848 
Q 494 3038 669 3163 
Q 800 3259 1026 3326 
Q 1253 3394 1513 3394 
Q 1903 3394 2198 3281 
Q 2494 3169 2634 2976 
Q 2775 2784 2828 2463 
L 2278 2388 
Q 2241 2644 2061 2787 
Q 1881 2931 1553 2931 
Q 1166 2931 1000 2803 
Q 834 2675 834 2503 
Q 834 2394 903 2306 
Q 972 2216 1119 2156 
Q 1203 2125 1616 2013 
Q 2213 1853 2448 1751 
Q 2684 1650 2818 1456 
Q 2953 1263 2953 975 
Q 2953 694 2789 445 
Q 2625 197 2315 61 
Q 2006 -75 1616 -75 
Q 969 -75 630 194 
Q 291 463 197 991 
z
" id="ArialMT-73" transform="scale(0.015625)"/>
       <path d="M 1650 503 
L 1731 6 
Q 1494 -44 1306 -44 
Q 1000 -44 831 53 
Q 663 150 594 308 
Q 525 466 525 972 
L 525 2881 
L 113 2881 
L 113 3319 
L 525 3319 
L 525 4141 
L 1084 4478 
L 1084 3319 
L 1650 3319 
L 1650 2881 
L 1084 2881 
L 1084 941 
Q 1084 700 1114 631 
Q 1144 563 1211 522 
Q 1278 481 1403 481 
Q 1497 481 1650 503 
z
" id="ArialMT-74" transform="scale(0.015625)"/>
       <path id="ArialMT-20" transform="scale(0.015625)"/>
       <path d="M 2575 0 
L 2575 419 
Q 2259 -75 1647 -75 
Q 1250 -75 917 144 
Q 584 363 401 755 
Q 219 1147 219 1656 
Q 219 2153 384 2558 
Q 550 2963 881 3178 
Q 1213 3394 1622 3394 
Q 1922 3394 2156 3267 
Q 2391 3141 2538 2938 
L 2538 4581 
L 3097 4581 
L 3097 0 
L 2575 0 
z
M 797 1656 
Q 797 1019 1065 703 
Q 1334 388 1700 388 
Q 2069 388 2326 689 
Q 2584 991 2584 1609 
Q 2584 2291 2321 2609 
Q 2059 2928 1675 2928 
Q 1300 2928 1048 2622 
Q 797 2316 797 1656 
z
" id="ArialMT-64" transform="scale(0.015625)"/>
       <path d="M 2694 1069 
L 3275 997 
Q 3138 488 2766 206 
Q 2394 -75 1816 -75 
Q 1088 -75 661 373 
Q 234 822 234 1631 
Q 234 2469 665 2931 
Q 1097 3394 1784 3394 
Q 2450 3394 2872 2941 
Q 3294 2488 3294 1666 
Q 3294 1616 3291 1516 
L 816 1516 
Q 847 969 1125 678 
Q 1403 388 1819 388 
Q 2128 388 2347 550 
Q 2566 713 2694 1069 
z
M 847 1978 
L 2700 1978 
Q 2663 2397 2488 2606 
Q 2219 2931 1791 2931 
Q 1403 2931 1139 2672 
Q 875 2413 847 1978 
z
" id="ArialMT-65" transform="scale(0.015625)"/>
       <path d="M 556 0 
L 556 2881 
L 59 2881 
L 59 3319 
L 556 3319 
L 556 3672 
Q 556 4006 616 4169 
Q 697 4388 901 4523 
Q 1106 4659 1475 4659 
Q 1713 4659 2000 4603 
L 1916 4113 
Q 1741 4144 1584 4144 
Q 1328 4144 1222 4034 
Q 1116 3925 1116 3625 
L 1116 3319 
L 1763 3319 
L 1763 2881 
L 1116 2881 
L 1116 0 
L 556 0 
z
" id="ArialMT-66" transform="scale(0.015625)"/>
       <path d="M 409 0 
L 409 4581 
L 972 4581 
L 972 0 
L 409 0 
z
" id="ArialMT-6c" transform="scale(0.015625)"/>
       <path d="M 2588 1216 
L 3141 1144 
Q 3050 572 2676 248 
Q 2303 -75 1759 -75 
Q 1078 -75 664 370 
Q 250 816 250 1647 
Q 250 2184 428 2587 
Q 606 2991 970 3192 
Q 1334 3394 1763 3394 
Q 2303 3394 2647 3120 
Q 2991 2847 3088 2344 
L 2541 2259 
Q 2463 2594 2264 2762 
Q 2066 2931 1784 2931 
Q 1359 2931 1093 2626 
Q 828 2322 828 1663 
Q 828 994 1084 691 
Q 1341 388 1753 388 
Q 2084 388 2306 591 
Q 2528 794 2588 1216 
z
" id="ArialMT-63" transform="scale(0.015625)"/>
       <path d="M 425 3934 
L 425 4581 
L 988 4581 
L 988 3934 
L 425 3934 
z
M 425 0 
L 425 3319 
L 988 3319 
L 988 0 
L 425 0 
z
" id="ArialMT-69" transform="scale(0.015625)"/>
       <path d="M 422 0 
L 422 3319 
L 928 3319 
L 928 2847 
Q 1294 3394 1984 3394 
Q 2284 3394 2536 3286 
Q 2788 3178 2913 3003 
Q 3038 2828 3088 2588 
Q 3119 2431 3119 2041 
L 3119 0 
L 2556 0 
L 2556 2019 
Q 2556 2363 2490 2533 
Q 2425 2703 2258 2804 
Q 2091 2906 1866 2906 
Q 1506 2906 1245 2678 
Q 984 2450 984 1813 
L 984 0 
L 422 0 
z
" id="ArialMT-6e" transform="scale(0.015625)"/>
       <path d="M 1497 -1347 
Q 1031 -759 709 28 
Q 388 816 388 1659 
Q 388 2403 628 3084 
Q 909 3875 1497 4659 
L 1900 4659 
Q 1522 4009 1400 3731 
Q 1209 3300 1100 2831 
Q 966 2247 966 1656 
Q 966 153 1900 -1347 
L 1497 -1347 
z
" id="ArialMT-28" transform="scale(0.015625)"/>
       <path d="M 3181 3319 
L 3181 0 
L 2678 0 
L 2678 394 
Q 2516 144 2356 50 
Q 2138 -78 1847 -78 
Q 1588 -78 1388 25 
Q 1238 103 1056 334 
L 1056 -1272 
L 500 -1272 
L 500 3319 
L 1056 3319 
L 1056 1913 
Q 1056 1147 1137 920 
Q 1219 694 1401 562 
Q 1584 431 1822 431 
Q 2072 431 2269 568 
Q 2466 706 2547 923 
Q 2628 1141 2628 1903 
L 2628 3319 
L 3181 3319 
z
" id="ArialMT-3bc" transform="scale(0.015625)"/>
       <path d="M 422 0 
L 422 3319 
L 925 3319 
L 925 2853 
Q 1081 3097 1340 3245 
Q 1600 3394 1931 3394 
Q 2300 3394 2536 3241 
Q 2772 3088 2869 2813 
Q 3263 3394 3894 3394 
Q 4388 3394 4653 3120 
Q 4919 2847 4919 2278 
L 4919 0 
L 4359 0 
L 4359 2091 
Q 4359 2428 4304 2576 
Q 4250 2725 4106 2815 
Q 3963 2906 3769 2906 
Q 3419 2906 3187 2673 
Q 2956 2441 2956 1928 
L 2956 0 
L 2394 0 
L 2394 2156 
Q 2394 2531 2256 2718 
Q 2119 2906 1806 2906 
Q 1569 2906 1367 2781 
Q 1166 2656 1075 2415 
Q 984 2175 984 1722 
L 984 0 
L 422 0 
z
" id="ArialMT-6d" transform="scale(0.015625)"/>
       <path d="M 791 -1347 
L 388 -1347 
Q 1322 153 1322 1656 
Q 1322 2244 1188 2822 
Q 1081 3291 891 3722 
Q 769 4003 388 4659 
L 791 4659 
Q 1378 3875 1659 3084 
Q 1900 2403 1900 1659 
Q 1900 816 1576 28 
Q 1253 -759 791 -1347 
z
" id="ArialMT-29" transform="scale(0.015625)"/>
      </defs>
      <use xlink:href="#ArialMT-50"/>
      <use x="66.699219" xlink:href="#ArialMT-6f"/>
      <use x="122.314453" xlink:href="#ArialMT-73"/>
      <use x="172.314453" xlink:href="#ArialMT-74"/>
      <use x="200.097656" xlink:href="#ArialMT-20"/>
      <use x="227.880859" xlink:href="#ArialMT-64"/>
      <use x="283.496094" xlink:href="#ArialMT-65"/>
      <use x="339.111328" xlink:href="#ArialMT-66"/>
      <use x="366.894531" xlink:href="#ArialMT-6c"/>
      <use x="389.111328" xlink:href="#ArialMT-65"/>
      <use x="444.726562" xlink:href="#ArialMT-63"/>
      <use x="494.726562" xlink:href="#ArialMT-74"/>
      <use x="522.509766" xlink:href="#ArialMT-69"/>
      <use x="544.726562" xlink:href="#ArialMT-6f"/>
      <use x="600.341797" xlink:href="#ArialMT-6e"/>
      <use x="655.957031" xlink:href="#ArialMT-20"/>
      <use x="683.740234" xlink:href="#ArialMT-28"/>
      <use x="717.041016" xlink:href="#ArialMT-3bc"/>
      <use x="774.658203" xlink:href="#ArialMT-6d"/>
      <use x="857.958984" xlink:href="#ArialMT-29"/>
     </g>
    </g>
   </g>
   <g id="matplotlib.axis_2">
    <g id="ytick_1">
     <g id="line2d_13">
      <path clip-path="url(#p23f9024b03)" d="M 44.195313 380.447301 
L 632.048437 380.447301 
" style="fill:none;stroke:#ffffff;stroke-linecap:round;"/>
     </g>
     <g id="line2d_14">
      <defs>
       <path d="M 0 0 
L -6 0 
" id="me737afe427" style="stroke:#262626;stroke-width:1.25;"/>
      </defs>
      <g>
       <use style="fill:#262626;stroke:#262626;stroke-width:1.25;" x="44.195313" xlink:href="#me737afe427" y="380.447301"/>
      </g>
     </g>
     <g id="text_8">
      <!-- 0 -->
      <g style="fill:#262626;" transform="translate(28.578281 384.384098)scale(0.11 -0.11)">
       <use xlink:href="#ArialMT-30"/>
      </g>
     </g>
    </g>
    <g id="ytick_2">
     <g id="line2d_15">
      <path clip-path="url(#p23f9024b03)" d="M 44.195313 331.614182 
L 632.048437 331.614182 
" style="fill:none;stroke:#ffffff;stroke-linecap:round;"/>
     </g>
     <g id="line2d_16">
      <g>
       <use style="fill:#262626;stroke:#262626;stroke-width:1.25;" x="44.195313" xlink:href="#me737afe427" y="331.614182"/>
      </g>
     </g>
     <g id="text_9">
      <!-- 2 -->
      <g style="fill:#262626;" transform="translate(28.578281 335.550979)scale(0.11 -0.11)">
       <use xlink:href="#ArialMT-32"/>
      </g>
     </g>
    </g>
    <g id="ytick_3">
     <g id="line2d_17">
      <path clip-path="url(#p23f9024b03)" d="M 44.195313 282.781063 
L 632.048437 282.781063 
" style="fill:none;stroke:#ffffff;stroke-linecap:round;"/>
     </g>
     <g id="line2d_18">
      <g>
       <use style="fill:#262626;stroke:#262626;stroke-width:1.25;" x="44.195313" xlink:href="#me737afe427" y="282.781063"/>
      </g>
     </g>
     <g id="text_10">
      <!-- 4 -->
      <g style="fill:#262626;" transform="translate(28.578281 286.71786)scale(0.11 -0.11)">
       <use xlink:href="#ArialMT-34"/>
      </g>
     </g>
    </g>
    <g id="ytick_4">
     <g id="line2d_19">
      <path clip-path="url(#p23f9024b03)" d="M 44.195313 233.947944 
L 632.048437 233.947944 
" style="fill:none;stroke:#ffffff;stroke-linecap:round;"/>
     </g>
     <g id="line2d_20">
      <g>
       <use style="fill:#262626;stroke:#262626;stroke-width:1.25;" x="44.195313" xlink:href="#me737afe427" y="233.947944"/>
      </g>
     </g>
     <g id="text_11">
      <!-- 6 -->
      <g style="fill:#262626;" transform="translate(28.578281 237.88474)scale(0.11 -0.11)">
       <use xlink:href="#ArialMT-36"/>
      </g>
     </g>
    </g>
    <g id="ytick_5">
     <g id="line2d_21">
      <path clip-path="url(#p23f9024b03)" d="M 44.195313 185.114824 
L 632.048437 185.114824 
" style="fill:none;stroke:#ffffff;stroke-linecap:round;"/>
     </g>
     <g id="line2d_22">
      <g>
       <use style="fill:#262626;stroke:#262626;stroke-width:1.25;" x="44.195313" xlink:href="#me737afe427" y="185.114824"/>
      </g>
     </g>
     <g id="text_12">
      <!-- 8 -->
      <g style="fill:#262626;" transform="translate(28.578281 189.051621)scale(0.11 -0.11)">
       <use xlink:href="#ArialMT-38"/>
      </g>
     </g>
    </g>
    <g id="ytick_6">
     <g id="line2d_23">
      <path clip-path="url(#p23f9024b03)" d="M 44.195313 136.281705 
L 632.048437 136.281705 
" style="fill:none;stroke:#ffffff;stroke-linecap:round;"/>
     </g>
     <g id="line2d_24">
      <g>
       <use style="fill:#262626;stroke:#262626;stroke-width:1.25;" x="44.195313" xlink:href="#me737afe427" y="136.281705"/>
      </g>
     </g>
     <g id="text_13">
      <!-- 10 -->
      <g style="fill:#262626;" transform="translate(22.46125 140.218502)scale(0.11 -0.11)">
       <use xlink:href="#ArialMT-31"/>
       <use x="55.615234" xlink:href="#ArialMT-30"/>
      </g>
     </g>
    </g>
    <g id="ytick_7">
     <g id="line2d_25">
      <path clip-path="url(#p23f9024b03)" d="M 44.195313 87.448586 
L 632.048437 87.448586 
" style="fill:none;stroke:#ffffff;stroke-linecap:round;"/>
     </g>
     <g id="line2d_26">
      <g>
       <use style="fill:#262626;stroke:#262626;stroke-width:1.25;" x="44.195313" xlink:href="#me737afe427" y="87.448586"/>
      </g>
     </g>
     <g id="text_14">
      <!-- 12 -->
      <g style="fill:#262626;" transform="translate(22.46125 91.385383)scale(0.11 -0.11)">
       <use xlink:href="#ArialMT-31"/>
       <use x="55.615234" xlink:href="#ArialMT-32"/>
      </g>
     </g>
    </g>
    <g id="ytick_8">
     <g id="line2d_27">
      <path clip-path="url(#p23f9024b03)" d="M 44.195313 38.615467 
L 632.048437 38.615467 
" style="fill:none;stroke:#ffffff;stroke-linecap:round;"/>
     </g>
     <g id="line2d_28">
      <g>
       <use style="fill:#262626;stroke:#262626;stroke-width:1.25;" x="44.195313" xlink:href="#me737afe427" y="38.615467"/>
      </g>
     </g>
     <g id="text_15">
      <!-- 14 -->
      <g style="fill:#262626;" transform="translate(22.46125 42.552264)scale(0.11 -0.11)">
       <use xlink:href="#ArialMT-31"/>
       <use x="55.615234" xlink:href="#ArialMT-34"/>
      </g>
     </g>
    </g>
    <g id="text_16">
     <!-- Wire deflection (μm) -->
     <g style="fill:#262626;" transform="translate(15.935625 264.9125)rotate(-90)scale(0.12 -0.12)">
      <defs>
       <path d="M 1294 0 
L 78 4581 
L 700 4581 
L 1397 1578 
Q 1509 1106 1591 641 
Q 1766 1375 1797 1488 
L 2669 4581 
L 3400 4581 
L 4056 2263 
Q 4303 1400 4413 641 
Q 4500 1075 4641 1638 
L 5359 4581 
L 5969 4581 
L 4713 0 
L 4128 0 
L 3163 3491 
Q 3041 3928 3019 4028 
Q 2947 3713 2884 3491 
L 1913 0 
L 1294 0 
z
" id="ArialMT-57" transform="scale(0.015625)"/>
       <path d="M 416 0 
L 416 3319 
L 922 3319 
L 922 2816 
Q 1116 3169 1280 3281 
Q 1444 3394 1641 3394 
Q 1925 3394 2219 3213 
L 2025 2691 
Q 1819 2813 1613 2813 
Q 1428 2813 1281 2702 
Q 1134 2591 1072 2394 
Q 978 2094 978 1738 
L 978 0 
L 416 0 
z
" id="ArialMT-72" transform="scale(0.015625)"/>
      </defs>
      <use xlink:href="#ArialMT-57"/>
      <use x="94.384766" xlink:href="#ArialMT-69"/>
      <use x="116.601562" xlink:href="#ArialMT-72"/>
      <use x="149.902344" xlink:href="#ArialMT-65"/>
      <use x="205.517578" xlink:href="#ArialMT-20"/>
      <use x="233.300781" xlink:href="#ArialMT-64"/>
      <use x="288.916016" xlink:href="#ArialMT-65"/>
      <use x="344.53125" xlink:href="#ArialMT-66"/>
      <use x="372.314453" xlink:href="#ArialMT-6c"/>
      <use x="394.53125" xlink:href="#ArialMT-65"/>
      <use x="450.146484" xlink:href="#ArialMT-63"/>
      <use x="500.146484" xlink:href="#ArialMT-74"/>
      <use x="527.929688" xlink:href="#ArialMT-69"/>
      <use x="550.146484" xlink:href="#ArialMT-6f"/>
      <use x="605.761719" xlink:href="#ArialMT-6e"/>
      <use x="661.376953" xlink:href="#ArialMT-20"/>
      <use x="689.160156" xlink:href="#ArialMT-28"/>
      <use x="722.460938" xlink:href="#ArialMT-3bc"/>
      <use x="780.078125" xlink:href="#ArialMT-6d"/>
      <use x="863.378906" xlink:href="#ArialMT-29"/>
     </g>
    </g>
   </g>
   <g id="PathCollection_1">
    <path clip-path="url(#p23f9024b03)" d="M 70.915909 383.447301 
C 71.711518 383.447301 72.474649 383.131202 73.037229 382.568621 
C 73.59981 382.006041 73.915909 381.24291 73.915909 380.447301 
C 73.915909 379.651692 73.59981 378.888562 73.037229 378.325981 
C 72.474649 377.7634 71.711518 377.447301 70.915909 377.447301 
C 70.1203 377.447301 69.357169 377.7634 68.794589 378.325981 
C 68.232008 378.888562 67.915909 379.651692 67.915909 380.447301 
C 67.915909 381.24291 68.232008 382.006041 68.794589 382.568621 
C 69.357169 383.131202 70.1203 383.447301 70.915909 383.447301 
z
" style="fill:#4c72b0;fill-opacity:0.65;stroke:#ffffff;stroke-opacity:0.65;stroke-width:0.48;"/>
    <path clip-path="url(#p23f9024b03)" d="M 155.967366 327.198827 
C 156.762975 327.198827 157.526106 326.882728 158.088686 326.320148 
C 158.651267 325.757567 158.967366 324.994436 158.967366 324.198827 
C 158.967366 323.403218 158.651267 322.640088 158.088686 322.077507 
C 157.526106 321.514926 156.762975 321.198827 155.967366 321.198827 
C 155.171757 321.198827 154.408626 321.514926 153.846046 322.077507 
C 153.283465 322.640088 152.967366 323.403218 152.967366 324.198827 
C 152.967366 324.994436 153.283465 325.757567 153.846046 326.320148 
C 154.408626 326.882728 155.171757 327.198827 155.967366 327.198827 
z
" style="fill:#4c72b0;fill-opacity:0.65;stroke:#ffffff;stroke-opacity:0.65;stroke-width:0.48;"/>
    <path clip-path="url(#p23f9024b03)" d="M 200.076891 290.354975 
C 200.8725 290.354975 201.63563 290.038876 202.198211 289.476296 
C 202.760792 288.913715 203.076891 288.150584 203.076891 287.354975 
C 203.076891 286.559366 202.760792 285.796236 202.198211 285.233655 
C 201.63563 284.671074 200.8725 284.354975 200.076891 284.354975 
C 199.281281 284.354975 198.518151 284.671074 197.95557 285.233655 
C 197.39299 285.796236 197.076891 286.559366 197.076891 287.354975 
C 197.076891 288.150584 197.39299 288.913715 197.95557 289.476296 
C 198.518151 290.038876 199.281281 290.354975 200.076891 290.354975 
z
" style="fill:#4c72b0;fill-opacity:0.65;stroke:#ffffff;stroke-opacity:0.65;stroke-width:0.48;"/>
    <path clip-path="url(#p23f9024b03)" d="M 242.384141 251.318654 
C 243.17975 251.318654 243.94288 251.002555 244.505461 250.439975 
C 245.068042 249.877394 245.384141 249.114264 245.384141 248.318654 
C 245.384141 247.523045 245.068042 246.759915 244.505461 246.197334 
C 243.94288 245.634753 243.17975 245.318654 242.384141 245.318654 
C 241.588531 245.318654 240.825401 245.634753 240.26282 246.197334 
C 239.700239 246.759915 239.384141 247.523045 239.384141 248.318654 
C 239.384141 249.114264 239.700239 249.877394 240.26282 250.439975 
C 240.825401 251.002555 241.588531 251.318654 242.384141 251.318654 
z
" style="fill:#4c72b0;fill-opacity:0.65;stroke:#ffffff;stroke-opacity:0.65;stroke-width:0.48;"/>
    <path clip-path="url(#p23f9024b03)" d="M 282.857601 214.836364 
C 283.65321 214.836364 284.41634 214.520265 284.978921 213.957684 
C 285.541502 213.395104 285.857601 212.631973 285.857601 211.836364 
C 285.857601 211.040755 285.541502 210.277624 284.978921 209.715044 
C 284.41634 209.152463 283.65321 208.836364 282.857601 208.836364 
C 282.061991 208.836364 281.298861 209.152463 280.73628 209.715044 
C 280.1737 210.277624 279.857601 211.040755 279.857601 211.836364 
C 279.857601 212.631973 280.1737 213.395104 280.73628 213.957684 
C 281.298861 214.520265 282.061991 214.836364 282.857601 214.836364 
z
" style="fill:#4c72b0;fill-opacity:0.65;stroke:#ffffff;stroke-opacity:0.65;stroke-width:0.48;"/>
    <path clip-path="url(#p23f9024b03)" d="M 329.323131 179.31704 
C 330.118741 179.31704 330.881871 179.000941 331.444452 178.43836 
C 332.007032 177.875779 332.323131 177.112649 332.323131 176.31704 
C 332.323131 175.52143 332.007032 174.7583 331.444452 174.195719 
C 330.881871 173.633139 330.118741 173.31704 329.323131 173.31704 
C 328.527522 173.31704 327.764392 173.633139 327.201811 174.195719 
C 326.63923 174.7583 326.323131 175.52143 326.323131 176.31704 
C 326.323131 177.112649 326.63923 177.875779 327.201811 178.43836 
C 327.764392 179.000941 328.527522 179.31704 329.323131 179.31704 
z
" style="fill:#4c72b0;fill-opacity:0.65;stroke:#ffffff;stroke-opacity:0.65;stroke-width:0.48;"/>
    <path clip-path="url(#p23f9024b03)" d="M 393.460271 153.923678 
C 394.25588 153.923678 395.01901 153.607579 395.581591 153.044998 
C 396.144172 152.482417 396.460271 151.719287 396.460271 150.923678 
C 396.460271 150.128068 396.144172 149.364938 395.581591 148.802357 
C 395.01901 148.239776 394.25588 147.923678 393.460271 147.923678 
C 392.664661 147.923678 391.901531 148.239776 391.33895 148.802357 
C 390.77637 149.364938 390.460271 150.128068 390.460271 150.923678 
C 390.460271 151.719287 390.77637 152.482417 391.33895 153.044998 
C 391.901531 153.607579 392.664661 153.923678 393.460271 153.923678 
z
" style="fill:#4c72b0;fill-opacity:0.65;stroke:#ffffff;stroke-opacity:0.65;stroke-width:0.48;"/>
    <path clip-path="url(#p23f9024b03)" d="M 440.384734 123.916478 
C 441.180344 123.916478 441.943474 123.600379 442.506055 123.037799 
C 443.068635 122.475218 443.384734 121.712087 443.384734 120.916478 
C 443.384734 120.120869 443.068635 119.357739 442.506055 118.795158 
C 441.943474 118.232577 441.180344 117.916478 440.384734 117.916478 
C 439.589125 117.916478 438.825995 118.232577 438.263414 118.795158 
C 437.700833 119.357739 437.384734 120.120869 437.384734 120.916478 
C 437.384734 121.712087 437.700833 122.475218 438.263414 123.037799 
C 438.825995 123.600379 439.589125 123.916478 440.384734 123.916478 
z
" style="fill:#4c72b0;fill-opacity:0.65;stroke:#ffffff;stroke-opacity:0.65;stroke-width:0.48;"/>
    <path clip-path="url(#p23f9024b03)" d="M 477.931173 102.885611 
C 478.726782 102.885611 479.489913 102.569512 480.052493 102.006931 
C 480.615074 101.44435 480.931173 100.68122 480.931173 99.885611 
C 480.931173 99.090001 480.615074 98.326871 480.052493 97.76429 
C 479.489913 97.20171 478.726782 96.885611 477.931173 96.885611 
C 477.135564 96.885611 476.372433 97.20171 475.809853 97.76429 
C 475.247272 98.326871 474.931173 99.090001 474.931173 99.885611 
C 474.931173 100.68122 475.247272 101.44435 475.809853 102.006931 
C 476.372433 102.569512 477.135564 102.885611 477.931173 102.885611 
z
" style="fill:#4c72b0;fill-opacity:0.65;stroke:#ffffff;stroke-opacity:0.65;stroke-width:0.48;"/>
    <path clip-path="url(#p23f9024b03)" d="M 483.40197 85.690633 
C 484.19758 85.690633 484.96071 85.374534 485.523291 84.811953 
C 486.085871 84.249372 486.40197 83.486242 486.40197 82.690633 
C 486.40197 81.895024 486.085871 81.131893 485.523291 80.569312 
C 484.96071 80.006732 484.19758 79.690633 483.40197 79.690633 
C 482.606361 79.690633 481.843231 80.006732 481.28065 80.569312 
C 480.718069 81.131893 480.40197 81.895024 480.40197 82.690633 
C 480.40197 83.486242 480.718069 84.249372 481.28065 84.811953 
C 481.843231 85.374534 482.606361 85.690633 483.40197 85.690633 
z
" style="fill:#4c72b0;fill-opacity:0.65;stroke:#ffffff;stroke-opacity:0.65;stroke-width:0.48;"/>
    <path clip-path="url(#p23f9024b03)" d="M 498.778538 71.315122 
C 499.574148 71.315122 500.337278 70.999023 500.899859 70.436442 
C 501.46244 69.873861 501.778538 69.110731 501.778538 68.315122 
C 501.778538 67.519513 501.46244 66.756382 500.899859 66.193802 
C 500.337278 65.631221 499.574148 65.315122 498.778538 65.315122 
C 497.982929 65.315122 497.219799 65.631221 496.657218 66.193802 
C 496.094637 66.756382 495.778538 67.519513 495.778538 68.315122 
C 495.778538 69.110731 496.094637 69.873861 496.657218 70.436442 
C 497.219799 70.999023 497.982929 71.315122 498.778538 71.315122 
z
" style="fill:#4c72b0;fill-opacity:0.65;stroke:#ffffff;stroke-opacity:0.65;stroke-width:0.48;"/>
    <path clip-path="url(#p23f9024b03)" d="M 529.187873 50.447081 
C 529.983482 50.447081 530.746613 50.130982 531.309193 49.568401 
C 531.871774 49.00582 532.187873 48.24269 532.187873 47.447081 
C 532.187873 46.651471 531.871774 45.888341 531.309193 45.32576 
C 530.746613 44.76318 529.983482 44.447081 529.187873 44.447081 
C 528.392264 44.447081 527.629133 44.76318 527.066553 45.32576 
C 526.503972 45.888341 526.187873 46.651471 526.187873 47.447081 
C 526.187873 48.24269 526.503972 49.00582 527.066553 49.568401 
C 527.629133 50.130982 528.392264 50.447081 529.187873 50.447081 
z
" style="fill:#4c72b0;fill-opacity:0.65;stroke:#ffffff;stroke-opacity:0.65;stroke-width:0.48;"/>
    <path clip-path="url(#p23f9024b03)" d="M 558.455198 49.703736 
C 559.250807 49.703736 560.013938 49.387637 560.576518 48.825056 
C 561.139099 48.262475 561.455198 47.499345 561.455198 46.703736 
C 561.455198 45.908126 561.139099 45.144996 560.576518 44.582415 
C 560.013938 44.019835 559.250807 43.703736 558.455198 43.703736 
C 557.659589 43.703736 556.896458 44.019835 556.333878 44.582415 
C 555.771297 45.144996 555.455198 45.908126 555.455198 46.703736 
C 555.455198 47.499345 555.771297 48.262475 556.333878 48.825056 
C 556.896458 49.387637 557.659589 49.703736 558.455198 49.703736 
z
" style="fill:#4c72b0;fill-opacity:0.65;stroke:#ffffff;stroke-opacity:0.65;stroke-width:0.48;"/>
    <path clip-path="url(#p23f9024b03)" d="M 601.959538 44.780824 
C 602.755147 44.780824 603.518277 44.464725 604.080858 43.902144 
C 604.643439 43.339563 604.959538 42.576433 604.959538 41.780824 
C 604.959538 40.985215 604.643439 40.222084 604.080858 39.659504 
C 603.518277 39.096923 602.755147 38.780824 601.959538 38.780824 
C 601.163928 38.780824 600.400798 39.096923 599.838217 39.659504 
C 599.275636 40.222084 598.959538 40.985215 598.959538 41.780824 
C 598.959538 42.576433 599.275636 43.339563 599.838217 43.902144 
C 600.400798 44.464725 601.163928 44.780824 601.959538 44.780824 
z
" style="fill:#4c72b0;fill-opacity:0.65;stroke:#ffffff;stroke-opacity:0.65;stroke-width:0.48;"/>
    <path clip-path="url(#p23f9024b03)" d="M 368.598674 238.789423 
L 370.098674 237.289423 
L 371.598674 238.789423 
L 373.098674 237.289423 
L 371.598674 235.789423 
L 373.098674 234.289423 
L 371.598674 232.789423 
L 370.098674 234.289423 
L 368.598674 232.789423 
L 367.098674 234.289423 
L 368.598674 235.789423 
L 367.098674 237.289423 
z
" style="fill:#dd8452;fill-opacity:0.65;stroke:#ffffff;stroke-opacity:0.65;stroke-width:0.48;"/>
    <path clip-path="url(#p23f9024b03)" d="M 391.684401 316.223614 
L 391.684401 320.466254 
L 395.927042 320.466254 
L 395.927042 316.223614 
z
" style="fill:#55a868;fill-opacity:0.65;stroke:#ffffff;stroke-opacity:0.65;stroke-width:0.48;"/>
    <path clip-path="url(#p23f9024b03)" d="M 504.379867 270.505541 
L 504.379867 274.748182 
L 508.622507 274.748182 
L 508.622507 270.505541 
z
" style="fill:#55a868;fill-opacity:0.65;stroke:#ffffff;stroke-opacity:0.65;stroke-width:0.48;"/>
    <path clip-path="url(#p23f9024b03)" d="M 563.950885 249.484932 
L 563.950885 253.727572 
L 568.193525 253.727572 
L 568.193525 249.484932 
z
" style="fill:#55a868;fill-opacity:0.65;stroke:#ffffff;stroke-opacity:0.65;stroke-width:0.48;"/>
    <path clip-path="url(#p23f9024b03)" d="M 69.915909 383.447301 
L 71.915909 383.447301 
L 71.915909 381.447301 
L 73.915909 381.447301 
L 73.915909 379.447301 
L 71.915909 379.447301 
L 71.915909 377.447301 
L 69.915909 377.447301 
L 69.915909 379.447301 
L 67.915909 379.447301 
L 67.915909 381.447301 
L 69.915909 381.447301 
z
" style="fill:#c44e52;fill-opacity:0.65;stroke:#ffffff;stroke-opacity:0.65;stroke-width:0.48;"/>
    <path clip-path="url(#p23f9024b03)" d="M 272.677816 300.317177 
L 274.677816 300.317177 
L 274.677816 298.317177 
L 276.677816 298.317177 
L 276.677816 296.317177 
L 274.677816 296.317177 
L 274.677816 294.317177 
L 272.677816 294.317177 
L 272.677816 296.317177 
L 270.677816 296.317177 
L 270.677816 298.317177 
L 272.677816 298.317177 
z
" style="fill:#c44e52;fill-opacity:0.65;stroke:#ffffff;stroke-opacity:0.65;stroke-width:0.48;"/>
    <path clip-path="url(#p23f9024b03)" d="M 70.915909 377.447301 
L 67.915909 380.447301 
L 70.915909 383.447301 
L 73.915909 380.447301 
z
" style="fill:#8172b3;fill-opacity:0.65;stroke:#ffffff;stroke-opacity:0.65;stroke-width:0.48;"/>
    <path clip-path="url(#p23f9024b03)" d="M 217.240012 305.112872 
L 214.240012 308.112872 
L 217.240012 311.112872 
L 220.240012 308.112872 
z
" style="fill:#8172b3;fill-opacity:0.65;stroke:#ffffff;stroke-opacity:0.65;stroke-width:0.48;"/>
    <path clip-path="url(#p23f9024b03)" d="M 281.781968 262.269595 
L 278.781968 265.269595 
L 281.781968 268.269595 
L 284.781968 265.269595 
z
" style="fill:#8172b3;fill-opacity:0.65;stroke:#ffffff;stroke-opacity:0.65;stroke-width:0.48;"/>
    <path clip-path="url(#p23f9024b03)" d="M 282.200829 235.602878 
L 279.200829 238.602878 
L 282.200829 241.602878 
L 285.200829 238.602878 
z
" style="fill:#8172b3;fill-opacity:0.65;stroke:#ffffff;stroke-opacity:0.65;stroke-width:0.48;"/>
    <path clip-path="url(#p23f9024b03)" d="M 296.901832 218.618372 
L 293.901832 221.618372 
L 296.901832 224.618372 
L 299.901832 221.618372 
z
" style="fill:#8172b3;fill-opacity:0.65;stroke:#ffffff;stroke-opacity:0.65;stroke-width:0.48;"/>
    <path clip-path="url(#p23f9024b03)" d="M 331.770081 193.712176 
L 328.770081 196.712176 
L 331.770081 199.712176 
L 334.770081 196.712176 
z
" style="fill:#8172b3;fill-opacity:0.65;stroke:#ffffff;stroke-opacity:0.65;stroke-width:0.48;"/>
    <path clip-path="url(#p23f9024b03)" d="M 443.181303 140.127696 
L 440.181303 143.127696 
L 443.181303 146.127696 
L 446.181303 143.127696 
z
" style="fill:#8172b3;fill-opacity:0.65;stroke:#ffffff;stroke-opacity:0.65;stroke-width:0.48;"/>
    <path clip-path="url(#p23f9024b03)" d="M 605.327841 41.108676 
L 602.327841 44.108676 
L 605.327841 47.108676 
L 608.327841 44.108676 
z
" style="fill:#8172b3;fill-opacity:0.65;stroke:#ffffff;stroke-opacity:0.65;stroke-width:0.48;"/>
   </g>
   <g id="PathCollection_2"/>
   <g id="PathCollection_3"/>
   <g id="PathCollection_4"/>
   <g id="PathCollection_5"/>
   <g id="PathCollection_6"/>
   <g id="patch_3">
    <path d="M 44.195313 397.380625 
L 44.195313 24.8475 
" style="fill:none;stroke:#ffffff;stroke-linecap:square;stroke-linejoin:miter;stroke-width:1.25;"/>
   </g>
   <g id="patch_4">
    <path d="M 632.048437 397.380625 
L 632.048437 24.8475 
" style="fill:none;stroke:#ffffff;stroke-linecap:square;stroke-linejoin:miter;stroke-width:1.25;"/>
   </g>
   <g id="patch_5">
    <path d="M 44.195313 397.380625 
L 632.048437 397.380625 
" style="fill:none;stroke:#ffffff;stroke-linecap:square;stroke-linejoin:miter;stroke-width:1.25;"/>
   </g>
   <g id="patch_6">
    <path d="M 44.195313 24.8475 
L 632.048437 24.8475 
" style="fill:none;stroke:#ffffff;stroke-linecap:square;stroke-linejoin:miter;stroke-width:1.25;"/>
   </g>
   <g id="text_17">
    <!-- Sample 199-I -->
    <g style="fill:#262626;" transform="translate(290.543125 18.8475)scale(0.16 -0.16)">
     <defs>
      <path d="M 288 1472 
L 859 1522 
Q 900 1178 1048 958 
Q 1197 738 1509 602 
Q 1822 466 2213 466 
Q 2559 466 2825 569 
Q 3091 672 3220 851 
Q 3350 1031 3350 1244 
Q 3350 1459 3225 1620 
Q 3100 1781 2813 1891 
Q 2628 1963 1997 2114 
Q 1366 2266 1113 2400 
Q 784 2572 623 2826 
Q 463 3081 463 3397 
Q 463 3744 659 4045 
Q 856 4347 1234 4503 
Q 1613 4659 2075 4659 
Q 2584 4659 2973 4495 
Q 3363 4331 3572 4012 
Q 3781 3694 3797 3291 
L 3216 3247 
Q 3169 3681 2898 3903 
Q 2628 4125 2100 4125 
Q 1550 4125 1298 3923 
Q 1047 3722 1047 3438 
Q 1047 3191 1225 3031 
Q 1400 2872 2139 2705 
Q 2878 2538 3153 2413 
Q 3553 2228 3743 1945 
Q 3934 1663 3934 1294 
Q 3934 928 3725 604 
Q 3516 281 3123 101 
Q 2731 -78 2241 -78 
Q 1619 -78 1198 103 
Q 778 284 539 648 
Q 300 1013 288 1472 
z
" id="ArialMT-53" transform="scale(0.015625)"/>
      <path d="M 2588 409 
Q 2275 144 1986 34 
Q 1697 -75 1366 -75 
Q 819 -75 525 192 
Q 231 459 231 875 
Q 231 1119 342 1320 
Q 453 1522 633 1644 
Q 813 1766 1038 1828 
Q 1203 1872 1538 1913 
Q 2219 1994 2541 2106 
Q 2544 2222 2544 2253 
Q 2544 2597 2384 2738 
Q 2169 2928 1744 2928 
Q 1347 2928 1158 2789 
Q 969 2650 878 2297 
L 328 2372 
Q 403 2725 575 2942 
Q 747 3159 1072 3276 
Q 1397 3394 1825 3394 
Q 2250 3394 2515 3294 
Q 2781 3194 2906 3042 
Q 3031 2891 3081 2659 
Q 3109 2516 3109 2141 
L 3109 1391 
Q 3109 606 3145 398 
Q 3181 191 3288 0 
L 2700 0 
Q 2613 175 2588 409 
z
M 2541 1666 
Q 2234 1541 1622 1453 
Q 1275 1403 1131 1340 
Q 988 1278 909 1158 
Q 831 1038 831 891 
Q 831 666 1001 516 
Q 1172 366 1500 366 
Q 1825 366 2078 508 
Q 2331 650 2450 897 
Q 2541 1088 2541 1459 
L 2541 1666 
z
" id="ArialMT-61" transform="scale(0.015625)"/>
      <path d="M 422 -1272 
L 422 3319 
L 934 3319 
L 934 2888 
Q 1116 3141 1344 3267 
Q 1572 3394 1897 3394 
Q 2322 3394 2647 3175 
Q 2972 2956 3137 2557 
Q 3303 2159 3303 1684 
Q 3303 1175 3120 767 
Q 2938 359 2589 142 
Q 2241 -75 1856 -75 
Q 1575 -75 1351 44 
Q 1128 163 984 344 
L 984 -1272 
L 422 -1272 
z
M 931 1641 
Q 931 1000 1190 694 
Q 1450 388 1819 388 
Q 2194 388 2461 705 
Q 2728 1022 2728 1688 
Q 2728 2322 2467 2637 
Q 2206 2953 1844 2953 
Q 1484 2953 1207 2617 
Q 931 2281 931 1641 
z
" id="ArialMT-70" transform="scale(0.015625)"/>
      <path d="M 350 1059 
L 891 1109 
Q 959 728 1153 556 
Q 1347 384 1650 384 
Q 1909 384 2104 503 
Q 2300 622 2425 820 
Q 2550 1019 2634 1356 
Q 2719 1694 2719 2044 
Q 2719 2081 2716 2156 
Q 2547 1888 2255 1720 
Q 1963 1553 1622 1553 
Q 1053 1553 659 1965 
Q 266 2378 266 3053 
Q 266 3750 677 4175 
Q 1088 4600 1706 4600 
Q 2153 4600 2523 4359 
Q 2894 4119 3086 3673 
Q 3278 3228 3278 2384 
Q 3278 1506 3087 986 
Q 2897 466 2520 194 
Q 2144 -78 1638 -78 
Q 1100 -78 759 220 
Q 419 519 350 1059 
z
M 2653 3081 
Q 2653 3566 2395 3850 
Q 2138 4134 1775 4134 
Q 1400 4134 1122 3828 
Q 844 3522 844 3034 
Q 844 2597 1108 2323 
Q 1372 2050 1759 2050 
Q 2150 2050 2401 2323 
Q 2653 2597 2653 3081 
z
" id="ArialMT-39" transform="scale(0.015625)"/>
      <path d="M 203 1375 
L 203 1941 
L 1931 1941 
L 1931 1375 
L 203 1375 
z
" id="ArialMT-2d" transform="scale(0.015625)"/>
      <path d="M 597 0 
L 597 4581 
L 1203 4581 
L 1203 0 
L 597 0 
z
" id="ArialMT-49" transform="scale(0.015625)"/>
     </defs>
     <use xlink:href="#ArialMT-53"/>
     <use x="66.699219" xlink:href="#ArialMT-61"/>
     <use x="122.314453" xlink:href="#ArialMT-6d"/>
     <use x="205.615234" xlink:href="#ArialMT-70"/>
     <use x="261.230469" xlink:href="#ArialMT-6c"/>
     <use x="283.447266" xlink:href="#ArialMT-65"/>
     <use x="339.0625" xlink:href="#ArialMT-20"/>
     <use x="366.845703" xlink:href="#ArialMT-31"/>
     <use x="422.460938" xlink:href="#ArialMT-39"/>
     <use x="478.076172" xlink:href="#ArialMT-39"/>
     <use x="533.691406" xlink:href="#ArialMT-2d"/>
     <use x="566.992188" xlink:href="#ArialMT-49"/>
    </g>
   </g>
   <g id="legend_1">
    <g id="patch_7">
     <path d="M 640.126969 106.044687 
L 700.396656 106.044687 
Q 702.596656 106.044687 702.596656 103.844687 
L 702.596656 27.0475 
Q 702.596656 24.8475 700.396656 24.8475 
L 640.126969 24.8475 
Q 637.926969 24.8475 637.926969 27.0475 
L 637.926969 103.844687 
Q 637.926969 106.044687 640.126969 106.044687 
z
" style="fill:#eaeaf2;opacity:0.8;stroke:#cccccc;stroke-linejoin:miter;"/>
    </g>
    <g id="PathCollection_7">
     <defs>
      <path d="M 0 3 
C 0.795609 3 1.55874 2.683901 2.12132 2.12132 
C 2.683901 1.55874 3 0.795609 3 0 
C 3 -0.795609 2.683901 -1.55874 2.12132 -2.12132 
C 1.55874 -2.683901 0.795609 -3 0 -3 
C -0.795609 -3 -1.55874 -2.683901 -2.12132 -2.12132 
C -2.683901 -1.55874 -3 -0.795609 -3 0 
C -3 0.795609 -2.683901 1.55874 -2.12132 2.12132 
C -1.55874 2.683901 -0.795609 3 0 3 
z
" id="m2c15c3db5a" style="stroke:#4c72b0;"/>
     </defs>
     <g>
      <use style="fill:#4c72b0;stroke:#4c72b0;" x="653.326969" xlink:href="#m2c15c3db5a" y="34.26625"/>
     </g>
    </g>
    <g id="text_18">
     <!-- r4:p6 -->
     <g style="fill:#262626;" transform="translate(673.126969 37.15375)scale(0.11 -0.11)">
      <defs>
       <path d="M 578 2678 
L 578 3319 
L 1219 3319 
L 1219 2678 
L 578 2678 
z
M 578 0 
L 578 641 
L 1219 641 
L 1219 0 
L 578 0 
z
" id="ArialMT-3a" transform="scale(0.015625)"/>
      </defs>
      <use xlink:href="#ArialMT-72"/>
      <use x="33.300781" xlink:href="#ArialMT-34"/>
      <use x="88.916016" xlink:href="#ArialMT-3a"/>
      <use x="116.699219" xlink:href="#ArialMT-70"/>
      <use x="172.314453" xlink:href="#ArialMT-36"/>
     </g>
    </g>
    <g id="PathCollection_8">
     <defs>
      <path d="M -1.5 3 
L 0 1.5 
L 1.5 3 
L 3 1.5 
L 1.5 0 
L 3 -1.5 
L 1.5 -3 
L 0 -1.5 
L -1.5 -3 
L -3 -1.5 
L -1.5 0 
L -3 1.5 
z
" id="m4ed1968e03" style="stroke:#dd8452;"/>
     </defs>
     <g>
      <use style="fill:#dd8452;stroke:#dd8452;" x="653.326969" xlink:href="#m4ed1968e03" y="49.85875"/>
     </g>
    </g>
    <g id="text_19">
     <!-- r5:p2 -->
     <g style="fill:#262626;" transform="translate(673.126969 52.74625)scale(0.11 -0.11)">
      <defs>
       <path d="M 266 1200 
L 856 1250 
Q 922 819 1161 601 
Q 1400 384 1738 384 
Q 2144 384 2425 690 
Q 2706 997 2706 1503 
Q 2706 1984 2436 2262 
Q 2166 2541 1728 2541 
Q 1456 2541 1237 2417 
Q 1019 2294 894 2097 
L 366 2166 
L 809 4519 
L 3088 4519 
L 3088 3981 
L 1259 3981 
L 1013 2750 
Q 1425 3038 1878 3038 
Q 2478 3038 2890 2622 
Q 3303 2206 3303 1553 
Q 3303 931 2941 478 
Q 2500 -78 1738 -78 
Q 1113 -78 717 272 
Q 322 622 266 1200 
z
" id="ArialMT-35" transform="scale(0.015625)"/>
      </defs>
      <use xlink:href="#ArialMT-72"/>
      <use x="33.300781" xlink:href="#ArialMT-35"/>
      <use x="88.916016" xlink:href="#ArialMT-3a"/>
      <use x="116.699219" xlink:href="#ArialMT-70"/>
      <use x="172.314453" xlink:href="#ArialMT-32"/>
     </g>
    </g>
    <g id="PathCollection_9">
     <defs>
      <path d="M -2.12132 -2.12132 
L -2.12132 2.12132 
L 2.12132 2.12132 
L 2.12132 -2.12132 
z
" id="ma6d4ae91a6" style="stroke:#55a868;"/>
     </defs>
     <g>
      <use style="fill:#55a868;stroke:#55a868;" x="653.326969" xlink:href="#ma6d4ae91a6" y="65.45125"/>
     </g>
    </g>
    <g id="text_20">
     <!-- r5:p3 -->
     <g style="fill:#262626;" transform="translate(673.126969 68.33875)scale(0.11 -0.11)">
      <defs>
       <path d="M 269 1209 
L 831 1284 
Q 928 806 1161 595 
Q 1394 384 1728 384 
Q 2125 384 2398 659 
Q 2672 934 2672 1341 
Q 2672 1728 2419 1979 
Q 2166 2231 1775 2231 
Q 1616 2231 1378 2169 
L 1441 2663 
Q 1497 2656 1531 2656 
Q 1891 2656 2178 2843 
Q 2466 3031 2466 3422 
Q 2466 3731 2256 3934 
Q 2047 4138 1716 4138 
Q 1388 4138 1169 3931 
Q 950 3725 888 3313 
L 325 3413 
Q 428 3978 793 4289 
Q 1159 4600 1703 4600 
Q 2078 4600 2393 4439 
Q 2709 4278 2876 4000 
Q 3044 3722 3044 3409 
Q 3044 3113 2884 2869 
Q 2725 2625 2413 2481 
Q 2819 2388 3044 2092 
Q 3269 1797 3269 1353 
Q 3269 753 2831 336 
Q 2394 -81 1725 -81 
Q 1122 -81 723 278 
Q 325 638 269 1209 
z
" id="ArialMT-33" transform="scale(0.015625)"/>
      </defs>
      <use xlink:href="#ArialMT-72"/>
      <use x="33.300781" xlink:href="#ArialMT-35"/>
      <use x="88.916016" xlink:href="#ArialMT-3a"/>
      <use x="116.699219" xlink:href="#ArialMT-70"/>
      <use x="172.314453" xlink:href="#ArialMT-33"/>
     </g>
    </g>
    <g id="PathCollection_10">
     <defs>
      <path d="M -1 3 
L 1 3 
L 1 1 
L 3 1 
L 3 -1 
L 1 -1 
L 1 -3 
L -1 -3 
L -1 -1 
L -3 -1 
L -3 1 
L -1 1 
z
" id="mcc9427f03e" style="stroke:#c44e52;"/>
     </defs>
     <g>
      <use style="fill:#c44e52;stroke:#c44e52;" x="653.326969" xlink:href="#mcc9427f03e" y="81.011094"/>
     </g>
    </g>
    <g id="text_21">
     <!-- r5:p4 -->
     <g style="fill:#262626;" transform="translate(673.126969 83.898594)scale(0.11 -0.11)">
      <use xlink:href="#ArialMT-72"/>
      <use x="33.300781" xlink:href="#ArialMT-35"/>
      <use x="88.916016" xlink:href="#ArialMT-3a"/>
      <use x="116.699219" xlink:href="#ArialMT-70"/>
      <use x="172.314453" xlink:href="#ArialMT-34"/>
     </g>
    </g>
    <g id="PathCollection_11">
     <defs>
      <path d="M 0 -3 
L -3 -0 
L -0 3 
L 3 0 
z
" id="md101312c67" style="stroke:#8172b3;"/>
     </defs>
     <g>
      <use style="fill:#8172b3;stroke:#8172b3;" x="653.326969" xlink:href="#md101312c67" y="96.570937"/>
     </g>
    </g>
    <g id="text_22">
     <!-- r5:p5 -->
     <g style="fill:#262626;" transform="translate(673.126969 99.458437)scale(0.11 -0.11)">
      <use xlink:href="#ArialMT-72"/>
      <use x="33.300781" xlink:href="#ArialMT-35"/>
      <use x="88.916016" xlink:href="#ArialMT-3a"/>
      <use x="116.699219" xlink:href="#ArialMT-70"/>
      <use x="172.314453" xlink:href="#ArialMT-35"/>
     </g>
    </g>
   </g>
  </g>
 </g>
 <defs>
  <clipPath id="p23f9024b03">
   <rect height="372.533125" width="587.853125" x="44.195313" y="24.8475"/>
  </clipPath>
 </defs>
</svg>
