<?xml version="1.0" encoding="UTF-8"?><svg xmlns="http://www.w3.org/2000/svg" xmlns:xlink="http://www.w3.org/1999/xlink" viewBox="0 0 708.78 439.21"><defs><style>.jl{clip-path:url(#ig);}.jm{clip-path:url(#gp);}.jn{clip-path:url(#ik);}.jo{clip-path:url(#av);}.jp,.jq,.jr{fill:#262626;}.js{fill:#fff;}.jt{clip-path:url(#id);}.ju{clip-path:url(#hf);}.jv{clip-path:url(#hb);}.jw{clip-path:url(#gx);}.jx{fill:#eaeaf2;}.jy{clip-path:url(#ij);}.k`{fill:#ccb974;}.k`,.ka,.kb,.kc,.kd,.ke,.kf,.kg,.kh,.ki,.kj,.kk{stroke:#fff;}.k`,.ka,.kc,.kd,.ke,.kf,.kg,.kh,.ki,.kj,.kk,.jq,.jr{stroke-linejoin:round;}.k`,.ka,.kd,.ke,.kf,.kg,.kh,.ki,.kj,.kk{stroke-width:.48px;}.kl{clip-path:url(#ga);}.km{clip-path:url(#gq);}.kn{clip-path:url(#ht);}.ko{clip-path:url(#hd);}.kp{clip-path:url(#hq);}.kq{clip-path:url(#hc);}.kr{clip-path:url(#gs);}.ks{clip-path:url(#ha);}.kt{clip-path:url(#cd);}.ka{fill:#64b5cd;}.ku{clip-path:url(#gj);}.kv{clip-path:url(#gh);}.kb{stroke-linecap:square;}.kb,.kc,.kw{fill:none;}.kb,.jr{stroke-width:1.25px;}.kx{clip-path:url(#x);}.ky{clip-path:url(#hh);}.l`{clip-path:url(#gw);}.la{clip-path:url(#h`);}.kc{stroke-linecap:round;}.lb{clip-path:url(#gu);}.lc{clip-path:url(#ib);}.kd{fill:#937860;}.ke{fill:#da8bc3;}.ld{clip-path:url(#gl);}.kf{fill:#55a868;}.le{clip-path:url(#gi);}.lf{clip-path:url(#il);}.lg{clip-path:url(#ho);}.lh{clip-path:url(#gr);}.li{clip-path:url(#hw);}.lj{clip-path:url(#ic);}.kg{fill:#8c8c8c;}.lk{clip-path:url(#gn);}.ll{clip-path:url(#ie);}.lm{clip-path:url(#hr);}.ln{clip-path:url(#gg);}.lo{clip-path:url(#hv);}.lp{clip-path:url(#ia);}.kh{fill:#4c72b0;}.lq{clip-path:url(#hl);}.lr{clip-path:url(#if);}.ls{clip-path:url(#hy);}.lt{clip-path:url(#bu);}.lu{clip-path:url(#hm);}.lv{clip-path:url(#hg);}.lw{clip-path:url(#go);}.lx{clip-path:url(#af);}.ly{clip-path:url(#gb);}.m`{clip-path:url(#hn);}.ma{clip-path:url(#hp);}.mb{clip-path:url(#gc);}.mc{clip-path:url(#gt);}.ki{fill:#c44e52;}.md{clip-path:url(#i`);}.me{clip-path:url(#gm);}.kj{fill:#8172b3;}.mf{clip-path:url(#gd);}.mg{clip-path:url(#hs);}.mh{clip-path:url(#ii);}.mi{clip-path:url(#ih);}.mj{clip-path:url(#an);}.mk{clip-path:url(#gf);}.ml{clip-path:url(#gk);}.mm{clip-path:url(#gv);}.kk{fill:#dd8452;}.mn{clip-path:url(#j);}.mo{clip-path:url(#q);}.mp{clip-path:url(#he);}.mq{clip-path:url(#hi);}.jq,.jr{stroke:#262626;}.mr{clip-path:url(#hu);}.ms{clip-path:url(#gy);}.mt{clip-path:url(#ge);}.mu{clip-path:url(#hj);}.mv{clip-path:url(#hk);}.mw{clip-path:url(#cm);}.mx{clip-path:url(#hx);}</style><clipPath id="j"><rect class="kw" x="49.23" y="24.65" width="577.02" height="372.53"/></clipPath><clipPath id="q"><rect class="kw" x="49.23" y="24.65" width="577.02" height="372.53"/></clipPath><clipPath id="x"><rect class="kw" x="49.23" y="24.65" width="577.02" height="372.53"/></clipPath><clipPath id="af"><rect class="kw" x="49.23" y="24.65" width="577.02" height="372.53"/></clipPath><clipPath id="an"><rect class="kw" x="49.23" y="24.65" width="577.02" height="372.53"/></clipPath><clipPath id="av"><rect class="kw" x="49.23" y="24.65" width="577.02" height="372.53"/></clipPath><clipPath id="bu"><rect class="kw" x="49.23" y="24.65" width="577.02" height="372.53"/></clipPath><clipPath id="cd"><rect class="kw" x="49.23" y="24.65" width="577.02" height="372.53"/></clipPath><clipPath id="cm"><rect class="kw" x="49.23" y="24.65" width="577.02" height="372.53"/></clipPath><clipPath id="ga"><rect class="kw" x="49.23" y="24.65" width="577.02" height="372.53"/></clipPath><clipPath id="gb"><rect class="kw" x="49.23" y="24.65" width="577.02" height="372.53"/></clipPath><clipPath id="gc"><rect class="kw" x="49.23" y="24.65" width="577.02" height="372.53"/></clipPath><clipPath id="gd"><rect class="kw" x="49.23" y="24.65" width="577.02" height="372.53"/></clipPath><clipPath id="ge"><rect class="kw" x="49.23" y="24.65" width="577.02" height="372.53"/></clipPath><clipPath id="gf"><rect class="kw" x="49.23" y="24.65" width="577.02" height="372.53"/></clipPath><clipPath id="gg"><rect class="kw" x="49.23" y="24.65" width="577.02" height="372.53"/></clipPath><clipPath id="gh"><rect class="kw" x="49.23" y="24.65" width="577.02" height="372.53"/></clipPath><clipPath id="gi"><rect class="kw" x="49.23" y="24.65" width="577.02" height="372.53"/></clipPath><clipPath id="gj"><rect class="kw" x="49.23" y="24.65" width="577.02" height="372.53"/></clipPath><clipPath id="gk"><rect class="kw" x="49.23" y="24.65" width="577.02" height="372.53"/></clipPath><clipPath id="gl"><rect class="kw" x="49.23" y="24.65" width="577.02" height="372.53"/></clipPath><clipPath id="gm"><rect class="kw" x="49.23" y="24.65" width="577.02" height="372.53"/></clipPath><clipPath id="gn"><rect class="kw" x="49.23" y="24.65" width="577.02" height="372.53"/></clipPath><clipPath id="go"><rect class="kw" x="49.23" y="24.65" width="577.02" height="372.53"/></clipPath><clipPath id="gp"><rect class="kw" x="49.23" y="24.65" width="577.02" height="372.53"/></clipPath><clipPath id="gq"><rect class="kw" x="49.23" y="24.65" width="577.02" height="372.53"/></clipPath><clipPath id="gr"><rect class="kw" x="49.23" y="24.65" width="577.02" height="372.53"/></clipPath><clipPath id="gs"><rect class="kw" x="49.23" y="24.65" width="577.02" height="372.53"/></clipPath><clipPath id="gt"><rect class="kw" x="49.23" y="24.65" width="577.02" height="372.53"/></clipPath><clipPath id="gu"><rect class="kw" x="49.23" y="24.65" width="577.02" height="372.53"/></clipPath><clipPath id="gv"><rect class="kw" x="49.23" y="24.65" width="577.02" height="372.53"/></clipPath><clipPath id="gw"><rect class="kw" x="49.23" y="24.65" width="577.02" height="372.53"/></clipPath><clipPath id="gx"><rect class="kw" x="49.23" y="24.65" width="577.02" height="372.53"/></clipPath><clipPath id="gy"><rect class="kw" x="49.23" y="24.65" width="577.02" height="372.53"/></clipPath><clipPath id="h`"><rect class="kw" x="49.23" y="24.65" width="577.02" height="372.53"/></clipPath><clipPath id="ha"><rect class="kw" x="49.23" y="24.65" width="577.02" height="372.53"/></clipPath><clipPath id="hb"><rect class="kw" x="49.23" y="24.65" width="577.02" height="372.53"/></clipPath><clipPath id="hc"><rect class="kw" x="49.23" y="24.65" width="577.02" height="372.53"/></clipPath><clipPath id="hd"><rect class="kw" x="49.23" y="24.65" width="577.02" height="372.53"/></clipPath><clipPath id="he"><rect class="kw" x="49.23" y="24.65" width="577.02" height="372.53"/></clipPath><clipPath id="hf"><rect class="kw" x="49.23" y="24.65" width="577.02" height="372.53"/></clipPath><clipPath id="hg"><rect class="kw" x="49.23" y="24.65" width="577.02" height="372.53"/></clipPath><clipPath id="hh"><rect class="kw" x="49.23" y="24.65" width="577.02" height="372.53"/></clipPath><clipPath id="hi"><rect class="kw" x="49.23" y="24.65" width="577.02" height="372.53"/></clipPath><clipPath id="hj"><rect class="kw" x="49.23" y="24.65" width="577.02" height="372.53"/></clipPath><clipPath id="hk"><rect class="kw" x="49.23" y="24.65" width="577.02" height="372.53"/></clipPath><clipPath id="hl"><rect class="kw" x="49.23" y="24.65" width="577.02" height="372.53"/></clipPath><clipPath id="hm"><rect class="kw" x="49.23" y="24.65" width="577.02" height="372.53"/></clipPath><clipPath id="hn"><rect class="kw" x="49.23" y="24.65" width="577.02" height="372.53"/></clipPath><clipPath id="ho"><rect class="kw" x="49.23" y="24.65" width="577.02" height="372.53"/></clipPath><clipPath id="hp"><rect class="kw" x="49.23" y="24.65" width="577.02" height="372.53"/></clipPath><clipPath id="hq"><rect class="kw" x="49.23" y="24.65" width="577.02" height="372.53"/></clipPath><clipPath id="hr"><rect class="kw" x="49.23" y="24.65" width="577.02" height="372.53"/></clipPath><clipPath id="hs"><rect class="kw" x="49.23" y="24.65" width="577.02" height="372.53"/></clipPath><clipPath id="ht"><rect class="kw" x="49.23" y="24.65" width="577.02" height="372.53"/></clipPath><clipPath id="hu"><rect class="kw" x="49.23" y="24.65" width="577.02" height="372.53"/></clipPath><clipPath id="hv"><rect class="kw" x="49.23" y="24.65" width="577.02" height="372.53"/></clipPath><clipPath id="hw"><rect class="kw" x="49.23" y="24.65" width="577.02" height="372.53"/></clipPath><clipPath id="hx"><rect class="kw" x="49.23" y="24.65" width="577.02" height="372.53"/></clipPath><clipPath id="hy"><rect class="kw" x="49.23" y="24.65" width="577.02" height="372.53"/></clipPath><clipPath id="i`"><rect class="kw" x="49.23" y="24.65" width="577.02" height="372.53"/></clipPath><clipPath id="ia"><rect class="kw" x="49.23" y="24.65" width="577.02" height="372.53"/></clipPath><clipPath id="ib"><rect class="kw" x="49.23" y="24.65" width="577.02" height="372.53"/></clipPath><clipPath id="ic"><rect class="kw" x="49.23" y="24.65" width="577.02" height="372.53"/></clipPath><clipPath id="id"><rect class="kw" x="49.23" y="24.65" width="577.02" height="372.53"/></clipPath><clipPath id="ie"><rect class="kw" x="49.23" y="24.65" width="577.02" height="372.53"/></clipPath><clipPath id="if"><rect class="kw" x="49.23" y="24.65" width="577.02" height="372.53"/></clipPath><clipPath id="ig"><rect class="kw" x="49.23" y="24.65" width="577.02" height="372.53"/></clipPath><clipPath id="ih"><rect class="kw" x="49.23" y="24.65" width="577.02" height="372.53"/></clipPath><clipPath id="ii"><rect class="kw" x="49.23" y="24.65" width="577.02" height="372.53"/></clipPath><clipPath id="ij"><rect class="kw" x="49.23" y="24.65" width="577.02" height="372.53"/></clipPath><clipPath id="ik"><rect class="kw" x="49.23" y="24.65" width="577.02" height="372.53"/></clipPath><clipPath id="il"><rect class="kw" x="49.23" y="24.65" width="577.02" height="372.53"/></clipPath></defs><g id="a"/><g id="b"><g id="c"><g><g id="d"><path class="js" d="M0,439.21H708.78V0H0V439.21Z"/></g><g id="e"><g id="f"><path class="jx" d="M49.23,397.19H626.25V24.65H49.23V397.19Z"/></g><g id="g"><g id="h"><g id="i"><g class="mn"><path class="kc" d="M75.46,397.19V24.65"/></g></g><g id="k"><path id="l" class="jr" d="M75.46,397.19v6"/></g><g id="m"><g transform="translate(72.40091 414.559219)scale(0.11 -0.11)"><path id="n" class="jp" d="M72.86,410.68c0-.93,.1-1.68,.29-2.25,.19-.57,.48-1.01,.85-1.31,.38-.31,.85-.46,1.43-.46,.42,0,.79,.09,1.11,.26,.32,.17,.58,.41,.79,.74,.21,.32,.37,.71,.49,1.17,.12,.46,.18,1.08,.18,1.86,0,.92-.1,1.67-.29,2.24-.19,.57-.47,1.01-.85,1.32-.38,.31-.85,.46-1.43,.46-.76,0-1.35-.27-1.79-.82-.52-.66-.78-1.72-.78-3.2Zm.99,0c0,1.29,.15,2.15,.45,2.58,.3,.43,.68,.64,1.12,.64s.82-.21,1.12-.64,.45-1.29,.45-2.58-.15-2.16-.45-2.58c-.3-.43-.68-.64-1.13-.64s-.8,.19-1.06,.56c-.33,.48-.5,1.37-.5,2.66Z"/></g></g></g><g id="o"><g id="p"><g class="mo"><path class="kc" d="M178.79,397.19V24.65"/></g></g><g id="r"><path id="s" class="jr" d="M178.79,397.19v6"/></g><g id="t"><g transform="translate(175.732195 414.559219)scale(0.11 -0.11)"><path id="u" class="jp" d="M176.19,412.5l1.01-.09c.08,.49,.25,.87,.52,1.12,.27,.25,.6,.37,.99,.37,.47,0,.86-.18,1.18-.53,.32-.35,.48-.82,.48-1.4s-.15-.99-.46-1.3c-.31-.32-.71-.48-1.22-.48-.31,0-.59,.07-.84,.21-.25,.14-.45,.32-.59,.55l-.91-.12,.76-4.04h3.92v.92h-3.14l-.42,2.12c.47-.33,.97-.49,1.49-.49,.69,0,1.27,.24,1.74,.71,.47,.48,.71,1.09,.71,1.84s-.21,1.33-.62,1.85c-.51,.64-1.19,.96-2.07,.96-.72,0-1.3-.2-1.75-.6-.45-.4-.71-.93-.78-1.59Z"/></g></g></g><g id="v"><g id="w"><g class="kx"><path class="kc" d="M282.12,397.19V24.65"/></g></g><g id="y"><path id="a`" class="jr" d="M282.12,397.19v6"/></g><g id="aa"><g transform="translate(276.004964 414.559219)scale(0.11 -0.11)"><path id="ab" class="jp" d="M280.1,414.56h-.97v-6.16c-.23,.22-.54,.44-.92,.67s-.72,.39-1.02,.5v-.93c.54-.25,1.01-.56,1.42-.92,.4-.36,.69-.71,.86-1.05h.62v7.91Z"/><path id="ac" class="jp" d="M282.58,410.68c0-.93,.1-1.68,.29-2.25,.19-.57,.48-1.01,.85-1.31,.38-.31,.85-.46,1.43-.46,.42,0,.79,.09,1.11,.26,.32,.17,.58,.41,.79,.74,.21,.32,.37,.71,.49,1.17,.12,.46,.18,1.08,.18,1.86,0,.92-.1,1.67-.29,2.24-.19,.57-.47,1.01-.85,1.32-.38,.31-.85,.46-1.43,.46-.76,0-1.35-.27-1.79-.82-.52-.66-.78-1.72-.78-3.2Zm.99,0c0,1.29,.15,2.15,.45,2.58,.3,.43,.68,.64,1.12,.64s.82-.21,1.12-.64,.45-1.29,.45-2.58-.15-2.16-.45-2.58c-.3-.43-.68-.64-1.13-.64s-.8,.19-1.06,.56c-.33,.48-.5,1.37-.5,2.66Z"/></g></g></g><g id="ad"><g id="ae"><g class="lx"><path class="kc" d="M385.45,397.19V24.65"/></g></g><g id="ag"><path id="ah" class="jr" d="M385.45,397.19v6"/></g><g id="ai"><g transform="translate(379.336249 414.559219)scale(0.11 -0.11)"><path id="aj" class="jp" d="M383.43,414.56h-.97v-6.16c-.23,.22-.54,.44-.92,.67s-.72,.39-1.02,.5v-.93c.54-.25,1.01-.56,1.42-.92,.4-.36,.69-.71,.86-1.05h.62v7.91Z"/><path id="ak" class="jp" d="M385.91,412.5l1.01-.09c.08,.49,.25,.87,.52,1.12,.27,.25,.6,.37,.99,.37,.47,0,.86-.18,1.18-.53,.32-.35,.48-.82,.48-1.4s-.15-.99-.46-1.3c-.31-.32-.71-.48-1.22-.48-.31,0-.59,.07-.84,.21-.25,.14-.45,.32-.59,.55l-.91-.12,.76-4.04h3.92v.92h-3.14l-.42,2.12c.47-.33,.97-.49,1.49-.49,.69,0,1.27,.24,1.74,.71,.47,.48,.71,1.09,.71,1.84s-.21,1.33-.62,1.85c-.51,.64-1.19,.96-2.07,.96-.72,0-1.3-.2-1.75-.6-.45-.4-.71-.93-.78-1.59Z"/></g></g></g><g id="al"><g id="am"><g class="mj"><path class="kc" d="M488.78,397.19V24.65"/></g></g><g id="ao"><path id="ap" class="jr" d="M488.78,397.19v6"/></g><g id="aq"><g transform="translate(482.667534 414.559219)scale(0.11 -0.11)"><path id="ar" class="jp" d="M488.21,413.63v.93h-5.2c0-.23,.03-.46,.11-.67,.13-.35,.34-.7,.64-1.05,.29-.34,.71-.74,1.27-1.19,.86-.7,1.43-1.26,1.73-1.67,.3-.41,.45-.8,.45-1.16s-.14-.71-.41-.97c-.27-.26-.63-.4-1.07-.4-.47,0-.84,.14-1.12,.42-.28,.28-.42,.66-.42,1.16l-.99-.1c.07-.74,.32-1.31,.77-1.69,.44-.39,1.04-.58,1.79-.58s1.35,.21,1.79,.63c.44,.42,.66,.94,.66,1.56,0,.32-.06,.63-.19,.93-.13,.3-.34,.62-.64,.96s-.8,.8-1.49,1.39c-.58,.49-.95,.82-1.12,.99-.16,.17-.3,.35-.41,.52h3.86Z"/><path id="as" class="jp" d="M489.24,410.68c0-.93,.1-1.68,.29-2.25,.19-.57,.48-1.01,.85-1.31,.38-.31,.85-.46,1.43-.46,.42,0,.79,.09,1.11,.26,.32,.17,.58,.41,.79,.74,.21,.32,.37,.71,.49,1.17,.12,.46,.18,1.08,.18,1.86,0,.92-.1,1.67-.29,2.24-.19,.57-.47,1.01-.85,1.32-.38,.31-.85,.46-1.43,.46-.76,0-1.35-.27-1.79-.82-.52-.66-.78-1.72-.78-3.2Zm.99,0c0,1.29,.15,2.15,.45,2.58,.3,.43,.68,.64,1.12,.64s.82-.21,1.12-.64,.45-1.29,.45-2.58-.15-2.16-.45-2.58c-.3-.43-.68-.64-1.13-.64s-.8,.19-1.06,.56c-.33,.48-.5,1.37-.5,2.66Z"/></g></g></g><g id="at"><g id="au"><g class="jo"><path class="kc" d="M592.12,397.19V24.65"/></g></g><g id="aw"><path id="ax" class="jr" d="M592.12,397.19v6"/></g><g id="ay"><g transform="translate(585.998819 414.559219)scale(0.11 -0.11)"><path id="b`" class="jp" d="M591.54,413.63v.93h-5.2c0-.23,.03-.46,.11-.67,.13-.35,.34-.7,.64-1.05,.29-.34,.71-.74,1.27-1.19,.86-.7,1.43-1.26,1.73-1.67,.3-.41,.45-.8,.45-1.16s-.14-.71-.41-.97c-.27-.26-.63-.4-1.07-.4-.47,0-.84,.14-1.12,.42-.28,.28-.42,.66-.42,1.16l-.99-.1c.07-.74,.32-1.31,.77-1.69,.44-.39,1.04-.58,1.79-.58s1.35,.21,1.79,.63c.44,.42,.66,.94,.66,1.56,0,.32-.06,.63-.19,.93-.13,.3-.34,.62-.64,.96s-.8,.8-1.49,1.39c-.58,.49-.95,.82-1.12,.99-.16,.17-.3,.35-.41,.52h3.86Z"/><path id="ba" class="jp" d="M592.57,412.5l1.01-.09c.08,.49,.25,.87,.52,1.12,.27,.25,.6,.37,.99,.37,.47,0,.86-.18,1.18-.53,.32-.35,.48-.82,.48-1.4s-.15-.99-.46-1.3c-.31-.32-.71-.48-1.22-.48-.31,0-.59,.07-.84,.21-.25,.14-.45,.32-.59,.55l-.91-.12,.76-4.04h3.92v.92h-3.14l-.42,2.12c.47-.33,.97-.49,1.49-.49,.69,0,1.27,.24,1.74,.71,.47,.48,.71,1.09,.71,1.84s-.21,1.33-.62,1.85c-.51,.64-1.19,.96-2.07,.96-.72,0-1.3-.2-1.75-.6-.45-.4-.71-.93-.78-1.59Z"/></g></g></g><g id="bb"><g transform="translate(285.513058 429.481094)scale(0.12 -0.12)"><path id="bc" class="jp" d="M292.57,426.47l1.14,.29c-.24,.93-.67,1.65-1.29,2.14-.62,.49-1.38,.73-2.27,.73s-1.68-.19-2.26-.56c-.58-.38-1.02-.92-1.32-1.64-.3-.72-.45-1.48-.45-2.3,0-.89,.17-1.67,.51-2.34,.34-.67,.83-1.17,1.46-1.52,.63-.35,1.33-.52,2.08-.52,.86,0,1.58,.22,2.17,.66,.59,.44,.99,1.05,1.23,1.84l-1.12,.26c-.2-.62-.49-1.08-.87-1.36-.38-.29-.85-.43-1.43-.43-.66,0-1.21,.16-1.66,.48-.44,.32-.76,.74-.94,1.27-.18,.53-.27,1.08-.27,1.65,0,.73,.11,1.37,.32,1.91,.21,.55,.54,.95,.99,1.22,.45,.27,.94,.4,1.46,.4,.64,0,1.18-.18,1.62-.55,.44-.37,.74-.91,.9-1.63Z"/><path id="bd" class="jp" d="M295.09,429.48v-8.59h1.16l4.51,6.74v-6.74h1.09v8.59h-1.17l-4.51-6.75v6.75h-1.09Z"/><path id="be" class="jp" d="M305.96,429.48v-7.58h-2.83v-1.01h6.81v1.01h-2.84v7.58h-1.14Z"/><path id="bf" class="jp" d="M314.23,429.48v-8.59h2.96c.67,0,1.18,.04,1.53,.12,.49,.11,.91,.32,1.26,.61,.45,.38,.79,.87,1.02,1.47,.22,.59,.34,1.27,.34,2.04,0,.65-.08,1.23-.23,1.73-.15,.5-.35,.92-.58,1.25-.24,.33-.5,.59-.78,.78-.28,.19-.62,.33-1.02,.43s-.86,.15-1.38,.15h-3.1Zm1.14-1.01h1.83c.57,0,1.01-.05,1.33-.16s.58-.25,.77-.45c.27-.27,.48-.63,.63-1.09s.22-1.01,.22-1.66c0-.9-.15-1.59-.44-2.07s-.65-.81-1.07-.97c-.31-.12-.79-.18-1.47-.18h-1.81v6.56Z"/><path id="bg" class="jp" d="M322.76,422.1v-1.21h1.06v1.21h-1.06Zm0,7.38v-6.22h1.06v6.22h-1.06Z"/><path id="bh" class="jp" d="M329.48,428.71c-.39,.33-.77,.57-1.13,.7-.36,.14-.75,.2-1.16,.2-.68,0-1.21-.17-1.58-.5s-.55-.76-.55-1.28c0-.3,.07-.58,.21-.83,.14-.25,.32-.45,.55-.61s.48-.27,.76-.34c.21-.06,.52-.11,.94-.16,.85-.1,1.48-.22,1.88-.36,0-.14,0-.24,0-.28,0-.43-.1-.73-.3-.91-.27-.24-.67-.36-1.2-.36-.5,0-.86,.09-1.1,.26s-.41,.48-.52,.92l-1.03-.14c.09-.44,.25-.8,.46-1.07,.22-.27,.53-.48,.93-.63,.41-.15,.88-.22,1.41-.22s.96,.06,1.29,.19c.33,.13,.58,.28,.73,.47,.16,.19,.27,.43,.33,.72,.04,.18,.05,.5,.05,.97v1.41c0,.98,.02,1.6,.07,1.86,.04,.26,.13,.51,.27,.75h-1.1c-.11-.22-.18-.47-.21-.77Zm-.09-2.36c-.38,.16-.96,.29-1.72,.4-.43,.06-.74,.13-.92,.21-.18,.08-.32,.19-.42,.34-.1,.15-.15,.32-.15,.5,0,.28,.11,.52,.32,.7,.21,.19,.53,.28,.94,.28s.77-.09,1.08-.27c.32-.18,.55-.42,.7-.73,.11-.24,.17-.59,.17-1.05v-.39Z"/><path id="bi" class="jp" d="M332.1,429.48v-6.22h.94v.87c.19-.31,.45-.55,.78-.73,.33-.19,.69-.28,1.11-.28,.46,0,.84,.1,1.13,.29s.5,.46,.62,.8c.49-.73,1.13-1.09,1.92-1.09,.62,0,1.09,.17,1.42,.51,.33,.34,.5,.87,.5,1.58v4.27h-1.05v-3.92c0-.42-.03-.72-.1-.91-.07-.19-.19-.34-.37-.45-.18-.11-.39-.17-.63-.17-.44,0-.8,.15-1.09,.44-.29,.29-.43,.76-.43,1.4v3.61h-1.05v-4.04c0-.47-.09-.82-.26-1.05-.17-.23-.45-.35-.84-.35-.3,0-.57,.08-.82,.23-.25,.16-.43,.38-.55,.69-.11,.3-.17,.73-.17,1.3v3.23h-1.05Z"/><path id="bj" class="jp" d="M346.35,427.48l1.09,.13c-.17,.64-.49,1.13-.95,1.48-.46,.35-1.06,.53-1.78,.53-.91,0-1.63-.28-2.17-.84-.53-.56-.8-1.35-.8-2.36s.27-1.86,.81-2.44c.54-.58,1.24-.87,2.1-.87s1.51,.28,2.04,.85,.79,1.36,.79,2.39c0,.06,0,.16,0,.28h-4.64c.04,.68,.23,1.21,.58,1.57,.35,.36,.78,.54,1.3,.54,.39,0,.72-.1,.99-.3,.27-.2,.49-.53,.65-.97Zm-3.46-1.7h3.47c-.05-.52-.18-.92-.4-1.18-.34-.41-.77-.61-1.31-.61-.48,0-.89,.16-1.22,.49s-.51,.76-.55,1.3Z"/><path id="bk" class="jp" d="M351.07,428.54l.15,.93c-.3,.06-.56,.09-.8,.09-.38,0-.68-.06-.89-.18-.21-.12-.36-.28-.44-.48-.09-.2-.13-.61-.13-1.24v-3.58h-.77v-.82h.77v-1.54l1.05-.63v2.17h1.06v.82h-1.06v3.64c0,.3,.02,.49,.06,.58,.04,.08,.1,.15,.18,.2,.08,.05,.2,.08,.36,.08,.12,0,.27-.01,.46-.04Z"/><path id="bl" class="jp" d="M356.36,427.48l1.09,.13c-.17,.64-.49,1.13-.95,1.48-.46,.35-1.06,.53-1.78,.53-.91,0-1.63-.28-2.17-.84-.53-.56-.8-1.35-.8-2.36s.27-1.86,.81-2.44c.54-.58,1.24-.87,2.1-.87s1.51,.28,2.04,.85,.79,1.36,.79,2.39c0,.06,0,.16,0,.28h-4.64c.04,.68,.23,1.21,.58,1.57,.35,.36,.78,.54,1.3,.54,.39,0,.72-.1,.99-.3,.27-.2,.49-.53,.65-.97Zm-3.46-1.7h3.47c-.05-.52-.18-.92-.4-1.18-.34-.41-.77-.61-1.31-.61-.48,0-.89,.16-1.22,.49s-.51,.76-.55,1.3Z"/><path id="bm" class="jp" d="M358.76,429.48v-6.22h.95v.94c.24-.44,.47-.73,.67-.87,.21-.14,.43-.21,.68-.21,.36,0,.72,.11,1.08,.34l-.36,.98c-.26-.15-.51-.23-.77-.23-.23,0-.44,.07-.62,.21s-.31,.33-.39,.58c-.12,.37-.18,.78-.18,1.23v3.26h-1.05Z"/><path id="bn" class="jp" d="M368.12,432.01c-.58-.73-1.07-1.59-1.48-2.58-.4-.98-.6-2-.6-3.06,0-.93,.15-1.82,.45-2.67,.35-.99,.89-1.97,1.63-2.95h.76c-.47,.81-.78,1.39-.94,1.74-.24,.54-.43,1.1-.56,1.69-.17,.73-.25,1.46-.25,2.2,0,1.88,.58,3.76,1.75,5.63h-.76Z"/><path id="bo" class="jp" d="M370.1,429.48v-6.22h.95v.88c.46-.68,1.12-1.03,1.98-1.03,.37,0,.72,.07,1.03,.2s.55,.31,.71,.53,.27,.48,.33,.78c.04,.2,.06,.54,.06,1.03v3.83h-1.06v-3.79c0-.43-.04-.75-.12-.96-.08-.21-.23-.38-.43-.51-.21-.13-.45-.19-.73-.19-.45,0-.84,.14-1.16,.43s-.49,.83-.49,1.62v3.4h-1.05Z"/><path id="bp" class="jp" d="M376.77,429.48v-6.22h.94v.87c.19-.31,.45-.55,.78-.73,.33-.19,.69-.28,1.11-.28,.46,0,.84,.1,1.13,.29s.5,.46,.62,.8c.49-.73,1.13-1.09,1.92-1.09,.62,0,1.09,.17,1.42,.51,.33,.34,.5,.87,.5,1.58v4.27h-1.05v-3.92c0-.42-.03-.72-.1-.91-.07-.19-.19-.34-.37-.45-.18-.11-.39-.17-.63-.17-.44,0-.8,.15-1.09,.44-.29,.29-.43,.76-.43,1.4v3.61h-1.05v-4.04c0-.47-.09-.82-.26-1.05-.17-.23-.45-.35-.84-.35-.3,0-.57,.08-.82,.23-.25,.16-.43,.38-.55,.69-.11,.3-.17,.73-.17,1.3v3.23h-1.05Z"/><path id="bq" class="jp" d="M387.46,432.01h-.76c1.17-1.87,1.75-3.75,1.75-5.63,0-.73-.08-1.46-.25-2.19-.13-.59-.32-1.15-.56-1.69-.15-.35-.47-.94-.94-1.76h.76c.73,.98,1.28,1.96,1.63,2.95,.3,.85,.45,1.74,.45,2.67,0,1.05-.2,2.07-.61,3.06-.4,.98-.89,1.84-1.47,2.58Z"/></g></g></g><g id="br"><g id="bs"><g id="bt"><g class="lt"><path class="kc" d="M49.23,328.31H626.25"/></g></g><g id="bv"><path id="bw" class="jr" d="M49.23,328.31h-6"/></g><g id="bx"><g transform="translate(22.46125 333.923857)scale(0.11 -0.11)"><g transform="translate(0 0.846875)"><path id="by" class="jp" d="M26.56,333.83h-.97v-6.16c-.23,.22-.54,.44-.92,.67s-.72,.39-1.02,.5v-.93c.54-.25,1.01-.56,1.42-.92,.4-.36,.69-.71,.86-1.05h.62v7.91Z"/></g><g transform="translate(55.615234 0.846875)"><path id="c`" class="jp" d="M29.04,329.95c0-.93,.1-1.68,.29-2.25,.19-.57,.48-1.01,.85-1.31,.38-.31,.85-.46,1.43-.46,.42,0,.79,.09,1.11,.26,.32,.17,.58,.41,.79,.74,.21,.32,.37,.71,.49,1.17,.12,.46,.18,1.08,.18,1.86,0,.92-.1,1.67-.29,2.24-.19,.57-.47,1.01-.85,1.32-.38,.31-.85,.46-1.43,.46-.76,0-1.35-.27-1.79-.82-.52-.66-.78-1.72-.78-3.2Zm.99,0c0,1.29,.15,2.15,.45,2.58,.3,.43,.68,.64,1.12,.64s.82-.21,1.12-.64,.45-1.29,.45-2.58-.15-2.16-.45-2.58c-.3-.43-.68-.64-1.13-.64s-.8,.19-1.06,.56c-.33,.48-.5,1.37-.5,2.66Z"/></g><g transform="translate(112.972813 70.540625)scale(0.7)"><path id="ca" class="jp" d="M35.25,321.37v-.65h3.57v.53c-.35,.37-.7,.87-1.04,1.49-.34,.62-.61,1.26-.8,1.91-.14,.46-.22,.97-.26,1.51h-.7c0-.43,.09-.96,.26-1.57,.16-.61,.4-1.21,.7-1.78s.63-1.05,.97-1.44h-2.7Z"/></g></g></g></g><g id="cb"><g id="cc"><g class="kt"><path class="kc" d="M49.23,200.05H626.25"/></g></g><g id="ce"><path id="cf" class="jr" d="M49.23,200.05h-6"/></g><g id="cg"><g transform="translate(22.46125 205.723561)scale(0.11 -0.11)"><g transform="translate(0 0.99375)"><path id="ch" class="jp" d="M26.56,205.61h-.97v-6.16c-.23,.22-.54,.44-.92,.67s-.72,.39-1.02,.5v-.93c.54-.25,1.01-.56,1.42-.92,.4-.36,.69-.71,.86-1.05h.62v7.91Z"/></g><g transform="translate(55.615234 0.99375)"><path id="ci" class="jp" d="M29.04,201.73c0-.93,.1-1.68,.29-2.25,.19-.57,.48-1.01,.85-1.31,.38-.31,.85-.46,1.43-.46,.42,0,.79,.09,1.11,.26,.32,.17,.58,.41,.79,.74,.21,.32,.37,.71,.49,1.17,.12,.46,.18,1.08,.18,1.86,0,.92-.1,1.67-.29,2.24-.19,.57-.47,1.01-.85,1.32-.38,.31-.85,.46-1.43,.46-.76,0-1.35-.27-1.79-.82-.52-.66-.78-1.72-.78-3.2Zm.99,0c0,1.29,.15,2.15,.45,2.58,.3,.43,.68,.64,1.12,.64s.82-.21,1.12-.64,.45-1.29,.45-2.58-.15-2.16-.45-2.58c-.3-.43-.68-.64-1.13-.64s-.8,.19-1.06,.56c-.33,.48-.5,1.37-.5,2.66Z"/></g><g transform="translate(112.972813 70.6875)scale(0.7)"><path id="cj" class="jp" d="M36.25,194.96c-.28-.1-.49-.25-.62-.44-.13-.19-.2-.42-.2-.68,0-.4,.14-.74,.43-1.01,.29-.27,.67-.41,1.15-.41s.87,.14,1.16,.42c.29,.28,.44,.62,.44,1.02,0,.26-.07,.48-.2,.67-.13,.19-.34,.33-.61,.44,.34,.11,.6,.29,.77,.53,.18,.25,.26,.54,.26,.88,0,.47-.17,.87-.5,1.19-.33,.32-.77,.48-1.32,.48s-.98-.16-1.32-.48c-.33-.32-.5-.72-.5-1.21,0-.36,.09-.66,.27-.9,.18-.24,.44-.41,.78-.49Zm-.13-1.15c0,.26,.08,.47,.25,.64,.17,.17,.39,.25,.65,.25s.47-.08,.64-.25c.17-.16,.25-.37,.25-.6s-.09-.46-.26-.63c-.17-.17-.38-.25-.64-.25s-.47,.08-.64,.25c-.17,.17-.26,.36-.26,.59Zm-.22,2.55c0,.19,.05,.38,.14,.56s.23,.32,.41,.42c.18,.1,.37,.15,.58,.15,.32,0,.59-.1,.8-.31,.21-.21,.32-.47,.32-.79s-.11-.6-.32-.81c-.22-.21-.49-.32-.81-.32s-.58,.11-.79,.32c-.21,.21-.31,.47-.31,.79Z"/></g></g></g></g><g id="ck"><g id="cl"><g class="mw"><path class="kc" d="M49.23,71.8H626.25"/></g></g><g id="cn"><path id="co" class="jr" d="M49.23,71.8h-6"/></g><g id="cp"><g transform="translate(22.46125 77.468264)scale(0.11 -0.11)"><g transform="translate(0 0.99375)"><path id="cq" class="jp" d="M26.56,77.36h-.97v-6.16c-.23,.22-.54,.44-.92,.67s-.72,.39-1.02,.5v-.93c.54-.25,1.01-.56,1.42-.92,.4-.36,.69-.71,.86-1.05h.62v7.91Z"/></g><g transform="translate(55.615234 0.99375)"><path id="cr" class="jp" d="M29.04,73.48c0-.93,.1-1.68,.29-2.25,.19-.57,.48-1.01,.85-1.31,.38-.31,.85-.46,1.43-.46,.42,0,.79,.09,1.11,.26,.32,.17,.58,.41,.79,.74,.21,.32,.37,.71,.49,1.17,.12,.46,.18,1.08,.18,1.86,0,.92-.1,1.67-.29,2.24-.19,.57-.47,1.01-.85,1.32-.38,.31-.85,.46-1.43,.46-.76,0-1.35-.27-1.79-.82-.52-.66-.78-1.72-.78-3.2Zm.99,0c0,1.29,.15,2.15,.45,2.58,.3,.43,.68,.64,1.12,.64s.82-.21,1.12-.64,.45-1.29,.45-2.58-.15-2.16-.45-2.58c-.3-.43-.68-.64-1.13-.64s-.8,.19-1.06,.56c-.33,.48-.5,1.37-.5,2.66Z"/></g><g transform="translate(112.972813 70.6875)scale(0.7)"><path id="cs" class="jp" d="M35.31,68.42l.65-.06c.05,.31,.16,.53,.32,.67,.16,.14,.35,.21,.6,.21,.21,0,.39-.05,.55-.14,.16-.1,.29-.22,.39-.38,.1-.16,.18-.37,.25-.64,.07-.27,.1-.55,.1-.83,0-.03,0-.07,0-.13-.14,.21-.32,.39-.55,.52-.23,.13-.49,.2-.76,.2-.46,0-.84-.17-1.16-.5-.32-.33-.47-.77-.47-1.31s.16-1.01,.49-1.35c.33-.34,.74-.51,1.24-.51,.36,0,.69,.1,.98,.29,.3,.19,.52,.47,.68,.83,.15,.36,.23,.87,.23,1.55s-.08,1.26-.23,1.68c-.15,.42-.38,.73-.68,.95-.3,.22-.66,.33-1.06,.33-.43,0-.78-.12-1.06-.36-.27-.24-.44-.58-.49-1.01Zm2.77-2.43c0-.39-.1-.7-.31-.93-.21-.23-.45-.34-.75-.34s-.56,.12-.79,.37c-.22,.25-.33,.56-.33,.96,0,.35,.11,.64,.32,.86,.21,.22,.47,.33,.78,.33s.57-.11,.77-.33c.2-.22,.3-.52,.3-.91Z"/></g></g></g></g><g id="ct"><g id="cu"><path id="cv" class="jq" d="M49.23,395.37h-4"/></g></g><g id="cw"><g id="cx"><path id="cy" class="jq" d="M49.23,379.34h-4"/></g></g><g id="d`"><g id="da"><path id="db" class="jq" d="M49.23,366.92h-4"/></g></g><g id="dc"><g id="dd"><path id="de" class="jq" d="M49.23,356.76h-4"/></g></g><g id="df"><g id="dg"><path id="dh" class="jq" d="M49.23,348.17h-4"/></g></g><g id="di"><g id="dj"><path id="dk" class="jq" d="M49.23,340.74h-4"/></g></g><g id="dl"><g id="dm"><path id="dn" class="jq" d="M49.23,334.18h-4"/></g></g><g id="do"><g id="dp"><path id="dq" class="jq" d="M49.23,289.7h-4"/></g></g><g id="dr"><g id="ds"><path id="dt" class="jq" d="M49.23,267.11h-4"/></g></g><g id="du"><g id="dv"><path id="dw" class="jq" d="M49.23,251.09h-4"/></g></g><g id="dx"><g id="dy"><path id="e`" class="jq" d="M49.23,238.66h-4"/></g></g><g id="ea"><g id="eb"><path id="ec" class="jq" d="M49.23,228.5h-4"/></g></g><g id="ed"><g id="ee"><path id="ef" class="jq" d="M49.23,219.92h-4"/></g></g><g id="eg"><g id="eh"><path id="ei" class="jq" d="M49.23,212.48h-4"/></g></g><g id="ej"><g id="ek"><path id="el" class="jq" d="M49.23,205.92h-4"/></g></g><g id="em"><g id="en"><path id="eo" class="jq" d="M49.23,161.44h-4"/></g></g><g id="ep"><g id="eq"><path id="er" class="jq" d="M49.23,138.86h-4"/></g></g><g id="es"><g id="et"><path id="eu" class="jq" d="M49.23,122.83h-4"/></g></g><g id="ev"><g id="ew"><path id="ex" class="jq" d="M49.23,110.41h-4"/></g></g><g id="ey"><g id="f`"><path id="fa" class="jq" d="M49.23,100.25h-4"/></g></g><g id="fb"><g id="fc"><path id="fd" class="jq" d="M49.23,91.66h-4"/></g></g><g id="fe"><g id="ff"><path id="fg" class="jq" d="M49.23,84.23h-4"/></g></g><g id="fh"><g id="fi"><path id="fj" class="jq" d="M49.23,77.67h-4"/></g></g><g id="fk"><g id="fl"><path id="fm" class="jq" d="M49.23,33.19h-4"/></g></g><g id="fn"><g transform="translate(15.935625 246.5975)rotate(-90)scale(0.12 -0.12)"><path id="fo" class="jp" d="M15.94,245.71H7.35v-1.71l6.08-2.03c.57-.19,.99-.32,1.27-.41-.31-.1-.77-.25-1.38-.46l-5.98-2.06v-1.53H15.94v1.09h-7.19l7.19,2.5v1.03l-7.31,2.48h7.31v1.09Z"/><path id="fp" class="jp" d="M12.83,236.2c-1.15,0-2.01-.32-2.56-.96-.46-.53-.69-1.19-.69-1.96,0-.85,.28-1.55,.84-2.1,.56-.54,1.33-.82,2.32-.82,.8,0,1.43,.12,1.89,.36,.46,.24,.81,.59,1.07,1.05,.25,.46,.38,.96,.38,1.5,0,.87-.28,1.58-.84,2.11-.56,.54-1.36,.8-2.41,.8Zm0-1.08c.8,0,1.39-.17,1.79-.52,.4-.35,.59-.78,.59-1.31s-.2-.96-.6-1.31c-.4-.35-1.01-.52-1.82-.52-.77,0-1.35,.17-1.75,.52s-.59,.78-.59,1.3,.2,.96,.59,1.31c.39,.35,.99,.52,1.79,.52Z"/><path id="fq" class="jp" d="M15.94,225.1h-.79c.62,.4,.93,.97,.93,1.74,0,.5-.14,.95-.41,1.37s-.66,.74-1.15,.97c-.49,.23-1.05,.34-1.69,.34s-1.18-.1-1.69-.31c-.51-.21-.89-.52-1.16-.93-.27-.42-.4-.88-.4-1.39,0-.37,.08-.71,.24-1,.16-.29,.36-.53,.62-.72h-3.08v-1.05H15.94v.98Zm-3.1,3.33c.8,0,1.39-.17,1.79-.5,.39-.34,.59-.73,.59-1.19s-.19-.85-.56-1.17c-.38-.32-.95-.48-1.72-.48-.85,0-1.48,.16-1.87,.49-.4,.33-.6,.73-.6,1.21s.19,.86,.57,1.18c.38,.31,.99,.47,1.81,.47Z"/><path id="fr" class="jp" d="M15.94,218.38h-.91c.7,.49,1.06,1.14,1.06,1.97,0,.37-.07,.71-.21,1.03-.14,.32-.32,.55-.53,.71-.21,.15-.47,.26-.78,.32-.21,.04-.53,.07-.98,.07h-3.85v-1.06h3.45c.55,0,.92-.02,1.11-.06,.28-.07,.49-.21,.65-.42,.16-.21,.24-.48,.24-.8s-.08-.61-.24-.89c-.16-.28-.38-.47-.66-.59-.28-.12-.69-.17-1.22-.17h-3.33v-1.05h6.22v.94Z"/><path id="fs" class="jp" d="M15.94,215.81H7.35v-1.06H15.94v1.06Z"/><path id="ft" class="jp" d="M15.94,209.04h-.91c.7,.49,1.06,1.14,1.06,1.97,0,.37-.07,.71-.21,1.03-.14,.32-.32,.55-.53,.71-.21,.15-.47,.26-.78,.32-.21,.04-.53,.07-.98,.07h-3.85v-1.06h3.45c.55,0,.92-.02,1.11-.06,.28-.07,.49-.21,.65-.42,.16-.21,.24-.48,.24-.8s-.08-.61-.24-.89c-.16-.28-.38-.47-.66-.59-.28-.12-.69-.17-1.22-.17h-3.33v-1.05h6.22v.94Z"/><path id="fu" class="jp" d="M14.08,206.87l-.16-1.04c.42-.06,.74-.22,.96-.49,.22-.27,.33-.64,.33-1.12s-.1-.84-.29-1.08c-.2-.23-.43-.35-.7-.35-.24,0-.42,.1-.56,.31-.09,.14-.21,.5-.36,1.08-.2,.77-.37,1.31-.51,1.61s-.34,.53-.59,.68c-.25,.15-.53,.23-.84,.23-.28,0-.53-.06-.77-.19-.24-.13-.43-.3-.59-.52-.12-.16-.22-.39-.31-.67-.08-.28-.13-.59-.13-.91,0-.49,.07-.92,.21-1.28,.14-.37,.33-.64,.57-.82,.24-.18,.56-.3,.96-.36l.14,1.03c-.32,.05-.57,.18-.75,.41-.18,.22-.27,.54-.27,.95,0,.48,.08,.83,.24,1.04,.16,.21,.35,.31,.56,.31,.14,0,.26-.04,.37-.13,.11-.09,.21-.22,.28-.4,.04-.1,.13-.42,.27-.93,.2-.75,.36-1.27,.49-1.56,.13-.29,.31-.53,.55-.69,.24-.17,.54-.25,.9-.25s.68,.1,.99,.31c.31,.2,.55,.5,.72,.89,.17,.39,.25,.82,.25,1.31,0,.81-.17,1.42-.5,1.85-.34,.42-.83,.69-1.49,.81Z"/><path id="fv" class="jp" d="M18.46,195.1c-.73,.58-1.59,1.07-2.58,1.48-.98,.4-2,.6-3.06,.6-.93,0-1.82-.15-2.67-.45-.99-.35-1.97-.89-2.95-1.63v-.76c.81,.47,1.39,.78,1.74,.94,.54,.24,1.1,.43,1.69,.56,.73,.17,1.46,.25,2.2,.25,1.88,0,3.76-.58,5.63-1.75v.76Z"/><path id="fw" class="jp" d="M15.94,192.98H7.35v-3.24c0-.57,.03-1.01,.08-1.31,.07-.42,.21-.77,.4-1.06,.2-.29,.47-.52,.83-.69,.35-.17,.75-.26,1.17-.26,.73,0,1.35,.23,1.85,.7,.51,.46,.76,1.3,.76,2.52v2.2h3.49v1.14Zm-4.51-1.14v-2.22c0-.73-.14-1.26-.41-1.57s-.66-.46-1.15-.46c-.36,0-.67,.09-.92,.27-.26,.18-.43,.42-.51,.72-.05,.19-.08,.55-.08,1.06v2.2h3.07Z"/><path id="fx" class="jp" d="M15.17,181.05c.33,.39,.57,.77,.7,1.13,.14,.36,.2,.75,.2,1.16,0,.68-.17,1.21-.5,1.58s-.76,.55-1.28,.55c-.3,0-.58-.07-.83-.21-.25-.14-.45-.32-.61-.55s-.27-.48-.34-.76c-.06-.21-.11-.52-.16-.94-.1-.85-.22-1.48-.36-1.88-.14,0-.24,0-.28,0-.43,0-.73,.1-.91,.3-.24,.27-.36,.67-.36,1.2,0,.5,.09,.86,.26,1.1s.48,.41,.92,.52l-.14,1.03c-.44-.09-.8-.25-1.07-.46-.27-.22-.48-.53-.63-.93-.15-.41-.22-.88-.22-1.41s.06-.96,.19-1.29c.13-.33,.28-.58,.47-.73,.19-.16,.43-.27,.72-.33,.18-.04,.5-.05,.97-.05h1.41c.98,0,1.6-.02,1.86-.07,.26-.04,.51-.13,.75-.27v1.1c-.22,.11-.47,.18-.77,.21Zm-2.36,.09c.16,.38,.29,.96,.4,1.72,.06,.43,.13,.74,.21,.92,.08,.18,.19,.32,.34,.42,.15,.1,.32,.15,.5,.15,.28,0,.52-.11,.7-.32,.19-.21,.28-.53,.28-.94s-.09-.77-.27-1.08c-.18-.32-.42-.55-.73-.7-.24-.11-.59-.17-1.05-.17h-.39Z"/><path id="fy" class="jp" d="M18.46,177.75v.76c-1.87-1.17-3.75-1.75-5.63-1.75-.73,0-1.46,.08-2.19,.25-.59,.13-1.15,.32-1.69,.56-.35,.15-.94,.47-1.76,.94v-.76c.98-.73,1.96-1.28,2.95-1.63,.85-.3,1.74-.45,2.67-.45,1.05,0,2.07,.2,3.06,.61,.98,.4,1.84,.89,2.58,1.47Z"/></g></g></g><g id="g`"><g class="kl"><path class="kh" d="M553.41,145.62c.8,0,1.56-.32,2.12-.88,.56-.56,.88-1.33,.88-2.12s-.32-1.56-.88-2.12c-.56-.56-1.33-.88-2.12-.88s-1.56,.32-2.12,.88-.88,1.33-.88,2.12,.32,1.56,.88,2.12c.56,.56,1.33,.88,2.12,.88Z"/></g><g class="ly"><path class="kh" d="M519.31,195.7c.8,0,1.56-.32,2.12-.88,.56-.56,.88-1.33,.88-2.12s-.32-1.56-.88-2.12c-.56-.56-1.33-.88-2.12-.88s-1.56,.32-2.12,.88-.88,1.33-.88,2.12,.32,1.56,.88,2.12c.56,.56,1.33,.88,2.12,.88Z"/></g><g class="mb"><path class="kh" d="M524.36,154.15c.8,0,1.56-.32,2.12-.88,.56-.56,.88-1.33,.88-2.12s-.32-1.56-.88-2.12-1.33-.88-2.12-.88-1.56,.32-2.12,.88c-.56,.56-.88,1.33-.88,2.12s.32,1.56,.88,2.12c.56,.56,1.33,.88,2.12,.88Z"/></g><g class="mf"><path class="kh" d="M537.43,235.18c.8,0,1.56-.32,2.12-.88,.56-.56,.88-1.33,.88-2.12s-.32-1.56-.88-2.12c-.56-.56-1.33-.88-2.12-.88s-1.56,.32-2.12,.88c-.56,.56-.88,1.33-.88,2.12s.32,1.56,.88,2.12,1.33,.88,2.12,.88Z"/></g><g class="mt"><path class="kh" d="M600.02,260.77c.8,0,1.56-.32,2.12-.88,.56-.56,.88-1.33,.88-2.12s-.32-1.56-.88-2.12c-.56-.56-1.33-.88-2.12-.88s-1.56,.32-2.12,.88c-.56,.56-.88,1.33-.88,2.12s.32,1.56,.88,2.12,1.33,.88,2.12,.88Z"/></g><g class="mk"><path class="kh" d="M555.28,159.44c.8,0,1.56-.32,2.12-.88,.56-.56,.88-1.33,.88-2.12s-.32-1.56-.88-2.12c-.56-.56-1.33-.88-2.12-.88s-1.56,.32-2.12,.88c-.56,.56-.88,1.33-.88,2.12s.32,1.56,.88,2.12c.56,.56,1.33,.88,2.12,.88Z"/></g><g class="ln"><path class="kh" d="M541.62,167.52c.8,0,1.56-.32,2.12-.88s.88-1.33,.88-2.12-.32-1.56-.88-2.12c-.56-.56-1.33-.88-2.12-.88s-1.56,.32-2.12,.88c-.56,.56-.88,1.33-.88,2.12s.32,1.56,.88,2.12c.56,.56,1.33,.88,2.12,.88Z"/></g><g class="kv"><path class="kh" d="M536.85,164.7c.8,0,1.56-.32,2.12-.88,.56-.56,.88-1.33,.88-2.12s-.32-1.56-.88-2.12c-.56-.56-1.33-.88-2.12-.88s-1.56,.32-2.12,.88-.88,1.33-.88,2.12,.32,1.56,.88,2.12,1.33,.88,2.12,.88Z"/></g><g class="le"><path class="kk" d="M447.59,50.35l1.5-1.5,1.5,1.5,1.5-1.5-1.5-1.5,1.5-1.5-1.5-1.5-1.5,1.5-1.5-1.5-1.5,1.5,1.5,1.5-1.5,1.5,1.5,1.5Z"/></g><g class="ku"><path class="kk" d="M549.18,44.59l1.5-1.5,1.5,1.5,1.5-1.5-1.5-1.5,1.5-1.5-1.5-1.5-1.5,1.5-1.5-1.5-1.5,1.5,1.5,1.5-1.5,1.5,1.5,1.5Z"/></g><g class="ml"><path class="kk" d="M458.67,47.83l1.5-1.5,1.5,1.5,1.5-1.5-1.5-1.5,1.5-1.5-1.5-1.5-1.5,1.5-1.5-1.5-1.5,1.5,1.5,1.5-1.5,1.5,1.5,1.5Z"/></g><g class="ld"><path class="kk" d="M464.62,44.9l1.5-1.5,1.5,1.5,1.5-1.5-1.5-1.5,1.5-1.5-1.5-1.5-1.5,1.5-1.5-1.5-1.5,1.5,1.5,1.5-1.5,1.5,1.5,1.5Z"/></g><g class="me"><path class="kf" d="M204.53,350.52v4.24h4.24v-4.24h-4.24Z"/></g><g class="lk"><path class="kf" d="M227.21,356.44v4.24h4.24v-4.24h-4.24Z"/></g><g class="lw"><path class="kf" d="M254.51,355.35v4.24h4.24v-4.24h-4.24Z"/></g><g class="jm"><path class="kf" d="M208.16,356.9v4.24h4.24v-4.24h-4.24Z"/></g><g class="km"><path class="kf" d="M273.06,378.13v4.24h4.24v-4.24h-4.24Z"/></g><g class="lh"><path class="kf" d="M212.01,353.45v4.24h4.24v-4.24h-4.24Z"/></g><g class="kr"><path class="ki" d="M518.64,188.05h2v-2h2v-2h-2v-2h-2v2h-2v2h2v2Z"/></g><g class="mc"><path class="ki" d="M587.46,186.67h2v-2h2v-2h-2v-2h-2v2h-2v2h2v2Z"/></g><g class="lb"><path class="ki" d="M579.06,189.1h2v-2h2v-2h-2v-2h-2v2h-2v2h2v2Z"/></g><g class="mm"><path class="ki" d="M595.61,195.25h2v-2h2v-2h-2v-2h-2v2h-2v2h2v2Z"/></g><g class="l`"><path class="ki" d="M584.92,187.32h2v-2h2v-2h-2v-2h-2v2h-2v2h2v2Z"/></g><g class="jw"><path class="kj" d="M75.46,306.79l-3,3,3,3,3-3-3-3Z"/></g><g class="ms"><path class="kj" d="M268.15,287.79l-3,3,3,3,3-3-3-3Z"/></g><g class="la"><path class="kj" d="M254.14,291.78l-3,3,3,3,3-3-3-3Z"/></g><g class="ks"><path class="kj" d="M261.48,303.57l-3,3,3,3,3-3-3-3Z"/></g><g class="jv"><path class="kd" d="M467.75,148.6l-1.06,1.94-1.94,1.06,1.94,1.06,1.06,1.94,1.06-1.94,1.94-1.06-1.94-1.06-1.06-1.94Z"/></g><g class="kq"><path class="kd" d="M411.54,186.35l-1.06,1.94-1.94,1.06,1.94,1.06,1.06,1.94,1.06-1.94,1.94-1.06-1.94-1.06-1.06-1.94Z"/></g><g class="ko"><path class="kd" d="M379.21,192.06l-1.06,1.94-1.94,1.06,1.94,1.06,1.06,1.94,1.06-1.94,1.94-1.06-1.94-1.06-1.06-1.94Z"/></g><g class="mp"><path class="kd" d="M371.01,191.58l-1.06,1.94-1.94,1.06,1.94,1.06,1.06,1.94,1.06-1.94,1.94-1.06-1.94-1.06-1.06-1.94Z"/></g><g class="ju"><path class="kd" d="M429,165.97l-1.06,1.94-1.94,1.06,1.94,1.06,1.06,1.94,1.06-1.94,1.94-1.06-1.94-1.06-1.06-1.94Z"/></g><g class="lv"><path class="ke" d="M228.98,259.83l-3,6h6l-3-6Z"/></g><g class="ky"><path class="ke" d="M196.12,247.58l-3,6h6l-3-6Z"/></g><g class="mq"><path class="ke" d="M217.08,250.67l-3,6h6l-3-6Z"/></g><g class="mu"><path class="ke" d="M191.46,250.69l-3,6h6l-3-6Z"/></g><g class="mv"><path class="ke" d="M218.09,250.92l-3,6h6l-3-6Z"/></g><g class="lq"><path class="ke" d="M249.95,268.05l-3,6h6l-3-6Z"/></g><g class="lu"><path class="kg" d="M301.74,208.64l.62,2.12-.62,2.12,2.12-.62,2.12,.62-.62-2.12,.62-2.12-2.12,.62-2.12-.62Z"/></g><g class="m`"><path class="kg" d="M279.45,210.65l.62,2.12-.62,2.12,2.12-.62,2.12,.62-.62-2.12,.62-2.12-2.12,.62-2.12-.62Z"/></g><g class="lg"><path class="kg" d="M294.42,208.95l.62,2.12-.62,2.12,2.12-.62,2.12,.62-.62-2.12,.62-2.12-2.12,.62-2.12-.62Z"/></g><g class="ma"><path class="kg" d="M311.13,232.12l.62,2.12-.62,2.12,2.12-.62,2.12,.62-.62-2.12,.62-2.12-2.12,.62-2.12-.62Z"/></g><g class="kp"><path class="kg" d="M325.72,210.99l.62,2.12-.62,2.12,2.12-.62,2.12,.62-.62-2.12,.62-2.12-2.12,.62-2.12-.62Z"/></g><g class="lm"><path class="kg" d="M309.8,214.22l.62,2.12-.62,2.12,2.12-.62,2.12,.62-.62-2.12,.62-2.12-2.12,.62-2.12-.62Z"/></g><g class="mg"><path class="kg" d="M334.66,213.29l.62,2.12-.62,2.12,2.12-.62,2.12,.62-.62-2.12,.62-2.12-2.12,.62-2.12-.62Z"/></g><g class="kn"><path class="kg" d="M297,265.35l.62,2.12-.62,2.12,2.12-.62,2.12,.62-.62-2.12,.62-2.12-2.12,.62-2.12-.62Z"/></g><g class="mr"><path class="kg" d="M324.41,269.36l.62,2.12-.62,2.12,2.12-.62,2.12,.62-.62-2.12,.62-2.12-2.12,.62-2.12-.62Z"/></g><g class="lo"><path class="kg" d="M290.76,264.37l.62,2.12-.62,2.12,2.12-.62,2.12,.62-.62-2.12,.62-2.12-2.12,.62-2.12-.62Z"/></g><g class="li"><path class="k`" d="M339.65,220.76l3-6h-6l3,6Z"/></g><g class="mx"><path class="k`" d="M289.7,224.46l3-6h-6l3,6Z"/></g><g class="ls"><path class="k`" d="M286.59,223.79l3-6h-6l3,6Z"/></g><g class="md"><path class="k`" d="M285.45,216.73l3-6h-6l3,6Z"/></g><g class="lp"><path class="k`" d="M284.74,223.75l3-6h-6l3,6Z"/></g><g class="lc"><path class="k`" d="M258.66,226.65l3-6h-6l3,6Z"/></g><g class="lj"><path class="k`" d="M270.5,223.3l3-6h-6l3,6Z"/></g><g class="jt"><path class="k`" d="M295.74,221.84l3-6h-6l3,6Z"/></g><g class="ll"><path class="ka" d="M285.41,260l.2,1.85-1.7,.75,1.7,.75-.2,1.85,1.5-1.1,1.5,1.1-.2-1.85,1.7-.75-1.7-.75,.2-1.85-1.5,1.1-1.5-1.1Z"/></g><g class="lr"><path class="ka" d="M256.2,207.14l.2,1.85-1.7,.75,1.7,.75-.2,1.85,1.5-1.1,1.5,1.1-.2-1.85,1.7-.75-1.7-.75,.2-1.85-1.5,1.1-1.5-1.1Z"/></g><g class="jl"><path class="ka" d="M255.17,213.38l.2,1.85-1.7,.75,1.7,.75-.2,1.85,1.5-1.1,1.5,1.1-.2-1.85,1.7-.75-1.7-.75,.2-1.85-1.5,1.1-1.5-1.1Z"/></g><g class="mi"><path class="ka" d="M249.68,192.07l.2,1.85-1.7,.75,1.7,.75-.2,1.85,1.5-1.1,1.5,1.1-.2-1.85,1.7-.75-1.7-.75,.2-1.85-1.5,1.1-1.5-1.1Z"/></g><g class="mh"><path class="ka" d="M258.89,192.71l.2,1.85-1.7,.75,1.7,.75-.2,1.85,1.5-1.1,1.5,1.1-.2-1.85,1.7-.75-1.7-.75,.2-1.85-1.5,1.1-1.5-1.1Z"/></g><g class="jy"><path class="ka" d="M267.57,222.77l.2,1.85-1.7,.75,1.7,.75-.2,1.85,1.5-1.1,1.5,1.1-.2-1.85,1.7-.75-1.7-.75,.2-1.85-1.5,1.1-1.5-1.1Z"/></g><g class="jn"><path class="ka" d="M254.17,289.11l.2,1.85-1.7,.75,1.7,.75-.2,1.85,1.5-1.1,1.5,1.1-.2-1.85,1.7-.75-1.7-.75,.2-1.85-1.5,1.1-1.5-1.1Z"/></g><g class="lf"><path class="ka" d="M269.1,269.42l.2,1.85-1.7,.75,1.7,.75-.2,1.85,1.5-1.1,1.5,1.1-.2-1.85,1.7-.75-1.7-.75,.2-1.85-1.5,1.1-1.5-1.1Z"/></g></g><g id="im"><path class="kb" d="M49.23,397.19V24.65"/></g><g id="in"><path class="kb" d="M626.25,397.19V24.65"/></g><g id="io"><path class="kb" d="M49.23,397.19H626.25"/></g><g id="ip"><path class="kb" d="M49.23,24.65H626.25"/></g><g id="iq"><g transform="translate(244.084933 18.6525)scale(0.16 -0.16)"><path id="ir" class="jp" d="M245.27,18.65V7.2h2.28l2.71,8.11c.25,.76,.43,1.32,.55,1.7,.13-.42,.33-1.03,.61-1.84l2.74-7.97h2.04v11.45h-1.46V9.07l-3.33,9.58h-1.37l-3.31-9.75v9.75h-1.46Z"/><path id="is" class="jp" d="M257.95,14.51c0-1.54,.43-2.67,1.28-3.41,.71-.61,1.58-.92,2.61-.92,1.14,0,2.07,.37,2.79,1.12,.72,.75,1.09,1.78,1.09,3.1,0,1.07-.16,1.91-.48,2.52-.32,.61-.79,1.09-1.4,1.42-.61,.34-1.28,.51-2,.51-1.16,0-2.1-.37-2.82-1.12-.71-.74-1.07-1.82-1.07-3.22Zm1.44,0c0,1.06,.23,1.86,.69,2.38,.46,.53,1.05,.79,1.75,.79s1.28-.26,1.74-.79c.46-.53,.69-1.34,.69-2.43,0-1.03-.23-1.8-.7-2.33s-1.05-.79-1.74-.79-1.29,.26-1.75,.79c-.46,.52-.69,1.32-.69,2.38Z"/><path id="it" class="jp" d="M272.75,18.65v-1.05c-.53,.82-1.3,1.23-2.32,1.23-.66,0-1.27-.18-1.82-.55s-.98-.87-1.29-1.53c-.3-.65-.45-1.4-.45-2.25s.14-1.58,.41-2.25c.28-.67,.69-1.19,1.24-1.55,.55-.36,1.17-.54,1.85-.54,.5,0,.94,.11,1.33,.32,.39,.21,.71,.48,.95,.82V7.2h1.4v11.45h-1.3Zm-4.44-4.14c0,1.06,.22,1.86,.67,2.38,.45,.52,.98,.79,1.59,.79s1.14-.25,1.56-.75c.43-.5,.64-1.27,.64-2.3,0-1.14-.22-1.97-.66-2.5-.44-.53-.97-.8-1.61-.8s-1.15,.25-1.57,.76c-.42,.51-.63,1.31-.63,2.41Z"/><path id="iu" class="jp" d="M281.7,18.65v-1.22c-.65,.94-1.52,1.41-2.63,1.41-.49,0-.95-.09-1.37-.28-.42-.19-.74-.42-.94-.71-.2-.28-.35-.63-.43-1.04-.06-.27-.09-.71-.09-1.31v-5.14h1.41v4.6c0,.73,.03,1.23,.08,1.48,.09,.37,.28,.66,.56,.87,.29,.21,.64,.32,1.06,.32s.82-.11,1.19-.32c.37-.22,.63-.51,.78-.88,.15-.37,.23-.91,.23-1.62v-4.44h1.4v8.3h-1.26Z"/><path id="iv" class="jp" d="M285.13,18.65V7.2h1.41v11.45h-1.41Z"/><path id="iw" class="jp" d="M294.16,18.65v-1.22c-.65,.94-1.52,1.41-2.63,1.41-.49,0-.95-.09-1.37-.28-.42-.19-.74-.42-.94-.71-.2-.28-.35-.63-.43-1.04-.06-.27-.09-.71-.09-1.31v-5.14h1.41v4.6c0,.73,.03,1.23,.08,1.48,.09,.37,.28,.66,.56,.87,.29,.21,.64,.32,1.06,.32s.82-.11,1.19-.32c.37-.22,.63-.51,.78-.88,.15-.37,.23-.91,.23-1.62v-4.44h1.4v8.3h-1.26Z"/><path id="ix" class="jp" d="M297.05,16.18l1.39-.22c.08,.56,.3,.98,.65,1.28,.36,.3,.86,.44,1.5,.44s1.12-.13,1.43-.39c.31-.26,.47-.57,.47-.93,0-.32-.14-.57-.41-.75-.19-.12-.67-.28-1.44-.47-1.03-.26-1.74-.49-2.14-.68s-.7-.45-.91-.79c-.2-.34-.31-.71-.31-1.11,0-.37,.08-.71,.25-1.02,.17-.32,.4-.58,.69-.79,.22-.16,.52-.3,.89-.41,.38-.11,.78-.17,1.22-.17,.65,0,1.22,.09,1.71,.28,.49,.19,.86,.44,1.09,.76,.23,.32,.4,.75,.48,1.28l-1.37,.19c-.06-.43-.24-.76-.54-1-.3-.24-.72-.36-1.27-.36-.64,0-1.11,.11-1.38,.32-.28,.21-.41,.46-.41,.75,0,.18,.06,.35,.17,.49,.11,.15,.29,.27,.54,.37,.14,.05,.55,.17,1.24,.36,.99,.27,1.69,.48,2.08,.65,.39,.17,.7,.41,.92,.74,.22,.32,.34,.72,.34,1.2s-.14,.91-.41,1.32c-.27,.41-.67,.73-1.18,.96-.51,.23-1.1,.34-1.75,.34-1.08,0-1.9-.22-2.46-.67-.56-.45-.93-1.11-1.08-1.99Z"/><path id="iy" class="jp" d="M312.37,18.65l-3.16-8.3h1.48l1.78,4.97c.19,.54,.37,1.09,.53,1.67,.12-.44,.3-.96,.52-1.58l1.84-5.06h1.44l-3.14,8.3h-1.31Z"/><path id="j`" class="jp" d="M317.5,16.18l1.39-.22c.08,.56,.3,.98,.65,1.28,.36,.3,.86,.44,1.5,.44s1.12-.13,1.43-.39c.31-.26,.47-.57,.47-.93,0-.32-.14-.57-.41-.75-.19-.12-.67-.28-1.44-.47-1.03-.26-1.74-.49-2.14-.68s-.7-.45-.91-.79c-.2-.34-.31-.71-.31-1.11,0-.37,.08-.71,.25-1.02,.17-.32,.4-.58,.69-.79,.22-.16,.52-.3,.89-.41,.38-.11,.78-.17,1.22-.17,.65,0,1.22,.09,1.71,.28,.49,.19,.86,.44,1.09,.76,.23,.32,.4,.75,.48,1.28l-1.37,.19c-.06-.43-.24-.76-.54-1-.3-.24-.72-.36-1.27-.36-.64,0-1.11,.11-1.38,.32-.28,.21-.41,.46-.41,.75,0,.18,.06,.35,.17,.49,.11,.15,.29,.27,.54,.37,.14,.05,.55,.17,1.24,.36,.99,.27,1.69,.48,2.08,.65,.39,.17,.7,.41,.92,.74,.22,.32,.34,.72,.34,1.2s-.14,.91-.41,1.32c-.27,.41-.67,.73-1.18,.96-.51,.23-1.1,.34-1.75,.34-1.08,0-1.9-.22-2.46-.67-.56-.45-.93-1.11-1.08-1.99Z"/><path id="ja" class="jp" d="M338.86,14.64l1.51,.38c-.32,1.24-.89,2.19-1.71,2.85-.82,.65-1.83,.98-3.03,.98s-2.24-.25-3.01-.75c-.77-.5-1.36-1.23-1.76-2.18-.4-.95-.6-1.98-.6-3.07,0-1.19,.23-2.23,.68-3.12,.46-.89,1.1-1.56,1.94-2.02,.84-.46,1.77-.69,2.78-.69,1.15,0,2.11,.29,2.89,.87,.78,.58,1.33,1.4,1.63,2.46l-1.49,.35c-.27-.83-.65-1.44-1.16-1.82-.5-.38-1.14-.57-1.9-.57-.88,0-1.62,.21-2.21,.63-.59,.42-1.01,.99-1.25,1.7-.24,.71-.36,1.44-.36,2.2,0,.97,.14,1.82,.42,2.55,.28,.73,.72,1.27,1.32,1.63,.6,.36,1.25,.54,1.95,.54,.85,0,1.57-.24,2.15-.73,.59-.49,.99-1.22,1.2-2.18Z"/><path id="jb" class="jp" d="M342.23,18.65V7.2h1.55l6.02,8.99V7.2h1.45v11.45h-1.55l-6.01-9v9h-1.45Z"/><path id="jc" class="jp" d="M356.71,18.65V8.55h-3.77v-1.35h9.08v1.35h-3.79v10.1h-1.52Z"/><path id="jd" class="jp" d="M367.74,18.65V7.2h3.94c.89,0,1.57,.05,2.04,.16,.65,.15,1.21,.42,1.68,.82,.6,.51,1.06,1.16,1.35,1.96,.3,.79,.45,1.7,.45,2.72,0,.87-.1,1.64-.3,2.31-.2,.67-.46,1.23-.78,1.67-.32,.44-.67,.79-1.04,1.04-.38,.25-.83,.44-1.36,.57s-1.15,.19-1.84,.19h-4.13Zm1.51-1.35h2.44c.75,0,1.35-.07,1.78-.21s.77-.34,1.03-.59c.36-.36,.64-.84,.84-1.45s.3-1.34,.3-2.21c0-1.2-.2-2.12-.59-2.76s-.87-1.07-1.43-1.29c-.41-.16-1.06-.23-1.96-.23h-2.41v8.75Z"/><path id="je" class="jp" d="M379.12,8.82v-1.62h1.41v1.62h-1.41Zm0,9.83V10.36h1.41v8.3h-1.41Z"/><path id="jf" class="jp" d="M388.08,17.63c-.52,.44-1.02,.75-1.5,.94-.48,.18-1,.27-1.55,.27-.91,0-1.61-.22-2.1-.67s-.73-1.01-.73-1.71c0-.41,.09-.78,.28-1.11,.18-.34,.43-.61,.73-.81s.64-.36,1.01-.46c.27-.07,.69-.14,1.25-.21,1.13-.13,1.97-.3,2.51-.48,0-.19,0-.32,0-.37,0-.57-.13-.98-.4-1.21-.36-.32-.89-.47-1.6-.47-.66,0-1.15,.12-1.46,.35s-.55,.64-.7,1.23l-1.37-.19c.12-.59,.33-1.06,.62-1.42,.29-.36,.7-.64,1.24-.83,.54-.2,1.17-.29,1.88-.29s1.28,.08,1.72,.25c.44,.17,.77,.38,.98,.63,.21,.25,.35,.57,.44,.96,.05,.24,.07,.67,.07,1.29v1.87c0,1.31,.03,2.14,.09,2.48,.06,.34,.18,.68,.36,.99h-1.47c-.14-.29-.24-.63-.28-1.02Zm-.12-3.14c-.51,.21-1.28,.39-2.3,.53-.58,.08-.99,.18-1.23,.28-.24,.1-.42,.25-.55,.45-.13,.2-.19,.42-.19,.67,0,.37,.14,.69,.42,.94,.28,.25,.7,.37,1.25,.37s1.02-.12,1.44-.35c.42-.24,.73-.56,.93-.97,.15-.32,.23-.79,.23-1.4v-.52Z"/><path id="jg" class="jp" d="M391.56,18.65V10.36h1.26v1.16c.26-.41,.61-.73,1.04-.98,.43-.25,.93-.37,1.48-.37,.61,0,1.12,.13,1.51,.38s.67,.61,.83,1.07c.66-.97,1.51-1.45,2.56-1.45,.82,0,1.46,.23,1.9,.68,.44,.45,.66,1.16,.66,2.1v5.69h-1.4v-5.23c0-.56-.05-.97-.14-1.21-.09-.25-.25-.45-.49-.6-.24-.15-.52-.23-.84-.23-.58,0-1.07,.19-1.45,.58-.38,.39-.58,1.01-.58,1.86v4.82h-1.4v-5.39c0-.62-.11-1.09-.34-1.4-.23-.31-.6-.47-1.12-.47-.39,0-.76,.1-1.1,.31-.33,.21-.58,.51-.73,.91-.15,.4-.23,.98-.23,1.73v4.3h-1.4Z"/><path id="jh" class="jp" d="M410.57,15.98l1.45,.18c-.23,.85-.65,1.51-1.27,1.98-.62,.47-1.41,.7-2.37,.7-1.21,0-2.18-.37-2.89-1.12-.71-.75-1.07-1.8-1.07-3.14s.36-2.48,1.08-3.25c.72-.77,1.65-1.16,2.8-1.16s2.02,.38,2.72,1.13,1.05,1.82,1.05,3.19c0,.08,0,.21,0,.37h-6.19c.05,.91,.31,1.61,.77,2.09,.46,.48,1.04,.72,1.73,.72,.51,0,.95-.13,1.32-.4,.36-.27,.65-.7,.87-1.3Zm-4.62-2.27h4.63c-.06-.7-.24-1.22-.53-1.57-.45-.54-1.03-.81-1.74-.81-.65,0-1.19,.22-1.63,.65s-.68,1.01-.73,1.73Z"/><path id="ji" class="jp" d="M416.86,17.4l.2,1.24c-.39,.08-.75,.12-1.06,.12-.51,0-.91-.08-1.19-.24-.28-.16-.48-.37-.59-.64-.11-.26-.17-.82-.17-1.66v-4.77h-1.03v-1.09h1.03v-2.05l1.4-.84v2.9h1.41v1.09h-1.41v4.85c0,.4,.02,.66,.07,.77,.05,.11,.13,.2,.24,.27,.11,.07,.27,.1,.48,.1,.16,0,.36-.02,.62-.05Z"/><path id="jj" class="jp" d="M423.91,15.98l1.45,.18c-.23,.85-.65,1.51-1.27,1.98-.62,.47-1.41,.7-2.37,.7-1.21,0-2.18-.37-2.89-1.12-.71-.75-1.07-1.8-1.07-3.14s.36-2.48,1.08-3.25c.72-.77,1.65-1.16,2.8-1.16s2.02,.38,2.72,1.13,1.05,1.82,1.05,3.19c0,.08,0,.21,0,.37h-6.19c.05,.91,.31,1.61,.77,2.09,.46,.48,1.04,.72,1.73,.72,.51,0,.95-.13,1.32-.4,.36-.27,.65-.7,.87-1.3Zm-4.62-2.27h4.63c-.06-.7-.24-1.22-.53-1.57-.45-.54-1.03-.81-1.74-.81-.65,0-1.19,.22-1.63,.65s-.68,1.01-.73,1.73Z"/><path id="jk" class="jp" d="M427.12,18.65V10.36h1.26v1.26c.32-.59,.62-.98,.89-1.16,.27-.19,.57-.28,.9-.28,.47,0,.95,.15,1.44,.45l-.48,1.3c-.34-.2-.69-.3-1.03-.3-.31,0-.58,.09-.83,.28s-.42,.44-.52,.77c-.16,.5-.23,1.05-.23,1.64v4.34h-1.4Z"/></g></g></g></g></g></g></svg>